<svg width="500" height="394" viewBox="0 0 500 394" fill="none" xmlns="http://www.w3.org/2000/svg">
<path d="M371.504 77.7092C367.584 85.0221 362.013 90.6212 356.627 96.0365C348.559 104.146 340.939 111.808 338.989 124.577C337.131 136.752 336.458 151.798 347.847 160.148C354.81 165.25 363.956 168.32 372.804 171.289C376.55 172.545 380.086 173.734 383.441 175.06C386.32 176.199 389.194 177.053 391.975 177.88C399.749 180.194 407.088 182.378 412.884 190.137C417.154 195.851 419.47 202.796 421.712 209.512C423.444 214.705 425.238 220.075 427.909 224.745C433.28 234.139 441.412 236.933 450.023 239.889C454.534 241.439 459.153 243.038 463.625 245.602C454.4 235.162 445.818 224.464 442.276 211.176C436.534 189.641 445.649 167.246 447.507 145.035C450.107 113.93 437.394 81.9081 414.166 61.0595C397.623 46.2105 380.581 39.2702 363.195 37.1248C377.53 51.3549 377.243 67.0132 371.504 77.7092" fill="#536DFE" fill-opacity="0.2"/>
<path d="M483.222 269.07C479.614 263.845 475.456 258.932 471.183 254.098C469.79 252.95 468.388 251.834 467.027 250.759C461.425 246.333 455.235 244.208 449.25 242.153C440.202 239.044 431.653 236.107 425.835 225.933C423.048 221.058 421.218 215.573 419.45 210.271C417.267 203.733 415.01 196.975 410.973 191.571C405.65 184.446 398.999 182.466 391.295 180.175C388.467 179.331 385.538 178.461 382.564 177.284C379.268 175.979 375.758 174.802 372.045 173.556C363.025 170.529 353.696 167.399 346.438 162.075C334.012 152.97 334.668 137.061 336.628 124.219C338.696 110.68 346.952 102.381 354.936 94.3554C360.2 89.0616 365.645 83.5872 369.401 76.5829C377.628 61.2497 370.113 46.532 359.227 36.7175C338.583 35.0218 317.47 39.7264 296.134 45.7031C294.571 58.7809 291.572 70.772 282.588 79.1059C272.59 88.3836 258.217 89.9923 243.128 90.9296C224.589 92.0819 199.159 98.4427 183.302 122.197C173.273 137.223 170.921 155.874 169.877 173.791C169.719 176.499 169.584 179.216 169.45 181.938C168.687 197.348 167.897 213.285 162.661 228.039C155.651 247.783 140.384 261.987 123.764 264.224C122.101 264.447 120.445 264.554 118.81 264.554C100.914 264.556 84.9275 251.721 76.4738 237.991C71.4278 229.8 69.0788 220.378 66.8087 211.268C64.1757 200.703 61.6888 190.724 55.3559 182.625C51.0634 177.136 46.2817 172.016 41.1865 167.366C36.569 184.367 26.9071 200.26 18.2072 215.871C6.51479 236.855 -4.08926 260.862 1.56734 284.211C10.7843 322.258 48.3156 327.028 75.525 347.535C90.8681 359.099 103.718 375.06 107.716 393.852H458.339C479.043 379.823 493.807 365.145 498.419 340.565C503.03 315.984 497.433 289.649 483.222 269.07" fill="#536DFE" fill-opacity="0.2"/>
<path d="M43.9244 149.379C43.7996 154.614 43.0347 159.724 41.8381 164.738C47.3912 169.707 52.5964 175.219 57.2369 181.153C63.885 189.655 66.5492 200.349 69.1279 210.69C71.3538 219.625 73.6552 228.863 78.5074 236.741C87.3305 251.065 104.643 264.385 123.447 261.858C142.575 259.28 155.313 241.601 160.412 227.242C165.531 212.818 166.313 197.059 167.066 181.821C167.201 179.092 167.335 176.367 167.493 173.652C168.56 155.398 170.97 136.37 181.316 120.874C197.718 96.3027 223.905 89.7334 242.982 88.545C257.623 87.6372 271.544 86.0975 280.966 77.3566C289.174 69.7416 292.104 58.6271 293.647 46.4061C276.446 51.2928 259.108 56.8739 241.766 60.4639C216.257 65.7446 189.533 64.8352 164.376 58.1395C139.817 51.6014 120.796 40.0108 94.4283 40.6116C71.1519 41.1435 46.49 53.6172 39.054 75.6789C31.1141 99.2312 44.5137 124.528 43.9244 149.379" fill="#536DFE" fill-opacity="0.2"/>
<path d="M377.532 273.886C399.049 272.806 417.365 289.376 418.443 310.892C419.522 332.407 402.954 350.725 381.437 351.802C359.92 352.882 341.605 336.313 340.526 314.797C339.448 293.281 356.017 274.963 377.532 273.886ZM319.155 319.573C319.625 323.35 320.439 327.104 321.637 330.784L305.46 342.112L305.454 342.156L325.891 371.335L325.935 371.342L342.112 360.011C345.168 362.404 348.405 364.436 351.797 366.18V366.181L348.371 385.63L348.395 385.666L383.479 391.848L383.517 391.821L386.946 372.357C390.716 371.907 394.487 371.071 398.159 369.893L409.484 386.061L409.528 386.066L438.706 365.63L438.714 365.587L427.386 349.413C429.764 346.367 431.818 343.105 433.55 339.724L453.001 343.151L453.036 343.125L459.218 308.041L459.192 308.005L439.73 304.577V304.576C439.275 300.797 438.446 297.045 437.26 293.364L453.432 282.038L453.44 281.994L433 252.816L432.957 252.81L416.779 264.141C413.73 261.746 410.485 259.714 407.095 257.969V257.967L410.521 238.52L410.495 238.484L375.413 232.304L375.377 232.329L371.949 251.782C368.171 252.255 364.418 253.067 360.739 254.267L349.41 238.09L349.364 238.082L320.188 258.52L320.18 258.565L331.506 274.735C329.134 277.787 327.074 281.033 325.35 284.428L305.892 281.001L305.854 281.025L299.676 316.109L299.7 316.145L319.155 319.573" fill="white"/>
<path d="M248.75 216.681C260.278 216.103 270.089 224.98 270.667 236.507C271.245 248.033 262.369 257.844 250.843 258.424C239.316 259 229.503 250.124 228.925 238.6C228.349 227.071 237.225 217.26 248.75 216.681ZM217.478 241.157C217.729 243.181 218.164 245.192 218.806 247.162L210.142 253.232L210.137 253.255L221.086 268.887L221.109 268.892L229.776 262.82C231.412 264.103 233.146 265.192 234.965 266.126L233.129 276.544L233.141 276.564L251.938 279.875L251.956 279.862L253.794 269.435C255.813 269.194 257.832 268.746 259.8 268.114L265.867 276.774L265.892 276.779L281.522 265.83L281.526 265.807L275.457 257.142C276.731 255.51 277.832 253.764 278.761 251.951L289.18 253.787L289.2 253.775L292.511 234.978L292.497 234.96L282.071 233.124C281.828 231.098 281.383 229.089 280.748 227.116L289.411 221.049L289.415 221.024L278.466 205.394L278.443 205.39L269.776 211.461C268.143 210.179 266.403 209.09 264.589 208.155L266.424 197.736L266.409 197.716L247.616 194.405L247.596 194.419L245.759 204.84C243.737 205.093 241.726 205.528 239.754 206.172L233.686 197.505L233.661 197.501L218.029 208.45L218.026 208.473L224.095 217.135C222.822 218.77 221.719 220.512 220.797 222.329L210.372 220.492L210.352 220.507L207.041 239.3L207.054 239.32L217.478 241.157" fill="white"/>
<path d="M435.111 154.473C435.111 170.154 422.398 182.867 406.717 182.867C391.032 182.867 378.32 170.154 378.32 154.473C378.32 138.79 391.032 126.076 406.717 126.076C422.398 126.076 435.111 138.79 435.111 154.473" fill="#EEDA36"/>
<path d="M417.171 190.191H396.26V168.266H417.171V190.191Z" fill="#EEDA36"/>
<path d="M401.079 190.992C400.641 190.992 400.284 190.636 400.284 190.194V173.876L391.914 159.984C391.688 159.607 391.811 159.119 392.185 158.891C392.561 158.669 393.05 158.784 393.279 159.164L401.762 173.244L401.875 173.655V190.194C401.875 190.636 401.521 190.992 401.079 190.992" fill="#040606"/>
<path d="M412.349 190.992C411.911 190.992 411.553 190.636 411.553 190.194V173.655L411.666 173.244L420.149 159.164C420.381 158.784 420.873 158.669 421.242 158.891C421.62 159.119 421.74 159.607 421.515 159.984L413.147 173.876V190.194C413.147 190.636 412.79 190.992 412.349 190.992" fill="#040606"/>
<path d="M406.716 204.816C400.94 204.816 396.26 200.135 396.26 194.36V190.196H417.171V194.36C417.171 200.135 412.489 204.816 406.716 204.816" fill="#DB7294"/>
<path d="M417.172 161C416.857 161 416.56 160.812 416.435 160.504L414.573 155.917L410.496 159.256C410.307 159.412 410.053 159.475 409.816 159.416C409.578 159.361 409.376 159.199 409.271 158.977L406.716 153.516L404.16 158.977C404.056 159.199 403.854 159.361 403.613 159.416C403.38 159.473 403.124 159.412 402.934 159.256L398.859 155.917L396.998 160.504C396.832 160.909 396.374 161.108 395.961 160.94C395.553 160.776 395.358 160.313 395.524 159.903L397.791 154.319C397.886 154.084 398.086 153.908 398.331 153.848C398.572 153.78 398.836 153.841 399.032 154.002L403.15 157.375L405.993 151.302C406.258 150.742 407.172 150.742 407.436 151.302L410.281 157.375L414.399 154.002C414.596 153.843 414.861 153.782 415.1 153.848C415.347 153.908 415.547 154.084 415.64 154.319L417.909 159.903C418.075 160.313 417.879 160.776 417.471 160.94L417.172 161" fill="#040606"/>
<path d="M418.986 121.688L418.722 121.643C418.309 121.497 418.089 121.042 418.235 120.627L424.22 103.585C424.366 103.171 424.822 102.953 425.236 103.099C425.649 103.245 425.868 103.698 425.722 104.114L419.737 121.156C419.622 121.482 419.315 121.688 418.986 121.688" fill="#040606"/>
<path d="M459.039 175.598L458.776 175.552L441.734 169.567C441.321 169.421 441.102 168.968 441.249 168.552C441.395 168.139 441.848 167.915 442.263 168.066L459.303 174.05C459.717 174.196 459.937 174.651 459.791 175.064C459.674 175.392 459.367 175.598 459.039 175.598" fill="#040606"/>
<path d="M440.419 140.883C440.123 140.883 439.838 140.717 439.7 140.431C439.509 140.036 439.677 139.56 440.074 139.368L456.354 131.551C456.753 131.365 457.228 131.528 457.418 131.924C457.608 132.319 457.441 132.795 457.045 132.987L440.763 140.804L440.419 140.883" fill="#040606"/>
<path d="M390.256 123.27C389.96 123.27 389.676 123.104 389.539 122.818L381.719 106.536C381.53 106.141 381.695 105.664 382.093 105.474C382.49 105.289 382.963 105.449 383.155 105.847L390.975 122.129C391.164 122.526 390.998 123.002 390.601 123.192L390.256 123.27Z" fill="#040606"/>
<path d="M372.864 141.746L372.6 141.7L355.559 135.717C355.146 135.569 354.926 135.116 355.073 134.701C355.219 134.287 355.672 134.067 356.088 134.215L373.128 140.198C373.542 140.344 373.762 140.799 373.616 141.213C373.499 141.541 373.192 141.746 372.864 141.746" fill="#040606"/>
<path d="M432.424 204.371C432.127 204.371 431.843 204.204 431.703 203.921L423.888 187.639C423.696 187.24 423.864 186.766 424.261 186.574C424.658 186.392 425.131 186.553 425.325 186.948L433.141 203.23C433.332 203.626 433.164 204.102 432.769 204.292L432.424 204.371" fill="#040606"/>
<path d="M111.99 354.809L111.948 354.807L63.8861 352.302C63.6251 352.291 63.3855 352.148 63.2492 351.928C63.1114 351.705 63.0933 351.429 63.1983 351.189L83.5398 304.662C83.7171 304.26 84.1882 304.08 84.5871 304.252C84.9909 304.428 85.1747 304.897 84.9974 305.299L65.1172 350.774L112.031 353.218C112.471 353.238 112.808 353.614 112.783 354.054C112.763 354.477 112.412 354.809 111.99 354.809Z" fill="#040606"/>
<path d="M94.7517 302.563C96.0846 308.354 92.4733 314.127 86.6854 315.462C80.8942 316.794 75.121 313.183 73.7865 307.394C72.4536 301.604 76.0648 295.831 81.8544 294.496C87.644 293.163 93.4171 296.775 94.7517 302.563" fill="#672ED6"/>
<path d="M74.4098 349.09C75.7443 354.878 72.133 360.654 66.3418 361.989C60.5539 363.322 54.7791 359.709 53.4462 353.919C52.1117 348.131 55.723 342.358 61.5125 341.024C67.3021 339.691 73.0769 343.302 74.4098 349.09Z" fill="#EEDA36"/>
<path d="M122.472 351.592C123.805 357.381 120.194 363.154 114.406 364.489C108.615 365.822 102.842 362.211 101.507 356.423C100.174 350.633 103.786 344.858 109.575 343.524C115.363 342.191 121.138 345.802 122.472 351.592Z" fill="#DB7294"/>
<path d="M360.268 27.0884C360.249 26.6698 360.559 26.307 360.979 26.2627L408.839 21.1839C409.098 21.1576 409.356 21.2594 409.527 21.4564C409.696 21.6517 409.758 21.9225 409.694 22.177L396.913 71.3218C396.802 71.7469 396.367 72.0014 395.94 71.893C395.516 71.783 395.262 71.353 395.372 70.9213L407.862 22.8894L361.147 27.8467C360.708 27.8927 360.318 27.5758 360.272 27.1376L360.268 27.0884" fill="#040606"/>
<path d="M386.169 75.1547C383.943 69.6474 386.604 63.377 392.111 61.1511C397.62 58.9252 403.889 61.5844 406.115 67.0917C408.343 72.6005 405.682 78.8694 400.173 81.0953C394.667 83.3228 388.397 80.6635 386.169 75.1547Z" fill="#DB7294"/>
<path d="M398.949 26.0103C396.723 20.5015 399.382 14.2326 404.889 12.0067C410.398 9.77921 416.667 12.4401 418.895 17.9489C421.121 23.4545 418.46 29.725 412.952 31.9526C407.445 34.1768 401.175 31.5176 398.949 26.0103" fill="#672ED6"/>
<path d="M351.091 31.0885C348.865 25.5796 351.525 19.3108 357.032 17.0832C362.541 14.8574 368.81 17.5182 371.036 23.0255C373.263 28.5327 370.604 34.8032 365.095 37.0307C359.588 39.2549 353.317 36.5957 351.091 31.0885Z" fill="#EEDA36"/>
<path d="M141.137 94.5702C141.137 110.253 128.425 122.965 112.743 122.965C97.0614 122.965 84.3496 110.253 84.3496 94.5702C84.3496 78.8906 97.0614 66.1773 112.743 66.1773C128.425 66.1773 141.137 78.8906 141.137 94.5702Z" fill="#672ED6"/>
<path d="M112.742 115.008C101.477 115.008 92.3105 105.842 92.3105 94.5728C92.3105 83.3056 101.477 74.1411 112.742 74.1411C124.009 74.1411 133.176 83.3056 133.176 94.5728C133.176 105.842 124.009 115.008 112.742 115.008Z" fill="#EEDA36"/>
<path d="M114.334 103.52C114.154 103.52 113.973 103.457 113.825 103.334L100.07 91.924C99.7298 91.645 99.6838 91.141 99.9662 90.8029C100.245 90.4631 100.744 90.4188 101.086 90.6995L114.262 101.627L149.231 63.6968C149.528 63.3718 150.035 63.3537 150.355 63.6492C150.679 63.948 150.7 64.4519 150.4 64.7753L114.919 103.262C114.763 103.433 114.548 103.52 114.334 103.52" fill="#040606"/>
<path d="M180.561 221.8L161.645 255.088L216.535 294.591C226.994 302.307 241.866 298.97 248.025 287.521C254.182 276.073 246.59 253.197 231.559 241.091C216.526 228.985 180.561 221.8 180.561 221.8Z" fill="#FF9976"/>
<path d="M191.166 235.763C189.316 225.33 179.355 218.37 168.92 220.221C158.485 222.073 151.527 232.034 153.378 242.469C155.23 252.904 165.191 259.862 175.626 258.01C186.061 256.159 193.017 246.198 191.166 235.763" fill="#FF9976"/>
<path d="M156.855 227.658L211.174 149.408L234.987 154.553L188.65 249.109L156.855 227.658" fill="#FF9976"/>
<path d="M187.156 273.446L215.667 232.3L193.893 278.293L187.156 273.446Z" fill="#040606"/>
<path d="M355.199 391.457H242.607C236.143 288.973 250.316 260.646 250.316 260.646C250.316 260.646 271.747 252.343 298.902 252.343C326.059 252.343 347.491 260.646 347.491 260.646L355.199 391.457" fill="#4178C5"/>
<path d="M261.617 317.637L191.078 284.245L217.107 229.262L287.646 262.653L261.617 317.637Z" fill="#3B7BC8"/>
<path d="M302.015 277.105C288.82 277.105 277.786 267.225 276.347 254.121C276.299 253.685 276.614 253.291 277.051 253.241C277.482 253.197 277.878 253.511 277.929 253.947C279.28 266.242 289.634 275.513 302.015 275.513C313.883 275.513 324.18 266.674 325.971 254.953C326.036 254.518 326.45 254.22 326.877 254.287C327.313 254.354 327.61 254.76 327.543 255.195C325.637 267.685 314.664 277.105 302.015 277.105" fill="#040606"/>
<path d="M339.03 377.223L377.205 374.288L379.253 306.692C379.8 293.705 368.716 283.244 355.781 284.542C342.848 285.839 328.13 304.928 326.502 324.158C324.87 343.39 339.03 377.223 339.03 377.223" fill="#FF9976"/>
<path d="M344.673 360.624C337.058 367.995 336.861 380.142 344.231 387.758C351.602 395.373 363.75 395.572 371.367 388.2C378.98 380.829 379.177 368.681 371.807 361.066C364.436 353.451 352.288 353.252 344.673 360.624" fill="#FF9976"/>
<path d="M357.146 393.602H251.133L242.08 370.983L357.146 355.246V393.602" fill="#FF9976"/>
<path d="M330.074 349.955H377.942L377.704 357.836L330.074 349.955Z" fill="#040606"/>
<path d="M380.717 349.953H327.89C314.504 267.594 347.49 260.644 347.49 260.644C367.752 267.752 380.717 284.254 380.717 307.699V349.953" fill="#3B7BC8"/>
<path d="M380.717 350.754H327.892C327.502 350.754 327.17 350.472 327.108 350.086C322.784 323.497 325.228 304.925 328.513 288.815C328.603 288.384 329.032 288.106 329.452 288.193C329.884 288.282 330.163 288.702 330.074 289.134C326.847 304.958 324.437 323.183 328.569 349.162H380.717C381.157 349.162 381.514 349.518 381.514 349.958C381.514 350.398 381.157 350.754 380.717 350.754Z" fill="#040606"/>
<path d="M310.186 385.96H162.1V393.602H310.186V385.96Z" fill="#1E1C17"/>
<path d="M262.047 393.602H162.1L137.986 317.874H237.932L262.047 393.602Z" fill="#040606"/>
<path d="M315.879 125.873L104.784 219.773L87.6914 181.348L298.786 87.4474L315.879 125.873Z" fill="#EEDA36"/>
<path d="M89.7892 226.444L104.783 219.776L87.6897 181.35L72.6979 188.018C62.4681 192.57 57.8637 204.549 62.4139 214.781L63.0278 216.161C67.5781 226.391 79.561 230.995 89.7892 226.444Z" fill="#DB7294"/>
<path d="M102.891 190.027C102.586 190.027 102.296 189.85 102.163 189.555C101.984 189.152 102.166 188.681 102.568 188.502L303.899 98.944C304.3 98.7683 304.771 98.9456 304.95 99.3494C305.129 99.7516 304.948 100.223 304.544 100.4L103.215 189.958L102.891 190.027" fill="#040606"/>
<path d="M109.109 204C108.802 204 108.513 203.826 108.382 203.527C108.201 203.127 108.385 202.656 108.786 202.478L310.117 112.92C310.518 112.743 310.989 112.921 311.168 113.324C311.347 113.724 311.164 114.195 310.764 114.376L109.431 203.933L109.109 204" fill="#040606"/>
<path d="M298.785 87.4492L315.878 125.875L357.324 84.4255L298.785 87.4492Z" fill="white"/>
<path d="M345.532 85.0347L343.117 98.6328L357.324 84.4257L345.532 85.0347Z" fill="#040606"/>
<path d="M295.23 96.7015C296.804 100.237 300.945 101.83 304.483 100.257L298.785 87.4484C295.248 89.021 293.657 93.1641 295.23 96.7015" fill="white"/>
<path d="M300.929 109.509C302.502 113.045 306.645 114.639 310.183 113.065L304.485 100.256C300.948 101.829 299.355 105.972 300.929 109.509" fill="white"/>
<path d="M306.625 122.318C308.197 125.855 312.342 127.447 315.878 125.873L310.18 113.065C306.643 114.639 305.051 118.78 306.625 122.318" fill="white"/>
<path d="M211.549 142.929C208.59 144.114 205.231 142.673 204.046 139.712L203.142 137.451C200.776 131.53 203.657 124.81 209.578 122.445L214.768 135.426C215.952 138.387 214.511 141.747 211.549 142.929Z" fill="#FF9976"/>
<path d="M222.274 138.645C219.314 139.828 215.954 138.387 214.771 135.426L209.58 122.445L220.301 118.157L225.491 131.141C226.675 134.099 225.233 137.46 222.274 138.645Z" fill="#FF9976"/>
<path d="M232.994 134.36C230.033 135.542 226.673 134.101 225.489 131.143L220.299 118.159L231.021 113.873L236.211 126.855C237.393 129.817 235.954 133.175 232.994 134.36" fill="#FF9976"/>
<path d="M243.715 130.074C240.754 131.258 237.394 129.818 236.212 126.857L231.021 113.874C236.942 111.507 243.661 114.39 246.028 120.309L246.933 122.571C248.116 125.532 246.676 128.892 243.715 130.074Z" fill="#FF9976"/>
<path d="M232.241 143.209C234.492 140.121 238.817 139.442 241.905 141.692L255.442 151.558L254.336 153.078C250.447 158.413 242.97 159.586 237.635 155.699L233.756 152.873C230.67 150.622 229.992 146.295 232.241 143.209" fill="#FF9976"/>
<path d="M336.618 213.922C331.927 213.922 328.125 210.12 328.125 205.43V167.909C328.125 163.219 331.927 159.416 336.618 159.416C341.308 159.416 345.11 163.219 345.11 167.909V205.43C345.11 210.12 341.308 213.922 336.618 213.922Z" fill="#040606"/>
<path d="M325.616 201.381C324.307 207.613 328.296 213.728 334.529 215.036C340.762 216.346 346.876 212.357 348.185 206.124C349.495 199.892 345.506 193.78 339.273 192.469C333.042 191.157 326.927 195.149 325.616 201.381Z" fill="#FF9976"/>
<path d="M301.714 244.414C283.174 244.414 268.146 229.383 268.146 210.845V187.769C268.146 174.76 278.691 164.215 291.699 164.215H311.727C324.734 164.215 335.28 174.76 335.28 187.769V210.845C335.28 229.383 320.253 244.414 301.714 244.414" fill="#FF9976"/>
<path d="M302.015 268.348C292.587 268.348 284.945 260.705 284.945 251.279V218.456H319.082V251.279C319.082 260.705 311.441 268.348 302.015 268.348Z" fill="#FF9976"/>
<path d="M336.677 175.021C334.842 183.713 282.202 179.95 273.511 178.114C264.821 176.278 259.264 167.743 261.101 159.053C262.936 150.361 271.47 144.803 280.162 146.64C288.854 148.476 338.514 166.329 336.677 175.021" fill="#040606"/>
<path d="M336.678 175.023C334.207 179.537 290.463 151.631 285.949 149.159C281.436 146.689 279.782 141.029 282.251 136.515C284.721 132.002 289.928 131.48 294.897 132.816C306.643 135.978 339.148 170.51 336.678 175.023" fill="#040606"/>
<path d="M311.994 199.889C312.055 201.614 311.168 203.085 310.039 203.168C308.939 203.247 308.022 201.975 307.964 200.327C307.903 198.679 308.726 197.218 309.822 197.057C310.948 196.895 311.933 198.16 311.994 199.889" fill="#040606"/>
<path d="M302.692 223.934C301.719 223.934 300.859 223.789 300.188 223.494C299.784 223.316 299.601 222.849 299.779 222.445C299.958 222.043 300.427 221.862 300.828 222.036C302.233 222.66 305.087 222.318 307.761 221.219C310.621 220.042 312.349 218.425 312.797 217.343C312.963 216.939 313.431 216.742 313.838 216.913C314.244 217.08 314.436 217.545 314.267 217.952C313.559 219.667 311.297 221.484 308.367 222.689C306.382 223.507 304.367 223.934 302.692 223.934Z" fill="#040606"/>
<path d="M311.521 192.938C314.866 193.619 317.812 195.006 320.152 196.843C320.892 197.424 321.882 196.613 321.547 195.735C320.326 192.534 317.013 189.855 312.691 188.975C311.227 188.676 309.776 188.614 308.398 188.755C306.025 189 306.112 192.383 308.494 192.534C309.492 192.598 310.503 192.731 311.521 192.938Z" fill="#040606"/>
<path d="M281.484 199.889C281.421 201.614 282.309 203.085 283.435 203.168C284.535 203.247 285.454 201.975 285.513 200.327C285.571 198.679 284.75 197.218 283.654 197.057C282.528 196.895 281.544 198.16 281.484 199.889Z" fill="#040606"/>
<path d="M281.953 192.938C278.607 193.619 275.663 195.006 273.322 196.843C272.581 197.424 271.592 196.613 271.926 195.735C273.149 192.534 276.46 189.855 280.781 188.975C282.248 188.676 283.698 188.614 285.073 188.755C287.448 189 287.363 192.383 284.981 192.534C283.982 192.598 282.97 192.731 281.953 192.938" fill="#040606"/>
<path d="M292.512 216.242C292.305 216.242 292.102 216.163 291.952 216.012C291.759 215.82 291.677 215.541 291.736 215.275L295.826 196.871C295.921 196.442 296.347 196.175 296.777 196.265C297.205 196.362 297.476 196.787 297.381 197.217L293.563 214.391L298.561 213.25C298.994 213.148 299.418 213.422 299.515 213.849C299.613 214.277 299.346 214.704 298.916 214.801L292.691 216.224L292.512 216.242" fill="#040606"/>
<path d="M203.173 352.916C204.378 358.174 201.804 363.252 197.423 364.255C193.041 365.262 188.513 361.811 187.308 356.553C186.1 351.294 188.675 346.215 193.056 345.212C197.437 344.206 201.966 347.656 203.173 352.916" fill="#F9B131"/>
<path d="M69.963 117.561C65.6163 117.561 62.0805 121.1 62.0805 125.447C62.0805 129.792 65.6163 133.331 69.963 133.331C74.3113 133.331 77.8488 129.792 77.8488 125.447C77.8488 121.1 74.3113 117.561 69.963 117.561ZM69.963 134.922C64.7381 134.922 60.4883 130.672 60.4883 125.447C60.4883 120.221 64.7381 115.971 69.963 115.971C75.1895 115.971 79.441 120.221 79.441 125.447C79.441 130.672 75.1895 134.922 69.963 134.922Z" fill="#040606"/>
<path d="M127.206 23.9378L136.802 32.7346L139.624 20.0261L127.206 23.9378ZM137.28 35.0508C137.084 35.0508 136.892 34.9769 136.743 34.8407L125.114 24.1791C124.904 23.9871 124.814 23.6998 124.873 23.4208C124.937 23.1417 125.142 22.9201 125.413 22.8331L140.461 18.0941C140.733 18.0104 141.027 18.0711 141.237 18.2665C141.447 18.4569 141.538 18.7458 141.477 19.0248L138.058 34.427C137.997 34.7061 137.792 34.926 137.521 35.013L137.28 35.0508" fill="#040606"/>
<path d="M111.082 11.1254C111.082 11.8657 110.482 12.4648 109.744 12.4648C109.003 12.4648 108.404 11.8657 108.404 11.1254C108.404 10.3867 109.003 9.78755 109.744 9.78755C110.482 9.78755 111.082 10.3867 111.082 11.1254Z" fill="#040606"/>
<path d="M129.707 55.9786C129.707 56.7173 129.107 57.3164 128.367 57.3164C127.628 57.3164 127.029 56.7173 127.029 55.9786C127.029 55.2383 127.628 54.6391 128.367 54.6391C129.107 54.6391 129.707 55.2383 129.707 55.9786Z" fill="#040606"/>
<path d="M167.947 1.33629C167.947 2.07661 167.346 2.67578 166.607 2.67578C165.869 2.67578 165.27 2.07661 165.27 1.33629C165.27 0.59762 165.869 -0.00151097 166.607 -0.00151097C167.346 -0.00151097 167.947 0.59762 167.947 1.33629Z" fill="#040606"/>
<path d="M54.6851 110.557C54.6851 111.297 54.0859 111.895 53.3456 111.895C52.6069 111.895 52.0078 111.297 52.0078 110.557C52.0078 109.816 52.6069 109.219 53.3456 109.219C54.0859 109.219 54.6851 109.816 54.6851 110.557Z" fill="#040606"/>
<path d="M100.322 134.125C100.322 134.863 99.723 135.461 98.9843 135.461C98.2456 135.461 97.6465 134.863 97.6465 134.125C97.6465 133.384 98.2456 132.787 98.9843 132.787C99.723 132.787 100.322 133.384 100.322 134.125Z" fill="#040606"/>
<path d="M28.4058 148.295C28.4058 149.034 27.8066 149.633 27.0663 149.633C26.3276 149.633 25.7285 149.034 25.7285 148.295C25.7285 147.556 26.3276 146.956 27.0663 146.956C27.8066 146.956 28.4058 147.556 28.4058 148.295Z" fill="#040606"/>
<path d="M406.713 247.417C402.364 247.417 398.83 250.954 398.83 255.299C398.83 259.648 402.364 263.185 406.713 263.185C411.059 263.185 414.597 259.648 414.597 255.299C414.597 250.954 411.059 247.417 406.713 247.417ZM406.713 264.777C401.488 264.777 397.236 260.526 397.236 255.299C397.236 250.076 401.488 245.825 406.713 245.825C411.938 245.825 416.189 250.076 416.189 255.299C416.189 260.526 411.938 264.777 406.713 264.777Z" fill="#040606"/>
<path d="M373.124 208.787L367.522 220.537L380.5 219.516L373.124 208.787ZM366.209 222.234C365.948 222.234 365.702 222.108 365.554 221.89C365.391 221.655 365.367 221.353 365.49 221.095L372.281 206.858C372.404 206.599 372.653 206.428 372.939 206.407C373.216 206.382 373.494 206.515 373.656 206.749L382.593 219.749C382.755 219.986 382.778 220.286 382.655 220.544C382.532 220.801 382.284 220.972 381.998 220.993L366.271 222.231L366.209 222.234" fill="#040606"/>
<path d="M425.945 241.223C425.945 241.963 425.344 242.562 424.605 242.562C423.867 242.562 423.268 241.963 423.268 241.223C423.268 240.484 423.867 239.887 424.605 239.887C425.344 239.887 425.945 240.484 425.945 241.223Z" fill="#040606"/>
<path d="M362.228 203.752C362.228 204.491 361.629 205.09 360.89 205.09C360.152 205.09 359.551 204.491 359.551 203.752C359.551 203.013 360.152 202.414 360.89 202.414C361.629 202.414 362.228 203.013 362.228 203.752Z" fill="#040606"/>
<path d="M393.937 288.975C393.937 289.713 393.336 290.312 392.598 290.312C391.859 290.312 391.26 289.713 391.26 288.975C391.26 288.236 391.859 287.637 392.598 287.637C393.336 287.637 393.937 288.236 393.937 288.975Z" fill="#040606"/>
</svg>
