<svg width="60" height="60" viewBox="0 0 60 60" fill="none" xmlns="http://www.w3.org/2000/svg">
<path d="M30 60C46.5685 60 60 46.5685 60 30C60 13.4315 46.5685 0 30 0C13.4315 0 0 13.4315 0 30C0 46.5685 13.4315 60 30 60Z" fill="#66B6E8"/>
<path d="M56.25 40.6068C56.25 40.1849 56.2331 39.7667 56.2018 39.3523L46.2261 30L42.2485 33.251L26.25 42.5127L28.9017 44.9762V51.2135L36.2258 58.0798C36.6678 58.1091 37.1139 58.125 37.5639 58.125C47.8839 58.125 56.25 50.2818 56.25 40.6068Z" fill="#2972A0"/>
<path d="M46.3809 29.1865C46.2852 29.0652 46.602 29.4461 41.0862 22.8511C40.7996 22.5082 40.3683 22.4058 39.9938 22.5912C39.6192 22.7767 39.375 23.2138 39.375 23.6985V49.4265C39.375 50.0884 39.8238 50.625 40.3774 50.625H45.7234C46.2015 50.625 46.613 50.2214 46.7065 49.6609L48.5742 38.4628C49.1406 35.0913 48.3196 31.6221 46.3809 29.1865Z" fill="#F5DCCC"/>
<path d="M42.4853 35.1936L37.9315 30.6397C37.3562 30.0644 37.3562 29.1318 37.9315 28.5565C38.5067 27.9812 39.4394 27.9812 40.0147 28.5565L44.5685 33.1103C45.1438 33.6856 45.1438 34.6183 44.5685 35.1936C43.9934 35.7688 43.0606 35.7689 42.4853 35.1936Z" fill="#F0CABB"/>
<path d="M41.25 13.0005V46.9995C41.25 48.9984 39.5293 50.625 37.4148 50.625H20.7102C18.5957 50.625 16.875 48.9984 16.875 46.9995V13.0005C16.875 11.0016 18.5957 9.375 20.7102 9.375H37.4148C39.5293 9.375 41.25 11.0016 41.25 13.0005Z" fill="#BCEAF9"/>
<path d="M39.375 13.0005V46.9995C39.375 48.9984 37.7866 50.625 35.8348 50.625H28.125V9.375H35.8348C37.7866 9.375 39.375 11.0016 39.375 13.0005Z" fill="#78B7EA"/>
<path fill-rule="evenodd" clip-rule="evenodd" d="M29.0626 18.75L33.5206 21.989L31.8178 27.2298H26.3073L24.6045 21.989L29.0626 18.75Z" fill="#FF8686" stroke="white"/>
<path d="M37.4148 9.375H20.7102C18.5957 9.375 16.875 11.0016 16.875 13.0005V46.9995C16.875 48.9984 18.5957 50.625 20.7102 50.625H37.4148C39.5293 50.625 41.25 48.9984 41.25 46.9995V13.0005C41.25 11.0016 39.5293 9.375 37.4148 9.375ZM38.6932 42.9712H19.4318V13.0005C19.4318 12.3342 20.0054 11.792 20.7102 11.792H37.4148C38.1196 11.792 38.6932 12.3342 38.6932 13.0005V42.9712Z" fill="#C0C0C0"/>
<path d="M41.25 13.0005V46.9995C41.25 48.9984 39.3969 50.625 37.1198 50.625H28.125V42.9712H38.4965V13.0005C38.4965 12.3342 37.8788 11.792 37.1198 11.792H28.125V9.375H37.1198C39.3969 9.375 41.25 11.0016 41.25 13.0005Z" fill="#444444"/>
<path d="M37.8596 29.2161C37.2231 28.538 36.3445 28.125 35.372 28.125C33.4411 28.125 31.875 29.7645 31.875 31.7958C31.875 32.7721 32.2353 33.69 32.8898 34.3821L37.1652 39.0674C36.6804 39.4551 36.1181 39.9948 35.5687 40.7257C33.9077 42.9356 33.0655 45.872 33.0655 49.4534V50.625H41.25V32.9113L37.8596 29.2161Z" fill="#F5DCCC"/>
</svg>
