<svg width="60" height="60" viewBox="0 0 60 60" fill="none" xmlns="http://www.w3.org/2000/svg">
<path d="M30 60C46.5685 60 60 46.5685 60 30C60 13.4315 46.5685 0 30 0C13.4315 0 0 13.4315 0 30C0 46.5685 13.4315 60 30 60Z" fill="#66B6E8"/>
<path d="M24.375 31.8539L17.4897 44.6056L13.9623 44.9951C13.3636 45.0612 12.9325 44.4499 13.2123 43.9316L20.7346 30L24.375 31.8539Z" fill="url(#paint0_linear)"/>
<path d="M28.125 33.779L20.7659 46.875L19.77 45.139C19.6148 44.8684 19.2983 44.7135 18.9715 44.7482L16.875 44.971L24.2341 31.875L28.125 33.779Z" fill="url(#paint1_linear)"/>
<path d="M31.875 35.6839L23.8349 50.2174C23.5359 50.7582 22.7205 50.7616 22.4164 50.2233L20.625 47.0527L27.9841 33.75L31.875 35.6839Z" fill="url(#paint2_linear)"/>
<path d="M20.625 41.4482L22.2966 46.875L28.125 35.6167L24.6104 33.75L20.625 41.4482Z" fill="url(#paint3_linear)"/>
<path d="M24.375 31.8298L20.4124 39.375L18.75 34.0559L20.8801 30L24.375 31.8298Z" fill="url(#paint4_linear)"/>
<path d="M35.625 31.8539L42.5102 44.6056L46.0377 44.9951C46.6364 45.0612 47.0675 44.4499 46.7877 43.9316L39.2654 30L35.625 31.8539Z" fill="url(#paint5_linear)"/>
<path d="M31.875 33.779L39.2341 46.875L40.23 45.139C40.3852 44.8684 40.7017 44.7135 41.0285 44.7482L43.125 44.971L35.7659 31.875L31.875 33.779Z" fill="url(#paint6_linear)"/>
<path d="M28.125 35.6839L36.1651 50.2174C36.4641 50.7582 37.2795 50.7616 37.5836 50.2233L39.375 47.0527L32.0159 33.75L28.125 35.6839Z" fill="url(#paint7_linear)"/>
<path d="M39.375 41.4482L37.7034 46.875L31.875 35.6167L35.3897 33.75L39.375 41.4482Z" fill="url(#paint8_linear)"/>
<path d="M35.625 31.8298L39.6755 39.375L43.125 37.3802L39.1972 30L35.625 31.8298Z" fill="url(#paint9_linear)"/>
<path d="M46.5287 25.3007L44.1623 28.0343C43.9135 28.3216 43.7906 28.6943 43.8203 29.0709L44.1036 32.6521C44.159 33.3513 43.6901 33.9864 42.9977 34.1503L39.4516 34.9895C39.078 35.0779 38.7553 35.3089 38.5545 35.6317L36.6508 38.6931C36.2784 39.292 35.519 39.535 34.8603 39.266L31.4925 37.8904C31.1371 37.7452 30.7378 37.7452 30.3825 37.8904L27.0146 39.2658C26.3559 39.5348 25.5965 39.2918 25.2241 38.693L23.3204 35.6315C23.1197 35.3087 22.797 35.0777 22.4234 34.9893L18.8773 34.1501C18.1849 33.9862 17.716 33.3511 17.7713 32.6519L18.0547 29.0709C18.0844 28.6944 17.9615 28.3216 17.7127 28.0343L15.3463 25.3008C14.8846 24.7674 14.8846 23.9827 15.3463 23.4493L17.7127 20.7157C17.9615 20.4284 18.0844 20.0557 18.0547 19.6791L17.7713 16.0979C17.716 15.3987 18.1849 14.7636 18.8773 14.5997L22.4234 13.7605C22.797 13.6721 23.1197 13.4411 23.3205 13.1183L25.2242 10.0569C25.5966 9.458 26.356 9.21501 27.0146 9.48402L30.3826 10.8596C30.7379 11.0047 31.1372 11.0047 31.4926 10.8596L34.8605 9.4841C35.5191 9.21509 36.2786 9.45808 36.651 10.0569L38.5547 13.1184C38.7554 13.4412 39.0781 13.6722 39.4517 13.7606L42.9978 14.5998C43.6902 14.7637 44.1591 15.3988 44.1037 16.098L43.8204 19.6791C43.7907 20.0555 43.9136 20.4283 44.1623 20.7156L46.5288 23.4492C46.9904 23.9825 46.9904 24.7673 46.5287 25.3007Z" fill="url(#paint10_linear)"/>
<path d="M46.6337 24.9812C46.7387 24.8551 46.8185 24.7148 46.875 24.5675L39.0342 16.5444C37.0905 14.4402 34.3394 13.125 31.2865 13.125C25.3983 13.125 20.625 18.0093 20.625 24.0344C20.625 27.1583 21.9103 29.9733 23.9667 31.9622L30.0244 38.1607L30.7403 37.8568C31.0901 37.7084 31.4831 37.7084 31.8329 37.8568L35.148 39.2635C35.7963 39.5386 36.5439 39.2901 36.9105 38.6777L38.7844 35.5466C38.9819 35.2165 39.2995 34.9803 39.6673 34.8899L43.1579 34.0316C43.8395 33.864 44.301 33.2144 44.2465 32.4994L43.9676 28.8368C43.9384 28.4518 44.0593 28.0706 44.3042 27.7767L46.6337 24.9812Z" fill="url(#paint11_linear)"/>
<path d="M30.9375 33.75C36.6329 33.75 41.25 29.1329 41.25 23.4375C41.25 17.7421 36.6329 13.125 30.9375 13.125C25.2421 13.125 20.625 17.7421 20.625 23.4375C20.625 29.1329 25.2421 33.75 30.9375 33.75Z" fill="url(#paint12_linear)"/>
<path d="M28.137 21.0932C28.137 20.7726 28.2483 20.5197 28.4712 20.3347L30.1265 18.4843C30.2431 18.3487 30.3863 18.2808 30.5562 18.2808C30.7472 18.2808 30.9195 18.3394 31.0736 18.4566C31.2272 18.5739 31.3043 18.7312 31.3043 18.9284V31.1777C31.3043 31.3751 31.2192 31.5324 31.0496 31.6495C30.8797 31.7669 30.6835 31.8253 30.4606 31.8253C30.2272 31.8253 30.0282 31.7668 29.8639 31.6495C29.6992 31.5324 29.6171 31.3751 29.6171 31.1777V20.8897L29.06 21.7038C28.9539 21.8273 28.8372 21.8889 28.7099 21.8889C28.5507 21.8889 28.4154 21.8057 28.304 21.6391C28.1925 21.4725 28.137 21.2908 28.137 21.0932Z" fill="#DB9E36"/>
<path d="M32.1707 20.3901C32.1707 20.3339 32.1877 20.276 32.2217 20.216C32.2559 20.1562 32.2972 20.1263 32.3458 20.1263C32.375 20.1263 32.4157 20.1483 32.4675 20.1922C32.5194 20.2363 32.5892 20.2802 32.6768 20.3242C32.7644 20.3683 32.8699 20.3902 32.9932 20.3902C33.269 20.3902 33.4069 20.2885 33.4069 20.0852C33.4069 19.976 33.3666 19.8902 33.2861 19.8281C33.2056 19.766 33.1082 19.7171 32.994 19.6813C32.8796 19.6455 32.7662 19.605 32.6535 19.5598C32.5408 19.5147 32.4442 19.4375 32.3637 19.3283C32.2832 19.2191 32.2429 19.0779 32.2429 18.9046C32.2429 18.6848 32.3106 18.4956 32.4458 18.3372C32.581 18.1788 32.7887 18.0996 33.0687 18.0996C33.2523 18.0996 33.4189 18.1325 33.5686 18.1979C33.7183 18.2633 33.7932 18.341 33.7932 18.4308C33.7932 18.4833 33.7746 18.5441 33.7377 18.6133C33.7007 18.6825 33.6547 18.7171 33.6 18.7171C33.5807 18.7171 33.5147 18.6891 33.4021 18.6329C33.2894 18.5768 33.1815 18.5487 33.0785 18.5487C32.9497 18.5487 32.8522 18.5827 32.7863 18.6504C32.7203 18.7182 32.6873 18.7936 32.6873 18.8764C32.6873 18.9667 32.7275 19.0383 32.8081 19.091C32.8885 19.1438 32.9867 19.1871 33.1026 19.221C33.2186 19.2548 33.3326 19.2963 33.4451 19.3452C33.5574 19.3941 33.6532 19.4789 33.7323 19.5994C33.8115 19.7199 33.8511 19.8744 33.8511 20.0625C33.8511 20.3047 33.7771 20.4947 33.629 20.6325C33.4809 20.7705 33.2717 20.8393 33.0012 20.8393C32.7726 20.8393 32.577 20.7925 32.4144 20.699C32.2519 20.6053 32.1707 20.5024 32.1707 20.3901Z" fill="#DB9E36"/>
<path d="M34.2617 19.9186V17.106C34.2617 17.0536 34.2874 17.0087 34.3389 16.9712C34.3904 16.9338 34.4483 16.915 34.5128 16.915C34.5772 16.915 34.636 16.9338 34.6891 16.9712C34.7422 17.0087 34.7688 17.0536 34.7688 17.106V18.1334H35.358C35.3997 18.1334 35.4335 18.155 35.4594 18.1979C35.4851 18.2409 35.498 18.2925 35.498 18.3523C35.498 18.4122 35.4851 18.4636 35.4594 18.5067C35.4335 18.5498 35.3998 18.5712 35.358 18.5712H34.7688V19.9186C34.7688 20.0534 34.7937 20.1488 34.8436 20.2049C34.8935 20.2611 34.9813 20.2891 35.1068 20.2891H35.2758C35.3435 20.2891 35.3965 20.3135 35.4352 20.3621C35.4738 20.4108 35.4931 20.4707 35.4931 20.5418C35.4931 20.613 35.4738 20.6728 35.4352 20.7215C35.3965 20.7701 35.3435 20.7945 35.2758 20.7945H35.1068C34.5433 20.7944 34.2617 20.5025 34.2617 19.9186Z" fill="#DB9E36"/>
<defs>
<linearGradient id="paint0_linear" x1="17.5206" y1="42.0217" x2="23.7011" y2="30.5743" gradientUnits="userSpaceOnUse">
<stop stop-color="#7ECCFD"/>
<stop offset="1" stop-color="#3FA9F5"/>
</linearGradient>
<linearGradient id="paint1_linear" x1="22.4955" y1="39.3889" x2="26.9385" y2="31.4838" gradientUnits="userSpaceOnUse">
<stop stop-color="#E2EDF2"/>
<stop offset="1" stop-color="#9FC7E2"/>
</linearGradient>
<linearGradient id="paint2_linear" x1="25.9342" y1="42.652" x2="32.5027" y2="30.7797" gradientUnits="userSpaceOnUse">
<stop stop-color="#FF5D00"/>
<stop offset="1" stop-color="#D54003"/>
</linearGradient>
<linearGradient id="paint3_linear" x1="23.4136" y1="44.2196" x2="26.5896" y2="38.0847" gradientUnits="userSpaceOnUse">
<stop stop-color="#9FC7E2" stop-opacity="0"/>
<stop offset="1" stop-color="#4975AD"/>
</linearGradient>
<linearGradient id="paint4_linear" x1="20.5098" y1="38.511" x2="21.9362" y2="35.7948" gradientUnits="userSpaceOnUse">
<stop stop-color="#3FA9F5" stop-opacity="0"/>
<stop offset="1" stop-color="#1F88C9"/>
</linearGradient>
<linearGradient id="paint5_linear" x1="42.4789" y1="42.0209" x2="36.2978" y2="30.5745" gradientUnits="userSpaceOnUse">
<stop stop-color="#7ECCFD"/>
<stop offset="1" stop-color="#3FA9F5"/>
</linearGradient>
<linearGradient id="paint6_linear" x1="37.5038" y1="39.3886" x2="33.0616" y2="31.4832" gradientUnits="userSpaceOnUse">
<stop stop-color="#E2EDF2"/>
<stop offset="1" stop-color="#9FC7E2"/>
</linearGradient>
<linearGradient id="paint7_linear" x1="34.0653" y1="42.6517" x2="27.4968" y2="30.7793" gradientUnits="userSpaceOnUse">
<stop stop-color="#FF5D00"/>
<stop offset="1" stop-color="#D54003"/>
</linearGradient>
<linearGradient id="paint8_linear" x1="36.5862" y1="44.2195" x2="33.4096" y2="38.084" gradientUnits="userSpaceOnUse">
<stop stop-color="#9FC7E2" stop-opacity="0"/>
<stop offset="1" stop-color="#4975AD"/>
</linearGradient>
<linearGradient id="paint9_linear" x1="40.2522" y1="37.1274" x2="38.6963" y2="34.2297" gradientUnits="userSpaceOnUse">
<stop stop-color="#3FA9F5" stop-opacity="0"/>
<stop offset="1" stop-color="#1F88C9"/>
</linearGradient>
<linearGradient id="paint10_linear" x1="23.5048" y1="17.8914" x2="48.1639" y2="42.1778" gradientUnits="userSpaceOnUse">
<stop stop-color="#FF931E"/>
<stop offset="1" stop-color="#FF5D00"/>
</linearGradient>
<linearGradient id="paint11_linear" x1="42.8192" y1="35.8362" x2="31.2209" y2="23.9683" gradientUnits="userSpaceOnUse">
<stop stop-color="#FF5D00" stop-opacity="0"/>
<stop offset="1" stop-color="#D54003"/>
</linearGradient>
<linearGradient id="paint12_linear" x1="26.0739" y1="18.5748" x2="43.1709" y2="35.6719" gradientUnits="userSpaceOnUse">
<stop stop-color="#FFE7A5"/>
<stop offset="0.966" stop-color="#FFBF5C"/>
</linearGradient>
</defs>
</svg>
