<svg width="60" height="60" viewBox="0 0 60 60" fill="none" xmlns="http://www.w3.org/2000/svg">
<path d="M30 60C46.5685 60 60 46.5685 60 30C60 13.4315 46.5685 0 30 0C13.4315 0 0 13.4315 0 30C0 46.5685 13.4315 60 30 60Z" fill="#66B6E8"/>
<path d="M60 29.635C60 28.9038 59.9726 28.1789 59.9217 27.4606L43.7111 11.25L37.2476 16.8851L11.25 32.9387L15.559 37.2087V48.0201L27.4606 59.9217C28.1789 59.9725 28.9038 60 29.635 60C46.4052 60 60 46.4052 60 29.635Z" fill="#2972A0"/>
<path d="M48.75 26.0668V33.75H31.9394C31.9394 33.75 31.6888 33.75 30.9375 33.75H13.125V26.0668L30.9375 13.125L48.75 26.0668Z" fill="#FF8686"/>
<path d="M37.5 11.25V18.9663L43.125 24.375V11.25H37.5Z" fill="#BABAC0"/>
<path d="M48.75 26.0668V33.75H31.0546C31.0546 33.75 30.7909 33.75 30 33.75V13.125L48.75 26.0668Z" fill="#BC5151"/>
<path d="M30.9375 16.875L16.875 27.4927V48.75H45V27.4927L30.9375 16.875Z" fill="#F9F9F9"/>
<path d="M45 27.4927V48.75H30V16.875L45 27.4927Z" fill="#D3D3D8"/>
<path d="M30 31.875C26.895 31.875 24.375 34.2375 24.375 37.1484V48.75H35.625V37.1484C35.625 34.2374 33.105 31.875 30 31.875Z" fill="#5A5A5A"/>
<path d="M35.625 37.1484V48.75H30V31.875C33.105 31.875 35.625 34.2374 35.625 37.1484Z" fill="#444444"/>
</svg>
