<svg width="70" height="82" viewBox="0 0 70 82" fill="none" xmlns="http://www.w3.org/2000/svg">
<path d="M68.8316 1.15283H18.237C8.80328 1.15283 1.15186 8.80426 1.15186 18.2379V73.7953H68.8316V1.15283Z" fill="#CF6363"/>
<path d="M68.832 74.9471H1.15232C0.522386 74.9471 0 74.4247 0 73.7948V18.2374C0 8.18918 8.17381 0 18.2374 0H68.832C69.462 0 69.9844 0.522386 69.9844 1.15232V73.7948C69.9844 74.4401 69.4773 74.9471 68.832 74.9471ZM2.30464 72.6424H67.6797V2.30465H18.2374C9.44904 2.30465 2.30464 9.44905 2.30464 18.2374V72.6424Z" fill="#030405"/>
<path d="M68.8328 80.6316H8.06702C4.25668 80.6316 1.16846 77.5434 1.16846 73.733C1.16846 69.9227 4.25668 66.8345 8.06702 66.8345H68.8482V80.6316H68.8328Z" fill="#FDFBF8"/>
<path d="M68.8328 81.7843H8.067C3.62672 81.7843 0.0161133 78.1737 0.0161133 73.7335C0.0161133 69.2932 3.62672 65.6826 8.067 65.6826H68.8481C69.4781 65.6826 70.0005 66.205 70.0005 66.8349V80.6474C69.9851 81.262 69.4781 81.7843 68.8328 81.7843ZM8.067 67.9719C4.90196 67.9719 2.32076 70.5531 2.32076 73.7181C2.32076 76.8832 4.90196 79.4643 8.067 79.4643H67.6805V67.9565H8.067V67.9719Z" fill="#030405"/>
<path d="M5.13244 73.7198C5.13244 70.6009 7.20662 67.9582 10.049 67.1132C9.41907 66.9288 8.75841 66.8213 8.06702 66.8213C4.25668 66.8213 1.16846 69.9095 1.16846 73.7198C1.16846 77.5302 4.25668 80.6184 8.06702 80.6184C8.75841 80.6184 9.41907 80.5108 10.049 80.3265C7.20662 79.4814 5.13244 76.8388 5.13244 73.7198Z" fill="#E6E1B7"/>
<path d="M8.067 81.7843C3.62672 81.7843 0.0161133 78.1737 0.0161133 73.7335C0.0161133 69.2932 3.62672 65.6826 8.067 65.6826C8.85058 65.6826 9.63416 65.7902 10.387 66.0206C10.8787 66.1743 11.2013 66.6198 11.2013 67.1269C11.2013 67.6339 10.8633 68.0794 10.387 68.2331C7.97482 68.9552 6.28474 71.2291 6.28474 73.7488C6.28474 76.2686 7.97482 78.5425 10.387 79.2646C10.8787 79.4182 11.2013 79.8638 11.2013 80.3708C11.2013 80.8779 10.8633 81.3234 10.387 81.4771C9.63416 81.6614 8.85058 81.7843 8.067 81.7843ZM6.06965 68.3253C3.87255 69.1396 2.30539 71.2445 2.30539 73.7181C2.30539 76.1918 3.87255 78.312 6.06965 79.111C4.76368 77.6514 3.9801 75.7462 3.9801 73.7181C3.9801 71.69 4.76368 69.7695 6.06965 68.3253Z" fill="#030405"/>
<path d="M8.06638 67.9711C7.43645 67.9711 6.91406 67.4487 6.91406 66.8187V7.85056C6.91406 7.22063 7.43645 6.69824 8.06638 6.69824C8.69632 6.69824 9.21871 7.22063 9.21871 7.85056V66.8187C9.21871 67.4487 8.69632 67.9711 8.06638 67.9711Z" fill="#030405"/>
<path d="M56.756 12.9526H21.3105V22.6168H56.756V12.9526Z" fill="#E6E1B7"/>
<path d="M56.7565 23.7691H21.311C20.6811 23.7691 20.1587 23.2467 20.1587 22.6168V12.9526C20.1587 12.3227 20.6811 11.8003 21.311 11.8003H56.7565C57.3864 11.8003 57.9088 12.3227 57.9088 12.9526V22.6168C57.9088 23.2467 57.4018 23.7691 56.7565 23.7691ZM22.4633 21.4645H55.6041V14.1049H22.4633V21.4645Z" fill="#030405"/>
<path d="M68.8319 72.8886H15.7021C15.0722 72.8886 14.5498 72.3662 14.5498 71.7363C14.5498 71.1064 15.0722 70.584 15.7021 70.584H68.8319C69.4618 70.584 69.9842 71.1064 69.9842 71.7363C69.9842 72.3662 69.4772 72.8886 68.8319 72.8886Z" fill="#030405"/>
<path d="M68.8319 77.3159H15.7021C15.0722 77.3159 14.5498 76.7935 14.5498 76.1636C14.5498 75.5336 15.0722 75.0112 15.7021 75.0112H68.8319C69.4618 75.0112 69.9842 75.5336 69.9842 76.1636C69.9842 76.7935 69.4772 77.3159 68.8319 77.3159Z" fill="#030405"/>
</svg>
