<svg
        xmlns="http://www.w3.org/2000/svg"
        width="600"
        height="600"
        version="1.1"
        viewBox="0 0 600 600"
        xmlSpace="preserve"
>
    <g transform="matrix(1.33333 0 0 -1.33333 0 600)">
        <g
                fillOpacity="1"
                fillRule="nonzero"
                stroke="none"
                transform="scale(.1)"
        >
            <path
                    fill="#c9d6f2"
                    d="M794.227 1089.71s-314.422 220.93-169.864 498.61c144.59 277.67 433.737 703.99 289.039 921.37-144.449 217.3-159.172 913.55 672.158 1020.28 663.05 85.07 864.59-265.12 967.36-504.12 135.55-315.27 14.41-890.82 648.37-966.75 634.12-75.89 996.32-389.44 542.11-900.46-198.49-223.331-2949.173-68.93-2949.173-68.93"
            ></path>
            <path
                    fill="#ebf2ff"
                    d="M1929.52 1263.47c-467.91-102.26-848.99 39.73-718.95 281.33 129.97 241.6 50.32 272.06-49.94 348.06-100.27 75.96-325.528 287.58-106.09 520.02 219.71 232.29 52.82 299.7-15.76 436.4-200.362 398.82 612.22 562.56 392.34 195.52-165.06-275.47-156.36-486.42 48.76-626.58 205.3-140.19 246.24-214.12 237.18-387.37-9.11-173.25-79.97-541.48 129.22-526.15 209.02 15.33 323.22-188.75 83.24-241.23"
            ></path>
            <path
                    fill="#cbdbf4"
                    d="M1079.58 2903.66c-21.72 41.28-26.83 243.7 169.56 233.21 119.52-6.39 57.46-169.63 30.36-295.23-27.04-125.61-8.56-322.81 41.38-404.03 92.27-149.8 72.55-212.84-41.69-341.36 0 0-59.32-95.45 50.12-197.88 109.4-102.42 67.13-384.5 194.23-430.21 127.09-45.68 198.89-143.14 111.8-152.21-86.9-9.13-447.38-44.16-352.49 193.18 138.29 345.52-131.33 447.95-198.5 524.62-61.58 70.29-114.268 227.33 64.36 424.27 138.2 152.44-2.5 318.48-69.13 445.64"
            ></path>
            <path
                    fill="#7585f8"
                    d="M1565.76 1105.69l-7.17-31.68c-6.8 1.73-169.76 42.71-345.38 155.39-233.784 150.1-375.874 356.14-410.659 596.29l30.285 5.21c80.84-557.68 726.404-723.56 732.924-725.21"
            ></path>
            <path
                    fill="#7585f8"
                    d="M824.578 1793.64s-169.797 90.08-99.449 297.57c0 0 150.68-122.42 99.449-297.57"
            ></path>
            <path
                    fill="#7585f8"
                    d="M878.961 1624.01s-231.488-77.35-325.625 183.98c0 0 123.477 45.34 325.625-183.98"
            ></path>
            <path
                    fill="#7585f8"
                    d="M871.074 1622.97s214.936 119.88 107.805 375.33c0 0-117.348-60.81-107.805-375.33"
            ></path>
            <path
                    fill="#7585f8"
                    d="M999.422 1429.52s-223.16-102.06-342.207 147.39c0 0 118.433 58.58 342.207-147.39"
            ></path>
            <path
                    fill="#7585f8"
                    d="M991.57 1427.72s202.32 142.46 70.72 384.84c0 0-110.954-73.33-70.72-384.84"
            ></path>
            <path
                    fill="#7585f8"
                    d="M1191.55 1260.53s-203.702-140.67-361.452 83.17c0 0 107.265 79.18 361.452-83.17"
            ></path>
            <path
                    fill="#7585f8"
                    d="M1184.01 1257.35s176.43 176.87 7.51 391.53c0 0-97.56-92.24-7.51-391.53"
            ></path>
            <path
                    fill="#7585f8"
                    d="M1389.03 1154.51s-162.08-191.651-370.12-19.39c0 0 84.36 105.75 370.12 19.39"
            ></path>
            <path
                    fill="#7585f8"
                    d="M1382.74 1149.37s127.23 218.9-89.24 379.16c0 0-71.6-115.63 89.24-379.16"
            ></path>
            <path
                    fill="#7585f8"
                    d="M2771.99 1104.97c448.08-122.279 824.08-3.65 710.19 236.8-113.94 240.39-35.3 265.9 65.61 334.56 100.93 68.62 329.44 262.34 128.44 498.26-201.13 235.95-36.24 292.9 36.96 421.89 213.68 376.31-565.03 575.18-370.29 208.78 146.21-274.97 127.36-478.74-78.37-604.31-205.64-125.64-248.88-195.21-248.74-363.42.17-168.24 50.58-528.31-151.23-503.14-201.7 25.25-322.37-166.68-92.57-229.42"
            ></path>
            <path
                    fill="#8b9cf9"
                    d="M3216.1 1127.11c-64.79 0-127.14 9.44-156.7 14.07-83.85 13.1-9.47 103.95 115.93 141.85 125.3 37.97 98.34 313.24 209.29 407 111.09 93.73 58.47 189.19 58.47 189.19-104.25 130.11-120.26 192.13-23.48 332.59 52.41 76.2 80.03 266.24 60.1 389.21-19.97 123-72.01 284.17 43.98 284.44h.55c190.12 0 175.19-195.39 152.06-234.29-70.68-119.83-215.24-273.66-88.96-428.13 163.17-199.57 104.43-349.03 41.28-414.03-68.89-70.93-335.02-156.77-218.28-498.23 51.98-151.86-75.27-183.68-194.24-183.67"
            ></path>
            <path
                    fill="#ebf2ff"
                    d="M2706.75 1112.86l-6.81 41.52c659.44 107.77 944.69 624.17 947.56 629.52l37.06-20.03c-2.91-5.25-297.3-539.85-977.81-651.01"
            ></path>
            <path
                    fill="#ebf2ff"
                    d="M3644.76 1748.57s86.12 222.69 198.43 151.6c47.74-30.16 21.96-138.23-198.43-151.6"
            ></path>
            <path
                    fill="#ebf2ff"
                    d="M3594.79 1675.75s219.5 126.86 242.41-1.35c9.65-54.72-86.56-126.35-242.41 1.35"
            ></path>
            <path
                    fill="#ebf2ff"
                    d="M3595.23 1652.1s134.37 204.99-3.96 224.75c-58.95 8.56-135.32-81.38 3.96-224.75"
            ></path>
            <path
                    fill="#ebf2ff"
                    d="M3449.01 1503.52s144.66 199.98 7.99 226.03c-58.2 11.17-138.67-75.49-7.99-226.03"
            ></path>
            <path
                    fill="#ebf2ff"
                    d="M3320.87 1390.3s143.61 200.18 6.9 225.96c-58.27 11.14-138.46-75.89-6.9-225.96"
            ></path>
            <path
                    fill="#ebf2ff"
                    d="M3141.73 1278.87s177.28 176.83 50.49 225.43c-54.11 20.67-148.18-53.16-50.49-225.43"
            ></path>
            <path
                    fill="#ebf2ff"
                    d="M2986.58 1208.18s172.24 181.13 43.35 226.04c-54.65 18.95-146.86-57.09-43.35-226.04"
            ></path>
            <path
                    fill="#ebf2ff"
                    d="M2774.15 1147.24s214.63 135.21 108.31 212.91c-45.37 33.16-153.96-18.51-108.31-212.91"
            ></path>
            <path
                    fill="#ebf2ff"
                    d="M3487.49 1541.62s219.88 126.92 242.55-1.49c9.67-54.58-86.32-126.05-242.55 1.49"
            ></path>
            <path
                    fill="#ebf2ff"
                    d="M3356.33 1423.32s219.85 126.66 242.52-1.62c9.78-54.55-86.43-126.12-242.52 1.62"
            ></path>
            <path
                    fill="#ebf2ff"
                    d="M3212.28 1327.05s239.74 79.89 229.59-53.02c-4.09-56.58-113.15-107.7-229.59 53.02"
            ></path>
            <path
                    fill="#ebf2ff"
                    d="M3042.01 1236.84s244.85 56.95 219.74-75.76c-10.72-56.48-123.4-97.25-219.74 75.76"
            ></path>
            <path
                    fill="#ebf2ff"
                    d="M2861.52 1173.56s247.12 24.5 202.01-105.84c-19.52-55.36-135.55-81.208-202.01 105.84"
            ></path>
            <path
                    fill="#acbfe2"
                    d="M3732.37 1051.85c0-52.381-674.79-94.85-1507.27-94.85-832.42 0-1507.276 42.469-1507.276 94.85 0 52.38 674.856 94.82 1507.276 94.82 832.48 0 1507.27-42.44 1507.27-94.82"
            ></path>
            <path
                    fill="#d086e5"
                    d="M3365.2 2119.47c0-583.37-472.92-1056.25-1056.29-1056.25-583.4 0-1056.28 472.88-1056.28 1056.25 0 583.4 472.88 1056.32 1056.28 1056.32 583.37 0 1056.29-472.92 1056.29-1056.32"
            ></path>
            <path
                    fill="#f6f5f7"
                    d="M2403.15 1726.88c30.66-49.94-.27-124.79-69.23-167.12-68.86-42.3-149.66-36.11-180.32 13.87l-352.66 574.36c-30.69 49.98.24 124.76 69.23 167.1 68.86 42.33 149.66 36.1 180.32-13.84l352.66-574.37"
            ></path>
            <path
                    fill="#f6f5f7"
                    d="M2390.29 1601.51c-42.3-68.86-132.47-90.48-201.33-48.18-69 42.29-90.52 132.47-48.22 201.44l486.01 792.07c42.3 68.93 132.48 90.52 201.44 48.22 68.89-42.3 90.51-132.44 48.22-201.37l-486.12-792.18"
            ></path>
            <path
                    fill="#e28c71"
                    d="M1533.69 2265.89c14.65 6.76 62.77 10.52 87.87-27.48 33.87-50.86 45.55-174.74 121.07-212.06 75.77-37.23 122.97-5.45 157.35 11.84 34.35 17.12 40.03 40.23 61.32 48.02 21.04 7.74 29.27-17.8-19.26-58.61-23.41-19.49-126.42-129.77-224.68-102.23-128.96 36.35-270.33 300.96-183.67 340.52"
            ></path>
            <path
                    fill="#f27851"
                    d="M1645.86 1466.33c-21.15-129.16-38.2-403.11 18.48-400.94 56.84 2.19 87.23 23.07 53.9 31.06-33.53 8.02-34.72 11.81-34.38 22.06 2.6 64.63 52.52 187.63 71.36 281.77 21.93 109.23-90.68 178.97-109.36 66.05"
            ></path>
            <path
                    fill="#6e86cc"
                    d="M1638.52 1091.34s50.85-18.41 79.72 5.11c0 0 56.2-4.71 22.09-21.83-33.9-17.19-100.66-33.8-101.81 16.72"
            ></path>
            <path
                    fill="#c92f3b"
                    d="M1437.79 1997.41s292.4-205.29 334.49-310.25c37.76-94.45-49.91-474.82-49.91-474.82s-61.62-24.56-118.2 10.12l7.41 295.81-246.78 225.7 72.99 253.44"
            ></path>
            <path
                    fill="#f27851"
                    d="M1249.18 1450.29c-108.01-89.16-314.66-297.84-267.321-336.04 47.301-38.07 86.591-42.71 65.201-12.96-21.25 30.11-19.66 34.21-12.08 42.06 47.65 50.18 174.24 114.27 255.55 176.73 94.64 72.42 53.02 208.04-41.35 130.21"
            ></path>
            <path
                    fill="#6e86cc"
                    d="M979.219 1153.3s28.091-50.56 67.841-52.01c0 0 41.9-43.18 2.51-33.03-39.39 10.15-104.73 43.58-70.351 85.04"
            ></path>
            <path
                    fill="#e03d51"
                    d="M1394.48 1998.87s151.73-345.62 111.7-459.72c-35.9-102.73-374.12-347.38-374.12-347.38s-67 23.62-88.21 91.39l214.16 233.08s-85.61 269.42-43.58 369.31c1.49 3.35-5.86-23.79-5.86-23.79l185.91 137.11"
            ></path>
            <path
                    fill="#fcdcda"
                    d="M1576.97 1845.92c56.03 73.94 87.7 188.55 89.9 277.51 3.08 123.37-105.94 155.21-175.21 161.74-69.3 6.67-182.56 20.1-177.92-133.66 3.08-107.3-35.87-163.33-90.28-254.05-1.46-2.4-2.94-4.37-4.4-6.63l-.34.3.34-.3c-76.71-94.21 294.26-128.76 357.91-44.91"
            ></path>
            <path
                    fill="#efbebd"
                    d="M1223.46 1897.46c-1.46-2.4-2.94-4.37-4.4-6.63l-.34.3.34-.3c-59.38-72.86 149.03-109.88 275.92-84.36 19.69 29.47-75.66 37.32-110.96 65.95-81.38 65.98 208.82 71.6 158.84 95.86-53.97 25.99-134.31 15.64-98.95 94.64 35.23 79.15 4.91 173.69-28.55 205.71-34.89 33.46-93.3-5.76-99.66-78.57-1.59-11.61-2.53-24.2-1.96-38.55 3.08-107.3-35.87-163.33-90.28-254.05"
            ></path>
            <path
                    fill="#e67052"
                    d="M1501.51 2375.62s15.29-58.5-27.88-80.09c-44.27-21.99 91.53-130.18 93.66-98.1 2.77 41.39-13.57 69.27 14.95 112.07l-80.73 66.12"
            ></path>
            <path
                    fill="#ee9d7f"
                    d="M1605.96 2461.5c28.53-38.88 38.99-188.65-3.04-213.45-18.41-10.62-80.43 16.85-109.8 87.34-12.22 28.86-24 81.11 11.09 124.83 15.91 19.89 68.59 46.63 101.75 1.28"
            ></path>
            <path
                    fill="#062440"
                    d="M1482.49 2462.28c-37.05-46.56-20.84-91.53-18.21-99.79 9.65-30.18 34.18-58.3 41.66-49.57 8.9 10.42-24.8 21.32-9.34 51.2 15.53 29.94-4.23 40.5 6.06 67.27 10.01 26.66 29.74 17.53 92.17 15.56 25.58-.81 32.01 7.89 31.1 18.51-31.67 45.41-104.46 45.82-143.44-3.18"
            ></path>
            <path
                    fill="#353a66"
                    d="M1631.01 2429.08c15.22 36.14 69.46 27.48 52.17 53.03-11.57 17.12-11.71 4.23-140.93 30.59-60.34 12.28-72.21-13.47-83.72-47.48-10.66-31.4-7.34-108.55 33.98-153.99 41.18-45.34-1.29 30.22 14.51 64.39 15.81 34.14 26.23 19.69 48.97 14.04 22.74-5.58 50.48-18.78 75.02 39.42"
            ></path>
            <path
                    fill="#494c7f"
                    d="M1205.22 1795.1l109.47-156.94 881.03 615.1 113.19 195.76-222.82-38.85-880.87-615.07"
            ></path>
            <path
                    fill="#373c66"
                    d="M1265.89 1708.07l48.8-69.91 881.03 615.1-48.86 69.91-880.97-615.1"
            ></path>
            <path
                    fill="#1f1440"
                    d="M2308.91 2449.02l-30.62-53.03-29.54 42.47z"
            ></path>
            <path
                    fill="#e28c71"
                    d="M1389.94 2278.07c16.42-1.32 45.01-26.09 48.7-72.11 5.17-61.59-29.71-172.37 18.91-242.42 48.83-70.18 106.25-65.17 145.03-66.79 39.02-1.69 55.33 15.94 77.76 12.55 22.54-3.42 17.26-30.18-45.78-42.5-30.15-5.85-175.52-52.92-249.01 19.83-96.31 95.29-91.64 399.05 4.39 391.44"
            ></path>
        </g>
    </g>
</svg>
