<svg width="525" height="523" viewBox="0 0 525 523" fill="none" xmlns="http://www.w3.org/2000/svg">
<path opacity="0.2" d="M17.597 190.769L16.4766 190.294C33.9524 148.973 61.7921 112.267 96.9874 84.123L97.7425 85.073C62.7054 113.083 34.9998 149.63 17.597 190.769Z" fill="#F58A4B"/>
<path opacity="0.2" d="M118.531 522.821C85.1868 501.143 56.5068 471.818 35.5723 438.011L36.6074 437.365C57.4445 471.014 86.0027 500.205 119.189 521.798L118.531 522.821Z" fill="#F58A4B"/>
<path opacity="0.2" d="M33.6588 438.405C26.1204 426.165 19.5198 413.244 14.0273 399.994L18.5333 398.131C23.9283 411.137 30.4072 423.827 37.8116 435.847L33.6588 438.405Z" fill="#F58A4B"/>
<path opacity="0.2" d="M15.5266 398.843C8.95027 382.877 3.88408 366.205 0.486328 349.265L1.6798 349.021C5.06537 365.876 10.1072 382.487 16.6591 398.38L15.5387 398.843H15.5266Z" fill="#F58A4B"/>
<path opacity="0.2" d="M464.043 360.646L462.886 360.269C469.693 339.493 473.14 317.779 473.14 295.699C473.14 181.443 380.183 88.4732 265.913 88.4732C230.475 88.4732 195.498 97.5704 164.773 114.791L164.176 113.731C195.084 96.4135 230.268 87.2676 265.901 87.2676C380.84 87.2676 474.345 180.773 474.345 295.712C474.345 317.913 470.875 339.761 464.03 360.659L464.043 360.646Z" fill="#CE4C68"/>
<path opacity="0.2" d="M411.518 447.395L408.145 443.887C432.087 420.907 450.282 392.203 460.743 360.904L465.358 362.451C454.641 394.492 436.021 423.866 411.506 447.395H411.518Z" fill="#F58A4B"/>
<path opacity="0.2" d="M265.913 504.141C150.974 504.141 57.4688 410.636 57.4688 295.697C57.4688 235.475 83.5182 178.201 128.931 138.572L129.735 139.486C84.5777 178.883 58.6866 235.816 58.6866 295.685C58.6866 409.942 151.644 502.911 265.913 502.911C319.558 502.911 370.427 482.488 409.166 445.417L410.007 446.294C371.036 483.584 319.863 504.129 265.913 504.129V504.141Z" fill="#CE4C68"/>
<path d="M375.725 427.372L366.359 416.156C399.095 388.828 418.945 350.478 422.27 308.146L436.835 309.291C433.206 355.569 411.504 397.511 375.725 427.384V427.372Z" fill="#F58A4B"/>
<path d="M307.769 461.995L304.213 447.82C316.318 444.787 328.058 440.281 339.104 434.436L345.936 447.357C333.843 453.75 321.007 458.67 307.769 461.995Z" fill="#F58A4B"/>
<path d="M424.766 252.339C420.443 236.459 413.745 221.333 404.879 207.413L405.902 206.756C414.829 220.785 421.575 236.02 425.935 252.023L424.766 252.339Z" fill="#DC5162"/>
<path d="M95.7793 79.5671L94.7837 78.8631C117.05 47.6684 149.722 25.0074 186.812 15.0692C206.163 9.88421 226.004 8.22405 245.773 10.1514L245.657 11.3675C226.034 9.46427 206.348 11.0952 187.127 16.2456C150.319 26.1081 117.878 48.5939 95.7793 79.5671Z" fill="#D44E66"/>
<mask id="mask0_7537_157" style="mask-type:luminance" maskUnits="userSpaceOnUse" x="395" y="123" width="47" height="47">
<path d="M418.164 169.328C430.957 169.328 441.328 158.957 441.328 146.164C441.328 133.371 430.957 123 418.164 123C405.371 123 395 133.371 395 146.164C395 158.957 405.371 169.328 418.164 169.328Z" fill="white"/>
</mask>
<g mask="url(#mask0_7537_157)">
<path d="M388.953 119.984L364.441 171.592L366.018 172.341L390.53 120.733L388.953 119.984ZM394.342 119.984L369.831 171.592L371.408 172.341L395.919 120.733L394.342 119.984ZM399.731 119.984L375.22 171.592L376.797 172.341L401.308 120.733L399.731 119.984ZM405.121 119.984L380.609 171.592L382.186 172.341L406.698 120.733L405.121 119.984ZM410.51 119.984L385.999 171.592L387.576 172.341L412.087 120.733L410.51 119.984ZM415.899 119.984L391.388 171.592L392.965 172.341L417.476 120.733L415.899 119.984ZM421.289 119.984L396.777 171.592L398.354 172.341L422.866 120.733L421.289 119.984ZM426.678 119.984L402.167 171.592L403.743 172.341L428.255 120.733L426.678 119.984ZM432.067 119.984L407.556 171.592L409.133 172.341L433.644 120.733L432.067 119.984ZM437.457 119.984L412.945 171.592L414.522 172.341L439.033 120.733L437.457 119.984ZM442.846 119.984L418.335 171.592L419.911 172.341L444.423 120.733L442.846 119.984ZM448.235 119.984L423.724 171.592L425.301 172.341L449.812 120.733L448.235 119.984ZM453.625 119.984L429.113 171.592L430.69 172.341L455.201 120.733L453.625 119.984ZM459.014 119.984L434.502 171.592L436.079 172.341L460.591 120.733L459.014 119.984ZM464.403 119.984L439.892 171.592L441.469 172.341L465.98 120.733L464.403 119.984ZM469.793 119.984L445.281 171.592L446.858 172.341L471.369 120.733L469.793 119.984ZM475.182 119.984L450.67 171.592L452.247 172.341L476.759 120.733L475.182 119.984Z" fill="#FF7474"/>
</g>
<mask id="mask1_7537_157" style="mask-type:luminance" maskUnits="userSpaceOnUse" x="385" y="350" width="50" height="67">
<path d="M397.207 416.648L385.564 405.919C400.544 389.661 411.821 370.894 419.091 350.143L434.034 355.379C426.045 378.177 413.66 398.783 397.219 416.636L397.207 416.648Z" fill="white"/>
</mask>
<g mask="url(#mask1_7537_157)">
<path d="M360.6 381.943L390.12 445.099L392.056 444.198L362.536 381.041L360.6 381.943ZM364.789 376.876L394.309 440.033L396.246 439.132L366.725 375.975L364.789 376.876ZM368.978 371.81L398.499 434.967L400.435 434.066L370.915 370.909L368.978 371.81ZM373.168 366.744L402.688 429.901L404.624 429L375.104 365.843L373.168 366.744ZM377.357 361.678L406.877 424.835L408.814 423.933L379.293 360.777L377.357 361.678ZM381.546 356.612L411.067 419.768L413.003 418.867L383.483 355.71L381.546 356.612ZM385.736 351.545L415.256 414.702L417.192 413.801L387.672 350.644L385.736 351.545ZM389.925 346.479L419.445 409.636L421.382 408.735L391.861 345.578L389.925 346.479ZM394.114 341.413L423.635 404.57L425.571 403.669L396.051 340.512L394.114 341.413ZM398.304 336.347L427.824 399.504L429.76 398.602L400.24 335.446L398.304 336.347ZM402.493 331.281L432.013 394.437L433.95 393.536L404.429 330.38L402.493 331.281ZM406.682 326.215L436.203 389.371L438.139 388.47L408.619 325.313L406.682 326.215ZM410.872 321.148L440.392 384.305L442.328 383.404L412.808 320.247L410.872 321.148ZM415.061 316.082L444.581 379.239L446.518 378.338L416.997 315.181L415.061 316.082ZM419.25 311.016L448.771 374.173L450.707 373.272L421.187 310.115L419.25 311.016ZM423.44 305.95L452.96 369.107L454.896 368.205L425.376 305.049L423.44 305.95ZM427.629 300.884L457.149 364.04L459.086 363.139L429.565 299.982L427.629 300.884Z" fill="#EB4B1E"/>
</g>
<mask id="mask2_7537_157" style="mask-type:luminance" maskUnits="userSpaceOnUse" x="88" y="265" width="14" height="53">
<path d="M89.4738 317.861C88.5604 310.554 88.0977 303.101 88.0977 295.684C88.0977 285.661 88.938 275.614 90.5942 265.811L101.396 267.637C99.8376 276.832 99.046 286.27 99.046 295.684C99.046 302.65 99.4844 309.653 100.337 316.509L89.4616 317.861H89.4738Z" fill="white"/>
</mask>
<g mask="url(#mask2_7537_157)">
<path d="M62 326.29L111.054 375.82L112.564 374.322L63.5101 324.792L62 326.29ZM64.2286 320.116L113.283 369.645L114.793 368.147L65.7387 318.618L64.2286 320.116ZM66.4573 313.942L115.512 363.471L117.022 361.973L67.9674 312.444L66.4573 313.942ZM68.6859 307.767L117.74 357.296L119.25 355.798L70.196 306.269L68.6859 307.767ZM70.9145 301.593L119.969 351.122L121.479 349.624L72.4246 300.095L70.9145 301.593ZM73.1432 295.418L122.197 344.948L123.708 343.45L74.6533 293.92L73.1432 295.418ZM75.3718 289.244L124.426 338.773L125.936 337.275L76.8819 287.746L75.3718 289.244ZM77.6004 283.07L126.655 332.599L128.165 331.101L79.1105 281.572L77.6004 283.07ZM79.8291 276.895L128.883 326.424L130.393 324.926L81.3392 275.397L79.8291 276.895ZM82.0577 270.721L131.112 320.25L132.622 318.752L83.5678 269.223L82.0577 270.721ZM84.2863 264.546L133.341 314.076L134.851 312.578L85.7964 263.048L84.2863 264.546ZM86.5149 258.372L135.569 307.901L137.079 306.403L88.0251 256.874L86.5149 258.372ZM88.7436 252.198L137.798 301.727L139.308 300.229L90.2537 250.7L88.7436 252.198ZM90.9722 246.023L140.026 295.552L141.537 294.054L92.4823 244.525L90.9722 246.023ZM93.2008 239.849L142.255 289.378L143.765 287.88L94.711 238.351L93.2008 239.849ZM95.4295 233.674L144.484 283.204L145.994 281.706L96.9396 232.176L95.4295 233.674ZM97.6581 227.5L146.712 277.029L148.222 275.531L99.1682 226.002L97.6581 227.5Z" fill="#EB4B1E"/>
</g>
<path d="M452 255.99L454.167 272.99L467 262.506L452 255.99Z" fill="#FBCC71"/>
<path d="M435.004 223.228C435.816 219.759 433.668 216.288 430.207 215.474C426.746 214.66 423.282 216.813 422.47 220.282C421.658 223.75 423.806 227.222 427.267 228.036C430.728 228.849 434.192 226.697 435.004 223.228Z" fill="#585FE8"/>
<path d="M519.399 214.541C517.845 215.626 516.259 214.948 514.859 214.351C513.429 213.741 512.499 213.416 511.624 214.026C510.75 214.637 510.735 215.622 510.817 217.173C510.895 218.693 510.985 220.416 509.433 221.499C507.882 222.582 506.293 221.905 504.896 221.307C503.466 220.697 502.538 220.37 501.661 220.982C501.356 221.195 500.935 221.12 500.721 220.814C500.507 220.508 500.582 220.087 500.887 219.874C502.441 218.789 504.027 219.467 505.425 220.065C506.854 220.675 507.783 221.002 508.659 220.39C509.536 219.778 509.549 218.794 509.467 217.243C509.389 215.724 509.299 214.001 510.85 212.918C512.402 211.834 513.991 212.511 515.39 213.108C516.82 213.718 517.75 214.043 518.625 213.433C519.499 212.822 519.514 211.836 519.434 210.284C519.357 208.765 519.266 207.042 520.82 205.957C521.125 205.744 521.547 205.819 521.76 206.125C521.974 206.431 521.9 206.852 521.594 207.065C520.718 207.678 520.702 208.663 520.785 210.214C520.863 211.733 520.953 213.457 519.399 214.541Z" fill="#E39DC4"/>
<path d="M379.156 25C377.236 25 376.311 23.3533 375.494 21.9022C374.661 20.4196 374.076 19.5205 372.996 19.5205C371.915 19.5205 371.331 20.4196 370.5 21.9022C369.683 23.3533 368.758 25 366.841 25C364.924 25 363.996 23.3533 363.182 21.9022C362.348 20.4196 361.767 19.5205 360.684 19.5205C360.306 19.5205 360 19.1798 360 18.7603C360 18.3407 360.306 18 360.684 18C362.604 18 363.528 19.6467 364.342 21.0978C365.176 22.5804 365.758 23.4795 366.841 23.4795C367.925 23.4795 368.506 22.5804 369.337 21.0978C370.154 19.6467 371.078 18 372.996 18C374.913 18 375.841 19.6467 376.657 21.0978C377.491 22.5804 378.075 23.4795 379.156 23.4795C380.237 23.4795 380.821 22.5804 381.655 21.0978C382.472 19.6467 383.396 18 385.316 18C385.694 18 386 18.3407 386 18.7603C386 19.1798 385.694 19.5205 385.316 19.5205C384.233 19.5205 383.649 20.4196 382.818 21.9022C382.001 23.3533 381.076 25 379.156 25Z" fill="#A2F4B4"/>
<path d="M62 139.678L68.024 154.508L77.8253 141.877L62 139.678Z" fill="#FB8271"/>
<path d="M136.291 100.418C139.512 98.9033 140.9 95.0618 139.393 91.8379C137.885 88.614 134.052 87.2286 130.831 88.7434C127.611 90.2583 126.222 94.0998 127.73 97.3237C129.238 100.548 133.071 101.933 136.291 100.418Z" fill="#E39DC4"/>
<path d="M50.1853 262.111C53.7376 261.945 56.4873 258.926 56.3268 255.368C56.1663 251.809 53.1564 249.059 49.604 249.225C46.0516 249.391 43.302 252.41 43.4625 255.968C43.623 259.526 46.6329 262.276 50.1853 262.111Z" fill="#585FE8"/>
<path d="M77.6995 214.306C75.3359 213.532 74.7958 211.333 74.3173 209.395C73.8293 207.414 73.4366 206.181 72.1064 205.746C70.7763 205.31 69.7307 206.072 68.1694 207.382C66.637 208.662 64.9009 210.116 62.5408 209.343C60.1808 208.571 59.6372 206.37 59.1622 204.433C58.6742 202.452 58.285 201.221 56.9513 200.784C56.487 200.632 56.2337 200.131 56.386 199.666C56.5384 199.2 57.0392 198.946 57.5035 199.098C59.867 199.872 60.4071 202.071 60.8822 204.008C61.3702 205.989 61.7594 207.22 63.093 207.657C64.4266 208.093 65.4688 207.331 67.0301 206.021C68.5625 204.741 70.2986 203.287 72.6586 204.059C75.0186 204.832 75.5623 207.032 76.0408 208.971C76.5288 210.952 76.9215 212.184 78.2516 212.62C79.5817 213.055 80.6274 212.293 82.1922 210.985C83.7246 209.705 85.4607 208.251 87.8242 209.025C88.2885 209.177 88.5418 209.678 88.3895 210.143C88.2371 210.609 87.7364 210.863 87.272 210.711C85.9384 210.275 84.8928 211.036 83.3314 212.346C81.7991 213.626 80.063 215.08 77.6995 214.306Z" fill="#A2F4B4"/>
<path d="M388 56L390.022 71L402 61.7495L388 56Z" fill="#E39DC4"/>
<path d="M466.25 154.807L457.365 166.449L471.875 168.3L466.25 154.807Z" fill="#C7FB71"/>
</svg>
