<svg width="1920" height="597" viewBox="0 0 1920 597" fill="none" xmlns="http://www.w3.org/2000/svg">
<path d="M1918.29 0.0175781H2.625V596.018H1918.29V0.0175781Z" fill="#FCF7F0"/>
<path opacity="0.36" d="M2.625 0.0175781H551.087C551.087 0.0175781 486.471 155.419 353.037 128.03C219.603 100.641 170.702 58.6458 106.84 89.5835C42.9605 120.508 135.987 242.189 2.625 273.018V0.0175781Z" fill="#FFD5DD"/>
<path opacity="0.36" d="M1920 596.018V419.018C1920 419.018 1806.74 450.062 1776.29 513.963C1745.83 577.864 1603.69 514.05 1601.16 596.018H1920Z" fill="#EDCDD3"/>
<path d="M1876.41 169.987C1844 169.987 1811.52 164.541 1788.34 136.59C1769.52 113.897 1756.52 112.636 1736.86 110.732C1721.36 109.23 1702.07 107.352 1672.69 94.9593C1605.75 66.7 1608.35 2.64378 1608.38 2L1609.56 2.04024C1609.52 2.68402 1606.94 66.1903 1673.25 94.1814C1702.42 106.494 1721.59 108.358 1737 109.847C1757.01 111.791 1770.21 113.066 1789.32 136.108C1819.76 172.817 1866.65 170.215 1908.02 167.935C1911.94 167.72 1915.8 167.505 1919.59 167.331L1919.66 168.23C1915.87 168.404 1912.01 168.619 1908.09 168.833C1897.76 169.41 1887.08 170 1876.4 170L1876.41 169.987Z" fill="#D6B0AB"/>
<path d="M397.684 594.018C388.641 575.694 352.323 556.632 277.534 558.152C220.492 559.302 210.814 554.388 182.115 539.771C171.594 534.416 158.508 527.755 139.544 519.616C103.507 504.161 67.7502 512.3 44.1059 521.846C18.4212 532.215 1.0858 546.419 0.917314 546.561L0 545.922C0.168486 545.78 17.6536 531.448 43.5256 521.008C67.4506 511.349 103.638 503.124 140.18 518.778C159.201 526.931 172.305 533.607 182.845 538.962C211.3 553.45 220.885 558.322 277.534 557.186C352.979 555.666 389.69 575.026 398.882 593.662L397.721 593.989L397.684 594.018Z" fill="#D6B0AB"/>
<g clipPath="url(#clip0_7529_1118)">
<path opacity="0.36" d="M1695.88 63.25C1725.26 40.737 1777.85 27.0771 1819.04 30.672C1850.35 33.3975 1871.25 52.118 1875.72 75.2107C1878.8 91.1761 1875.28 110.091 1862.59 123.378C1844.74 142.052 1815.47 141.317 1798.51 123.352C1784.24 108.234 1773.26 89.4629 1744.16 93.0073C1727.94 94.9812 1694.35 95.698 1688.51 79.5274C1686.29 73.3567 1689.76 67.9296 1695.86 63.255L1695.88 63.25Z" fill="#EDCDD3"/>
</g>
<defs>
<clipPath id="clip0_7529_1118">
<rect width="161.924" height="132.625" fill="white" transform="matrix(-0.915309 0.402751 -0.603843 -0.797103 1906.69 107.715)"/>
</clipPath>
</defs>
</svg>
