<svg width="19" height="24" viewBox="0 0 19 24" fill="none" xmlns="http://www.w3.org/2000/svg">
<g clipPath="url(#clip0)">
<path fill-rule="evenodd" clip-rule="evenodd" d="M4.54056 16.7507C3.24814 15.9315 2.18387 14.7987 1.44672 13.4578C0.709572 12.1168 0.323477 10.6113 0.324342 9.08108C0.324342 4.06573 4.39007 0 9.40542 0C14.4208 0 18.4865 4.06573 18.4865 9.08108C18.4865 12.0227 17.088 14.6381 14.9189 16.2973V23.5005C14.9189 23.5265 14.9157 23.5518 14.9099 23.5771C14.8417 23.8495 14.4337 24.0363 13.9972 23.9942C13.8394 23.9789 13.688 23.9242 13.5568 23.8352L9.72975 21.4515L5.90207 23.8352C5.77088 23.9242 5.61944 23.9789 5.46164 23.9942C5.02575 24.0363 4.61775 23.8495 4.54964 23.5771C4.54367 23.552 4.54062 23.5263 4.54056 23.5005V16.7507Z" fill="#F2994A"/>
<path fill-rule="evenodd" clip-rule="evenodd" d="M9.43793 16.2162C5.49739 16.2162 2.3028 13.0216 2.3028 9.08106C2.3028 5.14052 5.49739 1.94592 9.43793 1.94592C13.3785 1.94592 16.5731 5.14052 16.5731 9.08106C16.5731 13.0216 13.3785 16.2162 9.43793 16.2162ZM9.70517 4.69814C9.68062 4.65049 9.64342 4.61053 9.59765 4.58263C9.55188 4.55473 9.49932 4.53997 9.44571 4.53997C9.39211 4.53997 9.33955 4.55473 9.29378 4.58263C9.24801 4.61053 9.21081 4.65049 9.18625 4.69814L7.99728 7.00798C7.97582 7.04911 7.94474 7.08446 7.90668 7.111C7.86862 7.13754 7.82471 7.15449 7.77869 7.16041L5.14582 7.52236C5.08199 7.53068 5.0227 7.55987 4.97717 7.60538C4.95113 7.63121 4.93063 7.66207 4.91692 7.69609C4.9032 7.73011 4.89657 7.76656 4.89742 7.80323C4.89827 7.83989 4.90659 7.876 4.92186 7.90935C4.93713 7.94269 4.95904 7.97257 4.98625 7.99717L6.89912 9.79327C6.96723 9.85684 6.99836 9.94895 6.9815 10.0398L6.53004 12.576C6.51848 12.6377 6.52905 12.7016 6.55988 12.7563C6.59775 12.8216 6.65934 12.8698 6.73183 12.8908C6.80433 12.9118 6.88214 12.9041 6.94907 12.8692L9.31209 11.6737C9.35382 11.6526 9.39993 11.6416 9.44669 11.6416C9.49345 11.6416 9.53955 11.6526 9.58128 11.6737L11.9261 12.8659C11.9841 12.8957 12.0501 12.9057 12.1143 12.8945C12.1507 12.8887 12.1857 12.8758 12.2171 12.8564C12.2486 12.8371 12.2759 12.8117 12.2974 12.7817C12.3189 12.7517 12.3343 12.7177 12.3426 12.6817C12.3509 12.6458 12.352 12.6085 12.3458 12.5721L11.8944 10.0359C11.8865 9.99117 11.8899 9.94522 11.9043 9.90217C11.9187 9.85912 11.9436 9.82035 11.9767 9.78938L13.8903 7.99392C13.9366 7.95132 13.9668 7.89405 13.9759 7.83176C13.9806 7.79504 13.9779 7.75775 13.9681 7.72207C13.9582 7.68639 13.9414 7.65302 13.9185 7.62392C13.8956 7.59482 13.8671 7.57057 13.8348 7.55257C13.8024 7.53458 13.7668 7.5232 13.73 7.51911L11.0965 7.15717C11.0506 7.15115 11.0068 7.13415 10.9689 7.10761C10.931 7.08108 10.9 7.04579 10.8786 7.00473L9.70452 4.69814H9.70517Z" fill="#F5F5F5"/>
</g>
<defs>
<clipPath id="clip0">
<rect width="18.8108" height="24" fill="white"/>
</clipPath>
</defs>
</svg>
