<svg width="1920" height="664" viewBox="0 0 1920 664" fill="none" xmlns="http://www.w3.org/2000/svg">
<rect x="4.13867" width="1913.18" height="664" fill="#F2F7FF"/>
<g opacity="0.45">
<path d="M1914.81 657.883C1843.91 549.81 1726.06 415.214 1550.61 402.53C1355.4 388.44 1290.53 539.827 1086.23 553.137C766.795 573.949 687.08 219.295 386.004 244.928C294.129 252.756 164.029 297.5 1.51427 464.022" stroke="#5F98CC" stroke-width="0.25" stroke-miterlimit="10"/>
<path d="M5.64742 449.596C163.26 292.209 289.997 253.662 380.588 248.664C472.536 243.591 543.952 272.575 608.696 315.038C752.432 409.177 860.563 563.495 1080.79 547.681C1138.81 543.587 1185.88 528.7 1228.15 509.918C1332.78 463.03 1407.19 391.306 1546.43 402.633C1720.13 416.323 1838.4 549.058 1911.57 657.755" stroke="#5F98CC" stroke-width="0.25" stroke-miterlimit="10"/>
<path d="M9.77628 435.138C162.488 286.885 285.767 254.556 375.167 252.368C465.231 250.163 535.825 279.272 600.51 321.236C744.821 414.512 854.826 559.522 1075.35 542.214C1133.03 537.835 1180.31 523.232 1222.87 504.799C1327.61 459.451 1403.16 390.468 1542.26 402.704C1714.09 417.811 1832.92 548.274 1908.36 657.595" stroke="#5F98CC" stroke-width="0.25" stroke-miterlimit="10"/>
<path d="M13.8827 420.709C161.693 281.612 281.451 255.435 369.724 256.101C457.808 256.765 527.644 285.997 592.333 327.441C737.251 419.877 849.007 555.143 1069.92 536.775C1127.22 532.004 1174.69 517.727 1217.59 499.709C1322.29 455.748 1399.18 389.485 1538.11 402.826C1708.13 419.133 1827.45 547.562 1905.15 657.486" stroke="#5F98CC" stroke-width="0.25" stroke-miterlimit="10"/>
<path d="M18.0495 406.25C160.958 276.286 277.101 256.283 364.341 259.803C450.383 263.292 519.556 292.671 584.217 333.616C729.709 425.211 843.31 551.017 1064.55 531.285C1121.5 526.208 1169.13 512.171 1212.37 494.588C1317.03 452.036 1395.25 388.45 1534.02 402.895C1702.2 420.381 1822.04 546.798 1902.01 657.325" stroke="#5F98CC" stroke-width="0.25" stroke-miterlimit="10"/>
<path d="M22.1758 391.808C160.183 271 272.584 257.104 358.918 263.522C442.855 269.771 511.394 299.384 576.028 339.808C722.127 430.54 837.54 546.929 1059.1 525.812C1115.68 520.428 1163.5 506.631 1207.09 489.463C1311.66 448.277 1391.26 387.41 1529.86 402.96C1696.23 421.625 1816.56 546.007 1898.76 657.137" stroke="#5F98CC" stroke-width="0.25" stroke-miterlimit="10"/>
<path d="M26.2923 377.356C159.398 265.682 268.027 257.85 353.484 267.254C435.222 276.239 503.128 306.195 567.861 346.034C714.281 436.14 831.791 542.874 1053.65 520.394C1109.89 514.683 1157.83 501.147 1201.79 484.415C1306.29 444.616 1387.25 386.448 1525.69 403.124C1690.22 422.946 1811.07 545.337 1895.54 657.069" stroke="#5F98CC" stroke-width="0.25" stroke-miterlimit="10"/>
<path d="M30.4164 362.924C158.62 260.406 263.383 258.594 348.059 270.984C427.566 282.619 494.965 312.917 559.671 352.237C706.665 441.501 826.019 538.818 1048.2 514.931C1104.1 508.913 1152.19 495.617 1196.5 479.299C1300.93 440.865 1383.22 385.397 1521.52 403.199C1684.21 424.156 1805.59 544.578 1892.32 656.913" stroke="#5F98CC" stroke-width="0.25" stroke-miterlimit="10"/>
<path d="M34.5512 348.469C157.853 255.085 258.687 259.249 342.644 274.691C419.891 288.889 486.812 319.617 551.522 358.416C699.06 446.861 820.288 534.739 1042.8 509.445C1098.35 503.143 1146.57 490.064 1191.25 474.162C1295.57 437.093 1379.26 384.301 1517.36 403.251C1678.22 425.322 1800.11 543.775 1889.12 656.734" stroke="#5F98CC" stroke-width="0.25" stroke-miterlimit="10"/>
<path d="M38.6565 334.016C157.089 249.767 253.93 259.82 337.199 278.4C412.154 295.118 478.629 326.342 543.313 364.598C691.424 452.223 814.497 530.684 1037.33 503.983C1092.51 497.375 1140.88 484.514 1185.94 469.07C1290.16 433.344 1375.25 383.252 1513.18 403.371C1672.23 426.556 1794.61 543.061 1885.88 656.622" stroke="#5F98CC" stroke-width="0.25" stroke-miterlimit="10"/>
<path d="M42.7881 319.568C156.318 244.475 249.169 260.352 331.812 282.114C404.476 301.265 470.505 333.049 535.193 370.785C683.879 457.59 808.763 526.633 1031.96 498.504C1086.79 491.589 1135.29 478.946 1180.72 463.939C1284.8 429.557 1371.29 382.142 1509.08 403.431C1666.29 427.707 1789.2 542.287 1882.73 656.45" stroke="#5F98CC" stroke-width="0.25" stroke-miterlimit="10"/>
<path d="M46.9135 305.139C155.542 239.18 244.402 260.816 326.388 285.848C396.729 307.344 462.343 339.775 527.003 377.012C676.264 462.976 802.991 522.644 1026.51 493.087C1081 485.888 1129.62 473.463 1175.43 458.892C1279.4 425.832 1367.29 381.116 1504.92 403.574C1660.29 428.942 1783.68 541.574 1879.48 656.361" stroke="#5F98CC" stroke-width="0.25" stroke-miterlimit="10"/>
<path d="M51.0366 290.689C154.764 233.886 239.665 261.173 320.961 289.559C389.043 313.337 454.21 346.48 518.842 383.196C668.71 468.341 797.248 518.613 1021.1 487.606C1075.24 480.101 1123.99 467.893 1170.17 453.759C1273.97 422.02 1363.29 379.982 1500.78 403.654C1654.35 430.07 1778.23 540.819 1876.3 656.208" stroke="#5F98CC" stroke-width="0.25" stroke-miterlimit="10"/>
<path d="M55.1752 276.236C154.001 228.568 234.976 261.462 315.55 293.268C381.374 319.262 446.061 353.182 510.666 389.378C661.108 473.681 791.489 514.6 1015.67 482.122C1069.43 474.332 1118.31 462.299 1164.89 448.644C1268.56 418.205 1359.3 378.866 1496.63 403.729C1648.36 431.194 1772.76 540.039 1873.09 656.052" stroke="#5F98CC" stroke-width="0.25" stroke-miterlimit="10"/>
<path d="M59.2873 261.781C153.211 223.269 230.292 261.683 310.112 296.996C373.742 325.141 437.885 359.881 502.495 395.578C653.511 479.039 785.767 510.607 1010.21 476.678C1063.63 468.603 1112.63 456.767 1159.59 443.548C1263.09 414.409 1355.29 377.748 1492.45 403.824C1642.37 432.316 1767.26 539.3 1869.86 655.915" stroke="#5F98CC" stroke-width="0.25" stroke-miterlimit="10"/>
<path d="M63.4206 247.361C152.443 217.983 225.693 261.876 304.695 300.738C366.162 330.991 429.762 366.615 494.313 401.813C645.935 484.433 780.002 506.648 1004.77 471.248C1057.85 462.889 1106.94 451.248 1154.3 438.466C1257.67 410.627 1351.3 376.644 1488.29 403.955C1636.41 433.474 1761.78 538.596 1866.65 655.813" stroke="#5F98CC" stroke-width="0.25" stroke-miterlimit="10"/>
<path d="M67.5423 232.909C151.663 212.665 221.178 261.949 299.267 304.447C358.666 336.765 421.597 373.317 486.151 407.994C638.348 489.773 774.258 502.657 999.355 465.763C1052.08 457.12 1101.27 445.653 1149.04 433.352C1252.21 406.791 1347.33 375.486 1484.13 404.03C1630.43 434.555 1756.3 537.815 1863.4 655.656" stroke="#5F98CC" stroke-width="0.25" stroke-miterlimit="10"/>
<path d="M71.6671 218.459C150.886 207.371 216.761 262.004 293.842 308.158C351.206 342.499 413.465 380.021 477.992 414.178C630.796 495.093 768.548 498.69 993.941 460.303C1046.32 451.375 1095.6 440.083 1143.78 428.24C1246.78 402.935 1343.37 374.308 1479.99 404.109C1624.49 435.617 1750.84 537.059 1860.21 655.501" stroke="#5F98CC" stroke-width="0.25" stroke-miterlimit="10"/>
<path d="M75.827 204.009C150.144 202.055 212.474 262.016 288.452 311.869C343.843 348.211 405.369 386.703 469.837 420.36C623.247 500.434 762.809 494.722 988.53 454.82C1040.57 445.63 1089.97 434.469 1138.53 423.128C1241.35 399.079 1339.43 373.13 1475.86 404.187C1618.55 436.678 1745.39 536.302 1857.03 655.346" stroke="#5F98CC" stroke-width="0.25" stroke-miterlimit="10"/>
<path d="M79.9435 189.583C149.359 196.785 208.238 262.01 283.019 315.604C336.532 353.948 397.198 393.43 461.67 426.589C615.686 505.799 757.09 490.823 983.107 449.384C1034.8 439.909 1084.3 428.922 1133.26 418.039C1235.89 395.247 1335.49 371.955 1471.71 404.31C1612.63 437.764 1739.93 535.57 1853.83 655.237" stroke="#5F98CC" stroke-width="0.25" stroke-miterlimit="10"/>
<path d="M84.0789 175.141C148.593 191.476 204.117 261.965 277.605 319.322C329.272 359.646 389.078 400.119 453.491 432.778C608.113 511.147 751.359 486.884 977.671 443.93C1029.02 434.193 1078.61 423.337 1127.98 412.934C1230.41 391.376 1331.53 370.762 1467.56 404.395C1606.67 438.811 1734.42 534.82 1850.62 655.089" stroke="#5F98CC" stroke-width="0.25" stroke-miterlimit="10"/>
<path d="M88.2088 160.687C147.821 186.177 200.084 261.91 272.184 323.049C322.1 365.355 380.951 406.839 445.337 438.978C600.565 516.484 745.653 482.955 972.262 438.465C1023.27 428.443 1072.95 417.74 1122.72 407.839C1224.98 387.494 1327.6 369.558 1463.43 404.49C1600.79 439.846 1728.98 534.059 1847.44 654.951" stroke="#5F98CC" stroke-width="0.25" stroke-miterlimit="10"/>
<path d="M92.3254 146.238C147.036 180.861 196.165 261.838 266.751 326.759C314.947 371.068 372.781 413.52 437.139 445.16C593.005 521.803 739.935 479.053 966.776 433.004C1017.43 422.719 1067.18 412.146 1117.39 402.726C1219.45 383.594 1323.6 368.315 1459.22 404.589C1594.81 440.864 1723.45 533.323 1844.15 654.817" stroke="#5F98CC" stroke-width="0.25" stroke-miterlimit="10"/>
<path d="M96.4589 131.815C146.268 175.572 192.325 261.793 261.367 330.497C307.906 376.809 364.69 420.228 429.02 451.369C585.493 527.127 734.264 475.156 961.402 427.548C1011.72 417.001 1061.55 406.537 1112.17 397.64C1214.03 379.721 1319.73 367.077 1455.09 404.694C1588.94 441.887 1718 532.593 1840.97 654.689" stroke="#5F98CC" stroke-width="0.25" stroke-miterlimit="10"/>
<path d="M100.585 117.361C145.492 170.273 188.572 261.739 255.943 334.202C300.888 382.518 356.56 426.926 420.831 457.568C577.942 532.464 728.554 471.271 955.957 422.083C1005.93 411.273 1055.86 400.919 1106.88 392.523C1208.54 375.773 1315.8 365.808 1450.93 404.767C1583.04 442.857 1712.52 531.81 1837.76 654.529" stroke="#5F98CC" stroke-width="0.25" stroke-miterlimit="10"/>
<path d="M104.708 102.915C144.715 164.96 184.881 261.694 250.517 337.915C293.868 388.279 348.429 433.61 412.672 463.753C570.389 537.764 722.874 467.394 950.541 416.626C1000.16 405.553 1050.19 395.308 1101.62 387.414C1203.08 371.855 1311.93 364.547 1446.79 404.869C1577.16 443.857 1707.07 531.078 1834.57 654.399" stroke="#5F98CC" stroke-width="0.25" stroke-miterlimit="10"/>
<path d="M108.836 88.4654C143.941 159.665 181.256 261.667 245.095 341.625C286.946 394.036 340.3 440.291 404.485 469.934C562.84 543.061 717.166 463.513 945.098 411.143C994.408 399.808 1044.5 389.671 1096.33 382.301C1197.6 367.911 1308.03 363.238 1442.63 404.946C1571.28 444.809 1701.58 530.32 1831.35 654.243" stroke="#5F98CC" stroke-width="0.25" stroke-miterlimit="10"/>
<path d="M112.962 74.0469C143.165 154.38 177.693 261.671 239.671 345.365C280.023 399.846 332.235 446.916 396.328 476.146C555.48 548.217 711.519 459.685 939.685 405.691C988.65 394.115 1038.83 384.044 1091.07 377.198C1192.14 363.955 1304.19 361.961 1438.49 405.032C1565.44 445.75 1696.13 529.551 1828.13 654.097" stroke="#5F98CC" stroke-width="0.25" stroke-miterlimit="10"/>
<path d="M117.086 59.5972C142.388 149.085 174.159 261.666 234.246 349.074C273.13 405.625 324.103 453.617 388.137 482.349C547.895 553.556 705.839 455.847 934.238 400.251C982.889 388.413 1033.13 378.429 1085.78 372.128C1186.68 360.055 1300.32 360.674 1434.33 405.174C1559.59 446.767 1690.64 528.858 1824.91 654.006" stroke="#5F98CC" stroke-width="0.25" stroke-miterlimit="10"/>
<path d="M121.217 45.1512C141.618 143.771 170.696 261.708 228.828 352.809C266.275 411.473 315.947 460.344 379.985 488.555C540.35 558.921 700.197 452.035 928.83 394.794C977.137 382.693 1027.48 372.797 1080.53 367.018C1181.23 356.072 1296.52 359.348 1430.2 405.254C1553.78 447.702 1685.16 528.104 1821.73 653.854" stroke="#5F98CC" stroke-width="0.25" stroke-miterlimit="10"/>
<path d="M125.353 30.7015C140.884 138.455 167.268 261.747 223.414 356.518C259.424 417.317 307.828 467.024 371.838 494.736C532.777 564.261 694.685 448.373 923.427 389.311C971.42 376.991 1021.82 367.117 1075.28 361.905C1175.81 352.085 1292.72 357.996 1426.04 405.33C1547.95 448.611 1679.69 527.324 1818.52 653.698" stroke="#5F98CC" stroke-width="0.25" stroke-miterlimit="10"/>
<path d="M129.471 16.2755C146.876 207.94 199.613 431.219 363.642 500.94C558.798 583.882 757.134 383.917 1069.95 356.816C1261.05 340.264 1518.16 386.191 1815.27 653.566" stroke="#5F98CC" stroke-width="0.25" stroke-miterlimit="10"/>
</g>
</svg>
