<svg width="394" height="293" viewBox="0 0 394 293" fill="none" xmlns="http://www.w3.org/2000/svg">
<rect x="1" y="1" width="392" height="291" rx="11" fill="#E9EEF1" stroke="white" stroke-width="2"/>
<path d="M258.111 92H135.889C130.98 92 127 95.9799 127 100.889V192C127 196.909 130.98 200.889 135.889 200.889H258.111C263.02 200.889 267 196.909 267 192V100.889C267 95.9799 263.02 92 258.111 92ZM258.111 100.889V165.535L240.593 149.609C237.96 147.215 233.911 147.311 231.395 149.829L213.666 167.555L178.709 125.8C176.067 122.644 171.226 122.613 168.544 125.731L135.889 163.682V100.889H258.111ZM220.333 124.222C220.333 117.471 225.804 112 232.555 112C239.307 112 244.777 117.471 244.777 124.222C244.777 130.973 239.307 136.444 232.555 136.444C225.804 136.444 220.333 130.973 220.333 124.222Z" fill="#BABEC1"/>
</svg>
