<svg width="22" height="24" viewBox="0 0 22 24" fill="none" xmlns="http://www.w3.org/2000/svg">
<path d="M18.4626 20.9958H18.9626V20.4958V18.0557C18.9626 17.4673 19.4397 16.9902 20.0282 16.9902C20.6166 16.9902 21.0937 17.4673 21.0937 18.0557V22.0612C21.0937 22.6496 20.6165 23.1268 20.0282 23.1268H1.9712C1.38287 23.1268 0.905762 22.6496 0.905762 22.0612V18.0557C0.905762 17.4673 1.38278 16.9902 1.9712 16.9902C2.55961 16.9902 3.03664 17.4673 3.03664 18.0557V20.4958V20.9958H3.53664H18.4626Z" stroke="#373737"/>
<path d="M17.0799 12.0602C16.9934 11.8516 16.7902 11.7156 16.5637 11.7156H14.4877H13.9877L17.0799 12.0602ZM17.0799 12.0602L16.6177 12.251C16.6275 12.2746 16.6217 12.2998 16.6054 12.316L11.1192 17.8022L11.1192 17.8022M17.0799 12.0602L16.618 12.2516C16.6089 12.2299 16.588 12.2156 16.5637 12.2156H13.9877H13.4877V11.7156V1.59475C13.4877 1.19576 13.1649 0.873047 12.7662 0.873047H9.23539C8.83663 0.873047 8.51382 1.19574 8.51382 1.59475V11.7156V12.2156H8.01382H5.43696C5.41302 12.2156 5.39217 12.2296 5.38306 12.2513C5.37348 12.2748 5.37925 12.3 5.39553 12.3163L10.8813 17.8021L11.1192 17.8022M11.1192 17.8022C11.0541 17.8673 10.9471 17.8676 10.8815 17.8022L11.1192 17.8022Z" stroke="#373737"/>
</svg>
