<svg width="32" height="30" viewBox="0 0 32 30" fill="none" xmlns="http://www.w3.org/2000/svg">
<path d="M18.3224 22.1935C24.4509 22.1935 29.4191 17.2254 29.4191 11.0968C29.4191 4.96819 24.4509 0 18.3224 0C12.1938 0 7.22559 4.96819 7.22559 11.0968C7.22559 17.2254 12.1938 22.1935 18.3224 22.1935Z" fill="#E5EFEF"/>
<path d="M30.2749 13.9653C30.5796 13.9653 30.8266 13.7183 30.8266 13.4136C30.8266 13.1088 30.5796 12.8618 30.2749 12.8618C29.9702 12.8618 29.7231 13.1088 29.7231 13.4136C29.7231 13.7183 29.9702 13.9653 30.2749 13.9653Z" fill="#4C241D"/>
<path d="M26.8388 9.80666C26.7068 9.80666 26.5747 9.7562 26.4739 9.65543C26.2724 9.45388 26.2724 9.12717 26.4739 8.92562L28.0223 7.37724C28.2239 7.17569 28.5506 7.17569 28.7521 7.37724C28.9537 7.57878 28.9537 7.90549 28.7521 8.10704L27.2037 9.65543C27.1029 9.7562 26.9708 9.80666 26.8388 9.80666Z" fill="#4C241D"/>
<path d="M28.3872 9.80666C28.2552 9.80666 28.1231 9.7562 28.0223 9.65543L26.4739 8.10704C26.2724 7.90549 26.2724 7.57878 26.4739 7.37724C26.6755 7.17569 27.0022 7.17569 27.2037 7.37724L28.7521 8.92562C28.9537 9.12717 28.9537 9.45388 28.7521 9.65543C28.6513 9.7562 28.5192 9.80666 28.3872 9.80666Z" fill="#4C241D"/>
<path d="M4.38702 6.19347C3.39102 6.19347 2.58057 5.38302 2.58057 4.38702C2.58057 3.39102 3.39102 2.58057 4.38702 2.58057C5.38302 2.58057 6.19347 3.39102 6.19347 4.38702C6.19347 5.38302 5.38302 6.19347 4.38702 6.19347ZM4.38702 3.61282C3.96005 3.61282 3.61282 3.96005 3.61282 4.38702C3.61282 4.81399 3.96005 5.16121 4.38702 5.16121C4.81399 5.16121 5.16121 4.81399 5.16121 4.38702C5.16121 3.96005 4.81399 3.61282 4.38702 3.61282Z" fill="#4C241D"/>
<path d="M23.7431 10.3239C23.7431 5.92482 20.0739 2.38263 15.629 2.59076C11.5833 2.78018 8.30295 6.1896 8.25973 10.2395C8.22876 13.1415 9.79728 15.6742 12.1361 17.0239C12.9213 17.4771 13.4205 18.298 13.4205 19.2046V21.6788H18.5818V19.1807C18.5818 18.278 19.0908 17.4723 19.8724 17.0203C22.1851 15.6829 23.7431 13.1879 23.7431 10.3239Z" fill="white"/>
<path d="M18.5818 22.1952H13.4205C13.1355 22.1952 12.9044 21.9641 12.9044 21.679V19.2047C12.9044 18.5006 12.5112 17.8363 11.8782 17.471C9.29628 15.9811 7.71189 13.2082 7.74363 10.2341C7.7897 5.93618 11.3163 2.27592 15.6051 2.07515C17.8896 1.96934 20.0534 2.7758 21.7013 4.34883C23.3507 5.92263 24.2592 8.04496 24.2592 10.3242C24.2592 13.2576 22.6773 15.9945 20.1307 17.4673C19.484 17.8412 19.098 18.4816 19.098 19.1807V21.6789C19.098 21.9641 18.8669 22.1952 18.5818 22.1952ZM13.9367 21.1629H18.0657V19.1808C18.0657 18.109 18.6445 17.1342 19.6141 16.5737C21.8426 15.285 23.227 12.8902 23.227 10.3242C23.227 8.32973 22.4321 6.47283 20.9888 5.09567C19.5462 3.71941 17.6491 3.01205 15.6533 3.10651C11.9013 3.28212 8.81615 6.48483 8.77576 10.2453C8.74802 12.8472 10.1343 15.2733 12.3942 16.577C13.3456 17.1261 13.9365 18.1332 13.9365 19.2047V21.1629H13.9367Z" fill="#4C241D"/>
<path d="M13.4194 23.2246H18.5807V26.3214H13.4194V23.2246Z" fill="#B5A19C"/>
<path d="M18.5807 26.8375H13.4194C13.1344 26.8375 12.9033 26.6064 12.9033 26.3214V23.2246C12.9033 22.9396 13.1344 22.7085 13.4194 22.7085H18.5807C18.8658 22.7085 19.0969 22.9396 19.0969 23.2246V26.3214C19.0969 26.6064 18.8658 26.8375 18.5807 26.8375ZM13.9356 25.8053H18.0646V23.7408H13.9356V25.8053Z" fill="#4C241D"/>
<path d="M18.5807 25.2901H15.4839C15.1989 25.2901 14.9678 25.059 14.9678 24.7739C14.9678 24.4889 15.1989 24.2578 15.4839 24.2578H18.5807C18.8657 24.2578 19.0968 24.4889 19.0968 24.7739C19.0968 25.059 18.8657 25.2901 18.5807 25.2901Z" fill="#4C241D"/>
<path d="M16 21.6775C15.715 21.6775 15.4839 21.4464 15.4839 21.1614V12.9033C15.4839 12.6183 15.715 12.3872 16 12.3872C16.285 12.3872 16.5161 12.6183 16.5161 12.9033V21.1614C16.5161 21.4464 16.285 21.6775 16 21.6775Z" fill="#4C241D"/>
<path d="M18.0646 14.4517C17.9538 14.4517 17.8449 14.416 17.755 14.3484L16.0001 13.0324L14.2453 14.3484C14.1319 14.4335 13.9888 14.4681 13.8484 14.4444C13.7085 14.4204 13.5848 14.3397 13.5062 14.2218L12.4739 12.6734C12.3159 12.4363 12.3799 12.1157 12.617 11.9577C12.8539 11.799 13.1742 11.8636 13.3328 12.1008L14.0623 13.1952L15.6903 11.9742C15.8738 11.8366 16.1263 11.8366 16.3098 11.9742L17.9378 13.1952L18.6674 12.1008C18.8254 11.8636 19.1452 11.7988 19.3831 11.9577C19.6203 12.1157 19.6843 12.4363 19.5262 12.6734L18.4939 14.2218C18.4154 14.3397 18.2916 14.4204 18.1517 14.4444C18.1228 14.4492 18.0937 14.4517 18.0646 14.4517Z" fill="#4C241D"/>
<path d="M29.4193 29.421H2.58057L3.61282 26.3242H28.387L29.4193 29.421Z" fill="#6B4F5B"/>
<path d="M29.4193 29.9371H2.58055C2.41474 29.9371 2.259 29.8575 2.16197 29.7227C2.06494 29.5881 2.03848 29.4152 2.09087 29.2577L3.12313 26.1609C3.19345 25.9503 3.39048 25.8081 3.61281 25.8081H28.387C28.6093 25.8081 28.8064 25.9503 28.8767 26.1609L29.9089 29.2577C29.9613 29.4152 29.9349 29.5881 29.8378 29.7227C29.7408 29.8575 29.5851 29.9371 29.4193 29.9371ZM3.29655 28.9049H28.7033L28.015 26.8404H3.98481L3.29655 28.9049Z" fill="#4C241D"/>
<path d="M8.77405 26.3223H4.64502V25.5553C4.64502 25.1237 4.99483 24.7739 5.42644 24.7739H7.99263C8.42425 24.7739 8.77405 25.1237 8.77405 25.5553V26.3223Z" fill="#FFCE56"/>
<path d="M8.77407 26.8385H4.64504C4.36 26.8385 4.12891 26.6074 4.12891 26.3223V25.5555C4.12891 24.84 4.7111 24.2578 5.42658 24.2578H7.99265C8.708 24.2578 9.2902 24.84 9.2902 25.5555V26.3223C9.2902 26.6074 9.0591 26.8385 8.77407 26.8385ZM5.16116 25.8062H8.25794V25.5555C8.25794 25.409 8.13897 25.2901 7.99252 25.2901H5.42658C5.28013 25.2901 5.16116 25.409 5.16116 25.5555V25.8062Z" fill="#4C241D"/>
<path d="M21.1606 24.7739H23.2252V26.3223H21.1606V24.7739Z" fill="#A9BA5A"/>
<path d="M23.2257 26.8385H21.1611C20.8761 26.8385 20.645 26.6074 20.645 26.3223V24.7739C20.645 24.4889 20.8761 24.2578 21.1611 24.2578H23.2257C23.5107 24.2578 23.7418 24.4889 23.7418 24.7739V26.3223C23.7418 26.6074 23.5107 26.8385 23.2257 26.8385ZM21.6773 25.8062H22.7095V25.2901H21.6773V25.8062Z" fill="#4C241D"/>
<path d="M24.7744 24.7739H26.8389V26.3223H24.7744V24.7739Z" fill="#E66353"/>
<path d="M26.8389 26.8385H24.7744C24.4894 26.8385 24.2583 26.6074 24.2583 26.3223V24.7739C24.2583 24.4889 24.4894 24.2578 24.7744 24.2578H26.8389C27.124 24.2578 27.3551 24.4889 27.3551 24.7739V26.3223C27.3551 26.6074 27.124 26.8385 26.8389 26.8385ZM25.2906 25.8062H26.3228V25.2901H25.2906V25.8062Z" fill="#4C241D"/>
<path d="M11.8711 21.6787H20.1292V23.2271H11.8711V21.6787Z" fill="#6B4F5B"/>
<path d="M20.1292 23.7432H11.8711C11.5861 23.7432 11.355 23.5121 11.355 23.2271V21.6787C11.355 21.3937 11.5861 21.1626 11.8711 21.1626H20.1292C20.4142 21.1626 20.6453 21.3937 20.6453 21.6787V23.2271C20.6453 23.5121 20.4142 23.7432 20.1292 23.7432ZM12.3872 22.711H19.613V22.1949H12.3872V22.711Z" fill="#4C241D"/>
<path d="M31.4839 29.9346H0.516129C0.231097 29.9346 0 29.7035 0 29.4185C0 29.1334 0.231097 28.9023 0.516129 28.9023H31.4839C31.7689 28.9023 32 29.1334 32 29.4185C32 29.7035 31.7689 29.9346 31.4839 29.9346Z" fill="#4C241D"/>
<path d="M25.2901 29.9346C25.005 29.9346 24.7739 29.7036 24.7739 29.4185V27.8701C24.7739 27.5851 25.005 27.354 25.2901 27.354C25.5751 27.354 25.8062 27.5851 25.8062 27.8701V29.4185C25.8062 29.7036 25.5751 29.9346 25.2901 29.9346Z" fill="#4C241D"/>
<path d="M23.2256 29.9346C22.9406 29.9346 22.7095 29.7036 22.7095 29.4185V27.8701C22.7095 27.5851 22.9406 27.354 23.2256 27.354C23.5106 27.354 23.7417 27.5851 23.7417 27.8701V29.4185C23.7417 29.7036 23.5106 29.9346 23.2256 29.9346Z" fill="#4C241D"/>
<path d="M21.1611 29.9346C20.8761 29.9346 20.645 29.7036 20.645 29.4185V27.8701C20.645 27.5851 20.8761 27.354 21.1611 27.354C21.4462 27.354 21.6773 27.5851 21.6773 27.8701V29.4185C21.6773 29.7036 21.4462 29.9346 21.1611 29.9346Z" fill="#4C241D"/>
<path d="M19.0967 29.9346C18.8117 29.9346 18.5806 29.7036 18.5806 29.4185V27.8701C18.5806 27.5851 18.8117 27.354 19.0967 27.354C19.3817 27.354 19.6128 27.5851 19.6128 27.8701V29.4185C19.6128 29.7036 19.3817 29.9346 19.0967 29.9346Z" fill="#4C241D"/>
<path d="M17.0322 29.9346C16.7472 29.9346 16.5161 29.7036 16.5161 29.4185V27.8701C16.5161 27.5851 16.7472 27.354 17.0322 27.354C17.3173 27.354 17.5484 27.5851 17.5484 27.8701V29.4185C17.5484 29.7036 17.3173 29.9346 17.0322 29.9346Z" fill="#4C241D"/>
</svg>
