 <svg width="72" height="72" viewBox="0 0 72 72" fill="none" xmlns="http://www.w3.org/2000/svg">
                        <path fill-rule="evenodd" clip-rule="evenodd" d="M67.9793 17.3599H49.2245V14.4662C49.2245 13.0401 48.0648 11.88 46.6397 11.88H46.5114V3.57254C46.5114 2.14639 45.3517 0.986328 43.9266 0.986328H28.6966C27.2715 0.986328 26.1118 2.14639 26.1118 3.57254V11.88H25.3603C23.9352 11.88 22.7755 13.0401 22.7755 14.4662V17.3599H4.02074C1.80359 17.3599 0 19.1645 0 21.3829V67.7968C0 70.0152 1.80359 71.8198 4.02074 71.8198H67.9793C70.1964 71.8198 72 70.0152 72 67.7968V21.3829C72 19.1648 70.1964 17.3599 67.9793 17.3599ZM43.9264 3.28323C44.0846 3.28323 44.2136 3.41196 44.2136 3.57059V11.8781H37.4616V3.28323H43.9264ZM28.6964 3.28323C28.5382 3.28323 28.4092 3.41196 28.4092 3.57059V11.8781H35.1641V3.28323H28.6964ZM25.0731 14.4645C25.0731 14.3059 25.2021 14.1772 25.3603 14.1772H46.6398C46.7981 14.1772 46.927 14.3059 46.927 14.4645V19.922C46.927 20.0806 46.7981 20.2094 46.6398 20.2094H25.3603C25.2021 20.2094 25.0731 20.0806 25.0731 19.922V14.4645ZM67.9788 69.5192C68.9292 69.5192 69.702 68.7459 69.702 67.7951V21.3812C69.702 20.4303 68.9292 19.6571 67.9788 19.6571H49.2241V19.922C49.2241 21.3482 48.0644 22.5082 46.6393 22.5082H41.4563V26.4042C41.4563 26.5628 41.5852 26.6916 41.7435 26.6916H60.8506C62.2757 26.6916 63.4354 27.8516 63.4354 29.2778V35.0246C65.0799 35.52 66.2821 37.0476 66.2821 38.8525C66.2821 41.0571 64.4894 42.8505 62.286 42.8505C60.0827 42.8505 58.2903 41.0571 58.2903 38.8525C58.2903 37.0473 59.4928 35.5195 61.1378 35.0243V29.2778C61.1378 29.1192 61.0089 28.9904 60.8506 28.9904H41.7435C40.3184 28.9904 39.1587 27.8304 39.1587 26.4042V22.5082H32.3981V26.7318C32.3981 28.1579 31.2399 29.318 29.8162 29.318L13.5414 29.364C13.05 31.0151 11.521 32.2235 9.7131 32.2235C7.50973 32.2235 5.71705 30.4298 5.71705 28.2252C5.71705 26.0206 7.50973 24.2272 9.7131 24.2272C11.5132 24.2272 13.0377 25.4249 13.536 27.0651L29.8131 27.0191C29.973 27.0191 30.1006 26.8904 30.1006 26.7318V22.5082H25.3598C23.9347 22.5082 22.7751 21.3482 22.7751 19.922V19.6571H4.0203C3.06997 19.6571 2.29712 20.4303 2.29712 21.3812V67.7951C2.29712 68.7459 3.06997 69.5192 4.0203 69.5192H67.9788ZM11.4113 28.2304C11.4078 29.1646 10.6476 29.9238 9.71335 29.9238C8.77681 29.9238 8.01488 29.1615 8.01488 28.2244C8.01488 27.2873 8.77681 26.5252 9.71335 26.5252C10.6456 26.5252 11.4041 27.2807 11.411 28.212C11.411 28.2132 11.4108 28.2143 11.4106 28.2154L11.4105 28.2161C11.4103 28.2173 11.4101 28.2186 11.4101 28.2201C11.4101 28.2235 11.4113 28.2267 11.4113 28.2304ZM62.282 37.1531C62.2812 37.153 62.2805 37.1529 62.2797 37.1529C61.3466 37.1569 60.5884 37.9176 60.5884 38.8523C60.5884 39.7894 61.3504 40.5515 62.2866 40.5515C63.2232 40.5515 63.9851 39.7894 63.9851 38.8523C63.9851 37.9179 63.2272 37.1572 62.2944 37.1532C62.2931 37.1532 62.2918 37.1534 62.2904 37.1535C62.2894 37.1537 62.2883 37.1538 62.2872 37.1538C62.2854 37.1538 62.2837 37.1533 62.282 37.1531Z" fill="#363636" />
                        <path fill-rule="evenodd" clip-rule="evenodd" d="M8.66131 50.9324H8.30174C6.87668 50.9324 5.71698 49.7724 5.71698 48.3462V40.0215C5.71698 38.5953 6.87668 37.4353 8.30174 37.4353H8.66131V35.0336C8.66131 34.3988 9.17568 33.8841 9.8101 33.8841C10.4445 33.8841 10.9589 34.3988 10.9589 35.0336V37.4353H14.6522V35.0336C14.6522 34.3988 15.1666 33.8841 15.801 33.8841C16.4354 33.8841 16.9498 34.3988 16.9498 35.0336V37.4353H20.6403V35.0336C20.6403 34.3988 21.1546 33.8841 21.789 33.8841C22.4235 33.8841 22.9378 34.3988 22.9378 35.0336V37.4353H26.6283V35.0336C26.6283 34.3988 27.1427 33.8841 27.7771 33.8841C28.4115 33.8841 28.9259 34.3988 28.9259 35.0336V37.4353H29.2866C30.7116 37.4353 31.8713 38.5953 31.8713 40.0215V48.3462C31.8713 49.7724 30.7116 50.9324 29.2866 50.9324H28.9259V53.8554C28.9259 54.4902 28.4115 55.0049 27.7771 55.0049C27.1427 55.0049 26.6283 54.4902 26.6283 53.8554V50.9324H22.9378V53.8554C22.9378 54.4902 22.4235 55.0049 21.789 55.0049C21.1546 55.0049 20.6403 54.4902 20.6403 53.8554V50.9324H16.9498V53.8554C16.9498 54.4902 16.4354 55.0049 15.801 55.0049C15.1666 55.0049 14.6522 54.4902 14.6522 53.8554V50.9324H10.9589V53.8554C10.9589 54.4902 10.4445 55.0049 9.8101 55.0049C9.17568 55.0049 8.66131 54.4902 8.66131 53.8554V50.9324ZM8.30151 39.7344C8.14326 39.7344 8.01431 39.8631 8.01431 40.0217V48.3465C8.01431 48.5051 8.14326 48.6338 8.30151 48.6338H29.2863C29.4446 48.6338 29.5735 48.5051 29.5735 48.3465V40.0217C29.5735 39.8631 29.4446 39.7344 29.2863 39.7344H27.7797C27.779 39.7344 27.7785 39.7345 27.778 39.7346C27.7776 39.7346 27.7773 39.7347 27.7768 39.7347C27.7762 39.7347 27.7757 39.7346 27.7752 39.7345C27.7748 39.7344 27.7744 39.7344 27.774 39.7344H21.7917C21.7911 39.7344 21.7907 39.7345 21.7902 39.7345C21.7898 39.7346 21.7894 39.7347 21.7888 39.7347C21.7877 39.7347 21.7868 39.7344 21.7859 39.7344H15.8036C15.8031 39.7344 15.8026 39.7345 15.8022 39.7345C15.8018 39.7346 15.8013 39.7347 15.8008 39.7347C15.7996 39.7347 15.7988 39.7344 15.7979 39.7344H9.81273C9.81158 39.7344 9.81101 39.7347 9.80986 39.7347C9.80924 39.7347 9.80871 39.7346 9.80822 39.7345C9.80779 39.7344 9.80739 39.7344 9.80699 39.7344H8.30151Z" fill="#363636" />
                        <path d="M11.947 45.3326H25.6425C26.2769 45.3326 26.7913 44.8179 26.7913 44.1831C26.7913 43.5484 26.2769 43.0337 25.6425 43.0337H11.947C11.3126 43.0337 10.7982 43.5484 10.7982 44.1831C10.7982 44.8179 11.3126 45.3326 11.947 45.3326Z" fill="#363636" />
                        <path fill-rule="evenodd" clip-rule="evenodd" d="M39.8231 50.5997C39.8231 49.9649 40.3374 49.4502 40.9718 49.4502H43.1353V45.5939H40.9718C40.3374 45.5939 39.8231 45.0793 39.8231 44.4445C39.8231 43.8097 40.3374 43.2951 40.9718 43.2951H43.1353V39.4416H40.9718C40.3374 39.4416 39.8231 38.9269 39.8231 38.2922C39.8231 37.6574 40.3374 37.1427 40.9718 37.1427H43.1353V35.6356C43.1353 34.2094 44.295 33.0493 45.7201 33.0493H48.984C50.4091 33.0493 51.5688 34.2094 51.5688 35.6356V37.1427H53.7348C54.3692 37.1427 54.8836 37.6574 54.8836 38.2922C54.8836 38.9269 54.3692 39.4416 53.7348 39.4416H51.5688V43.2951H53.7348C54.3692 43.2951 54.8836 43.8097 54.8836 44.4445C54.8836 45.0793 54.3692 45.5939 53.7348 45.5939H51.5688V49.4502H53.7348C54.3692 49.4502 54.8836 49.9649 54.8836 50.5997C54.8836 51.2344 54.3692 51.7491 53.7348 51.7491H51.5688V53.2548C51.5688 54.681 50.4091 55.8411 48.984 55.8411H45.7201C44.295 55.8411 43.1353 54.681 43.1353 53.2548V51.7491H40.9718C40.3374 51.7491 39.8231 51.2344 39.8231 50.5997ZM45.7201 35.3477C45.5619 35.3477 45.4329 35.4765 45.4329 35.6351V53.2544C45.4329 53.413 45.5619 53.5417 45.7201 53.5417H48.9841C49.1423 53.5417 49.2713 53.413 49.2713 53.2544V35.6351C49.2713 35.4765 49.1423 35.3477 48.9841 35.3477H45.7201Z" fill="#363636" />
                        <path d="M35.0312 30.4877H36.526C37.1604 30.4877 37.6748 29.973 37.6748 29.3382C37.6748 28.7035 37.1604 28.1888 36.526 28.1888H35.0312C34.3968 28.1888 33.8824 28.7035 33.8824 29.3382C33.8824 29.973 34.3968 30.4877 35.0312 30.4877Z" fill="#5F266D" />
                        <path d="M35.0312 35.613H36.526C37.1604 35.613 37.6748 35.0983 37.6748 34.4636C37.6748 33.8288 37.1604 33.3141 36.526 33.3141H35.0312C34.3968 33.3141 33.8824 33.8288 33.8824 34.4636C33.8824 35.0983 34.3968 35.613 35.0312 35.613Z" fill="#5F266D" />
                        <path fill-rule="evenodd" clip-rule="evenodd" d="M62.2862 48.2144C60.0829 48.2144 58.2905 50.0078 58.2905 52.2124C58.2905 54.0176 59.493 55.5455 61.138 56.0406V60.8064C61.138 60.9676 61.0119 61.0938 60.8508 61.0938H13.5385C13.0433 59.4486 11.5166 58.2463 9.71302 58.2463C7.50966 58.2463 5.71698 60.0397 5.71698 62.2443C5.71698 64.4489 7.50966 66.2426 9.71302 66.2426C11.5175 66.2426 13.0445 65.0392 13.539 63.3926H60.8508C62.2759 63.3926 63.4356 62.2325 63.4356 60.8064V56.0403C65.0804 55.5449 66.2823 54.017 66.2823 52.2124C66.2823 50.0081 64.4896 48.2144 62.2862 48.2144ZM9.71354 63.9442C8.77699 63.9442 8.01506 63.1818 8.01506 62.2447C8.01506 61.3077 8.77699 60.5456 9.71354 60.5456C10.6463 60.5456 11.4057 61.3025 11.4112 62.2347C11.4112 62.2376 11.4103 62.2404 11.4103 62.2436C11.4103 62.2452 11.4105 62.2468 11.4107 62.2483C11.4109 62.2499 11.4112 62.2515 11.4112 62.2531C11.4066 63.1861 10.6469 63.9442 9.71354 63.9442ZM60.5886 52.2125C60.5886 53.1496 61.3505 53.9119 62.2868 53.9119C63.2234 53.9119 63.9853 53.1496 63.9853 52.2125C63.9853 51.2754 63.2234 50.5134 62.2868 50.5134C61.3505 50.5134 60.5886 51.2754 60.5886 52.2125Z" fill="#363636" />
                        <path d="M31.4707 6.5565C30.8363 6.5565 30.3219 7.07116 30.3219 7.70593V8.19702C30.3219 8.83179 30.8363 9.34645 31.4707 9.34645C32.1051 9.34645 32.6195 8.83179 32.6195 8.19702V7.70593C32.6195 7.07116 32.1051 6.5565 31.4707 6.5565Z" fill="#5F266D" />
                        <path d="M40.5298 9.34645C41.1642 9.34645 41.6785 8.83179 41.6785 8.19702V7.70593C41.6785 7.07116 41.1642 6.5565 40.5298 6.5565C39.8953 6.5565 39.381 7.07116 39.381 7.70593V8.19702C39.381 8.83179 39.8953 9.34645 40.5298 9.34645Z" fill="#5F266D" />
                    </svg>