<svg width="33" height="37" viewBox="0 0 33 37" fill="none" xmlns="http://www.w3.org/2000/svg">
<path d="M24.2308 16.095V9.44766C24.2308 9.25739 24.1429 9.0816 24.0186 8.94251L16.566 1.11663C16.4269 0.970311 16.2292 0.889648 16.0317 0.889648H4.21579C2.03441 0.889648 0.291992 2.66851 0.291992 4.85016V27.1932C0.291992 29.3748 2.03441 31.1245 4.21579 31.1245H13.5426C15.3068 34.0527 18.5134 36.0146 22.1663 36.0146C27.7154 36.0146 32.247 31.505 32.247 25.9487C32.2545 21.095 28.7697 17.0393 24.2308 16.095ZM16.7638 3.45933L21.7638 8.72277H18.5207C17.5543 8.72277 16.7638 7.92499 16.7638 6.95864V3.45933ZM4.21579 29.6602C2.84693 29.6602 1.75625 28.562 1.75625 27.1932V4.85016C1.75625 3.4738 2.84693 2.3539 4.21579 2.3539H15.2995V6.95864C15.2995 8.73751 16.7418 10.187 18.5207 10.187H22.7666V15.9044C22.5471 15.8972 22.3713 15.8752 22.181 15.8752C19.6261 15.8752 17.2762 16.8563 15.5045 18.3937H6.20716C5.80439 18.3937 5.47504 18.7231 5.47504 19.1256C5.47504 19.5283 5.80439 19.8577 6.20716 19.8577H14.1429C13.623 20.5898 13.191 21.322 12.8545 22.1272H6.20716C5.80439 22.1272 5.47504 22.4566 5.47504 22.8594C5.47504 23.2619 5.80439 23.5915 6.20716 23.5915H12.3785C12.1955 24.3236 12.1004 25.1361 12.1004 25.9487C12.1004 27.2663 12.3566 28.5695 12.8177 29.6677H4.21579V29.6602ZM22.1738 34.5579C17.43 34.5579 13.5718 30.6997 13.5718 25.9559C13.5718 21.2121 17.4225 17.3539 22.1738 17.3539C26.9249 17.3539 30.7755 21.2121 30.7755 25.9559C30.7755 30.6997 26.9176 34.5579 22.1738 34.5579Z" fill="#8B8B8B"/>
<path d="M6.20674 16.1898H13.6226C14.0254 16.1898 14.3547 15.8602 14.3547 15.4577C14.3547 15.0549 14.0254 14.7256 13.6226 14.7256H6.20674C5.80396 14.7256 5.47461 15.0549 5.47461 15.4577C5.47461 15.8602 5.80396 16.1898 6.20674 16.1898Z" fill="#8B8B8B"/>
<path d="M22.6939 20.5516C22.5548 20.4053 22.3645 20.3174 22.1595 20.3174C21.9545 20.3174 21.7642 20.4053 21.6252 20.5516L17.335 25.1563C17.0569 25.4492 17.0788 25.9177 17.3717 26.1886C17.6646 26.4668 18.1403 26.4448 18.4185 26.1522L21.4494 22.909V30.9032C21.4494 31.306 21.7787 31.6353 22.1815 31.6353C22.584 31.6353 22.9136 31.306 22.9136 30.9032V22.909L25.9223 26.1522C26.0688 26.3057 26.2591 26.3864 26.4569 26.3864C26.6324 26.3864 26.8082 26.3205 26.9545 26.1886C27.2474 25.9104 27.2694 25.4492 26.9912 25.1563L22.6939 20.5516Z" fill="#8B8B8B"/>
</svg>
