<svg width="221" height="268" viewBox="0 0 221 268" fill="none" xmlns="http://www.w3.org/2000/svg">
<path d="M89.0709 82.7069C89.0709 82.7069 140.044 104.933 149.294 104.533C158.548 104.127 215.559 87.1513 215.559 87.1513L214.108 96.9664C214.108 96.9664 170.111 122.297 154.726 123.731C139.582 125.147 87.7985 110.126 82.7977 106.955C77.8014 103.784 74.5402 85.9177 89.0709 82.7069Z" fill="#ED985F"/>
<path d="M81.4096 0.936005C81.4096 0.936005 62.6032 -2.64 53.2423 4.20473C36.2779 16.6027 35.3659 59.3545 29.0081 65.7272C22.6503 72.0954 7.32321 69.3789 5.95733 102.333C4.59146 135.288 12.057 138.04 3.16775 152.749C-5.72599 167.459 6.93169 182.181 6.93169 182.181C6.93169 182.181 1.74849 174.063 3.96859 168.198C3.96859 168.198 6.1264 181.135 14.335 184.167C22.5436 187.2 23.7582 189.422 25.0707 193.871C25.0707 193.871 95.1128 157.946 95.1884 132.469C95.2641 106.992 108.972 81.7502 102.24 70.706C102.24 70.706 105.239 75.4309 105.604 80.6858C105.604 80.6858 109.644 72.9415 102.641 65.7316C95.6422 58.5217 110.854 43.5987 108.598 26.3199C107.054 14.4473 98.7388 1.45259 81.4096 0.936005Z" fill="#233862"/>
<path d="M95.2641 106.982C90.7883 110.09 85.1735 112.655 78.1262 114.281C51.7119 120.391 41.5902 98.044 37.7862 82.7023C41.39 80.6405 44.7757 80.1862 46.7333 79.9502C48.642 79.7231 50.6485 79.5761 52.3125 79.4915C55.28 77.2159 59.698 67.9129 60.6768 53.4619L61.9181 53.7959L82.7354 59.5006C82.7354 59.5006 81.7833 66.1227 81.3162 72.384C80.9558 77.2826 80.898 81.9631 81.8234 83.112C83.4473 83.4638 84.4216 83.6954 84.4216 83.6954C84.4216 83.6954 84.4216 83.7043 84.4305 83.7132C84.7197 84.1764 90.7572 94.1162 95.2641 106.982Z" fill="#FFB27D"/>
<path d="M82.7399 59.5051C82.7399 59.5051 81.7833 66.1227 81.3206 72.3885C69.5261 71.2084 64.0537 59.9682 61.9225 53.8004L82.7399 59.5051Z" fill="#ED985F"/>
<path d="M86.2635 65.7264C86.2635 65.7264 58.2698 64.1811 59.4977 46.7464C60.7301 29.3117 57.945 17.3679 75.8704 17.6218C93.7958 17.8712 96.7945 24.7693 97.8 30.6878C98.8011 36.6018 93.5778 65.6774 86.2635 65.7264Z" fill="#FFB27D"/>
<path d="M97.6621 20.9306C93.7158 15.3773 90.3656 16.2947 88.4258 17.7376C73.7438 8.22977 63.0081 19.9553 63.0081 19.9553C60.2408 32.3311 50.7153 38.8507 50.7153 38.8507C50.7153 38.8507 55.587 42.3688 67.5507 40.1867C71.2078 39.5187 74.5936 37.1985 77.5389 34.295C72.2133 41.9324 65.3306 47.214 65.3306 47.214C79.8302 41.7275 86.8642 22.5961 87.576 20.5699C89.1733 22.2265 92.301 25.8025 93.0885 29.1425C94.1651 33.6804 98.8056 40.779 101.488 40.6587C101.484 40.6632 103.579 29.2627 97.6621 20.9306Z" fill="#233862"/>
<path d="M29.8134 163.953C27.2863 151.016 19.0421 99.3355 27.2863 82.7069C30.245 76.7305 41.8615 76.1917 54.6082 76.7172C58.5724 79.2778 73.6859 88.9638 79.8924 87.7569C79.9592 87.7436 80.0793 87.7169 80.2395 87.6768C83.1625 86.9464 84.2659 84.889 81.8278 83.1166C81.8233 83.1121 88.1411 82.5065 95.9804 83.985C100.407 84.8177 112.349 91.0034 112.349 91.0034C112.349 91.0034 106.333 101.878 97.4664 105.632C98.9746 119.135 96.7323 125.089 82.7399 156.276C70.9142 182.635 84.3371 206.366 84.3371 206.366C84.3371 206.366 14.7265 262.384 14.3394 233.861C14.0458 212.387 33.0434 180.488 29.8134 163.953Z" fill="#F9DDBF"/>
<path d="M87.7851 267.279C91.5713 266.851 94.9793 264.776 97.0971 261.605C97.4308 261.102 97.7912 260.563 98.1738 259.984C106.098 247.978 109.181 211.211 127.004 172.04C131.346 162.506 146.927 160.791 151.176 150.01C151.176 150.01 161.636 115.069 131.159 114.036C100.683 113.007 49.5407 211.256 48.7354 221.561C47.9479 231.545 28.5855 273.967 87.7851 267.279Z" fill="#DD6D22"/>
<path d="M208.912 266.477H165.538C165.538 266.477 163.918 259.552 166.765 254.84C169.288 250.672 168.318 248.294 166.454 244.847C168.421 245.653 170.961 246.384 173.759 246.223C175.922 246.099 178.204 245.119 180.211 243.952C182.079 246.081 190.07 255.152 192.57 256.947C195.4 258.986 208.04 258.261 208.912 266.477Z" fill="#233862"/>
<path d="M152.164 124.136C154.775 143.735 164.977 205.596 182.969 235.776C188.771 245.506 168.354 250.962 168.243 250.931C165.506 250.214 160.942 245.845 158.842 243.948C144.235 230.77 114.582 193.461 114.582 163.548C114.582 148.963 114.324 121.108 124.922 114.027C131.449 109.667 151.127 116.352 152.164 124.136Z" fill="#ED7D2B"/>
<path d="M61.9225 266.477C61.9225 266.477 63.5287 264.237 66.3316 259.984C69.6684 254.925 73.3567 244.976 77.837 232.218C82.5441 218.827 88.1233 202.349 95.0995 185.204C97.2528 179.914 99.5397 174.556 101.969 169.208C106.311 159.673 118.253 160.991 122.501 150.21C122.501 150.21 139.079 112.838 108.607 111.809C78.1306 110.78 20.2212 211.781 16.8932 221.565C13.2494 232.271 -4.52473 276.737 61.9225 266.477Z" fill="#F99746"/>
<path d="M177.07 266.477H133.695C133.695 266.477 132.076 259.552 134.923 254.84C137.446 250.672 136.476 248.294 134.612 244.847C136.578 245.653 139.119 246.384 141.917 246.223C144.08 246.099 146.362 245.119 148.369 243.952C150.237 246.081 158.228 255.152 160.728 256.947C163.558 258.986 176.198 258.261 177.07 266.477Z" fill="#2B478B"/>
<path d="M77.8369 232.218C82.5441 218.827 88.1232 202.349 95.0994 185.204C93.2797 172.214 89.3467 160.853 82.7398 156.271C82.7398 156.271 66.7097 205.979 77.8369 232.218Z" fill="#ED7D2B"/>
<path d="M126.844 122.747C129.455 142.346 133.135 205.596 151.127 235.776C156.929 245.506 136.512 250.962 136.4 250.931C133.664 250.214 129.099 245.845 126.999 243.948C112.393 230.77 82.7399 193.461 82.7399 163.548C82.7399 148.963 99.8422 122.274 110.436 115.194C116.962 110.838 125.807 114.962 126.844 122.747Z" fill="#F99746"/>
<path d="M91.5045 55.6975C91.5045 55.6975 88.8573 54.651 81.4095 55.2522C81.4095 55.2522 81.8055 58.1602 87.2957 58.4496C90.4101 58.61 91.5045 55.6975 91.5045 55.6975Z" fill="white"/>
<path d="M221 66.6126L212.008 50.3713L192.552 104.706L204.031 117.037L221 66.6126Z" fill="#163560"/>
<path d="M174.044 76.1248L155.963 127.832L204.031 117.037L221 66.6125L174.044 76.1248Z" fill="#1C468A"/>
<path d="M156.92 125.223L156.079 123.748L173.19 74.8156L174.044 76.1248L156.92 125.223Z" fill="#EFDECE"/>
<path d="M173.19 74.8156L218.762 65.9402L221 66.6126L174.044 76.1249L173.19 74.8156Z" fill="#FCECDB"/>
<path d="M221 66.6125L211.274 51.1595L205.077 68.6032L218.762 65.9401L221 66.6125Z" fill="#EFDECE"/>
<path d="M187.925 83.6108C186.364 83.308 183.009 82.0432 179.614 81.1081C180.629 80.3198 181.755 79.3534 182.07 78.3604C182.675 76.4454 183.08 75.8309 181.06 76.4365C179.041 77.0422 171.975 80.2886 171.975 80.2886C171.975 80.2886 171.989 80.2975 171.993 80.2975C167.98 81.4732 164.278 87.1512 164.278 87.1512C164.278 87.1512 114.582 104.639 108.602 104.938C99.3528 105.401 37.7862 82.7112 37.7862 82.7112C23.2554 85.9221 26.5166 103.789 31.5174 106.959C36.5182 110.13 80.8178 126.26 107.072 126.563C120.37 126.719 168.741 95.5991 168.741 95.5991C168.741 95.5991 174.396 93.0117 178.836 93.8222C183.276 94.6327 193.576 93.8222 195.796 90.1839C198.02 86.5411 190.55 84.1185 187.925 83.6108Z" fill="#FFB27D"/>
<path d="M69.5082 93.8979C69.5082 93.8979 64.0002 111.346 45.0916 115.314C45.0916 115.314 13.8634 105.686 29.413 84.3901C29.4085 84.3901 44.7846 72.9585 69.5082 93.8979Z" fill="#F9DDBF"/>
<path d="M220.19 84.9246C220.199 84.4436 220.15 83.9671 220.021 83.5084C220.021 83.5084 215.568 76.4544 214.108 76.1694C209.664 75.2921 209.664 81.1482 210.607 84.9246C211.265 87.5565 212.934 90.0815 214.286 91.4442L214.108 96.9619C221.614 92.8381 220.19 84.9246 220.19 84.9246Z" fill="#FFB27D"/>
</svg>
