<svg width="177" height="45" viewBox="0 0 177 45" fill="none" xmlns="http://www.w3.org/2000/svg">
<g filter="url(#filter0_d)">
<path d="M173 3.96533H26H25V29.756H173L164 17.3567L173 3.96533Z" fill="#D2E3FC"/>
<path d="M38.26 14.6H39.46V23H38.26V14.6ZM45.4428 16.58C46.2508 16.58 46.8908 16.816 47.3628 17.288C47.8428 17.752 48.0828 18.436 48.0828 19.34V23H46.9308V19.472C46.9308 18.856 46.7828 18.392 46.4868 18.08C46.1908 17.768 45.7668 17.612 45.2148 17.612C44.5908 17.612 44.0988 17.796 43.7388 18.164C43.3788 18.524 43.1988 19.044 43.1988 19.724V23H42.0468V16.64H43.1508V17.6C43.3828 17.272 43.6948 17.02 44.0868 16.844C44.4868 16.668 44.9388 16.58 45.4428 16.58ZM53.262 23.072C52.614 23.072 52.034 22.932 51.522 22.652C51.018 22.372 50.622 21.988 50.334 21.5C50.046 21.004 49.902 20.444 49.902 19.82C49.902 19.196 50.046 18.64 50.334 18.152C50.622 17.656 51.018 17.272 51.522 17C52.034 16.72 52.614 16.58 53.262 16.58C53.838 16.58 54.35 16.696 54.798 16.928C55.254 17.16 55.606 17.496 55.854 17.936L54.978 18.5C54.778 18.196 54.53 17.968 54.234 17.816C53.938 17.664 53.61 17.588 53.25 17.588C52.834 17.588 52.458 17.68 52.122 17.864C51.794 18.048 51.534 18.312 51.342 18.656C51.158 18.992 51.066 19.38 51.066 19.82C51.066 20.268 51.158 20.664 51.342 21.008C51.534 21.344 51.794 21.604 52.122 21.788C52.458 21.972 52.834 22.064 53.25 22.064C53.61 22.064 53.938 21.988 54.234 21.836C54.53 21.684 54.778 21.456 54.978 21.152L55.854 21.704C55.606 22.144 55.254 22.484 54.798 22.724C54.35 22.956 53.838 23.072 53.262 23.072ZM57.5034 14.096H58.6554V23H57.5034V14.096ZM67.023 16.64V23H65.931V22.04C65.699 22.368 65.391 22.624 65.007 22.808C64.631 22.984 64.219 23.072 63.771 23.072C62.923 23.072 62.255 22.84 61.767 22.376C61.279 21.904 61.035 21.212 61.035 20.3V16.64H62.187V20.168C62.187 20.784 62.335 21.252 62.631 21.572C62.927 21.884 63.351 22.04 63.903 22.04C64.511 22.04 64.991 21.856 65.343 21.488C65.695 21.12 65.871 20.6 65.871 19.928V16.64H67.023ZM75.4561 14.096V23H74.3521V21.992C74.0961 22.344 73.7721 22.612 73.3801 22.796C72.9881 22.98 72.5561 23.072 72.0841 23.072C71.4681 23.072 70.9161 22.936 70.4281 22.664C69.9401 22.392 69.5561 22.012 69.2761 21.524C69.0041 21.028 68.8681 20.46 68.8681 19.82C68.8681 19.18 69.0041 18.616 69.2761 18.128C69.5561 17.64 69.9401 17.26 70.4281 16.988C70.9161 16.716 71.4681 16.58 72.0841 16.58C72.5401 16.58 72.9601 16.668 73.3441 16.844C73.7281 17.012 74.0481 17.264 74.3041 17.6V14.096H75.4561ZM72.1801 22.064C72.5801 22.064 72.9441 21.972 73.2721 21.788C73.6001 21.596 73.8561 21.332 74.0401 20.996C74.2241 20.652 74.3161 20.26 74.3161 19.82C74.3161 19.38 74.2241 18.992 74.0401 18.656C73.8561 18.312 73.6001 18.048 73.2721 17.864C72.9441 17.68 72.5801 17.588 72.1801 17.588C71.7721 17.588 71.4041 17.68 71.0761 17.864C70.7561 18.048 70.5001 18.312 70.3081 18.656C70.1241 18.992 70.0321 19.38 70.0321 19.82C70.0321 20.26 70.1241 20.652 70.3081 20.996C70.5001 21.332 70.7561 21.596 71.0761 21.788C71.4041 21.972 71.7721 22.064 72.1801 22.064ZM83.6237 19.856C83.6237 19.944 83.6157 20.06 83.5997 20.204H78.4397C78.5117 20.764 78.7557 21.216 79.1717 21.56C79.5957 21.896 80.1197 22.064 80.7437 22.064C81.5037 22.064 82.1157 21.808 82.5797 21.296L83.2157 22.04C82.9277 22.376 82.5677 22.632 82.1357 22.808C81.7117 22.984 81.2357 23.072 80.7077 23.072C80.0357 23.072 79.4397 22.936 78.9197 22.664C78.3997 22.384 77.9957 21.996 77.7077 21.5C77.4277 21.004 77.2877 20.444 77.2877 19.82C77.2877 19.204 77.4237 18.648 77.6957 18.152C77.9757 17.656 78.3557 17.272 78.8357 17C79.3237 16.72 79.8717 16.58 80.4797 16.58C81.0877 16.58 81.6277 16.72 82.0997 17C82.5797 17.272 82.9517 17.656 83.2157 18.152C83.4877 18.648 83.6237 19.216 83.6237 19.856ZM80.4797 17.552C79.9277 17.552 79.4637 17.72 79.0877 18.056C78.7197 18.392 78.5037 18.832 78.4397 19.376H82.5197C82.4557 18.84 82.2357 18.404 81.8597 18.068C81.4917 17.724 81.0317 17.552 80.4797 17.552ZM87.2874 23.072C86.7674 23.072 86.2674 23.004 85.7874 22.868C85.3074 22.724 84.9314 22.544 84.6594 22.328L85.1394 21.416C85.4194 21.616 85.7594 21.776 86.1594 21.896C86.5594 22.016 86.9634 22.076 87.3714 22.076C88.3794 22.076 88.8834 21.788 88.8834 21.212C88.8834 21.02 88.8154 20.868 88.6794 20.756C88.5434 20.644 88.3714 20.564 88.1634 20.516C87.9634 20.46 87.6754 20.4 87.2994 20.336C86.7874 20.256 86.3674 20.164 86.0394 20.06C85.7194 19.956 85.4434 19.78 85.2114 19.532C84.9794 19.284 84.8634 18.936 84.8634 18.488C84.8634 17.912 85.1034 17.452 85.5834 17.108C86.0634 16.756 86.7074 16.58 87.5154 16.58C87.9394 16.58 88.3634 16.632 88.7874 16.736C89.2114 16.84 89.5594 16.98 89.8314 17.156L89.3394 18.068C88.8194 17.732 88.2074 17.564 87.5034 17.564C87.0154 17.564 86.6434 17.644 86.3874 17.804C86.1314 17.964 86.0034 18.176 86.0034 18.44C86.0034 18.648 86.0754 18.812 86.2194 18.932C86.3634 19.052 86.5394 19.14 86.7474 19.196C86.9634 19.252 87.2634 19.316 87.6474 19.388C88.1594 19.476 88.5714 19.572 88.8834 19.676C89.2034 19.772 89.4754 19.94 89.6994 20.18C89.9234 20.42 90.0354 20.756 90.0354 21.188C90.0354 21.764 89.7874 22.224 89.2914 22.568C88.8034 22.904 88.1354 23.072 87.2874 23.072ZM99.1018 23.096C98.2618 23.096 97.5018 22.912 96.8218 22.544C96.1498 22.168 95.6218 21.656 95.2378 21.008C94.8538 20.352 94.6618 19.616 94.6618 18.8C94.6618 17.984 94.8538 17.252 95.2378 16.604C95.6218 15.948 96.1538 15.436 96.8338 15.068C97.5138 14.692 98.2738 14.504 99.1138 14.504C99.7698 14.504 100.37 14.616 100.914 14.84C101.458 15.056 101.922 15.38 102.306 15.812L101.526 16.568C100.894 15.904 100.106 15.572 99.1618 15.572C98.5378 15.572 97.9738 15.712 97.4698 15.992C96.9658 16.272 96.5698 16.66 96.2818 17.156C96.0018 17.644 95.8618 18.192 95.8618 18.8C95.8618 19.408 96.0018 19.96 96.2818 20.456C96.5698 20.944 96.9658 21.328 97.4698 21.608C97.9738 21.888 98.5378 22.028 99.1618 22.028C100.098 22.028 100.886 21.692 101.526 21.02L102.306 21.776C101.922 22.208 101.454 22.536 100.902 22.76C100.358 22.984 99.7578 23.096 99.1018 23.096ZM109.568 19.856C109.568 19.944 109.56 20.06 109.544 20.204H104.384C104.456 20.764 104.7 21.216 105.116 21.56C105.54 21.896 106.064 22.064 106.688 22.064C107.448 22.064 108.06 21.808 108.524 21.296L109.16 22.04C108.872 22.376 108.512 22.632 108.08 22.808C107.656 22.984 107.18 23.072 106.652 23.072C105.98 23.072 105.384 22.936 104.864 22.664C104.344 22.384 103.94 21.996 103.652 21.5C103.372 21.004 103.232 20.444 103.232 19.82C103.232 19.204 103.368 18.648 103.64 18.152C103.92 17.656 104.3 17.272 104.78 17C105.268 16.72 105.816 16.58 106.424 16.58C107.032 16.58 107.572 16.72 108.044 17C108.524 17.272 108.896 17.656 109.16 18.152C109.432 18.648 109.568 19.216 109.568 19.856ZM106.424 17.552C105.872 17.552 105.408 17.72 105.032 18.056C104.664 18.392 104.448 18.832 104.384 19.376H108.464C108.4 18.84 108.18 18.404 107.804 18.068C107.436 17.724 106.976 17.552 106.424 17.552ZM112.512 17.708C112.712 17.34 113.008 17.06 113.4 16.868C113.792 16.676 114.268 16.58 114.828 16.58V17.696C114.764 17.688 114.676 17.684 114.564 17.684C113.94 17.684 113.448 17.872 113.088 18.248C112.736 18.616 112.56 19.144 112.56 19.832V23H111.408V16.64H112.512V17.708ZM120.321 22.628C120.153 22.772 119.945 22.884 119.697 22.964C119.449 23.036 119.193 23.072 118.929 23.072C118.289 23.072 117.793 22.9 117.441 22.556C117.089 22.212 116.913 21.72 116.913 21.08V17.588H115.833V16.64H116.913V15.248H118.065V16.64H119.889V17.588H118.065V21.032C118.065 21.376 118.149 21.64 118.317 21.824C118.493 22.008 118.741 22.1 119.061 22.1C119.413 22.1 119.713 22 119.961 21.8L120.321 22.628ZM121.954 16.64H123.106V23H121.954V16.64ZM122.53 15.416C122.306 15.416 122.118 15.344 121.966 15.2C121.822 15.056 121.75 14.88 121.75 14.672C121.75 14.464 121.822 14.288 121.966 14.144C122.118 13.992 122.306 13.916 122.53 13.916C122.754 13.916 122.938 13.988 123.082 14.132C123.234 14.268 123.31 14.44 123.31 14.648C123.31 14.864 123.234 15.048 123.082 15.2C122.938 15.344 122.754 15.416 122.53 15.416ZM127.874 14.972C127.186 14.972 126.842 15.344 126.842 16.088V16.64H128.69V17.588H126.866V23H125.714V17.588H124.634V16.64H125.714V16.076C125.714 15.444 125.898 14.944 126.266 14.576C126.634 14.208 127.15 14.024 127.814 14.024C128.07 14.024 128.31 14.056 128.534 14.12C128.758 14.184 128.95 14.276 129.11 14.396L128.762 15.272C128.498 15.072 128.202 14.972 127.874 14.972ZM130.742 16.64H131.894V23H130.742V16.64ZM131.318 15.416C131.094 15.416 130.906 15.344 130.754 15.2C130.61 15.056 130.538 14.88 130.538 14.672C130.538 14.464 130.61 14.288 130.754 14.144C130.906 13.992 131.094 13.916 131.318 13.916C131.542 13.916 131.726 13.988 131.87 14.132C132.022 14.268 132.098 14.44 132.098 14.648C132.098 14.864 132.022 15.048 131.87 15.2C131.726 15.344 131.542 15.416 131.318 15.416ZM137.101 23.072C136.453 23.072 135.873 22.932 135.361 22.652C134.857 22.372 134.461 21.988 134.173 21.5C133.885 21.004 133.741 20.444 133.741 19.82C133.741 19.196 133.885 18.64 134.173 18.152C134.461 17.656 134.857 17.272 135.361 17C135.873 16.72 136.453 16.58 137.101 16.58C137.677 16.58 138.189 16.696 138.637 16.928C139.093 17.16 139.445 17.496 139.693 17.936L138.817 18.5C138.617 18.196 138.369 17.968 138.073 17.816C137.777 17.664 137.449 17.588 137.089 17.588C136.673 17.588 136.297 17.68 135.961 17.864C135.633 18.048 135.373 18.312 135.181 18.656C134.997 18.992 134.905 19.38 134.905 19.82C134.905 20.268 134.997 20.664 135.181 21.008C135.373 21.344 135.633 21.604 135.961 21.788C136.297 21.972 136.673 22.064 137.089 22.064C137.449 22.064 137.777 21.988 138.073 21.836C138.369 21.684 138.617 21.456 138.817 21.152L139.693 21.704C139.445 22.144 139.093 22.484 138.637 22.724C138.189 22.956 137.677 23.072 137.101 23.072ZM143.74 16.58C144.62 16.58 145.292 16.796 145.756 17.228C146.228 17.66 146.464 18.304 146.464 19.16V23H145.372V22.16C145.18 22.456 144.904 22.684 144.544 22.844C144.192 22.996 143.772 23.072 143.284 23.072C142.572 23.072 142 22.9 141.568 22.556C141.144 22.212 140.932 21.76 140.932 21.2C140.932 20.64 141.136 20.192 141.544 19.856C141.952 19.512 142.6 19.34 143.488 19.34H145.312V19.112C145.312 18.616 145.168 18.236 144.88 17.972C144.592 17.708 144.168 17.576 143.608 17.576C143.232 17.576 142.864 17.64 142.504 17.768C142.144 17.888 141.84 18.052 141.592 18.26L141.112 17.396C141.44 17.132 141.832 16.932 142.288 16.796C142.744 16.652 143.228 16.58 143.74 16.58ZM143.476 22.184C143.916 22.184 144.296 22.088 144.616 21.896C144.936 21.696 145.168 21.416 145.312 21.056V20.168H143.536C142.56 20.168 142.072 20.496 142.072 21.152C142.072 21.472 142.196 21.724 142.444 21.908C142.692 22.092 143.036 22.184 143.476 22.184ZM152.412 22.628C152.244 22.772 152.036 22.884 151.788 22.964C151.54 23.036 151.284 23.072 151.02 23.072C150.38 23.072 149.884 22.9 149.532 22.556C149.18 22.212 149.004 21.72 149.004 21.08V17.588H147.924V16.64H149.004V15.248H150.156V16.64H151.98V17.588H150.156V21.032C150.156 21.376 150.24 21.64 150.408 21.824C150.584 22.008 150.832 22.1 151.152 22.1C151.504 22.1 151.804 22 152.052 21.8L152.412 22.628ZM159.582 19.856C159.582 19.944 159.574 20.06 159.558 20.204H154.398C154.47 20.764 154.714 21.216 155.13 21.56C155.554 21.896 156.078 22.064 156.702 22.064C157.462 22.064 158.074 21.808 158.538 21.296L159.174 22.04C158.886 22.376 158.526 22.632 158.094 22.808C157.67 22.984 157.194 23.072 156.666 23.072C155.994 23.072 155.398 22.936 154.878 22.664C154.358 22.384 153.954 21.996 153.666 21.5C153.386 21.004 153.246 20.444 153.246 19.82C153.246 19.204 153.382 18.648 153.654 18.152C153.934 17.656 154.314 17.272 154.794 17C155.282 16.72 155.83 16.58 156.438 16.58C157.046 16.58 157.586 16.72 158.058 17C158.538 17.272 158.91 17.656 159.174 18.152C159.446 18.648 159.582 19.216 159.582 19.856ZM156.438 17.552C155.886 17.552 155.422 17.72 155.046 18.056C154.678 18.392 154.462 18.832 154.398 19.376H158.478C158.414 18.84 158.194 18.404 157.818 18.068C157.45 17.724 156.99 17.552 156.438 17.552Z" fill="#333333"/>
<g clipPath="url(#clip0)">
<path fill-rule="evenodd" clip-rule="evenodd" d="M11 27.824C9.00753 26.561 7.36678 24.8147 6.23034 22.7474C5.0939 20.6801 4.49867 18.3591 4.5 16C4.5 8.268 10.768 2 18.5 2C26.232 2 32.5 8.268 32.5 16C32.5 20.535 30.344 24.567 27 27.125V38.23C27 38.27 26.995 38.309 26.986 38.348C26.881 38.768 26.252 39.056 25.579 38.991C25.3357 38.9675 25.1023 38.8832 24.9 38.746L19 35.071L13.099 38.746C12.8967 38.8832 12.6633 38.9675 12.42 38.991C11.748 39.056 11.119 38.768 11.014 38.348C11.0048 38.3093 11.0001 38.2697 11 38.23V27.824Z" fill="#333333"/>
<path fill-rule="evenodd" clip-rule="evenodd" d="M18.55 27C12.475 27 7.55005 22.075 7.55005 16C7.55005 9.925 12.475 5 18.55 5C24.625 5 29.55 9.925 29.55 16C29.55 22.075 24.625 27 18.55 27ZM18.962 9.243C18.9242 9.16955 18.8668 9.10794 18.7963 9.06492C18.7257 9.02191 18.6447 8.99916 18.562 8.99916C18.4794 8.99916 18.3984 9.02191 18.3278 9.06492C18.2573 9.10794 18.1999 9.16955 18.162 9.243L16.329 12.804C16.296 12.8674 16.248 12.9219 16.1894 12.9628C16.1307 13.0037 16.063 13.0299 15.992 13.039L11.933 13.597C11.8346 13.6098 11.7432 13.6548 11.673 13.725C11.6329 13.7648 11.6013 13.8124 11.5802 13.8648C11.559 13.9173 11.5488 13.9735 11.5501 14.03C11.5514 14.0865 11.5642 14.1422 11.5878 14.1936C11.6113 14.245 11.6451 14.2911 11.687 14.329L14.636 17.098C14.741 17.196 14.789 17.338 14.763 17.478L14.067 21.388C14.0492 21.4832 14.0655 21.5816 14.113 21.666C14.1714 21.7667 14.2664 21.8409 14.3781 21.8733C14.4899 21.9058 14.6099 21.8938 14.713 21.84L18.356 19.997C18.4204 19.9645 18.4915 19.9475 18.5635 19.9475C18.6356 19.9475 18.7067 19.9645 18.771 19.997L22.386 21.835C22.4753 21.8809 22.5772 21.8964 22.676 21.879C22.7323 21.8701 22.7862 21.8502 22.8347 21.8204C22.8831 21.7905 22.9252 21.7513 22.9584 21.7051C22.9916 21.6589 23.0153 21.6065 23.0281 21.551C23.0409 21.4956 23.0426 21.4381 23.033 21.382L22.337 17.472C22.3249 17.4031 22.3301 17.3322 22.3523 17.2659C22.3745 17.1995 22.4129 17.1397 22.464 17.092L25.414 14.324C25.4855 14.2583 25.5321 14.17 25.546 14.074C25.5533 14.0174 25.5492 13.9599 25.534 13.9049C25.5188 13.8499 25.4928 13.7984 25.4576 13.7536C25.4223 13.7087 25.3784 13.6713 25.3285 13.6436C25.2787 13.6158 25.2238 13.5983 25.167 13.592L21.107 13.034C21.0363 13.0247 20.9688 12.9985 20.9103 12.9576C20.8518 12.9167 20.804 12.8623 20.771 12.799L18.961 9.243H18.962Z" fill="#D2E3FC"/>
</g>
</g>
<defs>
<filter id="filter0_d" x="0" y="0" width="177" height="45" filterUnits="userSpaceOnUse" color-interpolation-filters="sRGB">
<feFlood flood-opacity="0" result="BackgroundImageFix"/>
<feColorMatrix in="SourceAlpha" type="matrix" values="0 0 0 0 0 0 0 0 0 0 0 0 0 0 0 0 0 0 127 0"/>
<feOffset dy="2"/>
<feGaussianBlur stdDeviation="2"/>
<feColorMatrix type="matrix" values="0 0 0 0 0 0 0 0 0 0 0 0 0 0 0 0 0 0 0.25 0"/>
<feBlend mode="normal" in2="BackgroundImageFix" result="effect1_dropShadow"/>
<feBlend mode="normal" in="SourceGraphic" in2="effect1_dropShadow" result="shape"/>
</filter>
<clipPath id="clip0">
<rect width="29" height="37" fill="white" transform="translate(4 2)"/>
</clipPath>
</defs>
</svg>
