<svg width="621" height="242" viewBox="0 0 621 242" fill="none" xmlns="http://www.w3.org/2000/svg">
<path d="M287.699 124.593C287.699 124.593 288.74 142.841 275.9 142.65L275.103 149.236L258.69 147.247L262.577 115.148L286.968 113.453L287.699 124.593Z" fill="#FFCEC8"/>
<path d="M256.809 128.142C256.714 128.96 256.865 129.787 257.241 130.52C257.616 131.252 258.201 131.857 258.92 132.258C259.64 132.658 260.461 132.837 261.282 132.771C262.103 132.704 262.886 132.397 263.531 131.886C264.177 131.375 264.657 130.685 264.911 129.901C265.164 129.118 265.18 128.277 264.956 127.485C264.732 126.692 264.279 125.984 263.652 125.45C263.026 124.915 262.256 124.578 261.438 124.481C260.339 124.354 259.234 124.668 258.366 125.354C257.498 126.04 256.938 127.043 256.809 128.142Z" fill="#FFCEC8"/>
<path d="M275.899 142.651C275.899 142.651 270.129 141.901 266.431 137.993C266.431 137.993 267.532 143.186 275.587 145.229L275.899 142.651Z" fill="#FFB1A8"/>
<path d="M281.491 115.553C281.491 115.553 276.051 126.933 261.929 124.653C261.929 124.653 259.54 123.629 257.891 126.395C257.891 126.395 245.961 118.131 251.636 101.399C251.636 101.399 274.924 78.0883 290.407 99.9736C290.658 100.246 290.891 100.534 291.106 100.835C294.035 104.817 294.257 110.187 291.846 114.505L291.353 115.39C291.353 115.39 296.534 124.02 287.86 126.265C287.862 126.265 282.24 121.999 281.491 115.553Z" fill="#FF7867"/>
<path d="M251.632 101.395C251.632 101.395 242.75 105.945 237.029 99.066C236.006 97.8364 235.631 94.8627 236.372 93.4375C236.875 92.4524 237.925 91.5536 240.028 91.2904C240.028 91.2904 236.661 89.97 237.066 83.9573C237.508 77.3903 242.135 71.9015 248.372 69.801C253.961 67.9147 261.413 67.5933 267.991 74.5492C267.991 74.5492 274.332 81.8963 268.545 91.3836C268.545 91.3812 258.071 95.7173 251.632 101.395Z" fill="#FF7867"/>
<path d="M267.978 91.7751C271.368 89.968 275.024 89.3905 278.629 89.6955C282.234 90.0006 285.764 91.2045 289.381 92.49C286.383 89.9474 282.683 88.3774 278.771 87.9886C276.787 87.8187 274.788 88.0435 272.891 88.6499C271.012 89.2717 269.247 90.3126 267.978 91.7751Z" fill="#FF7867"/>
<path d="M268.836 91.478C270.804 90.1072 272.451 88.326 273.664 86.2571C274.828 84.1775 275.601 81.6322 275.012 79.2383C274.282 81.3871 273.336 83.4563 272.187 85.4141C271.102 87.3585 269.782 89.2401 268.836 91.478Z" fill="#FF7867"/>
<path d="M277.565 124.497C277.306 124.816 276.216 124.38 275.022 124.513C273.822 124.574 272.817 125.177 272.509 124.902C272.167 124.669 273.047 123.153 274.901 122.999C276.754 122.846 277.865 124.215 277.565 124.497Z" fill="#FF7867"/>
<path d="M285.226 125.811C284.889 126.044 283.957 125.345 282.772 125.143C281.607 124.879 280.469 125.189 280.247 124.842C279.982 124.518 281.235 123.303 283.06 123.655C284.886 124.006 285.592 125.613 285.226 125.811Z" fill="#FF7867"/>
<path d="M283.02 128.44C282.965 129.269 282.494 129.914 281.97 129.877C281.446 129.84 281.064 129.141 281.123 128.312C281.181 127.483 281.649 126.838 282.173 126.875C282.697 126.912 283.079 127.611 283.02 128.44Z" fill="#454545"/>
<path d="M275.92 127.958C275.864 128.787 275.392 129.43 274.868 129.395C274.344 129.36 273.964 128.659 274.02 127.828C274.076 126.996 274.546 126.356 275.073 126.393C275.599 126.43 275.976 127.129 275.92 127.958Z" fill="#454545"/>
<path d="M278.377 135.549C278.303 135.543 278.234 135.511 278.182 135.459C278.13 135.406 278.097 135.337 278.091 135.263C278.085 135.19 278.104 135.116 278.147 135.055C278.19 134.995 278.252 134.951 278.324 134.932C279.095 134.744 280.266 134.269 280.336 133.847C280.361 133.693 280.177 133.479 279.835 133.263C277.565 131.83 278.277 127.883 278.307 127.716C278.326 127.637 278.375 127.569 278.442 127.525C278.51 127.481 278.592 127.465 278.671 127.48C278.751 127.495 278.821 127.54 278.868 127.605C278.915 127.671 278.936 127.752 278.924 127.832C278.924 127.869 278.261 131.525 280.17 132.722C280.762 133.097 281.027 133.505 280.955 133.94C280.794 134.921 278.859 135.438 278.473 135.533C278.442 135.543 278.41 135.549 278.377 135.549Z" fill="#FF7867"/>
<path d="M273.75 136.79C273.681 138.562 274.915 140.068 276.545 140.18C278.175 140.292 279.591 138.962 279.761 137.197L273.75 136.79Z" fill="white"/>
<path d="M279.574 138.017C279.662 137.752 279.721 137.479 279.748 137.202L273.75 136.79C273.738 137.068 273.76 137.346 273.815 137.619L279.574 138.017Z" fill="white"/>
<path d="M331.684 163.071L330.888 169.153L323.895 167.456L324.889 161.366L331.684 163.071Z" fill="#FFCEC8"/>
<path d="M322.042 147.19C322.781 146.89 323.633 147.302 324.045 148.166L326.332 151.659L329.636 140.085C329.776 139.578 330.249 139.343 330.68 139.592C330.858 139.716 330.997 139.889 331.079 140.09C331.162 140.291 331.185 140.512 331.145 140.726L329.795 149.044L333.94 140.272C333.977 140.172 334.037 140.083 334.116 140.012C334.195 139.94 334.289 139.889 334.392 139.862C334.495 139.835 334.603 139.833 334.706 139.856C334.81 139.879 334.906 139.926 334.988 139.995C335.168 140.151 335.294 140.36 335.348 140.592C335.402 140.824 335.382 141.067 335.291 141.287L335.263 141.366C335.281 141.345 331.499 150.118 331.499 150.118L335.724 142.81C335.758 142.742 335.806 142.681 335.864 142.631C335.923 142.581 335.99 142.543 336.064 142.52C336.137 142.497 336.214 142.489 336.29 142.496C336.367 142.503 336.441 142.525 336.509 142.561C336.7 142.678 336.843 142.86 336.911 143.074C336.979 143.288 336.968 143.519 336.879 143.725L333.507 151.778L337.855 146.783C338.118 146.494 338.348 146.417 338.646 146.706C338.71 146.766 338.763 146.837 338.802 146.916C338.876 147.074 338.91 147.247 338.904 147.421C338.897 147.595 338.848 147.765 338.763 147.917L331.695 163.077L324.897 161.372C324.897 161.372 324.558 159.7 324.292 156.873C324.027 154.046 322.042 147.19 322.042 147.19Z" fill="#FFCEC8"/>
<path d="M277.289 241.823L279.354 147.911L256.717 144.792L255.899 241.823H277.289Z" fill="#FF7867"/>
<path d="M203.888 238.039L212.805 226.628L202.361 202.198L234.239 175.476L237.18 204.566C237.18 204.566 221.387 215.462 215.46 241.826H255.9L256.718 144.795L241.898 142.147C240.096 141.831 238.249 141.88 236.466 142.289C234.683 142.698 233 143.46 231.516 144.529C221.433 151.641 200.596 169.169 188.286 188.614C186.768 191.01 185.138 196.62 185.138 196.62C184.095 201.97 184.886 207.514 187.385 212.358L203.888 238.039Z" fill="#464646"/>
<path d="M234.238 175.769C234.197 175.769 234.157 175.76 234.119 175.743C234.082 175.726 234.049 175.702 234.021 175.671C233.996 175.643 233.977 175.61 233.964 175.574C233.952 175.538 233.946 175.5 233.949 175.462C233.951 175.424 233.961 175.387 233.978 175.353C233.995 175.319 234.018 175.289 234.047 175.264C234.103 175.212 239.636 170.215 239.098 161.266C239.094 161.189 239.119 161.115 239.17 161.057C239.221 161 239.292 160.965 239.368 160.961C239.406 160.957 239.444 160.961 239.481 160.973C239.517 160.985 239.551 161.004 239.579 161.03C239.608 161.055 239.631 161.086 239.647 161.121C239.663 161.155 239.672 161.193 239.673 161.231C240.227 170.473 234.487 175.646 234.429 175.697C234.376 175.743 234.308 175.769 234.238 175.769Z" fill="#333333"/>
<path d="M265.411 241.501C265.382 241.5 265.353 241.495 265.325 241.485C264.27 241.054 264.014 239.06 264.564 235.553C264.564 235.511 265.19 231.9 265.66 230.868C265.584 230.747 265.481 230.612 265.372 230.465C264.964 229.918 264.405 229.168 264.405 228.395C267.519 213.321 267.176 198.927 266.846 185.006C266.58 173.828 266.306 162.252 267.835 150.481C267.855 150.434 267.89 150.395 267.934 150.37C267.978 150.344 268.03 150.334 268.08 150.341C268.13 150.347 268.177 150.37 268.213 150.406C268.25 150.442 268.273 150.488 268.28 150.539C266.753 162.275 267.03 173.826 267.295 185.004C267.626 198.951 267.968 213.37 264.848 228.451C264.848 229.028 265.339 229.683 265.73 230.207C265.872 230.398 266 230.57 266.089 230.717C266.098 230.732 266.105 230.748 266.11 230.766C266.121 230.803 266.122 230.843 266.114 230.881C266.105 230.92 266.087 230.955 266.061 230.984C265.8 231.62 264.124 238.141 264.967 240.42C265.003 240.561 265.07 240.693 265.161 240.806C265.252 240.92 265.366 241.013 265.495 241.079C265.549 241.104 265.591 241.147 265.614 241.201C265.637 241.255 265.638 241.315 265.619 241.371C265.6 241.409 265.57 241.442 265.533 241.465C265.497 241.488 265.455 241.501 265.411 241.501Z" fill="white"/>
<path d="M266.794 159.907C266.794 160.172 266.716 160.431 266.569 160.651C266.421 160.871 266.212 161.043 265.968 161.144C265.723 161.246 265.454 161.272 265.194 161.221C264.934 161.169 264.696 161.041 264.508 160.854C264.321 160.667 264.194 160.428 264.142 160.169C264.09 159.909 264.117 159.64 264.218 159.395C264.319 159.15 264.491 158.941 264.711 158.794C264.931 158.647 265.19 158.568 265.455 158.568C265.81 158.568 266.151 158.709 266.402 158.961C266.653 159.212 266.794 159.552 266.794 159.907Z" fill="white"/>
<path d="M266.226 188.319C266.225 188.584 266.146 188.843 265.999 189.063C265.852 189.283 265.642 189.454 265.398 189.555C265.153 189.656 264.884 189.682 264.624 189.63C264.365 189.578 264.126 189.45 263.939 189.263C263.752 189.076 263.625 188.837 263.573 188.577C263.522 188.318 263.549 188.049 263.65 187.804C263.751 187.56 263.923 187.351 264.143 187.204C264.363 187.057 264.622 186.978 264.887 186.978C265.063 186.978 265.237 187.013 265.4 187.08C265.562 187.148 265.71 187.246 265.835 187.371C265.959 187.496 266.057 187.644 266.125 187.806C266.192 187.969 266.226 188.143 266.226 188.319Z" fill="white"/>
<path d="M265.446 218.374C265.446 218.639 265.367 218.897 265.22 219.118C265.073 219.338 264.864 219.509 264.619 219.611C264.374 219.712 264.105 219.739 263.845 219.687C263.586 219.635 263.347 219.508 263.16 219.321C262.973 219.133 262.845 218.895 262.793 218.635C262.742 218.375 262.768 218.106 262.87 217.861C262.971 217.617 263.142 217.407 263.363 217.26C263.583 217.113 263.842 217.035 264.107 217.035C264.462 217.035 264.802 217.176 265.053 217.427C265.305 217.678 265.446 218.019 265.446 218.374Z" fill="white"/>
<path d="M215.458 241.816L217.337 235.561L221.226 237.983C221.331 238.046 221.456 238.067 221.576 238.041C221.696 238.016 221.802 237.947 221.873 237.847C221.944 237.747 221.974 237.624 221.958 237.502C221.943 237.38 221.881 237.269 221.787 237.191L217.849 234.045C217.79 233.997 217.748 233.931 217.73 233.857C217.712 233.783 217.719 233.705 217.749 233.635C217.768 233.592 217.797 233.552 217.832 233.52C217.867 233.488 217.908 233.464 217.953 233.448C217.998 233.433 218.046 233.427 218.094 233.431C218.141 233.435 218.187 233.449 218.229 233.472L222.455 235.801C222.559 235.859 222.681 235.877 222.798 235.851C222.914 235.826 223.017 235.758 223.087 235.661C223.156 235.564 223.187 235.445 223.175 235.326C223.162 235.208 223.105 235.098 223.017 235.018L218.825 231.164C218.755 231.1 218.712 231.012 218.703 230.918C218.694 230.823 218.72 230.729 218.776 230.652C218.832 230.576 218.914 230.522 219.007 230.503C219.1 230.483 219.197 230.498 219.279 230.545L223.806 233.183C223.942 233.26 224.101 233.284 224.253 233.25C224.405 233.216 224.539 233.127 224.629 233C224.719 232.873 224.759 232.717 224.74 232.563C224.722 232.408 224.647 232.266 224.53 232.163L220.544 228.775C220.533 228.765 220.526 228.751 220.524 228.737C220.522 228.722 220.525 228.707 220.532 228.694C220.54 228.681 220.552 228.671 220.565 228.666C220.579 228.661 220.595 228.661 220.609 228.666L224.926 230.23C225.057 230.281 225.203 230.279 225.333 230.224C225.462 230.17 225.566 230.068 225.622 229.939C225.678 229.81 225.682 229.664 225.633 229.532C225.584 229.401 225.486 229.293 225.359 229.231L219.428 226.204C219.241 226.104 219.035 226.043 218.823 226.025C218.611 226.007 218.398 226.032 218.196 226.099C217.995 226.165 217.808 226.272 217.649 226.413C217.49 226.553 217.361 226.725 217.269 226.917L214.417 232.948L211.322 228.524L206.48 234.739L214.242 241.816H215.458Z" fill="#FFCEC8"/>
<path d="M303.155 241.816C299.795 222.059 291.977 209.796 291.977 209.796L295.654 196.611L308.181 210.865C312.3 215.557 318.469 217.031 323.899 214.623C329.123 212.309 332.732 206.815 333.214 200.46L334.437 164.784L322.109 160.471L315.698 189.711L296.621 158.448C295.151 156.039 292.993 154.125 290.426 152.952L279.356 147.901L277.29 241.816H303.155Z" fill="#464646"/>
<path d="M295.651 196.906C295.608 196.906 295.565 196.896 295.527 196.878C295.488 196.859 295.453 196.832 295.426 196.798C295.399 196.764 295.38 196.725 295.37 196.683C295.36 196.641 295.36 196.597 295.37 196.555C295.409 196.382 299.159 178.998 294.268 157.965C294.251 157.891 294.264 157.812 294.305 157.747C294.345 157.682 294.41 157.636 294.485 157.618C294.56 157.601 294.638 157.614 294.703 157.655C294.768 157.695 294.814 157.76 294.832 157.835C299.752 179.001 295.973 196.506 295.933 196.68C295.919 196.744 295.883 196.802 295.832 196.843C295.781 196.884 295.717 196.906 295.651 196.906Z" fill="#333333"/>
<path d="M314.591 197.953H314.551C314.477 197.939 314.412 197.898 314.368 197.837C314.325 197.776 314.307 197.701 314.318 197.627L315.42 189.674C315.424 189.636 315.436 189.599 315.455 189.566C315.474 189.533 315.499 189.504 315.53 189.48C315.56 189.457 315.595 189.441 315.632 189.432C315.669 189.422 315.708 189.421 315.746 189.427C315.822 189.438 315.89 189.478 315.936 189.539C315.982 189.601 316.003 189.677 315.993 189.753L314.889 197.706C314.879 197.777 314.843 197.841 314.788 197.887C314.733 197.933 314.662 197.956 314.591 197.953Z" fill="#333333"/>
<path d="M334.172 173.15C334.143 173.149 334.113 173.145 334.086 173.136L321.955 169.41C321.919 169.399 321.885 169.381 321.856 169.357C321.826 169.333 321.802 169.303 321.784 169.269C321.766 169.236 321.756 169.199 321.752 169.161C321.749 169.123 321.753 169.085 321.764 169.049C321.787 168.976 321.838 168.915 321.906 168.879C321.973 168.844 322.052 168.836 322.125 168.858L334.256 172.584C334.292 172.595 334.326 172.613 334.355 172.637C334.385 172.661 334.409 172.691 334.427 172.724C334.445 172.758 334.456 172.794 334.46 172.832C334.464 172.87 334.46 172.908 334.449 172.945C334.43 173.004 334.393 173.055 334.344 173.092C334.294 173.129 334.234 173.149 334.172 173.15Z" fill="#333333"/>
<path d="M331.544 169.993C331.222 169.993 330.907 169.898 330.639 169.718C330.37 169.539 330.162 169.285 330.038 168.987C329.915 168.689 329.882 168.361 329.945 168.045C330.008 167.729 330.164 167.438 330.392 167.21C330.619 166.982 330.91 166.827 331.226 166.764C331.542 166.701 331.87 166.734 332.168 166.857C332.466 166.98 332.72 167.189 332.9 167.457C333.079 167.725 333.174 168.041 333.174 168.363C333.174 168.795 333.003 169.21 332.697 169.516C332.391 169.821 331.977 169.993 331.544 169.993ZM331.544 167.315C331.337 167.316 331.134 167.378 330.961 167.493C330.789 167.609 330.655 167.773 330.576 167.965C330.496 168.157 330.476 168.368 330.517 168.572C330.558 168.775 330.658 168.962 330.805 169.109C330.952 169.255 331.139 169.355 331.342 169.396C331.546 169.436 331.757 169.415 331.949 169.335C332.141 169.256 332.305 169.121 332.42 168.949C332.535 168.776 332.597 168.573 332.597 168.365C332.596 168.087 332.485 167.819 332.288 167.623C332.09 167.426 331.823 167.315 331.544 167.315Z" fill="#333333"/>
<path d="M204.07 233.748C203.747 233.748 203.432 233.652 203.164 233.473C202.896 233.294 202.687 233.04 202.564 232.742C202.44 232.444 202.408 232.116 202.471 231.8C202.534 231.484 202.689 231.193 202.917 230.965C203.145 230.737 203.435 230.582 203.752 230.519C204.068 230.456 204.396 230.488 204.693 230.612C204.991 230.735 205.246 230.944 205.425 231.212C205.604 231.48 205.7 231.795 205.7 232.118C205.7 232.55 205.528 232.965 205.222 233.271C204.917 233.576 204.502 233.748 204.07 233.748ZM204.07 231.07C203.862 231.07 203.659 231.132 203.486 231.247C203.313 231.362 203.179 231.526 203.099 231.718C203.02 231.91 202.999 232.121 203.039 232.325C203.08 232.529 203.18 232.716 203.327 232.863C203.474 233.01 203.661 233.11 203.865 233.15C204.068 233.191 204.28 233.17 204.471 233.091C204.663 233.011 204.827 232.876 204.943 232.704C205.058 232.531 205.12 232.328 205.12 232.12C205.12 231.842 205.009 231.575 204.812 231.378C204.615 231.181 204.348 231.07 204.07 231.07Z" fill="#333333"/>
<path d="M201.019 230.222C200.95 230.222 200.883 230.197 200.83 230.152C200.772 230.102 200.737 230.031 200.73 229.955C200.724 229.879 200.748 229.803 200.798 229.744L209.579 219.524C209.629 219.465 209.701 219.429 209.777 219.423C209.854 219.417 209.93 219.442 209.988 219.492C210.046 219.542 210.082 219.613 210.088 219.69C210.094 219.767 210.069 219.842 210.019 219.901L201.238 230.122C201.21 230.153 201.177 230.178 201.139 230.195C201.101 230.212 201.06 230.221 201.019 230.222Z" fill="#333333"/>
<path d="M262.474 154.593C262.43 154.593 262.387 154.58 262.351 154.556L255.814 150.245C255.78 150.207 255.76 150.158 255.757 150.108C255.753 150.057 255.767 150.006 255.795 149.964C255.823 149.921 255.864 149.889 255.912 149.872C255.96 149.855 256.012 149.854 256.061 149.87L262.465 154.094L267.786 150.096C267.809 150.078 267.836 150.065 267.864 150.057C267.893 150.05 267.922 150.048 267.951 150.052C267.98 150.056 268.008 150.066 268.034 150.081C268.059 150.096 268.081 150.116 268.098 150.14C268.131 150.188 268.145 150.247 268.137 150.305C268.128 150.363 268.099 150.415 268.054 150.452L262.602 154.549C262.565 154.576 262.52 154.591 262.474 154.593Z" fill="white"/>
<path d="M272.457 155.201C272.426 155.201 272.394 155.194 272.366 155.181C272.337 155.169 272.311 155.15 272.289 155.127L268.098 150.421C268.061 150.375 268.042 150.318 268.046 150.26C268.049 150.201 268.074 150.147 268.116 150.106C268.161 150.068 268.219 150.049 268.278 150.052C268.337 150.055 268.392 150.08 268.433 150.122L272.522 154.722L280.042 151.983C280.092 151.98 280.142 151.993 280.184 152.021C280.226 152.048 280.258 152.088 280.275 152.135C280.292 152.182 280.294 152.234 280.279 152.282C280.265 152.33 280.236 152.372 280.195 152.402L272.534 155.197C272.509 155.203 272.483 155.204 272.457 155.201Z" fill="white"/>
<path d="M258.853 145.063L267.126 148.969L275.305 147.36L267.518 143.659L258.853 145.063Z" fill="#FFCEC8"/>
<path d="M279.355 147.912L275.675 144.509L275.305 147.36L277.804 148.412L279.355 147.912Z" fill="#FF7867"/>
<path d="M259.302 142.049L258.951 145.291L256.717 144.793L259.302 142.049Z" fill="#FF7867"/>
<path d="M98.3161 241.816L98.2276 241.688L101.604 217.06C87.222 222.29 71.3122 240.598 71.3122 240.598C70.9792 241.006 70.6765 241.411 70.3574 241.816H98.3161Z" fill="#333333"/>
<path d="M116.319 145.032L116.817 146.171L119.039 151.245L133.973 154.305L142.354 142.64L140.589 138.481L140.184 137.515L116.319 145.032Z" fill="#FFD3CF"/>
<path d="M219.074 36.939C219.074 36.939 209.594 24.0798 195.321 31.1638C195.318 31.1638 205.889 46.3098 219.074 36.939Z" fill="#545ED7"/>
<path d="M215.064 30.4378L212.332 38.0666L201.695 34.5223L204.741 26.9214L215.064 30.4378Z" fill="#FFCEC8"/>
<path d="M97.8851 241.817H162.218C176.344 177.951 143.994 140.836 143.994 140.836L140.78 138.957L142.359 142.634L133.976 154.294L119.046 151.243L116.324 145.03L112.938 148.202L99.8622 208.355C99.8622 208.355 103.567 219.032 97.8991 227.097C92.231 235.161 93.7703 240.168 93.7703 240.168L97.8851 241.817Z" fill="#545ED7"/>
<path d="M11.1582 98.2898C11.1582 98.2898 20.7479 86.5204 33.1716 92.1862L23.1465 103.085L11.1582 98.2898Z" fill="#545ED7"/>
<path d="M15.208 94.5125L17.9419 102.141L28.5772 98.597L25.5312 90.9961L15.208 94.5125Z" fill="#FFCEC8"/>
<path d="M26.5909 72.3029C25.9898 72.1864 25.3668 72.286 24.832 72.5843C24.2973 72.8826 23.8851 73.3603 23.6684 73.933L20.8996 78.8606L12.8794 64.6973C12.7966 64.5478 12.6835 64.4171 12.5475 64.3136C12.4115 64.2101 12.2555 64.136 12.0893 64.0959C11.9231 64.0558 11.7505 64.0507 11.5822 64.0809C11.414 64.1111 11.2538 64.1758 11.1119 64.2711C10.8738 64.4389 10.7 64.6828 10.6191 64.9626C10.5383 65.2425 10.5552 65.5415 10.6671 65.8104L14.8262 76.2012L6.14477 65.7894C6.04235 65.6651 5.91617 65.5625 5.77359 65.4875C5.63102 65.4126 5.47492 65.3668 5.31445 65.3529C5.15397 65.3391 4.99234 65.3573 4.83901 65.4067C4.68569 65.4561 4.54375 65.5355 4.42151 65.6404C4.18112 65.8515 4.0302 66.1462 3.99948 66.4646C3.96876 66.7831 4.06056 67.1012 4.25617 67.3544L4.32371 67.4498C4.28645 67.4265 12.3834 77.9081 12.3834 77.9081L3.93714 69.378C3.77015 69.2091 3.55127 69.1013 3.31563 69.0717C3.07998 69.0422 2.84124 69.0926 2.63771 69.215C2.5095 69.2912 2.39883 69.3937 2.31295 69.5156C2.22706 69.6376 2.1679 69.7763 2.13932 69.9227C2.11074 70.0691 2.1134 70.2199 2.14712 70.3652C2.18083 70.5105 2.24485 70.6471 2.33498 70.7659L9.61224 80.4115L1.5339 74.8715C1.04719 74.5548 0.662955 74.5012 0.262415 74.9297C0.1783 75.0153 0.111835 75.1165 0.066802 75.2278C-0.00917851 75.4476 -0.0206077 75.6846 0.033866 75.9108C0.0883397 76.1369 0.206438 76.3427 0.374193 76.5039L15.2082 94.5142L25.5384 90.9979C25.6109 89.0385 25.5658 87.0765 25.4033 85.1225C25.1285 81.4548 26.5909 72.3029 26.5909 72.3029Z" fill="#FFCEC8"/>
<path d="M159.359 240.387C159.289 240.865 159.217 241.344 159.142 241.824H180.545C186.966 189.747 177.013 158.987 177.013 158.987L219.074 36.9408C218.2 37.2849 217.289 37.5272 216.359 37.6627C212.94 38.1564 209.605 36.6544 207.221 34.1696C202.181 28.9137 195.319 31.1726 195.319 31.1726L146.937 140.026L143.994 140.844C171.454 185.462 159.359 240.387 159.359 240.387Z" fill="#464646"/>
<path d="M41.3361 157.887L94.8478 183.503C90.7423 195.856 69.672 222.255 53.1101 241.816H74.8767C77.5613 238.877 80.4999 236.18 83.6583 233.756C94.1771 225.692 100.733 217.495 100.733 217.495C120.783 190.477 112.937 148.201 112.937 148.201L95.7188 152.78L51.473 133.6L33.1716 92.1864C33.1716 92.1864 29.2477 90.661 24.0174 96.3268C18.7871 101.993 11.1582 98.2899 11.1582 98.2899L30.128 145.898C32.2258 151.16 36.227 155.44 41.3361 157.887Z" fill="#464646"/>
<path d="M141.159 159.649C141.112 159.649 141.066 159.634 141.028 159.605L133.837 154.482C133.805 154.469 133.775 154.448 133.751 154.422C133.728 154.396 133.71 154.365 133.7 154.331C133.69 154.297 133.688 154.262 133.694 154.227C133.7 154.192 133.714 154.159 133.734 154.13C133.755 154.102 133.782 154.078 133.813 154.061C133.844 154.044 133.878 154.035 133.913 154.033C133.949 154.031 133.984 154.038 134.016 154.052C134.049 154.066 134.077 154.087 134.1 154.114L141.115 159.109L150.027 147.621C150.064 147.575 150.118 147.545 150.177 147.538C150.235 147.53 150.295 147.545 150.343 147.58C150.39 147.617 150.42 147.672 150.427 147.731C150.434 147.791 150.419 147.851 150.383 147.899L141.338 159.559C141.317 159.586 141.29 159.609 141.259 159.624C141.228 159.64 141.194 159.649 141.159 159.649Z" fill="white"/>
<path d="M131.244 162.373C131.219 162.373 131.195 162.369 131.172 162.362L114.065 156.586C114.021 156.558 113.988 156.517 113.97 156.468C113.953 156.418 113.953 156.365 113.969 156.316C113.986 156.266 114.019 156.224 114.062 156.195C114.105 156.167 114.157 156.154 114.209 156.158L131.104 161.861L133.754 154.227C133.775 154.172 133.817 154.126 133.871 154.1C133.924 154.074 133.986 154.07 134.043 154.088C134.099 154.109 134.144 154.15 134.17 154.204C134.196 154.258 134.201 154.32 134.183 154.376L131.458 162.222C131.442 162.266 131.412 162.304 131.374 162.331C131.336 162.358 131.291 162.372 131.244 162.373Z" fill="white"/>
<path d="M131.213 239.008C131.172 239.008 131.132 238.996 131.097 238.975C131.061 238.953 131.033 238.923 131.013 238.887C130.987 238.834 130.982 238.773 130.999 238.716C131.016 238.66 131.055 238.612 131.106 238.582C132.1 238.047 132.766 235.245 133.409 232.527C134.108 229.619 134.76 226.841 135.917 225.953C135.591 225.846 135.514 225.721 135.496 225.602C135.488 225.537 135.502 225.471 135.536 225.414C135.571 225.358 135.623 225.315 135.684 225.292C135.789 225.251 135.903 225.236 136.015 225.248C135.812 224.947 135.605 224.624 135.393 224.291C134.86 223.452 134.308 222.584 133.763 222.044C133.721 222 133.698 221.943 133.698 221.883C133.698 221.823 133.721 221.765 133.763 221.722C136.66 218.828 137.65 214.871 138.607 211.045C139.694 189.211 138.141 171.182 133.747 154.35C133.734 154.292 133.743 154.231 133.774 154.18C133.804 154.129 133.853 154.091 133.91 154.075C133.967 154.062 134.028 154.071 134.079 154.101C134.13 154.131 134.168 154.179 134.184 154.236C138.609 171.114 140.148 189.188 139.052 211.11C138.09 214.971 137.105 218.918 134.238 221.885C134.806 222.564 135.32 223.286 135.773 224.046C136.124 224.626 136.507 225.186 136.921 225.723L136.937 225.742C136.965 225.777 136.982 225.819 136.986 225.864C136.99 225.908 136.981 225.953 136.96 225.993V226.005C136.941 226.029 136.917 226.05 136.89 226.068L136.844 226.084C136.822 226.091 136.798 226.091 136.776 226.084H136.758C135.419 226.084 134.597 229.547 133.87 232.604C133.172 235.543 132.515 238.317 131.341 238.948C131.306 238.981 131.261 239.002 131.213 239.008Z" fill="white"/>
<path d="M132.442 167.92C132.442 168.158 132.513 168.39 132.644 168.587C132.776 168.784 132.964 168.938 133.183 169.028C133.402 169.119 133.643 169.143 133.876 169.097C134.108 169.05 134.322 168.936 134.49 168.769C134.657 168.601 134.772 168.387 134.818 168.154C134.864 167.922 134.84 167.681 134.75 167.462C134.659 167.242 134.505 167.055 134.308 166.923C134.111 166.792 133.879 166.721 133.642 166.721C133.324 166.721 133.019 166.848 132.794 167.072C132.569 167.297 132.442 167.602 132.442 167.92Z" fill="white"/>
<path d="M134.188 190.262C134.85 190.262 135.387 189.725 135.387 189.063C135.387 188.4 134.85 187.863 134.188 187.863C133.525 187.863 132.988 188.4 132.988 189.063C132.988 189.725 133.525 190.262 134.188 190.262Z" fill="white"/>
<path d="M133.533 210.965C134.196 210.965 134.733 210.428 134.733 209.766C134.733 209.103 134.196 208.566 133.533 208.566C132.871 208.566 132.334 209.103 132.334 209.766C132.334 210.428 132.871 210.965 133.533 210.965Z" fill="white"/>
<path d="M127.104 235.593C127.104 235.83 127.174 236.062 127.306 236.259C127.437 236.456 127.625 236.61 127.844 236.701C128.063 236.792 128.304 236.815 128.537 236.769C128.769 236.723 128.983 236.609 129.151 236.441C129.319 236.273 129.433 236.059 129.479 235.827C129.525 235.594 129.502 235.353 129.411 235.134C129.32 234.915 129.166 234.727 128.969 234.596C128.772 234.464 128.54 234.394 128.303 234.394C127.985 234.394 127.68 234.521 127.455 234.746C127.231 234.97 127.104 235.275 127.104 235.593Z" fill="white"/>
<path d="M116.319 145.032L116.817 146.17C118.659 147.963 120.954 149.219 123.456 149.804C125.959 150.389 128.573 150.281 131.018 149.49C133.464 148.7 135.647 147.257 137.333 145.318C139.02 143.379 140.145 141.017 140.589 138.485L140.184 137.519L116.319 145.032Z" fill="#FFB2A9"/>
<path d="M131.833 147.861C133.54 147.13 135.086 146.071 136.383 144.742C137.681 143.414 138.704 141.843 139.394 140.12C140.084 138.396 140.428 136.553 140.406 134.696C140.384 132.84 139.997 131.006 139.266 129.299L133.572 116L107.577 127.128L113.27 140.428C114.747 143.874 117.532 146.594 121.013 147.987C124.493 149.381 128.385 149.336 131.833 147.861Z" fill="#FFD3CF"/>
<path d="M137.478 130.351C138.589 132.551 139.369 134.396 141.57 133.285C143.77 132.174 146.56 128.527 145.449 126.327C145.185 125.803 144.82 125.337 144.376 124.955C143.932 124.572 143.416 124.281 142.859 124.098C142.302 123.914 141.715 123.843 141.13 123.887C140.545 123.93 139.975 124.089 139.452 124.353C138.928 124.617 138.462 124.982 138.08 125.426C137.697 125.871 137.406 126.386 137.223 126.943C137.039 127.5 136.968 128.088 137.012 128.672C137.055 129.257 137.214 129.827 137.478 130.351Z" fill="#FFD3CF"/>
<path d="M115.327 139.374C116.026 141.738 116.738 143.613 114.375 144.318C112.011 145.024 107.479 144.295 106.774 141.934C106.434 140.799 106.559 139.577 107.121 138.534C107.682 137.492 108.635 136.716 109.77 136.376C110.904 136.036 112.127 136.161 113.169 136.723C114.211 137.285 114.987 138.238 115.327 139.372V139.374Z" fill="#FFD3CF"/>
<path d="M142.755 124.07C142.755 124.07 144.536 119.943 143.269 115.367C142.536 112.717 139.977 110.905 137.25 111.236L137.128 111.25C137.128 111.25 136.856 102.261 126.94 99.8625C117.025 97.4639 113.373 109.399 113.373 109.399C112.798 108.958 112.099 108.71 111.375 108.691C110.652 108.671 109.94 108.88 109.342 109.289C109.342 109.289 107.435 110.27 108.252 112.612C108.252 112.612 103.653 109.925 99.1517 115.872C93.5953 123.245 107.044 139.046 107.044 139.046C107.044 139.046 107.698 135.885 111.62 136.102L108.625 129.728C108.625 129.728 116.414 130.981 117.886 123.907C117.886 123.907 123.226 128.14 127.692 124.943C132.487 121.51 134.008 127.751 137.76 125.816C137.769 125.807 139.602 123.208 142.755 124.07Z" fill="#464646"/>
<path d="M219.16 0.206705C219.398 0.374462 219.572 0.618374 219.653 0.898207C219.734 1.17804 219.717 1.47708 219.605 1.74599L215.455 12.1251L224.127 1.72503C224.23 1.6007 224.356 1.49806 224.499 1.42311C224.641 1.34815 224.797 1.30239 224.958 1.28851C225.118 1.27464 225.28 1.29291 225.433 1.34228C225.586 1.39164 225.728 1.47109 225.851 1.57599C226.091 1.78705 226.242 2.0818 226.273 2.40022C226.303 2.71865 226.212 3.03681 226.016 3.28993L225.948 3.38774C226.117 3.27431 226.316 3.21373 226.519 3.21373C226.722 3.21373 226.921 3.27431 227.089 3.38774C227.279 3.52381 227.42 3.71735 227.491 3.93968C227.562 4.16201 227.559 4.40127 227.483 4.62196C225.282 8.36655 222.849 12.6048 220.66 16.3447L228.738 10.8024C229.225 10.4857 229.609 10.4321 230.01 10.8606C230.094 10.9462 230.16 11.0475 230.205 11.1587C230.281 11.3785 230.293 11.6156 230.238 11.8417C230.184 12.0679 230.066 12.2737 229.898 12.4348L215.064 30.4452L204.741 26.9288C204.668 24.9702 204.713 23.009 204.876 21.0558C205.144 17.3857 203.681 8.23381 203.681 8.23381C204.284 8.11801 204.908 8.21936 205.443 8.51989C205.978 8.82042 206.389 9.3007 206.604 9.87556L209.373 14.8031L217.393 0.639844C217.475 0.490047 217.588 0.358997 217.724 0.25498C217.859 0.150964 218.015 0.0762471 218.181 0.0355398C218.348 -0.00516746 218.52 -0.010978 218.689 0.0184838C218.857 0.0479455 219.018 0.112039 219.16 0.206705Z" fill="#FFCEC8"/>
<path d="M217.891 14.0827C217.835 14.0829 217.781 14.0649 217.737 14.0315C217.685 13.9906 217.651 13.9306 217.643 13.8648C217.634 13.7989 217.652 13.7324 217.693 13.6798L225.755 3.21455C225.775 3.18855 225.8 3.16676 225.828 3.15041C225.857 3.13406 225.888 3.12348 225.921 3.11926C225.953 3.11504 225.986 3.11727 226.018 3.12583C226.05 3.13439 226.079 3.1491 226.105 3.16913C226.131 3.18917 226.153 3.21412 226.17 3.24258C226.186 3.27103 226.197 3.30242 226.201 3.33497C226.205 3.36751 226.203 3.40057 226.194 3.43225C226.186 3.46393 226.171 3.49361 226.151 3.51961L218.089 13.9849C218.066 14.0154 218.036 14.0402 218.001 14.0572C217.967 14.0741 217.929 14.0829 217.891 14.0827Z" fill="#FF9C91"/>
<path d="M120.694 135.6C120.943 136.212 121.514 136.559 121.968 136.375C122.422 136.191 122.59 135.544 122.341 134.929C122.091 134.314 121.521 133.97 121.064 134.153C120.608 134.337 120.445 134.985 120.694 135.6Z" fill="#464646"/>
<path d="M122.664 138.16L120.955 138.859C120.085 139.211 119.111 139.203 118.247 138.838C117.382 138.472 116.698 137.779 116.344 136.91L115.296 134.332L123.577 130.969L124.625 133.547C124.942 134.328 124.97 135.195 124.704 135.995C124.439 136.794 123.897 137.473 123.177 137.909C123.013 138.006 122.841 138.09 122.664 138.16ZM115.976 134.614L116.826 136.71C117.13 137.45 117.713 138.04 118.45 138.351C119.187 138.662 120.018 138.669 120.76 138.37L122.469 137.671C123.209 137.368 123.799 136.784 124.11 136.047C124.422 135.31 124.428 134.48 124.129 133.738L123.279 131.642L115.976 134.614Z" fill="white"/>
<path d="M128.954 132.243C129.203 132.856 129.774 133.205 130.23 133.019C130.687 132.832 130.85 132.187 130.6 131.575C130.351 130.962 129.781 130.613 129.327 130.797C128.872 130.981 128.7 131.628 128.954 132.243Z" fill="#464646"/>
<path d="M133.125 133.917L131.416 134.616C130.546 134.968 129.571 134.961 128.707 134.595C127.842 134.23 127.158 133.536 126.805 132.666L125.757 130.088L134.026 126.73L135.074 129.308C135.392 130.089 135.42 130.957 135.155 131.756C134.889 132.556 134.347 133.235 133.626 133.67C133.465 133.765 133.298 133.847 133.125 133.917ZM126.437 130.37L127.287 132.466C127.59 133.206 128.174 133.797 128.911 134.108C129.648 134.419 130.478 134.426 131.22 134.126L132.929 133.428C133.67 133.125 134.26 132.541 134.571 131.804C134.882 131.067 134.889 130.237 134.59 129.495L133.74 127.399L126.437 130.37Z" fill="white"/>
<path d="M132.987 139.185C133.368 140.248 133.317 141.417 132.846 142.444C132.376 143.47 131.523 144.271 130.469 144.677C129.416 145.082 128.245 145.06 127.208 144.614C126.171 144.169 125.349 143.335 124.918 142.292L132.987 139.185Z" fill="white"/>
<path d="M123.743 130.322L129.341 136.268L126.386 138.47L123.743 130.322Z" fill="#FFCEC8"/>
<path d="M126.521 138.692L126.542 138.678L129.495 136.475C129.525 136.453 129.549 136.425 129.567 136.393C129.585 136.361 129.596 136.326 129.6 136.289C129.603 136.252 129.599 136.216 129.587 136.181C129.575 136.147 129.555 136.115 129.53 136.089L123.941 130.141C123.893 130.096 123.829 130.07 123.762 130.07C123.696 130.07 123.632 130.096 123.584 130.141C123.535 130.186 123.506 130.248 123.502 130.315C123.498 130.381 123.519 130.446 123.561 130.497L128.959 136.233L126.239 138.259C126.182 138.298 126.142 138.357 126.129 138.425C126.115 138.493 126.13 138.564 126.168 138.621C126.207 138.679 126.267 138.718 126.335 138.732C126.403 138.745 126.473 138.731 126.53 138.692H126.521Z" fill="#FF7867"/>
<path d="M117.472 131.613C117.545 131.733 117.66 131.822 117.795 131.861C117.93 131.9 118.075 131.887 118.201 131.825L120.93 130.456C121.115 130.344 121.248 130.164 121.3 129.954C121.352 129.745 121.319 129.523 121.207 129.338C121.149 129.241 121.071 129.157 120.978 129.092C120.885 129.027 120.78 128.982 120.669 128.96C120.557 128.938 120.443 128.94 120.332 128.965C120.222 128.99 120.118 129.038 120.027 129.105L117.621 130.88C117.509 130.962 117.432 131.083 117.405 131.219C117.377 131.355 117.401 131.496 117.472 131.615V131.613Z" fill="#464646"/>
<path d="M130.291 126.584C130.331 126.718 130.319 126.863 130.257 126.989C130.196 127.115 130.089 127.213 129.957 127.264L127.109 128.365C127.007 128.396 126.9 128.406 126.794 128.396C126.687 128.385 126.584 128.353 126.49 128.303C126.396 128.252 126.313 128.184 126.245 128.101C126.178 128.018 126.127 127.923 126.096 127.82C126.064 127.712 126.055 127.598 126.069 127.485C126.083 127.373 126.12 127.264 126.179 127.167C126.237 127.07 126.315 126.986 126.407 126.92C126.5 126.855 126.605 126.809 126.716 126.786L129.645 126.197C129.782 126.169 129.924 126.193 130.044 126.264C130.163 126.336 130.251 126.45 130.291 126.584Z" fill="#464646"/>
<path d="M115.997 134.833L133.88 127.572C133.938 127.549 133.991 127.515 134.035 127.472C134.08 127.429 134.116 127.377 134.14 127.319C134.164 127.262 134.177 127.2 134.177 127.138C134.177 127.076 134.165 127.014 134.14 126.957C134.118 126.899 134.084 126.846 134.04 126.802C133.997 126.757 133.945 126.722 133.888 126.698C133.83 126.674 133.769 126.662 133.707 126.662C133.644 126.662 133.583 126.674 133.526 126.698L115.643 133.959C115.585 133.982 115.532 134.016 115.488 134.059C115.443 134.102 115.407 134.154 115.383 134.212C115.359 134.269 115.346 134.331 115.346 134.393C115.346 134.455 115.358 134.517 115.383 134.574C115.405 134.632 115.439 134.685 115.483 134.729C115.526 134.774 115.578 134.809 115.636 134.833C115.693 134.857 115.754 134.869 115.816 134.869C115.879 134.869 115.94 134.857 115.997 134.833Z" fill="#FF9D5A"/>
<path d="M359.987 123.662C359.987 123.662 351.641 146.311 365.725 151.56L364.311 168.019L383.295 169.242L387.654 134.514C387.654 134.514 376.765 99.9066 359.987 123.662Z" fill="#FFD3CF"/>
<path d="M364.312 168.019L345.936 237.463C345.936 237.463 353.414 227.652 372.251 234.816C391.088 241.979 397.065 227.289 397.065 227.289L387.518 206.182L383.284 169.241L373.811 166.877L364.312 168.019Z" fill="#545ED3"/>
<path d="M374.011 166.679L376.854 175.384L383.433 173.304L383.295 169.243L384.059 161.365L374.011 166.679Z" fill="#545ED3"/>
<path d="M365.017 159.86L374.01 166.679L369.085 175.53L362.667 172.999L364.311 168.02L365.017 159.86Z" fill="#545ED3"/>
<path d="M410.244 241.816C405.794 236.693 399.231 229.341 397.068 227.282C397.068 227.282 388.685 240.644 367.875 233.055C365.982 232.331 364.005 231.852 361.99 231.63C357.654 231.22 350.885 231.728 345.922 237.452C345.922 237.452 345.675 238.961 345.436 241.811L410.244 241.816Z" fill="#FF7867"/>
<path d="M321.347 60.4769C321.347 60.4769 330.802 51.0991 338.54 56.8813L328.541 65.982C328.541 65.982 323.01 68.6391 321.347 60.4769Z" fill="#FF7867"/>
<path d="M465.369 124.59C465.369 124.59 466.375 122.261 462.733 117.159C459.853 112.637 456.781 111.179 451.802 112.001L453.954 124.423C453.954 124.423 457.843 130.969 465.369 124.59Z" fill="#FF7867"/>
<path d="M326.363 58.5937L327.46 64.632L334.362 62.5898L333.067 56.5537L326.363 58.5937Z" fill="#FFCEC8"/>
<path d="M335.208 42.2587C334.456 41.9933 333.624 42.4474 333.256 43.3323L331.144 46.9418L327.271 35.545C327.106 35.0444 326.622 34.8324 326.205 35.1026C326.034 35.2381 325.906 35.4199 325.835 35.6263C325.764 35.8327 325.755 36.0551 325.807 36.2669L327.567 44.5059L322.994 35.9502C322.953 35.8518 322.888 35.7647 322.806 35.6963C322.725 35.6279 322.627 35.5803 322.523 35.5575C322.419 35.5346 322.311 35.5372 322.208 35.5651C322.105 35.5929 322.01 35.6451 321.932 35.7173C321.761 35.8835 321.647 36.0988 321.605 36.3331C321.564 36.5675 321.596 36.809 321.699 37.0238L321.731 37.1006C321.71 37.0797 325.923 45.654 325.923 45.654L321.34 38.5584C321.302 38.4916 321.252 38.4331 321.191 38.3863C321.13 38.3395 321.06 38.3053 320.986 38.2857C320.912 38.2662 320.835 38.2617 320.759 38.2726C320.683 38.2834 320.61 38.3093 320.544 38.3488C320.362 38.4744 320.231 38.6604 320.174 38.8737C320.117 39.087 320.137 39.3136 320.232 39.5132L324 47.3889L319.41 42.615C319.13 42.3402 318.897 42.275 318.613 42.5778C318.552 42.6403 318.503 42.7137 318.469 42.7943C318.403 42.9559 318.377 43.1308 318.392 43.3046C318.407 43.4784 318.464 43.6459 318.557 43.7934L326.368 58.5831L333.072 56.5431C333.072 56.5431 333.328 54.8594 333.452 52.0207C333.575 49.182 335.208 42.2587 335.208 42.2587Z" fill="#FFCEC8"/>
<path d="M461.2 120.941L457.149 125.552L452.286 120.245L456.506 115.739L461.2 120.941Z" fill="#FFCEC8"/>
<path d="M462.036 102.382C462.816 102.543 463.296 103.36 463.156 104.308L463.107 108.5L472.299 100.726C472.697 100.382 473.23 100.452 473.44 100.899C473.515 101.101 473.532 101.321 473.487 101.533C473.442 101.745 473.338 101.939 473.186 102.093L467.429 108.248L475.757 103.255C475.843 103.194 475.943 103.153 476.049 103.138C476.154 103.122 476.261 103.133 476.362 103.167C476.462 103.202 476.553 103.26 476.626 103.337C476.7 103.414 476.754 103.507 476.784 103.609C476.845 103.839 476.833 104.083 476.75 104.306C476.666 104.529 476.515 104.72 476.318 104.853L476.248 104.902C476.276 104.902 468.249 110.074 468.249 110.074L475.834 106.348C475.9 106.31 475.974 106.286 476.051 106.278C476.127 106.269 476.204 106.275 476.278 106.297C476.351 106.319 476.42 106.355 476.479 106.404C476.539 106.453 476.587 106.513 476.623 106.581C476.715 106.783 476.732 107.012 476.67 107.225C476.608 107.439 476.471 107.623 476.285 107.745L468.997 112.57L475.391 110.842C475.771 110.749 476.006 110.814 476.09 111.22C476.11 111.305 476.114 111.394 476.101 111.481C476.075 111.653 476.007 111.817 475.904 111.958C475.801 112.099 475.666 112.213 475.51 112.291L461.198 120.942L456.503 115.74C456.503 115.74 457.15 114.163 458.506 111.669C459.861 109.175 462.036 102.382 462.036 102.382Z" fill="#FFCEC8"/>
<path d="M359.987 123.661C359.987 123.661 356.999 119.078 359.922 113.515C359.922 113.515 364.465 103.601 378.598 107.46C392.731 111.319 389.359 123.784 389.359 123.784C389.359 123.784 393.756 118.063 402.225 121.921C410.695 125.78 409.049 136.849 409.049 136.849C409.049 136.849 406.897 144.328 420.31 144.797C420.31 144.797 427.676 144.214 429.784 149.955C429.784 149.955 435.179 157.698 427.327 166.235C421.903 172.133 427.839 176.628 432.031 178.842C435.016 180.419 437.11 183.386 437.31 186.76C437.51 190.134 436.227 193.725 430.324 194.883C430.324 194.883 440.614 208.529 429.744 221.197C421.903 230.326 412.479 231.167 412.479 231.167L387.864 208.939L384.071 161.382L386.744 139.818C386.744 139.818 379.628 137.275 378.4 128.768C378.035 126.244 376.852 123.857 374.742 122.427C373.475 121.568 371.321 120.983 368.715 121.06C365.634 121.185 362.634 122.08 359.987 123.661Z" fill="#FF9D5A"/>
<path d="M340.649 180.623C342.1 187.109 345.248 193.094 345.248 193.094C345.248 193.094 338.679 221.364 332.119 241.825H349.053C354.507 219.797 363.608 180.71 365.017 159.854L365.715 151.554C365.715 151.554 358.44 149.398 357.614 139.403C357.473 137.355 357.62 135.297 358.052 133.29L359.977 123.656L338.53 56.8751C338.53 56.8751 334.268 55.3428 327.787 61.153C326.097 62.669 323.437 62.6899 321.856 61.0621C321.673 60.874 321.5 60.6766 321.337 60.4706L347.437 170.221C347.437 170.221 339.196 174.136 340.649 180.623Z" fill="#464646"/>
<path d="M404.389 189.506L465.369 124.591C459.582 121.305 458.737 118.126 458.737 118.126C455.122 108.113 450.12 112.845 450.12 112.845L390.829 167.9L390.71 167.921L404.359 189.578L404.389 189.506Z" fill="#464646"/>
<path d="M405.12 241.816H430.612C414.043 230.473 393.846 211.571 393.846 211.571C392.715 205.316 404.184 189.58 404.964 188.516L399.04 163.613L384.061 161.354C380.24 172.623 380.829 191.809 385.125 212.942C387.021 222.285 397.596 234.634 405.12 241.816Z" fill="#464646"/>
<path d="M368.843 232.712C368.784 232.708 368.729 232.682 368.689 232.639C368.649 232.596 368.626 232.539 368.627 232.48C368.627 232.156 368.941 226.118 369.234 220.277C369.507 214.844 369.789 209.223 369.8 208.918C369.821 208.314 371.582 205.292 372.18 204.281L368.687 202.579C368.655 202.564 368.628 202.542 368.606 202.514C368.585 202.486 368.571 202.453 368.566 202.418C368.559 202.384 368.561 202.348 368.57 202.315C368.58 202.281 368.598 202.25 368.622 202.225L371.458 199.197L368.647 197.956C368.604 197.936 368.568 197.903 368.544 197.861C368.52 197.819 368.51 197.771 368.515 197.723L373.799 166.642C373.808 166.592 373.834 166.546 373.872 166.512C373.911 166.478 373.959 166.457 374.011 166.453C374.062 166.451 374.114 166.467 374.156 166.497C374.198 166.527 374.229 166.571 374.243 166.621L376.106 173.607L383.256 170.359C383.283 170.335 383.316 170.318 383.351 170.31C383.386 170.301 383.422 170.3 383.458 170.308C383.493 170.316 383.526 170.332 383.554 170.355C383.582 170.378 383.604 170.407 383.619 170.44C383.634 170.473 383.641 170.509 383.64 170.545C383.638 170.581 383.628 170.616 383.611 170.648C383.593 170.679 383.569 170.707 383.539 170.727C383.509 170.748 383.475 170.761 383.439 170.766L376.05 174.124C376.021 174.138 375.99 174.145 375.957 174.145C375.925 174.145 375.893 174.138 375.864 174.124C375.835 174.11 375.809 174.09 375.788 174.065C375.767 174.04 375.752 174.011 375.743 173.98L374.066 167.732L368.985 197.633L371.924 198.93C371.955 198.945 371.982 198.968 372.004 198.996C372.025 199.023 372.04 199.056 372.047 199.09C372.054 199.124 372.053 199.16 372.045 199.193C372.037 199.227 372.021 199.259 371.998 199.286L369.155 202.313L372.595 203.99C372.622 204.004 372.647 204.023 372.667 204.047C372.687 204.071 372.702 204.098 372.711 204.127C372.719 204.157 372.722 204.189 372.718 204.219C372.714 204.25 372.703 204.28 372.688 204.307C371.684 205.993 370.261 208.545 370.247 208.939C370.247 209.246 369.965 214.618 369.681 220.305C369.388 226.143 369.085 232.182 369.074 232.501C369.068 232.558 369.042 232.612 368.999 232.651C368.957 232.69 368.901 232.712 368.843 232.712Z" fill="white"/>
<path d="M383.385 143.005C383.152 145.69 382.819 147.853 385.504 148.084C388.189 148.314 392.874 146.526 393.105 143.841C393.193 142.564 392.776 141.304 391.944 140.332C391.111 139.359 389.931 138.753 388.656 138.643C387.381 138.534 386.114 138.929 385.128 139.745C384.142 140.561 383.516 141.732 383.385 143.005Z" fill="#FFD3CF"/>
<path d="M369.581 173.334C369.533 173.333 369.485 173.317 369.446 173.288L362.87 168.269C362.836 168.256 362.806 168.236 362.782 168.209C362.757 168.182 362.74 168.15 362.73 168.115C362.72 168.08 362.719 168.043 362.725 168.008C362.732 167.972 362.747 167.939 362.77 167.91C362.792 167.882 362.82 167.858 362.853 167.843C362.885 167.827 362.921 167.819 362.957 167.819C362.994 167.82 363.029 167.829 363.061 167.846C363.093 167.862 363.121 167.886 363.143 167.915L369.53 172.789L373.638 166.753C373.677 166.722 373.725 166.704 373.775 166.702C373.825 166.7 373.874 166.715 373.915 166.743C373.957 166.771 373.988 166.812 374.004 166.859C374.02 166.906 374.021 166.957 374.006 167.005L369.768 173.237C369.733 173.287 369.679 173.321 369.619 173.332L369.581 173.334Z" fill="white"/>
<path d="M365.726 151.56C365.726 151.56 373.497 152.86 379.505 148.885C379.505 148.885 378.072 154.29 365.483 154.707L365.726 151.56Z" fill="#FFB2A9"/>
<path d="M372.571 129.963C372.732 130.34 373.892 130.219 374.996 130.661C376.127 131.046 376.924 131.896 377.292 131.719C377.683 131.581 377.254 129.9 375.524 129.25C373.794 128.6 372.364 129.604 372.571 129.963Z" fill="#FF9D5A"/>
<path d="M362.301 130.014C362.558 130.336 363.643 129.907 364.828 130.045C366.02 130.11 367.017 130.715 367.324 130.445C367.632 130.175 366.798 128.703 364.956 128.543C363.114 128.382 362.006 129.726 362.301 130.014Z" fill="#FF9D5A"/>
<path d="M363.32 135.52C363.148 136.326 363.422 137.069 363.935 137.178C364.447 137.288 364.999 136.712 365.171 135.914C365.344 135.115 365.069 134.363 364.557 134.253C364.044 134.144 363.492 134.712 363.32 135.52Z" fill="#454545"/>
<path d="M372.898 137.369C372.726 138.177 373.001 138.92 373.511 139.029C374.021 139.139 374.575 138.564 374.747 137.762C374.919 136.961 374.645 136.212 374.132 136.104C373.62 135.997 373.068 136.559 372.898 137.369Z" fill="#454545"/>
<path d="M367.343 143.405C367.308 143.405 367.273 143.398 367.241 143.385C367.055 143.312 365.422 142.651 365.378 141.706C365.357 141.24 365.685 140.846 366.358 140.506C368.589 139.384 368.619 134.931 368.619 134.887C368.619 134.811 368.649 134.739 368.703 134.685C368.756 134.632 368.828 134.601 368.904 134.601C368.979 134.601 369.051 134.632 369.105 134.685C369.158 134.739 369.188 134.811 369.188 134.887C369.188 135.085 369.155 139.735 366.626 141.014C366.37 141.142 365.944 141.4 365.958 141.678C365.976 142.094 366.847 142.609 367.46 142.856C367.522 142.88 367.574 142.925 367.607 142.983C367.639 143.041 367.65 143.109 367.638 143.175C367.625 143.24 367.59 143.299 367.538 143.341C367.487 143.384 367.422 143.406 367.355 143.405H367.343Z" fill="#FF7867"/>
<path d="M374.847 142.578C374.042 142.576 373.249 142.385 372.532 142.021C371.814 141.656 371.193 141.128 370.717 140.479C370.241 139.83 369.924 139.078 369.792 138.284C369.66 137.491 369.716 136.677 369.957 135.909C370.24 135.001 370.769 134.189 371.486 133.564C372.203 132.939 373.08 132.526 374.018 132.369C374.956 132.213 375.919 132.32 376.8 132.678C377.681 133.037 378.445 133.633 379.008 134.4C379.57 135.167 379.909 136.075 379.986 137.023C380.063 137.971 379.875 138.922 379.444 139.769C379.012 140.617 378.354 141.328 377.543 141.824C376.731 142.32 375.798 142.581 374.847 142.578ZM374.847 132.744C373.848 132.748 372.877 133.07 372.073 133.663C371.269 134.255 370.675 135.089 370.376 136.042C370.005 137.229 370.122 138.515 370.699 139.617C371.277 140.719 372.269 141.546 373.457 141.917C374.644 142.287 375.93 142.171 377.032 141.593C378.134 141.016 378.961 140.024 379.332 138.836C379.515 138.247 379.581 137.629 379.525 137.015C379.469 136.401 379.293 135.804 379.006 135.258C378.719 134.712 378.328 134.229 377.854 133.834C377.38 133.44 376.833 133.143 376.244 132.961C375.787 132.817 375.31 132.744 374.831 132.744H374.847Z" fill="white"/>
<path d="M362.883 140.91C362.362 140.91 361.844 140.831 361.346 140.677C360.21 140.324 359.232 139.587 358.578 138.593C357.925 137.599 357.636 136.409 357.761 135.226C357.886 134.043 358.418 132.94 359.265 132.105C360.113 131.27 361.224 130.755 362.408 130.647C363.593 130.539 364.779 130.846 365.763 131.514C366.747 132.183 367.469 133.172 367.806 134.313C368.143 135.454 368.073 136.676 367.609 137.772C367.146 138.867 366.317 139.768 365.263 140.321C364.53 140.708 363.713 140.91 362.883 140.91ZM362.883 131.076C361.762 131.077 360.678 131.48 359.828 132.211C358.978 132.942 358.418 133.953 358.249 135.062C358.08 136.17 358.313 137.302 358.907 138.253C359.501 139.205 360.416 139.912 361.486 140.247C362.13 140.446 362.81 140.504 363.48 140.417C364.149 140.329 364.791 140.099 365.363 139.74C365.934 139.382 366.422 138.905 366.792 138.341C367.163 137.777 367.407 137.139 367.509 136.472C367.61 135.805 367.567 135.124 367.381 134.476C367.196 133.827 366.872 133.226 366.433 132.714C365.994 132.201 365.45 131.79 364.837 131.507C364.224 131.225 363.558 131.078 362.883 131.076Z" fill="white"/>
<path d="M369.924 137.557H369.887L367.611 137.166C367.554 137.153 367.504 137.12 367.47 137.072C367.436 137.024 367.422 136.965 367.43 136.907C367.442 136.85 367.476 136.8 367.524 136.766C367.571 136.732 367.63 136.718 367.688 136.726L369.961 137.117C370.008 137.135 370.047 137.168 370.074 137.211C370.1 137.253 370.112 137.303 370.108 137.353C370.104 137.403 370.084 137.45 370.051 137.488C370.017 137.526 369.973 137.551 369.924 137.562V137.557Z" fill="white"/>
<path d="M371.393 145.407C371.276 146.348 370.799 147.208 370.062 147.804C369.324 148.401 368.384 148.688 367.439 148.605C366.494 148.523 365.617 148.077 364.995 147.361C364.372 146.645 364.051 145.716 364.1 144.769L371.393 145.407Z" fill="white"/>
<path d="M369.772 120.898C369.772 120.898 370.506 125.306 359.414 126.79C359.414 126.79 356.296 119.685 359.757 113.949L369.772 120.898Z" fill="#FF9D5A"/>
<path d="M463.204 156.615C462.7 156.525 462.181 156.616 461.738 156.871C461.294 157.127 460.956 157.531 460.782 158.012L458.523 162.151L451.695 150.418C451.625 150.295 451.529 150.187 451.415 150.102C451.301 150.018 451.17 149.958 451.031 149.926C450.892 149.894 450.749 149.891 450.609 149.918C450.469 149.945 450.336 150 450.219 150.081C450.022 150.223 449.879 150.428 449.814 150.662C449.749 150.896 449.766 151.145 449.863 151.369L453.426 159.985L446.092 151.39C446.006 151.287 445.899 151.203 445.78 151.141C445.66 151.08 445.529 151.044 445.395 151.034C445.261 151.024 445.127 151.041 444.999 151.083C444.872 151.126 444.754 151.194 444.653 151.282C444.454 151.46 444.331 151.707 444.309 151.973C444.286 152.239 444.366 152.503 444.532 152.712L444.588 152.794C444.558 152.773 451.414 161.433 451.414 161.433L444.285 154.405C444.144 154.266 443.961 154.178 443.764 154.156C443.568 154.133 443.369 154.176 443.2 154.279C443.095 154.345 443.004 154.432 442.934 154.535C442.865 154.638 442.817 154.754 442.795 154.876C442.773 154.998 442.777 155.124 442.807 155.245C442.836 155.365 442.891 155.478 442.967 155.577L449.134 163.545L442.334 159.007C441.924 158.746 441.605 158.706 441.274 159.067C441.205 159.139 441.151 159.224 441.114 159.316C441.052 159.501 441.044 159.699 441.092 159.887C441.14 160.076 441.241 160.246 441.384 160.378L453.931 175.25L462.505 172.222C462.546 170.59 462.488 168.957 462.333 167.332C462.074 164.27 463.204 156.615 463.204 156.615Z" fill="#FFD3CF"/>
<path d="M513.753 81.5986C513.753 81.5986 507.775 110.344 524.931 112.745L524.956 121.695L535.624 129.105L550.148 119.769L553.493 120.9L548.677 85.4783L513.753 81.5986Z" fill="#FFCEC8"/>
<path d="M513.752 81.6005C513.752 81.6005 518.249 89.5834 528.256 84.3554C528.256 84.3554 531.809 82.9465 533.265 87.1103C533.777 88.5774 534.487 90.2866 535.887 91.1273C536.131 91.2855 536.407 91.3882 536.696 91.4285C536.984 91.4687 537.278 91.4454 537.556 91.3602C537.945 91.2205 538.255 90.9294 538.602 90.7012C540.248 89.6043 542.663 90.1283 543.942 91.6326C546.58 94.7555 544.503 99.5922 540.43 99.8018C539.711 99.8397 538.989 99.8179 538.274 99.7366C538.274 99.7366 538.879 107.331 551.466 105.992L549.356 82.4854C549.356 82.4854 549.673 76.5542 544.466 79.1041L544.794 75.1453C544.794 75.1453 539.629 80.2824 530.091 75.8928C520.552 71.5032 515.482 68.2336 511.375 73.3778C507.267 78.5219 510.394 83.9199 513.161 84.884L513.752 81.6005Z" fill="#464646"/>
<path d="M524.924 112.751C524.924 112.751 535.075 112.881 540.061 107.467C540.061 107.467 537.573 114.711 524.924 116.679V112.751Z" fill="#FFB6AD"/>
<path d="M529.211 95.7847C529.314 96.4321 529.006 97.0213 528.527 97.0958C528.047 97.1703 527.572 96.7069 527.472 96.0572C527.372 95.4075 527.677 94.8207 528.156 94.7461C528.636 94.6716 529.109 95.135 529.211 95.7847Z" fill="#464646"/>
<path d="M528.294 99.013C527.457 99.0112 526.648 98.7107 526.013 98.1655C525.378 97.6202 524.959 96.8662 524.831 96.0392L524.402 93.3123L533.149 91.936L533.578 94.663C533.65 95.1187 533.632 95.5842 533.524 96.0328C533.416 96.4815 533.221 96.9045 532.949 97.2776C532.678 97.6507 532.335 97.9666 531.942 98.2073C531.548 98.4479 531.111 98.6086 530.655 98.68L528.846 98.9641C528.663 98.9943 528.479 99.0107 528.294 99.013ZM524.994 93.7501L525.343 95.9671C525.467 96.7513 525.897 97.4544 526.539 97.9216C527.181 98.3889 527.982 98.5821 528.766 98.4588L530.573 98.1747C530.962 98.1137 531.335 97.9768 531.67 97.7717C532.006 97.5667 532.298 97.2975 532.53 96.9796C532.761 96.6618 532.928 96.3014 533.02 95.9191C533.112 95.5368 533.129 95.14 533.068 94.7515L532.718 92.5368L524.994 93.7501Z" fill="white"/>
<path d="M520.473 97.1579C520.576 97.8053 520.268 98.3944 519.786 98.4689C519.304 98.5435 518.834 98.08 518.732 97.4303C518.629 96.7806 518.937 96.1938 519.43 96.1193C519.924 96.0447 520.371 96.5035 520.473 97.1579Z" fill="#464646"/>
<path d="M517.241 100.752C516.405 100.75 515.598 100.449 514.963 99.9052C514.329 99.3611 513.909 98.6087 513.779 97.783L513.35 95.0561L522.097 93.6821L522.528 96.4091C522.671 97.3292 522.444 98.2685 521.895 99.0212C521.347 99.7738 520.522 100.278 519.603 100.424L517.796 100.708C517.612 100.736 517.427 100.751 517.241 100.752ZM513.944 95.4869L514.291 97.7038C514.415 98.4881 514.845 99.1911 515.487 99.6584C516.129 100.126 516.93 100.319 517.714 100.196L519.521 99.9115C520.306 99.7877 521.009 99.3577 521.476 98.7159C521.944 98.074 522.138 97.2728 522.015 96.4882L521.666 94.2736L513.944 95.4869Z" fill="white"/>
<path d="M523.782 103.706C524.014 104.794 524.658 105.749 525.58 106.371C526.501 106.993 527.628 107.233 528.723 107.04C529.818 106.848 530.796 106.238 531.45 105.339C532.105 104.44 532.384 103.322 532.231 102.221L523.782 103.706Z" fill="white"/>
<path d="M523.18 92.6743L521.463 100.592L525.101 100.953L523.18 92.6743Z" fill="#FFCEC8"/>
<path d="M525.1 101.21H525.075L521.437 100.849C521.401 100.845 521.366 100.834 521.334 100.816C521.303 100.797 521.275 100.773 521.253 100.744C521.232 100.714 521.218 100.681 521.21 100.645C521.203 100.609 521.202 100.573 521.209 100.537L522.925 92.6193C522.945 92.5568 522.987 92.5038 523.043 92.4709C523.1 92.438 523.167 92.4276 523.23 92.4416C523.294 92.4557 523.351 92.4933 523.388 92.5469C523.426 92.6005 523.442 92.6662 523.433 92.731L521.789 100.362L525.137 100.693C525.206 100.696 525.27 100.727 525.317 100.778C525.363 100.829 525.387 100.896 525.383 100.964C525.38 101.033 525.349 101.097 525.298 101.143C525.248 101.189 525.18 101.213 525.112 101.21H525.1Z" fill="#FF7867"/>
<path d="M529.94 89.9835C529.939 90.1229 529.886 90.257 529.791 90.3592C529.696 90.4614 529.566 90.5243 529.427 90.5354L526.4 90.7682C526.186 90.7682 525.981 90.6833 525.83 90.5322C525.679 90.3811 525.594 90.1762 525.594 89.9625C525.594 89.85 525.617 89.7387 525.663 89.6358C525.708 89.5328 525.774 89.4405 525.857 89.3646C525.941 89.2888 526.039 89.2311 526.145 89.1953C526.252 89.1595 526.365 89.1464 526.477 89.1568L529.43 89.4339C529.568 89.4455 529.697 89.5083 529.791 89.6099C529.885 89.7116 529.938 89.8448 529.94 89.9835Z" fill="#464646"/>
<path d="M517.5 92.8994C517.534 93.0346 517.618 93.1519 517.735 93.2279C517.852 93.3038 517.993 93.3329 518.131 93.3093L521.114 92.7783C521.217 92.7522 521.314 92.7061 521.399 92.6426C521.484 92.5791 521.555 92.4994 521.61 92.4081C521.664 92.3169 521.7 92.2158 521.715 92.1107C521.73 92.0056 521.725 91.8985 521.698 91.7956C521.67 91.6868 521.62 91.5851 521.55 91.4968C521.481 91.4085 521.394 91.3357 521.294 91.2829C521.195 91.2302 521.086 91.1986 520.974 91.1902C520.862 91.1819 520.749 91.1969 520.643 91.2344L517.849 92.2334C517.719 92.2796 517.612 92.3726 517.547 92.4941C517.482 92.6156 517.466 92.7568 517.5 92.8901V92.8994Z" fill="#464646"/>
<path d="M532.811 92.7328L513.897 95.7066C513.836 95.7165 513.774 95.7143 513.714 95.7001C513.654 95.6859 513.598 95.66 513.548 95.6238C513.498 95.5877 513.456 95.542 513.424 95.4895C513.392 95.4369 513.371 95.3785 513.362 95.3177C513.352 95.2568 513.354 95.1945 513.368 95.1345C513.383 95.0745 513.409 95.0179 513.445 94.9681C513.482 94.9182 513.527 94.8761 513.58 94.8442C513.633 94.8123 513.692 94.7912 513.753 94.7821L532.667 91.8083C532.728 91.7984 532.79 91.8007 532.85 91.815C532.91 91.8294 532.966 91.8555 533.016 91.8919C533.066 91.9283 533.108 91.9742 533.14 92.027C533.172 92.0799 533.193 92.1385 533.202 92.1995C533.212 92.2603 533.209 92.3223 533.195 92.3821C533.18 92.4418 533.154 92.4981 533.118 92.5477C533.081 92.5973 533.036 92.6391 532.983 92.6709C532.93 92.7027 532.872 92.7237 532.811 92.7328Z" fill="#FFA680"/>
<path d="M531.972 225.874C532.137 226.567 532.21 227.278 532.189 227.989V228.005L533.607 241.824H565.25L559.866 187.425L559.84 187.166L559.782 186.568L559.754 186.302L559.708 185.837L559.668 185.438L559.635 185.103L559.612 184.87V184.847L559.577 184.493L559.558 184.314L559.519 183.89L559.505 183.762L559.423 182.935L559.409 182.791L552.954 117.586L536.169 127.777L524.926 120.532L524.956 117.586L521.19 120.707L531.847 224.64L531.972 225.874Z" fill="#FF7867"/>
<path d="M484.718 196.008L467.252 167.153L447.875 177.166L467.683 214.095C467.683 214.095 469.267 216.962 469.399 217.251C474.648 228.741 488.751 229.686 498.117 221.209C498.404 220.951 498.695 220.669 498.983 220.394L485.011 195.729L484.718 196.008Z" fill="#464646"/>
<path d="M499.065 241.816H533.635C531.54 219.893 521.941 120.538 521.188 120.692C495.17 125.992 479.169 140.952 473.957 162.411C471.039 174.425 471.37 208.212 471.419 212.26L498.954 220.552C499.035 215.876 498.392 209.298 498.774 202.819L499.065 241.816Z" fill="#464646"/>
<path d="M498.774 215.036C498.706 215.036 498.641 215.01 498.593 214.962C498.544 214.915 498.517 214.85 498.515 214.783L497.148 155.512C497.148 155.443 497.176 155.378 497.224 155.329C497.273 155.281 497.338 155.253 497.407 155.253C497.476 155.253 497.541 155.281 497.59 155.329C497.638 155.378 497.665 155.443 497.665 155.512L499.032 214.783C499.033 214.816 499.028 214.85 499.015 214.882C499.003 214.914 498.985 214.943 498.962 214.967C498.938 214.992 498.91 215.012 498.879 215.026C498.848 215.04 498.815 215.047 498.781 215.048L498.774 215.036Z" fill="#333333"/>
<path d="M604.226 241.817C604.32 238.477 604.412 235.139 604.504 231.803C608.265 231.746 611.912 230.499 614.92 228.24C615.015 228.17 615.109 228.098 615.199 228.026C617.199 226.43 618.765 224.356 619.752 221.996C620.739 219.635 621.116 217.064 620.847 214.519L616.941 176.147C616.486 172.503 615.786 168.895 614.845 165.346C609.753 146.362 597.906 131.368 579.12 125.592L556.425 118.627L552.953 117.591L565.162 241.817H604.226Z" fill="#464646"/>
<path d="M545.731 240.67C545.653 240.67 545.579 240.642 545.52 240.592C545.462 240.541 545.423 240.472 545.412 240.395C545.277 239.485 545.223 238.619 545.179 237.78C545.151 237.287 545.121 236.774 545.072 236.255C544.944 234.65 544.781 233.018 544.622 231.441C544.464 229.865 544.301 228.226 544.173 226.616C544.14 226.123 544.115 225.624 544.091 225.142C544.05 223.667 543.907 222.196 543.663 220.741C543.465 219.553 542.866 218.606 542.233 217.6C542.084 217.367 541.93 217.12 541.781 216.873C541.62 216.655 541.51 216.404 541.459 216.138C541.407 215.872 541.415 215.598 541.483 215.336C541.631 214.877 541.837 214.439 542.095 214.032C542.326 213.675 542.51 213.29 542.643 212.886C542.82 212.188 542.156 211.78 541.269 211.338C540.964 211.201 540.692 211.002 540.469 210.753C540.246 210.504 540.077 210.212 539.974 209.894C539.903 209.626 539.889 209.346 539.935 209.072C539.981 208.799 540.085 208.538 540.24 208.308C540.252 208.287 540.266 208.267 540.284 208.25C540.385 208.122 540.452 207.97 540.479 207.81C540.511 207.681 540.554 207.555 540.61 207.435C540.621 207.411 540.636 207.389 540.654 207.369C541.513 206.366 542.051 205.541 542.368 204.705C541.097 188.817 539.704 172.709 538.358 157.132C537.529 147.54 536.67 137.622 535.85 127.848C535.846 127.806 535.851 127.763 535.864 127.723C535.877 127.682 535.897 127.645 535.925 127.612C535.952 127.579 535.985 127.553 536.023 127.533C536.061 127.513 536.102 127.501 536.144 127.498C536.187 127.494 536.229 127.499 536.27 127.512C536.311 127.524 536.348 127.545 536.381 127.573C536.413 127.6 536.44 127.633 536.46 127.671C536.479 127.709 536.491 127.75 536.495 127.792C537.315 137.573 538.174 147.484 539.003 157.076C540.351 172.679 541.746 188.814 543.02 204.729C543.024 204.775 543.018 204.822 543.001 204.866C542.654 205.798 542.091 206.683 541.173 207.756C541.145 207.832 541.122 207.91 541.103 207.989C541.053 208.246 540.938 208.486 540.77 208.688C540.67 208.839 540.603 209.01 540.573 209.19C540.544 209.369 540.552 209.553 540.598 209.728C540.678 209.958 540.805 210.169 540.97 210.348C541.135 210.526 541.335 210.669 541.558 210.767C542.366 211.172 543.588 211.782 543.269 213.063C543.121 213.522 542.915 213.96 542.657 214.367C542.427 214.724 542.243 215.109 542.109 215.513C542.064 215.688 542.06 215.87 542.097 216.047C542.134 216.224 542.212 216.389 542.324 216.531C542.468 216.764 542.622 217.017 542.771 217.253C543.411 218.266 544.073 219.316 544.291 220.627C544.54 222.109 544.687 223.606 544.729 225.107C544.753 225.587 544.776 226.083 544.808 226.567C544.937 228.167 545.1 229.797 545.258 231.376C545.416 232.955 545.579 234.59 545.707 236.197C545.756 236.723 545.787 237.24 545.817 237.738C545.868 238.602 545.915 239.417 546.05 240.3C546.056 240.342 546.054 240.385 546.044 240.426C546.033 240.467 546.015 240.506 545.99 240.54C545.964 240.575 545.933 240.603 545.896 240.625C545.86 240.647 545.819 240.662 545.777 240.668L545.731 240.67Z" fill="white"/>
<path d="M528.775 132.405C528.724 132.405 528.674 132.393 528.628 132.37C528.583 132.347 528.544 132.314 528.514 132.272L521.029 121.998C520.979 121.929 520.958 121.842 520.971 121.757C520.985 121.672 521.031 121.596 521.1 121.545C521.17 121.494 521.257 121.474 521.342 121.487C521.427 121.5 521.503 121.547 521.553 121.616L528.866 131.655L535.996 127.538C536.046 127.511 536.101 127.496 536.158 127.496C536.215 127.496 536.27 127.511 536.32 127.538L542.16 130.912L553.292 122.813C553.326 122.788 553.365 122.77 553.406 122.76C553.448 122.75 553.491 122.748 553.533 122.755C553.575 122.761 553.615 122.776 553.652 122.798C553.688 122.821 553.719 122.85 553.745 122.884C553.77 122.919 553.788 122.958 553.798 122.999C553.808 123.04 553.809 123.083 553.803 123.125C553.796 123.167 553.781 123.208 553.759 123.244C553.737 123.28 553.708 123.312 553.673 123.337L542.372 131.56C542.321 131.596 542.261 131.617 542.198 131.621C542.135 131.624 542.073 131.609 542.018 131.578L536.157 128.192L528.938 132.363C528.888 132.391 528.832 132.405 528.775 132.405Z" fill="white"/>
<path d="M534.046 139.381C534.84 139.381 535.485 138.736 535.485 137.942C535.485 137.147 534.84 136.502 534.046 136.502C533.251 136.502 532.606 137.147 532.606 137.942C532.606 138.736 533.251 139.381 534.046 139.381Z" fill="white"/>
<path d="M536.442 171.277C537.237 171.277 537.881 170.633 537.881 169.838C537.881 169.043 537.237 168.399 536.442 168.399C535.647 168.399 535.003 169.043 535.003 169.838C535.003 170.633 535.647 171.277 536.442 171.277Z" fill="white"/>
<path d="M540.276 200.133C540.276 200.418 540.192 200.697 540.033 200.934C539.875 201.171 539.65 201.356 539.386 201.465C539.123 201.574 538.833 201.602 538.553 201.546C538.273 201.491 538.016 201.353 537.815 201.151C537.613 200.949 537.476 200.692 537.421 200.413C537.366 200.133 537.395 199.843 537.504 199.58C537.613 199.316 537.799 199.091 538.036 198.933C538.273 198.775 538.552 198.691 538.837 198.691C539.027 198.691 539.214 198.729 539.389 198.801C539.563 198.874 539.722 198.98 539.856 199.114C539.989 199.248 540.095 199.407 540.168 199.581C540.24 199.756 540.277 199.944 540.276 200.133Z" fill="white"/>
<path d="M543.642 235.661C543.642 235.946 543.557 236.225 543.399 236.462C543.24 236.699 543.015 236.884 542.752 236.993C542.489 237.102 542.199 237.131 541.919 237.075C541.639 237.019 541.383 236.882 541.181 236.68C540.979 236.479 540.842 236.222 540.786 235.942C540.731 235.663 540.759 235.373 540.869 235.11C540.978 234.846 541.162 234.621 541.399 234.463C541.636 234.304 541.915 234.22 542.2 234.22C542.583 234.22 542.949 234.372 543.22 234.642C543.49 234.912 543.642 235.279 543.642 235.661Z" fill="white"/>
<path d="M451.97 180.679C451.733 180.44 451.573 180.136 451.51 179.806C451.447 179.476 451.482 179.134 451.613 178.824C451.744 178.514 451.964 178.25 452.244 178.065C452.525 177.88 452.855 177.783 453.191 177.785C453.527 177.787 453.855 177.889 454.134 178.078C454.412 178.267 454.628 178.534 454.754 178.846C454.881 179.157 454.912 179.499 454.844 179.829C454.776 180.158 454.612 180.46 454.373 180.696C454.052 181.012 453.618 181.187 453.168 181.184C452.717 181.181 452.287 181 451.97 180.679ZM454.021 178.658C453.856 178.493 453.646 178.381 453.417 178.335C453.188 178.289 452.95 178.313 452.735 178.402C452.519 178.492 452.334 178.643 452.205 178.837C452.075 179.031 452.006 179.259 452.006 179.493C452.006 179.726 452.075 179.955 452.205 180.149C452.334 180.343 452.519 180.494 452.735 180.584C452.95 180.673 453.188 180.696 453.417 180.651C453.646 180.605 453.856 180.493 454.021 180.328C454.131 180.218 454.219 180.088 454.278 179.945C454.338 179.802 454.369 179.649 454.369 179.493C454.369 179.338 454.339 179.185 454.28 179.041C454.22 178.898 454.133 178.768 454.024 178.658H454.021Z" fill="#333333"/>
<path d="M452.724 186.76C452.707 186.743 452.692 186.723 452.68 186.702C452.648 186.642 452.641 186.571 452.66 186.505C452.68 186.439 452.725 186.384 452.785 186.351L469.463 177.31C469.525 177.278 469.597 177.271 469.664 177.291C469.731 177.312 469.787 177.358 469.82 177.42C469.852 177.482 469.859 177.554 469.839 177.621C469.818 177.688 469.772 177.743 469.71 177.776L453.032 186.819C452.981 186.844 452.924 186.852 452.868 186.841C452.813 186.831 452.762 186.802 452.724 186.76Z" fill="#333333"/>
<path d="M580.603 235.062L548.693 239.391L545.123 217.343L582.683 209.851L580.603 235.062Z" fill="#464646"/>
<path d="M554.356 215.758C554.297 215.758 554.239 215.737 554.193 215.699C554.146 215.661 554.115 215.609 554.102 215.551C554.096 215.517 554.095 215.483 554.102 215.449C554.109 215.416 554.122 215.384 554.141 215.355C554.16 215.327 554.185 215.303 554.213 215.284C554.242 215.265 554.274 215.252 554.307 215.246L590.437 208.027L580.938 151.059C580.933 151.026 580.934 150.991 580.941 150.958C580.949 150.925 580.963 150.894 580.983 150.866C581.002 150.838 581.027 150.815 581.056 150.797C581.085 150.779 581.117 150.767 581.15 150.761C581.184 150.755 581.218 150.756 581.251 150.764C581.284 150.771 581.316 150.785 581.343 150.805C581.371 150.825 581.395 150.85 581.413 150.879C581.431 150.907 581.443 150.939 581.448 150.973L590.996 208.201C591.008 208.268 590.993 208.336 590.954 208.391C590.916 208.446 590.857 208.484 590.791 208.497L554.414 215.753L554.356 215.758Z" fill="#333333"/>
<path d="M548.919 239.639C548.853 239.639 548.79 239.614 548.742 239.569C548.694 239.525 548.665 239.463 548.661 239.398C548.656 239.332 548.677 239.268 548.718 239.217C548.76 239.166 548.819 239.133 548.884 239.124L604.459 231.544C604.524 231.541 604.587 231.563 604.637 231.605C604.687 231.646 604.72 231.705 604.728 231.77C604.737 231.834 604.721 231.899 604.685 231.953C604.648 232.006 604.592 232.044 604.529 232.059L548.947 239.636L548.919 239.639Z" fill="#333333"/>
<path d="M552.179 235.702C552.058 235.701 551.938 235.688 551.82 235.662C551.491 235.591 551.191 235.425 550.957 235.183C550.723 234.942 550.566 234.637 550.506 234.306C550.446 233.975 550.486 233.634 550.62 233.326C550.754 233.018 550.976 232.756 551.259 232.574C551.446 232.452 551.655 232.368 551.874 232.328C552.094 232.288 552.319 232.293 552.537 232.341C552.946 232.431 553.307 232.669 553.552 233.008C553.797 233.348 553.907 233.766 553.863 234.182C553.819 234.598 553.622 234.984 553.311 235.264C553.001 235.544 552.597 235.7 552.179 235.702ZM552.179 232.819C551.894 232.829 551.623 232.942 551.416 233.136C551.208 233.331 551.077 233.593 551.047 233.876C551.017 234.159 551.09 234.443 551.252 234.677C551.415 234.91 551.656 235.077 551.932 235.147C552.237 235.211 552.555 235.152 552.817 234.982C553.078 234.812 553.263 234.546 553.329 234.242C553.393 233.936 553.333 233.618 553.164 233.357C552.994 233.095 552.728 232.911 552.423 232.844C552.342 232.827 552.259 232.818 552.176 232.819H552.179Z" fill="#333333"/>
<path d="M558.624 238.324C558.563 238.323 558.503 238.301 558.456 238.261C558.409 238.221 558.378 238.166 558.368 238.105L555.266 218.557C555.261 218.524 555.262 218.489 555.27 218.456C555.278 218.423 555.293 218.392 555.313 218.364C555.333 218.337 555.358 218.313 555.387 218.296C555.416 218.278 555.448 218.266 555.482 218.261C555.515 218.255 555.55 218.257 555.583 218.264C555.616 218.272 555.647 218.287 555.675 218.307C555.702 218.327 555.726 218.352 555.744 218.381C555.761 218.41 555.773 218.442 555.779 218.476L558.881 238.023C558.891 238.091 558.875 238.161 558.835 238.216C558.795 238.272 558.734 238.31 558.666 238.321L558.624 238.324Z" fill="#333333"/>
<path d="M523.962 237.726L525.929 235.183L525.773 241.005C525.771 241.161 525.805 241.316 525.873 241.457C525.94 241.598 526.039 241.722 526.162 241.818H527.436C527.62 241.675 527.75 241.473 527.802 241.245L528.61 237.435L532.024 232.927L528.959 237.158L529.134 241.83H531.16L532.014 238.29L534.441 235.053C534.464 235.021 534.497 234.998 534.535 234.986C534.573 234.975 534.613 234.976 534.65 234.99C534.675 234.999 534.698 235.014 534.717 235.033C534.735 235.052 534.75 235.075 534.759 235.1C534.768 235.125 534.772 235.151 534.769 235.178C534.767 235.204 534.759 235.23 534.746 235.253L532.96 238.404L532.219 241.83H534.753L536.001 239.578L537.592 236.925L540.076 235.544C543.968 236.981 546.017 234.725 546.017 234.725L547.975 235.018L545.947 222.333C544.661 222.654 543.395 223.048 542.154 223.512L531.609 227.336L526.346 230.493C525.801 230.822 525.364 231.303 525.089 231.877L522.667 236.935C522.588 237.105 522.575 237.298 522.629 237.477C522.683 237.656 522.801 237.81 522.96 237.908C523.12 238.006 523.309 238.043 523.494 238.011C523.679 237.979 523.845 237.88 523.962 237.733V237.726Z" fill="#FFCEC8"/>
<path d="M526.128 235.357H526.111C526.095 235.355 526.078 235.349 526.063 235.34C526.049 235.332 526.036 235.32 526.025 235.307C526.015 235.293 526.007 235.278 526.003 235.261C525.998 235.244 525.997 235.227 526 235.21L526.042 234.891C526.103 234.432 526.32 234.008 526.656 233.69L530.566 230.01C530.591 229.986 530.624 229.972 530.658 229.972C530.693 229.972 530.726 229.986 530.75 230.01C530.763 230.022 530.772 230.036 530.779 230.052C530.786 230.067 530.789 230.084 530.789 230.101C530.789 230.118 530.786 230.135 530.779 230.15C530.772 230.166 530.763 230.18 530.75 230.192L526.843 233.873C526.549 234.15 526.359 234.519 526.305 234.919L526.263 235.24C526.262 235.257 526.257 235.273 526.25 235.288C526.242 235.303 526.232 235.316 526.22 235.327C526.207 235.338 526.192 235.346 526.177 235.351C526.161 235.356 526.144 235.358 526.128 235.357Z" fill="#FF7867"/>
<path d="M529.025 237.325C529.01 237.328 528.995 237.328 528.981 237.325C528.964 237.319 528.95 237.311 528.937 237.299C528.924 237.288 528.914 237.274 528.907 237.258C528.9 237.243 528.896 237.226 528.895 237.209C528.895 237.192 528.898 237.175 528.904 237.159L529.027 236.824C529.031 236.811 529.039 236.799 529.048 236.789L531.938 233.147C531.948 233.131 531.96 233.117 531.976 233.107C531.991 233.096 532.008 233.089 532.027 233.086C532.045 233.082 532.064 233.083 532.082 233.087C532.1 233.092 532.117 233.1 532.131 233.112C532.146 233.123 532.158 233.138 532.166 233.154C532.175 233.171 532.179 233.189 532.18 233.207C532.181 233.226 532.178 233.245 532.171 233.262C532.164 233.279 532.154 233.295 532.141 233.308L529.262 236.926L529.146 237.241C529.137 237.266 529.12 237.287 529.099 237.302C529.077 237.317 529.051 237.325 529.025 237.325Z" fill="#FF7867"/>
<path d="M491.134 208.147C491.081 208.147 491.028 208.132 490.982 208.105C490.936 208.078 490.898 208.04 490.871 207.993L472.654 176.576C472.634 176.542 472.621 176.503 472.615 176.464C472.61 176.424 472.613 176.383 472.623 176.345C472.634 176.306 472.651 176.27 472.676 176.238C472.7 176.206 472.731 176.18 472.765 176.16C472.8 176.139 472.838 176.126 472.878 176.121C472.918 176.116 472.958 176.119 472.997 176.129C473.036 176.139 473.072 176.157 473.104 176.182C473.136 176.206 473.162 176.237 473.182 176.271L491.409 207.688C491.449 207.758 491.46 207.841 491.44 207.919C491.419 207.997 491.369 208.064 491.3 208.105C491.25 208.134 491.192 208.148 491.134 208.147Z" fill="#333333"/>
</svg>
