<?xml version="1.0"?>
<svg xmlns="http://www.w3.org/2000/svg" version="1.1" width="512"
     height="512" x="0" y="0" viewBox="0 0 512 512" style="enable-background:new 0 0 512 512" xml:space="preserve"
     className=""><g>
<path xmlns="http://www.w3.org/2000/svg" style=""
      d="M409.126,63.424C368.227,22.524,313.84,0,255.995,0C198.16,0,143.773,22.524,102.874,63.424  S39.45,158.71,39.45,216.555c0,117.01,110.642,214.336,170.077,266.622c8.258,7.258,15.396,13.537,21.075,18.845  c7.118,6.648,16.256,9.977,25.394,9.977c9.138,0,18.275-3.329,25.404-9.977c5.679-5.309,12.817-11.587,21.075-18.845  c59.435-52.287,170.077-149.612,170.077-266.622C472.55,158.71,450.026,104.324,409.126,63.424z M255.995,303.803  c-52.617,0-95.426-42.809-95.426-95.436c0-52.617,42.809-95.426,95.426-95.426c52.627,0,95.436,42.809,95.436,95.426  C351.431,260.994,308.622,303.803,255.995,303.803z"
      fill="#5f98d1" data-original="#ff7c48" className=""/>
<path xmlns="http://www.w3.org/2000/svg" style=""
      d="M472.55,216.555c0,117.01-110.642,214.336-170.077,266.622c-8.258,7.258-15.396,13.537-21.075,18.845  c-7.128,6.648-16.266,9.977-25.404,9.977V303.803c52.627,0,95.436-42.809,95.436-95.436c0-52.617-42.809-95.426-95.436-95.426V0  c57.845,0,112.232,22.524,153.131,63.424S472.55,158.71,472.55,216.555z"
      fill="#3a6da1" data-original="#ff4c04" className=""/>
<g xmlns="http://www.w3.org/2000/svg">
</g>
<g xmlns="http://www.w3.org/2000/svg">
</g>
<g xmlns="http://www.w3.org/2000/svg">
</g>
<g xmlns="http://www.w3.org/2000/svg">
</g>
<g xmlns="http://www.w3.org/2000/svg">
</g>
<g xmlns="http://www.w3.org/2000/svg">
</g>
<g xmlns="http://www.w3.org/2000/svg">
</g>
<g xmlns="http://www.w3.org/2000/svg">
</g>
<g xmlns="http://www.w3.org/2000/svg">
</g>
<g xmlns="http://www.w3.org/2000/svg">
</g>
<g xmlns="http://www.w3.org/2000/svg">
</g>
<g xmlns="http://www.w3.org/2000/svg">
</g>
<g xmlns="http://www.w3.org/2000/svg">
</g>
<g xmlns="http://www.w3.org/2000/svg">
</g>
<g xmlns="http://www.w3.org/2000/svg">
</g>
<script/></g></svg>
