<svg width="341" height="338" viewBox="0 0 341 338" fill="none" xmlns="http://www.w3.org/2000/svg">
<path d="M102.373 1.19749C102.373 1.19749 102.406 1.19749 102.406 1.16417C102.406 1.13086 102.406 1.13086 102.373 1.13086C102.34 1.13086 102.34 1.13086 102.34 1.16417C102.34 1.19749 102.34 1.19749 102.373 1.19749Z" fill="#FF3C21"/>
<path d="M119.376 1.26042C119.376 1.26042 119.475 1.22744 119.475 1.16146C119.475 1.09549 119.442 1.0625 119.376 1.0625C119.31 1.0625 119.277 1.09549 119.277 1.16146C119.277 1.22744 119.31 1.26042 119.376 1.26042Z" fill="#FF3C21"/>
<path d="M136.377 1.39346C136.505 1.39346 136.608 1.29008 136.608 1.16255C136.608 1.03502 136.505 0.931641 136.377 0.931641C136.25 0.931641 136.146 1.03502 136.146 1.16255C136.146 1.29008 136.25 1.39346 136.377 1.39346Z" fill="#FF3C21"/>
<path d="M153.38 1.42428C153.38 1.42428 153.676 1.29233 153.676 1.16038C153.676 1.02843 153.544 0.896484 153.38 0.896484C153.215 0.896484 153.083 1.02843 153.083 1.16038C153.083 1.29233 153.215 1.42428 153.38 1.42428Z" fill="#FF3C21"/>
<path d="M170.381 1.49178C170.579 1.49178 170.711 1.35983 170.711 1.1619C170.711 0.96398 170.579 0.832031 170.381 0.832031C170.184 0.832031 170.052 0.96398 170.052 1.1619C170.052 1.35983 170.184 1.49178 170.381 1.49178Z" fill="#FF3C21"/>
<path d="M187.383 1.42428C187.383 1.42428 187.68 1.29233 187.68 1.16038C187.68 1.02843 187.548 0.896484 187.383 0.896484C187.219 0.896484 187.087 1.02843 187.087 1.16038C187.087 1.29233 187.219 1.42428 187.383 1.42428Z" fill="#FF3C21"/>
<path d="M204.387 1.39346C204.387 1.39346 204.618 1.2945 204.618 1.16255C204.618 1.0306 204.519 0.931641 204.387 0.931641C204.255 0.931641 204.156 1.0306 204.156 1.16255C204.156 1.2945 204.255 1.39346 204.387 1.39346Z" fill="#FF3C21"/>
<path d="M221.388 1.29319C221.388 1.29319 221.519 1.22722 221.519 1.16125C221.519 1.09527 221.454 1.0293 221.388 1.0293C221.322 1.0293 221.256 1.09527 221.256 1.16125C221.256 1.22722 221.322 1.29319 221.388 1.29319Z" fill="#FF3C21"/>
<path d="M238.39 1.19749C238.408 1.19749 238.423 1.18257 238.423 1.16417C238.423 1.14577 238.408 1.13086 238.39 1.13086C238.371 1.13086 238.356 1.14577 238.356 1.16417C238.356 1.18257 238.371 1.19749 238.39 1.19749Z" fill="#FF3C21"/>
<path d="M85.3725 18.1498C85.4817 18.1498 85.5702 18.0611 85.5702 17.9518C85.5702 17.8425 85.4817 17.7539 85.3725 17.7539C85.2633 17.7539 85.1748 17.8425 85.1748 17.9518C85.1748 18.0611 85.2633 18.1498 85.3725 18.1498Z" fill="#FF3C21"/>
<path d="M102.374 18.3499C102.604 18.3499 102.802 18.1519 102.802 17.921C102.802 17.6901 102.604 17.4922 102.374 17.4922C102.143 17.4922 101.945 17.6901 101.945 17.921C101.945 18.1519 102.143 18.3499 102.374 18.3499Z" fill="#FF3C21"/>
<path d="M119.376 18.545C119.706 18.545 120.002 18.2811 120.002 17.9512C120.002 17.6213 119.738 17.3574 119.376 17.3574C119.014 17.3574 118.75 17.6213 118.75 17.9512C118.75 18.2811 119.014 18.545 119.376 18.545Z" fill="#FF3C21"/>
<path d="M136.377 18.7108C136.796 18.7108 137.135 18.3711 137.135 17.9521C137.135 17.533 136.796 17.1934 136.377 17.1934C135.958 17.1934 135.619 17.533 135.619 17.9521C135.619 18.3711 135.958 18.7108 136.377 18.7108Z" fill="#FF3C21"/>
<path d="M153.379 18.7783C153.84 18.7783 154.236 18.4154 154.236 17.9536C154.236 17.4918 153.84 17.1289 153.379 17.1289C152.918 17.1289 152.522 17.4918 152.522 17.9536C152.522 18.4154 152.918 18.7783 153.379 18.7783Z" fill="#FF3C21"/>
<path d="M170.383 18.8419C170.877 18.8419 171.272 18.446 171.272 17.9512C171.272 17.4564 170.877 17.0605 170.383 17.0605C169.889 17.0605 169.493 17.4564 169.493 17.9512C169.493 18.446 169.889 18.8419 170.383 18.8419Z" fill="#FF3C21"/>
<path d="M187.382 18.7783C187.843 18.7783 188.239 18.4154 188.239 17.9536C188.239 17.4918 187.843 17.1289 187.382 17.1289C186.921 17.1289 186.525 17.4918 186.525 17.9536C186.525 18.4154 186.921 18.7783 187.382 18.7783Z" fill="#FF3C21"/>
<path d="M204.385 18.7108C204.803 18.7108 205.143 18.3711 205.143 17.9521C205.143 17.533 204.803 17.1934 204.385 17.1934C203.966 17.1934 203.627 17.533 203.627 17.9521C203.627 18.3711 203.966 18.7108 204.385 18.7108Z" fill="#FF3C21"/>
<path d="M221.387 18.545C221.716 18.545 222.013 18.2811 222.013 17.9512C222.013 17.6213 221.749 17.3574 221.387 17.3574C221.024 17.3574 220.761 17.6213 220.761 17.9512C220.761 18.2811 221.024 18.545 221.387 18.545Z" fill="#FF3C21"/>
<path d="M238.388 18.3499C238.619 18.3499 238.817 18.1519 238.817 17.921C238.817 17.6901 238.619 17.4922 238.388 17.4922C238.158 17.4922 237.96 17.6901 237.96 17.921C237.96 18.1519 238.158 18.3499 238.388 18.3499Z" fill="#FF3C21"/>
<path d="M255.39 18.1498C255.499 18.1498 255.588 18.0611 255.588 17.9518C255.588 17.8425 255.499 17.7539 255.39 17.7539C255.281 17.7539 255.192 17.8425 255.192 17.9518C255.192 18.0611 255.281 18.1498 255.39 18.1498Z" fill="#FF3C21"/>
<path d="M272.428 17.9846C272.428 17.9846 272.461 17.9846 272.461 17.9513C272.461 17.918 272.461 17.918 272.428 17.918C272.395 17.918 272.395 17.918 272.395 17.9513C272.395 17.9846 272.395 17.9846 272.428 17.9846Z" fill="#FF3C21"/>
<path d="M51.335 34.7776C51.335 34.7776 51.3683 34.7776 51.3683 34.7442C51.3683 34.7109 51.3683 34.7109 51.335 34.7109C51.3018 34.7109 51.3018 34.7109 51.3018 34.7442C51.3018 34.7776 51.3018 34.7776 51.335 34.7776Z" fill="#FF3C21"/>
<path d="M68.3373 35.0406C68.535 35.0406 68.6668 34.9087 68.6668 34.7107C68.6668 34.5128 68.535 34.3809 68.3373 34.3809C68.1396 34.3809 68.0078 34.5128 68.0078 34.7107C68.0078 34.9087 68.1396 35.0406 68.3373 35.0406Z" fill="#FF3C21"/>
<path d="M85.3729 35.3703C85.7353 35.3703 86.0319 35.0734 86.0319 34.7105C86.0319 34.3477 85.7353 34.0508 85.3729 34.0508C85.0104 34.0508 84.7139 34.3477 84.7139 34.7105C84.7139 35.0734 85.0104 35.3703 85.3729 35.3703Z" fill="#FF3C21"/>
<path d="M102.373 35.6676C102.901 35.6676 103.329 35.2541 103.329 34.744C103.329 34.2338 102.901 33.8203 102.373 33.8203C101.846 33.8203 101.418 34.2338 101.418 34.744C101.418 35.2541 101.846 35.6676 102.373 35.6676Z" fill="#FF3C21"/>
<path d="M119.376 35.897C120.035 35.897 120.562 35.3692 120.562 34.7424C120.562 34.1157 120.035 33.5879 119.376 33.5879C118.717 33.5879 118.189 34.1157 118.189 34.7424C118.189 35.3692 118.717 35.897 119.376 35.897Z" fill="#FF3C21"/>
<path d="M136.376 36.0628C137.103 36.0628 137.694 35.472 137.694 34.7433C137.694 34.0146 137.103 33.4238 136.376 33.4238C135.648 33.4238 135.058 34.0146 135.058 34.7433C135.058 35.472 135.648 36.0628 136.376 36.0628Z" fill="#FF3C21"/>
<path d="M153.379 36.1607C154.203 36.1607 154.829 35.5009 154.829 34.7093C154.829 33.9176 154.17 33.2578 153.379 33.2578C152.589 33.2578 151.93 33.9176 151.93 34.7093C151.93 35.5009 152.589 36.1607 153.379 36.1607Z" fill="#FF3C21"/>
<path d="M170.381 36.2267C171.218 36.2267 171.897 35.5621 171.897 34.7422C171.897 33.9224 171.218 33.2578 170.381 33.2578C169.544 33.2578 168.865 33.9224 168.865 34.7422C168.865 35.5621 169.544 36.2267 170.381 36.2267Z" fill="#FF3C21"/>
<path d="M187.383 36.1607C188.207 36.1607 188.833 35.5009 188.833 34.7093C188.833 33.9176 188.174 33.2578 187.383 33.2578C186.593 33.2578 185.934 33.9176 185.934 34.7093C185.934 35.5009 186.593 36.1607 187.383 36.1607Z" fill="#FF3C21"/>
<path d="M204.384 36.0956C205.148 36.0956 205.768 35.4901 205.768 34.7431C205.768 33.9961 205.148 33.3906 204.384 33.3906C203.62 33.3906 203 33.9961 203 34.7431C203 35.4901 203.62 36.0956 204.384 36.0956Z" fill="#FF3C21"/>
<path d="M221.388 35.897C222.047 35.897 222.575 35.3692 222.575 34.7424C222.575 34.1157 222.047 33.5879 221.388 33.5879C220.729 33.5879 220.202 34.1157 220.202 34.7424C220.202 35.3692 220.729 35.897 221.388 35.897Z" fill="#FF3C21"/>
<path d="M238.389 35.6676C238.917 35.6676 239.345 35.2541 239.345 34.744C239.345 34.2338 238.917 33.8203 238.389 33.8203C237.861 33.8203 237.434 34.2338 237.434 34.744C237.434 35.2541 237.861 35.6676 238.389 35.6676Z" fill="#FF3C21"/>
<path d="M255.391 35.3703C255.754 35.3703 256.05 35.0734 256.05 34.7105C256.05 34.3477 255.754 34.0508 255.391 34.0508C255.029 34.0508 254.732 34.3477 254.732 34.7105C254.732 35.0734 255.029 35.3703 255.391 35.3703Z" fill="#FF3C21"/>
<path d="M272.425 35.0406C272.623 35.0406 272.755 34.9087 272.755 34.7107C272.755 34.5128 272.623 34.3809 272.425 34.3809C272.227 34.3809 272.096 34.5128 272.096 34.7107C272.096 34.9087 272.227 35.0406 272.425 35.0406Z" fill="#FF3C21"/>
<path d="M289.429 34.7776C289.429 34.7776 289.462 34.7776 289.462 34.7442C289.462 34.7109 289.462 34.7109 289.429 34.7109C289.395 34.7109 289.396 34.7109 289.396 34.7442C289.396 34.7776 289.395 34.7776 289.429 34.7776Z" fill="#FF3C21"/>
<path d="M34.3331 51.5334C34.3515 51.5334 34.3664 51.5185 34.3664 51.5001C34.3664 51.4817 34.3515 51.4668 34.3331 51.4668C34.3147 51.4668 34.2998 51.4817 34.2998 51.5001C34.2998 51.5185 34.3147 51.5334 34.3331 51.5334Z" fill="#FF3C21"/>
<path d="M51.3341 51.8644C51.5343 51.8644 51.6966 51.7019 51.6966 51.5015C51.6966 51.3011 51.5343 51.1387 51.3341 51.1387C51.134 51.1387 50.9717 51.3011 50.9717 51.5015C50.9717 51.7019 51.134 51.8644 51.3341 51.8644Z" fill="#FF3C21"/>
<path d="M68.336 52.2596C68.7545 52.2596 69.0938 51.9199 69.0938 51.5009C69.0938 51.0819 68.7545 50.7422 68.336 50.7422C67.9174 50.7422 67.5781 51.0819 67.5781 51.5009C67.5781 51.9199 67.9174 52.2596 68.336 52.2596Z" fill="#FF3C21"/>
<path d="M85.3703 52.624C85.989 52.624 86.4906 52.1218 86.4906 51.5024C86.4906 50.883 85.989 50.3809 85.3703 50.3809C84.7516 50.3809 84.25 50.883 84.25 51.5024C84.25 52.1218 84.7516 52.624 85.3703 52.624Z" fill="#FF3C21"/>
<path d="M102.376 52.9537C103.199 52.9537 103.825 52.2939 103.825 51.5022C103.825 50.7105 103.166 50.0508 102.376 50.0508C101.585 50.0508 100.926 50.7105 100.926 51.5022C100.926 52.2939 101.585 52.9537 102.376 52.9537Z" fill="#FF3C21"/>
<path d="M119.375 53.1831C120.322 53.1831 121.089 52.4298 121.089 51.5007C121.089 50.5716 120.322 49.8184 119.375 49.8184C118.429 49.8184 117.662 50.5716 117.662 51.5007C117.662 52.4298 118.429 53.1831 119.375 53.1831Z" fill="#FF3C21"/>
<path d="M136.378 53.3489C137.415 53.3489 138.256 52.5218 138.256 51.5016C138.256 50.4814 137.415 49.6543 136.378 49.6543C135.341 49.6543 134.5 50.4814 134.5 51.5016C134.5 52.5218 135.341 53.3489 136.378 53.3489Z" fill="#FF3C21"/>
<path d="M153.379 53.5147C154.499 53.5147 155.422 52.624 155.422 51.5025C155.422 50.3809 154.499 49.4902 153.379 49.4902C152.259 49.4902 151.336 50.3809 151.336 51.5025C151.336 52.624 152.259 53.5147 153.379 53.5147Z" fill="#FF3C21"/>
<path d="M170.382 53.5435C171.529 53.5435 172.458 52.6279 172.458 51.4983C172.458 50.3688 171.529 49.4531 170.382 49.4531C169.236 49.4531 168.307 50.3688 168.307 51.4983C168.307 52.6279 169.236 53.5435 170.382 53.5435Z" fill="#FF3C21"/>
<path d="M187.383 53.5147C188.511 53.5147 189.426 52.6138 189.426 51.5025C189.426 50.3911 188.511 49.4902 187.383 49.4902C186.254 49.4902 185.34 50.3911 185.34 51.5025C185.34 52.6138 186.254 53.5147 187.383 53.5147Z" fill="#FF3C21"/>
<path d="M204.385 53.3489C205.422 53.3489 206.263 52.5218 206.263 51.5016C206.263 50.4814 205.422 49.6543 204.385 49.6543C203.348 49.6543 202.507 50.4814 202.507 51.5016C202.507 52.5218 203.348 53.3489 204.385 53.3489Z" fill="#FF3C21"/>
<path d="M221.389 53.1831C222.335 53.1831 223.103 52.4298 223.103 51.5007C223.103 50.5716 222.335 49.8184 221.389 49.8184C220.443 49.8184 219.676 50.5716 219.676 51.5007C219.676 52.4298 220.443 53.1831 221.389 53.1831Z" fill="#FF3C21"/>
<path d="M238.389 52.9537C239.19 52.9537 239.839 52.3038 239.839 51.5022C239.839 50.7006 239.19 50.0508 238.389 50.0508C237.589 50.0508 236.939 50.7006 236.939 51.5022C236.939 52.3038 237.589 52.9537 238.389 52.9537Z" fill="#FF3C21"/>
<path d="M255.392 52.624C256.01 52.624 256.512 52.1218 256.512 51.5024C256.512 50.883 256.01 50.3809 255.392 50.3809C254.773 50.3809 254.271 50.883 254.271 51.5024C254.271 52.1218 254.773 52.624 255.392 52.624Z" fill="#FF3C21"/>
<path d="M272.427 52.2943C272.855 52.2943 273.217 51.9315 273.217 51.5026C273.217 51.0738 272.855 50.7109 272.427 50.7109C271.998 50.7109 271.636 51.0738 271.636 51.5026C271.636 51.9315 271.998 52.2943 272.427 52.2943Z" fill="#FF3C21"/>
<path d="M289.427 51.9299C289.664 51.9299 289.856 51.7379 289.856 51.5011C289.856 51.2643 289.664 51.0723 289.427 51.0723C289.191 51.0723 288.999 51.2643 288.999 51.5011C288.999 51.7379 289.191 51.9299 289.427 51.9299Z" fill="#FF3C21"/>
<path d="M306.432 51.5334C306.45 51.5334 306.465 51.5185 306.465 51.5001C306.465 51.4817 306.45 51.4668 306.432 51.4668C306.413 51.4668 306.398 51.4817 306.398 51.5001C306.398 51.5185 306.413 51.5334 306.432 51.5334Z" fill="#FF3C21"/>
<path d="M34.3324 68.6226C34.5301 68.6226 34.6619 68.4907 34.6619 68.2928C34.6619 68.0948 34.5301 67.9629 34.3324 67.9629C34.1347 67.9629 34.0029 68.0948 34.0029 68.2928C34.0029 68.4907 34.1347 68.6226 34.3324 68.6226Z" fill="#FF3C21"/>
<path d="M51.335 69.0487C51.7535 69.0487 52.0928 68.709 52.0928 68.29C52.0928 67.8709 51.7535 67.5312 51.335 67.5312C50.9164 67.5312 50.5771 67.8709 50.5771 68.29C50.5771 68.709 50.9164 69.0487 51.335 69.0487Z" fill="#FF3C21"/>
<path d="M68.3366 69.4771C68.9956 69.4771 69.5228 68.9493 69.5228 68.3225C69.5228 67.6958 68.9956 67.168 68.3366 67.168C67.6776 67.168 67.1504 67.6958 67.1504 68.3225C67.1504 68.9493 67.6776 69.4771 68.3366 69.4771Z" fill="#FF3C21"/>
<path d="M85.3714 69.8738C86.261 69.8738 86.9859 69.1811 86.9859 68.2904C86.9859 67.3998 86.261 66.707 85.3714 66.707C84.4817 66.707 83.7568 67.3998 83.7568 68.2904C83.7568 69.1811 84.4817 69.8738 85.3714 69.8738Z" fill="#FF3C21"/>
<path d="M102.373 70.2054C103.446 70.2054 104.317 69.3488 104.317 68.2922C104.317 67.2355 103.446 66.3789 102.373 66.3789C101.299 66.3789 100.429 67.2355 100.429 68.2922C100.429 69.3488 101.299 70.2054 102.373 70.2054Z" fill="#FF3C21"/>
<path d="M119.376 70.5008C120.595 70.5008 121.583 69.5112 121.583 68.3236C121.583 67.1361 120.595 66.1465 119.376 66.1465C118.156 66.1465 117.168 67.1361 117.168 68.3236C117.168 69.5112 118.156 70.5008 119.376 70.5008Z" fill="#FF3C21"/>
<path d="M136.378 70.699C137.724 70.699 138.816 69.6208 138.816 68.2909C138.816 66.9609 137.724 65.8828 136.378 65.8828C135.031 65.8828 133.939 66.9609 133.939 68.2909C133.939 69.6208 135.031 70.699 136.378 70.699Z" fill="#FF3C21"/>
<path d="M153.381 70.8628C154.798 70.8628 155.984 69.7083 155.984 68.2898C155.984 66.8714 154.831 65.7168 153.381 65.7168C151.932 65.7168 150.778 66.8714 150.778 68.2898C150.778 69.7083 151.932 70.8628 153.381 70.8628Z" fill="#FF3C21"/>
<path d="M170.382 70.8975C171.832 70.8975 173.018 69.743 173.018 68.2915C173.018 66.8401 171.832 65.6855 170.382 65.6855C168.932 65.6855 167.746 66.8401 167.746 68.2915C167.746 69.743 168.932 70.8975 170.382 70.8975Z" fill="#FF3C21"/>
<path d="M187.385 70.8628C188.802 70.8628 189.988 69.7083 189.988 68.2898C189.988 66.8714 188.835 65.7168 187.385 65.7168C185.935 65.7168 184.782 66.8714 184.782 68.2898C184.782 69.7083 185.935 70.8628 187.385 70.8628Z" fill="#FF3C21"/>
<path d="M204.384 70.699C205.73 70.699 206.822 69.6208 206.822 68.2909C206.822 66.9609 205.73 65.8828 204.384 65.8828C203.037 65.8828 201.945 66.9609 201.945 68.2909C201.945 69.6208 203.037 70.699 204.384 70.699Z" fill="#FF3C21"/>
<path d="M221.386 70.5008C222.605 70.5008 223.594 69.5112 223.594 68.3236C223.594 67.1361 222.605 66.1465 221.386 66.1465C220.167 66.1465 219.179 67.1361 219.179 68.3236C219.179 69.5112 220.167 70.5008 221.386 70.5008Z" fill="#FF3C21"/>
<path d="M238.39 70.2054C239.464 70.2054 240.334 69.3488 240.334 68.2922C240.334 67.2355 239.464 66.3789 238.39 66.3789C237.317 66.3789 236.446 67.2355 236.446 68.2922C236.446 69.3488 237.317 70.2054 238.39 70.2054Z" fill="#FF3C21"/>
<path d="M255.393 69.8738C256.282 69.8738 257.007 69.1811 257.007 68.2904C257.007 67.3998 256.282 66.707 255.393 66.707C254.503 66.707 253.778 67.3998 253.778 68.2904C253.778 69.1811 254.503 69.8738 255.393 69.8738Z" fill="#FF3C21"/>
<path d="M272.427 69.5133C273.119 69.5133 273.646 68.9855 273.646 68.2928C273.646 67.6001 273.086 67.0723 272.427 67.0723C271.768 67.0723 271.208 67.6001 271.208 68.2928C271.208 68.9855 271.768 69.5133 272.427 69.5133Z" fill="#FF3C21"/>
<path d="M289.428 69.0834C289.857 69.0834 290.219 68.7205 290.219 68.2917C290.219 67.8629 289.857 67.5 289.428 67.5C289 67.5 288.638 67.8629 288.638 68.2917C288.638 68.7205 289 69.0834 289.428 69.0834Z" fill="#FF3C21"/>
<path d="M306.428 68.6226C306.626 68.6226 306.758 68.4907 306.758 68.2928C306.758 68.0948 306.626 67.9629 306.428 67.9629C306.23 67.9629 306.099 68.0948 306.099 68.2928C306.099 68.4907 306.23 68.6226 306.428 68.6226Z" fill="#FF3C21"/>
<path d="M323.433 68.3576C323.433 68.3576 323.466 68.3576 323.466 68.3243C323.466 68.291 323.466 68.291 323.433 68.291C323.399 68.291 323.399 68.291 323.399 68.3243C323.399 68.3576 323.399 68.3576 323.433 68.3576Z" fill="#FF3C21"/>
<path d="M17.3325 85.2787C17.4416 85.2787 17.5302 85.1901 17.5302 85.0807C17.5302 84.9714 17.4416 84.8828 17.3325 84.8828C17.2233 84.8828 17.1348 84.9714 17.1348 85.0807C17.1348 85.1901 17.2233 85.2787 17.3325 85.2787Z" fill="#FF3C21"/>
<path d="M34.3328 85.7394C34.6953 85.7394 34.9918 85.4425 34.9918 85.0797C34.9918 84.7168 34.6953 84.4199 34.3328 84.4199C33.9704 84.4199 33.6738 84.7168 33.6738 85.0797C33.6738 85.4425 33.9704 85.7394 34.3328 85.7394Z" fill="#FF3C21"/>
<path d="M51.3371 86.2041C51.9558 86.2041 52.4574 85.7019 52.4574 85.0825C52.4574 84.4631 51.9558 83.9609 51.3371 83.9609C50.7184 83.9609 50.2168 84.4631 50.2168 85.0825C50.2168 85.7019 50.7184 86.2041 51.3371 86.2041Z" fill="#FF3C21"/>
<path d="M68.3362 86.6648C69.2258 86.6648 69.9507 85.9721 69.9507 85.0814C69.9507 84.1908 69.2258 83.498 68.3362 83.498C67.4466 83.498 66.7217 84.1908 66.7217 85.0814C66.7217 85.9721 67.4466 86.6648 68.3362 86.6648Z" fill="#FF3C21"/>
<path d="M85.372 87.0928C86.4922 87.0928 87.4148 86.2021 87.4148 85.0806C87.4148 83.959 86.4922 83.0684 85.372 83.0684C84.2517 83.0684 83.3291 83.959 83.3291 85.0806C83.3291 86.2021 84.2517 87.0928 85.372 87.0928Z" fill="#FF3C21"/>
<path d="M102.375 87.4552C103.693 87.4552 104.78 86.3997 104.78 85.0802C104.78 83.7607 103.693 82.7051 102.375 82.7051C101.057 82.7051 99.9697 83.7607 99.9697 85.0802C99.9697 86.3997 101.057 87.4552 102.375 87.4552Z" fill="#FF3C21"/>
<path d="M119.376 87.7888C120.892 87.7888 122.111 86.5683 122.111 85.0839C122.111 83.5994 120.892 82.3789 119.376 82.3789C117.861 82.3789 116.642 83.5994 116.642 85.0839C116.642 86.5683 117.861 87.7888 119.376 87.7888Z" fill="#FF3C21"/>
<path d="M136.379 88.0163C138.026 88.0163 139.344 86.6968 139.344 85.0804C139.344 83.464 138.026 82.1445 136.379 82.1445C134.731 82.1445 133.413 83.464 133.413 85.0804C133.413 86.6968 134.731 88.0163 136.379 88.0163Z" fill="#FF3C21"/>
<path d="M153.38 88.2148C155.126 88.2148 156.543 86.8294 156.543 85.0811C156.543 83.3327 155.126 81.9473 153.38 81.9473C151.634 81.9473 150.217 83.3327 150.217 85.0811C150.217 86.8294 151.634 88.2148 153.38 88.2148Z" fill="#FF3C21"/>
<path d="M170.38 88.2496C172.159 88.2496 173.576 86.8311 173.576 85.0828C173.576 83.3345 172.126 81.916 170.38 81.916C168.633 81.916 167.184 83.3345 167.184 85.0828C167.184 86.8311 168.633 88.2496 170.38 88.2496Z" fill="#FF3C21"/>
<path d="M187.384 88.2148C189.13 88.2148 190.547 86.8294 190.547 85.0811C190.547 83.3327 189.13 81.9473 187.384 81.9473C185.638 81.9473 184.221 83.3327 184.221 85.0811C184.221 86.8294 185.638 88.2148 187.384 88.2148Z" fill="#FF3C21"/>
<path d="M204.386 88.051C206.066 88.051 207.417 86.7315 207.417 85.0821C207.417 83.4328 206.066 82.1133 204.386 82.1133C202.705 82.1133 201.354 83.4328 201.354 85.0821C201.354 86.7315 202.705 88.051 204.386 88.051Z" fill="#FF3C21"/>
<path d="M221.386 87.7888C222.902 87.7888 224.121 86.5683 224.121 85.0839C224.121 83.5994 222.902 82.3789 221.386 82.3789C219.871 82.3789 218.651 83.5994 218.651 85.0839C218.651 86.5683 219.871 87.7888 221.386 87.7888Z" fill="#FF3C21"/>
<path d="M238.389 87.4552C239.707 87.4552 240.794 86.3997 240.794 85.0802C240.794 83.7607 239.707 82.7051 238.389 82.7051C237.071 82.7051 235.983 83.7607 235.983 85.0802C235.983 86.3997 237.071 87.4552 238.389 87.4552Z" fill="#FF3C21"/>
<path d="M255.392 87.0928C256.513 87.0928 257.435 86.2021 257.435 85.0806C257.435 83.959 256.513 83.0684 255.392 83.0684C254.272 83.0684 253.35 83.959 253.35 85.0806C253.35 86.2021 254.272 87.0928 255.392 87.0928Z" fill="#FF3C21"/>
<path d="M272.425 86.6648C273.315 86.6648 274.04 85.9721 274.04 85.0814C274.04 84.1908 273.315 83.498 272.425 83.498C271.535 83.498 270.811 84.1908 270.811 85.0814C270.811 85.9721 271.535 86.6648 272.425 86.6648Z" fill="#FF3C21"/>
<path d="M289.429 86.2041C290.048 86.2041 290.549 85.7019 290.549 85.0825C290.549 84.4631 290.048 83.9609 289.429 83.9609C288.81 83.9609 288.309 84.4631 288.309 85.0825C288.309 85.7019 288.81 86.2041 289.429 86.2041Z" fill="#FF3C21"/>
<path d="M306.431 85.7394C306.794 85.7394 307.09 85.4425 307.09 85.0797C307.09 84.7168 306.794 84.4199 306.431 84.4199C306.069 84.4199 305.772 84.7168 305.772 85.0797C305.772 85.4425 306.069 85.7394 306.431 85.7394Z" fill="#FF3C21"/>
<path d="M323.431 85.2787C323.54 85.2787 323.629 85.1901 323.629 85.0807C323.629 84.9714 323.54 84.8828 323.431 84.8828C323.322 84.8828 323.233 84.9714 323.233 85.0807C323.233 85.1901 323.322 85.2787 323.431 85.2787Z" fill="#FF3C21"/>
<path d="M0.329173 101.905C0.329173 101.905 0.362448 101.905 0.362448 101.871C0.362448 101.838 0.362449 101.838 0.329173 101.838C0.295898 101.838 0.295898 101.838 0.295898 101.871C0.295898 101.905 0.295898 101.905 0.329173 101.905Z" fill="#FF3C21"/>
<path d="M17.3307 102.301C17.5673 102.301 17.759 102.109 17.759 101.872C17.759 101.635 17.5673 101.443 17.3307 101.443C17.0941 101.443 16.9023 101.635 16.9023 101.872C16.9023 102.109 17.0941 102.301 17.3307 102.301Z" fill="#FF3C21"/>
<path d="M34.3335 102.797C34.8612 102.797 35.289 102.383 35.289 101.873C35.289 101.363 34.8612 100.949 34.3335 100.949C33.8057 100.949 33.3779 101.363 33.3779 101.873C33.3779 102.383 33.8057 102.797 34.3335 102.797Z" fill="#FF3C21"/>
<path d="M51.3365 103.321C52.1602 103.321 52.7863 102.661 52.7863 101.869C52.7863 101.078 52.1273 100.418 51.3365 100.418C50.5457 100.418 49.8867 101.078 49.8867 101.869C49.8867 102.661 50.5457 103.321 51.3365 103.321Z" fill="#FF3C21"/>
<path d="M68.3366 103.787C69.4102 103.787 70.2806 102.931 70.2806 101.874C70.2806 100.818 69.4102 99.9609 68.3366 99.9609C67.2629 99.9609 66.3926 100.818 66.3926 101.874C66.3926 102.931 67.2629 103.787 68.3366 103.787Z" fill="#FF3C21"/>
<path d="M85.3731 104.248C86.7015 104.248 87.7784 103.185 87.7784 101.873C87.7784 100.561 86.7015 99.498 85.3731 99.498C84.0447 99.498 82.9678 100.561 82.9678 101.873C82.9678 103.185 84.0447 104.248 85.3731 104.248Z" fill="#FF3C21"/>
<path d="M102.375 104.676C103.923 104.676 105.208 103.423 105.208 101.872C105.208 100.322 103.956 99.0684 102.375 99.0684C100.793 99.0684 99.541 100.322 99.541 101.872C99.541 103.423 100.793 104.676 102.375 104.676Z" fill="#FF3C21"/>
<path d="M119.376 105.037C121.155 105.037 122.572 103.618 122.572 101.87C122.572 100.122 121.122 98.7031 119.376 98.7031C117.629 98.7031 116.18 100.122 116.18 101.87C116.18 103.618 117.629 105.037 119.376 105.037Z" fill="#FF3C21"/>
<path d="M136.378 105.303C138.307 105.303 139.871 103.767 139.871 101.872C139.871 99.9774 138.307 98.4414 136.378 98.4414C134.449 98.4414 132.886 99.9774 132.886 101.872C132.886 103.767 134.449 105.303 136.378 105.303Z" fill="#FF3C21"/>
<path d="M153.379 105.532C155.421 105.532 157.102 103.883 157.102 101.871C157.102 99.8583 155.421 98.209 153.379 98.209C151.336 98.209 149.655 99.8583 149.655 101.871C149.655 103.883 151.336 105.532 153.379 105.532Z" fill="#FF3C21"/>
<path d="M170.382 105.598C172.458 105.598 174.138 103.915 174.138 101.87C174.138 99.8249 172.458 98.1426 170.382 98.1426C168.306 98.1426 166.626 99.8249 166.626 101.87C166.626 103.915 168.306 105.598 170.382 105.598Z" fill="#FF3C21"/>
<path d="M187.383 105.532C189.426 105.532 191.107 103.883 191.107 101.871C191.107 99.8583 189.426 98.209 187.383 98.209C185.341 98.209 183.66 99.8583 183.66 101.871C183.66 103.883 185.341 105.532 187.383 105.532Z" fill="#FF3C21"/>
<path d="M204.384 105.368C206.328 105.368 207.91 103.818 207.91 101.872C207.91 99.9254 206.328 98.375 204.384 98.375C202.44 98.375 200.858 99.9254 200.858 101.872C200.858 103.818 202.44 105.368 204.384 105.368Z" fill="#FF3C21"/>
<path d="M221.387 105.037C223.166 105.037 224.583 103.618 224.583 101.87C224.583 100.122 223.133 98.7031 221.387 98.7031C219.64 98.7031 218.19 100.122 218.19 101.87C218.19 103.618 219.64 105.037 221.387 105.037Z" fill="#FF3C21"/>
<path d="M238.388 104.709C239.971 104.709 241.255 103.439 241.255 101.872C241.255 100.305 239.971 99.0352 238.388 99.0352C236.805 99.0352 235.521 100.305 235.521 101.872C235.521 103.439 236.805 104.709 238.388 104.709Z" fill="#FF3C21"/>
<path d="M255.391 104.248C256.709 104.248 257.796 103.193 257.796 101.873C257.796 100.554 256.709 99.498 255.391 99.498C254.073 99.498 252.985 100.554 252.985 101.873C252.985 103.193 254.073 104.248 255.391 104.248Z" fill="#FF3C21"/>
<path d="M272.427 103.787C273.482 103.787 274.371 102.93 274.371 101.874C274.371 100.819 273.515 99.9609 272.427 99.9609C271.34 99.9609 270.483 100.819 270.483 101.874C270.483 102.93 271.34 103.787 272.427 103.787Z" fill="#FF3C21"/>
<path d="M289.428 103.321C290.229 103.321 290.878 102.671 290.878 101.869C290.878 101.068 290.229 100.418 289.428 100.418C288.628 100.418 287.979 101.068 287.979 101.869C287.979 102.671 288.628 103.321 289.428 103.321Z" fill="#FF3C21"/>
<path d="M306.429 102.797C306.957 102.797 307.385 102.383 307.385 101.873C307.385 101.363 306.957 100.949 306.429 100.949C305.901 100.949 305.474 101.363 305.474 101.873C305.474 102.383 305.901 102.797 306.429 102.797Z" fill="#FF3C21"/>
<path d="M323.431 102.301C323.662 102.301 323.86 102.103 323.86 101.872C323.86 101.641 323.662 101.443 323.431 101.443C323.201 101.443 323.003 101.641 323.003 101.872C323.003 102.103 323.201 102.301 323.431 102.301Z" fill="#FF3C21"/>
<path d="M340.435 101.905C340.453 101.905 340.468 101.89 340.468 101.871C340.468 101.853 340.453 101.838 340.435 101.838C340.416 101.838 340.401 101.853 340.401 101.871C340.401 101.89 340.416 101.905 340.435 101.905Z" fill="#FF3C21"/>
<path d="M0.330294 118.758C0.330294 118.758 0.429142 118.725 0.429142 118.66C0.429142 118.594 0.396193 118.561 0.330294 118.561C0.264395 118.561 0.231445 118.594 0.231445 118.66C0.231445 118.725 0.264395 118.758 0.330294 118.758Z" fill="#FF3C21"/>
<path d="M17.3321 119.258C17.6616 119.258 17.9581 118.994 17.9581 118.664C17.9581 118.334 17.6945 118.07 17.3321 118.07C16.9697 118.07 16.7061 118.334 16.7061 118.664C16.7061 118.994 16.9697 119.258 17.3321 119.258Z" fill="#FF3C21"/>
<path d="M34.3336 119.817C34.9887 119.817 35.5198 119.3 35.5198 118.662C35.5198 118.025 34.9887 117.508 34.3336 117.508C33.6785 117.508 33.1475 118.025 33.1475 118.662C33.1475 119.3 33.6785 119.817 34.3336 119.817Z" fill="#FF3C21"/>
<path d="M51.3345 120.343C52.2807 120.343 53.0478 119.59 53.0478 118.661C53.0478 117.732 52.2807 116.979 51.3345 116.979C50.3882 116.979 49.6211 117.732 49.6211 118.661C49.6211 119.59 50.3882 120.343 51.3345 120.343Z" fill="#FF3C21"/>
<path d="M68.3375 120.839C69.5566 120.839 70.5451 119.849 70.5451 118.662C70.5451 117.474 69.5566 116.484 68.3375 116.484C67.1184 116.484 66.1299 117.474 66.1299 118.662C66.1299 119.849 67.1184 120.839 68.3375 120.839Z" fill="#FF3C21"/>
<path d="M85.3735 121.367C86.8892 121.367 88.1083 120.146 88.1083 118.662C88.1083 117.178 86.8892 115.957 85.3735 115.957C83.8578 115.957 82.6387 117.178 82.6387 118.662C82.6387 120.146 83.8578 121.367 85.3735 121.367Z" fill="#FF3C21"/>
<path d="M102.374 121.83C104.153 121.83 105.57 120.411 105.57 118.663C105.57 116.915 104.12 115.496 102.374 115.496C100.628 115.496 99.1777 116.915 99.1777 118.663C99.1777 120.411 100.628 121.83 102.374 121.83Z" fill="#FF3C21"/>
<path d="M119.375 122.258C121.377 122.258 123 120.648 123 118.662C123 116.676 121.377 115.066 119.375 115.066C117.374 115.066 115.751 116.676 115.751 118.662C115.751 120.648 117.374 122.258 119.375 122.258Z" fill="#FF3C21"/>
<path d="M136.378 122.618C138.598 122.618 140.398 120.846 140.398 118.66C140.398 116.473 138.598 114.701 136.378 114.701C134.158 114.701 132.358 116.473 132.358 118.66C132.358 120.846 134.158 122.618 136.378 122.618Z" fill="#FF3C21"/>
<path d="M153.378 122.853C155.718 122.853 157.629 120.973 157.629 118.664C157.629 116.355 155.718 114.475 153.378 114.475C151.039 114.475 149.128 116.355 149.128 118.664C149.128 120.973 151.039 122.853 153.378 122.853Z" fill="#FF3C21"/>
<path d="M170.381 122.984C172.802 122.984 174.764 121.05 174.764 118.663C174.764 116.277 172.802 114.342 170.381 114.342C167.961 114.342 165.999 116.277 165.999 118.663C165.999 121.05 167.961 122.984 170.381 122.984Z" fill="#FF3C21"/>
<path d="M187.384 122.884C189.756 122.884 191.667 121.004 191.667 118.662C191.667 116.32 189.756 114.439 187.384 114.439C185.012 114.439 183.101 116.32 183.101 118.662C183.101 121.004 185.012 122.884 187.384 122.884Z" fill="#FF3C21"/>
<path d="M204.384 122.655C206.624 122.655 208.437 120.873 208.437 118.663C208.437 116.453 206.624 114.672 204.384 114.672C202.143 114.672 200.331 116.453 200.331 118.663C200.331 120.873 202.143 122.655 204.384 122.655Z" fill="#FF3C21"/>
<path d="M221.387 122.292C223.43 122.292 225.077 120.676 225.077 118.664C225.077 116.652 223.43 115.035 221.387 115.035C219.344 115.035 217.696 116.652 217.696 118.664C217.696 120.676 219.344 122.292 221.387 122.292Z" fill="#FF3C21"/>
<path d="M238.388 121.862C240.19 121.862 241.65 120.43 241.65 118.663C241.65 116.895 240.19 115.463 238.388 115.463C236.586 115.463 235.126 116.895 235.126 118.663C235.126 120.43 236.586 121.862 238.388 121.862Z" fill="#FF3C21"/>
<path d="M255.392 121.402C256.94 121.402 258.16 120.181 258.16 118.664C258.16 117.146 256.907 115.926 255.392 115.926C253.876 115.926 252.624 117.146 252.624 118.664C252.624 120.181 253.876 121.402 255.392 121.402Z" fill="#FF3C21"/>
<path d="M272.426 120.873C273.678 120.873 274.699 119.883 274.699 118.63C274.699 117.376 273.678 116.387 272.426 116.387C271.174 116.387 270.152 117.376 270.152 118.63C270.152 119.883 271.174 120.873 272.426 120.873Z" fill="#FF3C21"/>
<path d="M289.429 120.378C290.393 120.378 291.175 119.61 291.175 118.663C291.175 117.715 290.393 116.947 289.429 116.947C288.464 116.947 287.683 117.715 287.683 118.663C287.683 119.61 288.464 120.378 289.429 120.378Z" fill="#FF3C21"/>
<path d="M306.431 119.817C307.086 119.817 307.617 119.3 307.617 118.662C307.617 118.025 307.086 117.508 306.431 117.508C305.776 117.508 305.245 118.025 305.245 118.662C305.245 119.3 305.776 119.817 306.431 119.817Z" fill="#FF3C21"/>
<path d="M323.433 119.288C323.796 119.288 324.092 118.991 324.092 118.628C324.092 118.266 323.796 117.969 323.433 117.969C323.071 117.969 322.774 118.266 322.774 118.628C322.774 118.991 323.071 119.288 323.433 119.288Z" fill="#FF3C21"/>
<path d="M340.435 118.795C340.435 118.795 340.566 118.729 340.566 118.663C340.566 118.597 340.5 118.531 340.435 118.531C340.369 118.531 340.303 118.597 340.303 118.663C340.303 118.729 340.369 118.795 340.435 118.795Z" fill="#FF3C21"/>
<path d="M0.329279 135.684C0.329279 135.684 0.559925 135.586 0.559925 135.454C0.559925 135.322 0.461077 135.223 0.329279 135.223C0.197481 135.223 0.0986328 135.322 0.0986328 135.454C0.0986328 135.586 0.197481 135.684 0.329279 135.684Z" fill="#FF3C21"/>
<path d="M17.3311 136.211C17.7496 136.211 18.0889 135.871 18.0889 135.452C18.0889 135.033 17.7496 134.693 17.3311 134.693C16.9125 134.693 16.5732 135.033 16.5732 135.452C16.5732 135.871 16.9125 136.211 17.3311 136.211Z" fill="#FF3C21"/>
<path d="M34.3326 136.772C35.0605 136.772 35.6506 136.181 35.6506 135.452C35.6506 134.724 35.0605 134.133 34.3326 134.133C33.6047 134.133 33.0146 134.724 33.0146 135.452C33.0146 136.181 33.6047 136.772 34.3326 136.772Z" fill="#FF3C21"/>
<path d="M51.3361 137.3C52.3734 137.3 53.2142 136.473 53.2142 135.453C53.2142 134.433 52.3734 133.605 51.3361 133.605C50.2989 133.605 49.458 134.433 49.458 135.453C49.458 136.473 50.2989 137.3 51.3361 137.3Z" fill="#FF3C21"/>
<path d="M68.3377 137.861C69.6886 137.861 70.7759 136.772 70.7759 135.453C70.7759 134.133 69.6886 133.045 68.3377 133.045C66.9867 133.045 65.8994 134.133 65.8994 135.453C65.8994 136.772 66.9867 137.861 68.3377 137.861Z" fill="#FF3C21"/>
<path d="M85.3717 138.356C87.0192 138.356 88.3371 137.037 88.3371 135.42C88.3371 133.804 87.0192 132.484 85.3717 132.484C83.7242 132.484 82.4062 133.804 82.4062 135.42C82.4062 137.037 83.7242 138.356 85.3717 138.356Z" fill="#FF3C21"/>
<path d="M102.374 138.883C104.286 138.883 105.867 137.332 105.867 135.452C105.867 133.572 104.318 132.021 102.374 132.021C100.43 132.021 98.8818 133.572 98.8818 135.452C98.8818 137.332 100.43 138.883 102.374 138.883Z" fill="#FF3C21"/>
<path d="M119.377 139.413C121.597 139.413 123.397 137.641 123.397 135.455C123.397 133.268 121.597 131.496 119.377 131.496C117.157 131.496 115.357 133.268 115.357 135.455C115.357 137.641 117.157 139.413 119.377 139.413Z" fill="#FF3C21"/>
<path d="M136.378 139.874C138.849 139.874 140.859 137.895 140.859 135.453C140.859 133.012 138.849 131.033 136.378 131.033C133.906 131.033 131.896 133.012 131.896 135.453C131.896 137.895 133.906 139.874 136.378 139.874Z" fill="#FF3C21"/>
<path d="M153.379 140.17C156.048 140.17 158.19 138.059 158.19 135.42C158.19 132.781 156.048 130.67 153.379 130.67C150.71 130.67 148.568 132.781 148.568 135.42C148.568 138.059 150.71 140.17 153.379 140.17Z" fill="#FF3C21"/>
<path d="M170.383 140.333C173.112 140.333 175.325 138.147 175.325 135.45C175.325 132.754 173.112 130.568 170.383 130.568C167.653 130.568 165.44 132.754 165.44 135.45C165.44 138.147 167.653 140.333 170.383 140.333Z" fill="#FF3C21"/>
<path d="M187.384 140.17C190.053 140.17 192.194 138.059 192.194 135.42C192.194 132.781 190.053 130.67 187.384 130.67C184.715 130.67 182.573 132.781 182.573 135.42C182.573 138.059 184.715 140.17 187.384 140.17Z" fill="#FF3C21"/>
<path d="M204.383 139.874C206.855 139.874 208.865 137.895 208.865 135.453C208.865 133.012 206.855 131.033 204.383 131.033C201.912 131.033 199.902 133.012 199.902 135.453C199.902 137.895 201.912 139.874 204.383 139.874Z" fill="#FF3C21"/>
<path d="M221.388 139.442C223.628 139.442 225.441 137.661 225.441 135.45C225.441 133.24 223.628 131.459 221.388 131.459C219.147 131.459 217.335 133.24 217.335 135.45C217.335 137.661 219.147 139.442 221.388 139.442Z" fill="#FF3C21"/>
<path d="M238.391 138.917C240.335 138.917 241.916 137.367 241.916 135.42C241.916 133.474 240.335 131.924 238.391 131.924C236.447 131.924 234.865 133.474 234.865 135.42C234.865 137.367 236.447 138.917 238.391 138.917Z" fill="#FF3C21"/>
<path d="M255.391 138.422C257.071 138.422 258.422 137.103 258.422 135.453C258.422 133.804 257.071 132.484 255.391 132.484C253.71 132.484 252.359 133.804 252.359 135.453C252.359 137.103 253.71 138.422 255.391 138.422Z" fill="#FF3C21"/>
<path d="M272.426 137.861C273.776 137.861 274.864 136.772 274.864 135.453C274.864 134.133 273.776 133.045 272.426 133.045C271.075 133.045 269.987 134.133 269.987 135.453C269.987 136.772 271.075 137.861 272.426 137.861Z" fill="#FF3C21"/>
<path d="M289.428 137.334C290.483 137.334 291.372 136.477 291.372 135.421C291.372 134.365 290.516 133.508 289.428 133.508C288.341 133.508 287.484 134.365 287.484 135.421C287.484 136.477 288.341 137.334 289.428 137.334Z" fill="#FF3C21"/>
<path d="M306.429 136.775C307.187 136.775 307.813 136.181 307.813 135.423C307.813 134.664 307.187 134.07 306.429 134.07C305.671 134.07 305.045 134.664 305.045 135.423C305.045 136.181 305.671 136.775 306.429 136.775Z" fill="#FF3C21"/>
<path d="M323.432 136.245C323.861 136.245 324.223 135.883 324.223 135.454C324.223 135.025 323.861 134.662 323.432 134.662C323.004 134.662 322.642 135.025 322.642 135.454C322.642 135.883 323.004 136.245 323.432 136.245Z" fill="#FF3C21"/>
<path d="M340.435 135.684C340.435 135.684 340.665 135.586 340.665 135.454C340.665 135.322 340.567 135.223 340.435 135.223C340.303 135.223 340.204 135.322 340.204 135.454C340.204 135.586 340.303 135.684 340.435 135.684Z" fill="#FF3C21"/>
<path d="M0.329748 152.506C0.329748 152.506 0.626293 152.374 0.626293 152.242C0.626293 152.11 0.494495 151.979 0.329748 151.979C0.165001 151.979 0.0332031 152.11 0.0332031 152.242C0.0332031 152.374 0.165001 152.506 0.329748 152.506Z" fill="#FF3C21"/>
<path d="M17.3313 153.067C17.7926 153.067 18.188 152.704 18.188 152.243C18.188 151.781 17.7926 151.418 17.3313 151.418C16.87 151.418 16.4746 151.781 16.4746 152.243C16.4746 152.704 16.87 153.067 17.3313 153.067Z" fill="#FF3C21"/>
<path d="M34.3345 153.663C35.1352 153.663 35.7843 153.013 35.7843 152.211C35.7843 151.41 35.1352 150.76 34.3345 150.76C33.5339 150.76 32.8848 151.41 32.8848 152.211C32.8848 153.013 33.5339 153.663 34.3345 153.663Z" fill="#FF3C21"/>
<path d="M51.3349 154.224C52.4551 154.224 53.3777 153.333 53.3777 152.211C53.3777 151.09 52.4551 150.199 51.3349 150.199C50.2146 150.199 49.292 151.09 49.292 152.211C49.292 153.333 50.2146 154.224 51.3349 154.224Z" fill="#FF3C21"/>
<path d="M68.3384 154.785C69.7552 154.785 70.9414 153.63 70.9414 152.212C70.9414 150.793 69.7881 149.639 68.3384 149.639C66.8886 149.639 65.7354 150.793 65.7354 152.212C65.7354 153.63 66.8886 154.785 68.3384 154.785Z" fill="#FF3C21"/>
<path d="M85.3731 155.346C87.1201 155.346 88.5363 153.943 88.5363 152.212C88.5363 150.481 87.1201 149.078 85.3731 149.078C83.6261 149.078 82.21 150.481 82.21 152.212C82.21 153.943 83.6261 155.346 85.3731 155.346Z" fill="#FF3C21"/>
<path d="M102.375 155.905C104.418 155.905 106.098 154.256 106.098 152.244C106.098 150.231 104.418 148.582 102.375 148.582C100.332 148.582 98.6514 150.231 98.6514 152.244C98.6514 154.256 100.332 155.905 102.375 155.905Z" fill="#FF3C21"/>
<path d="M119.375 156.4C121.715 156.4 123.626 154.52 123.626 152.211C123.626 149.902 121.715 148.021 119.375 148.021C117.036 148.021 115.125 149.902 115.125 152.211C115.125 154.52 117.036 156.4 119.375 156.4Z" fill="#FF3C21"/>
<path d="M136.377 156.959C139.034 156.959 141.188 154.833 141.188 152.209C141.188 149.586 139.034 147.459 136.377 147.459C133.72 147.459 131.566 149.586 131.566 152.209C131.566 154.833 133.72 156.959 136.377 156.959Z" fill="#FF3C21"/>
<path d="M153.381 157.422C156.314 157.422 158.653 155.08 158.653 152.21C158.653 149.34 156.281 146.998 153.381 146.998C150.482 146.998 148.109 149.34 148.109 152.21C148.109 155.08 150.482 157.422 153.381 157.422Z" fill="#FF3C21"/>
<path d="M170.381 157.653C173.42 157.653 175.884 155.216 175.884 152.21C175.884 149.204 173.42 146.768 170.381 146.768C167.342 146.768 164.879 149.204 164.879 152.21C164.879 155.216 167.342 157.653 170.381 157.653Z" fill="#FF3C21"/>
<path d="M187.384 157.422C190.296 157.422 192.656 155.089 192.656 152.21C192.656 149.332 190.296 146.998 187.384 146.998C184.473 146.998 182.112 149.332 182.112 152.21C182.112 155.089 184.473 157.422 187.384 157.422Z" fill="#FF3C21"/>
<path d="M204.386 157.025C207.054 157.025 209.229 154.881 209.229 152.242C209.229 149.603 207.054 147.459 204.386 147.459C201.717 147.459 199.542 149.603 199.542 152.242C199.542 154.881 201.717 157.025 204.386 157.025Z" fill="#FF3C21"/>
<path d="M221.389 156.466C223.761 156.466 225.672 154.586 225.672 152.244C225.672 149.902 223.761 148.021 221.389 148.021C219.017 148.021 217.105 149.902 217.105 152.244C217.105 154.586 219.017 156.466 221.389 156.466Z" fill="#FF3C21"/>
<path d="M238.39 155.939C240.465 155.939 242.146 154.271 242.146 152.212C242.146 150.153 240.465 148.484 238.39 148.484C236.316 148.484 234.634 150.153 234.634 152.212C234.634 154.271 236.316 155.939 238.39 155.939Z" fill="#FF3C21"/>
<path d="M255.391 155.378C257.157 155.378 258.588 153.961 258.588 152.212C258.588 150.463 257.157 149.045 255.391 149.045C253.626 149.045 252.195 150.463 252.195 152.212C252.195 153.961 253.626 155.378 255.391 155.378Z" fill="#FF3C21"/>
<path d="M272.426 154.816C273.876 154.816 275.062 153.661 275.062 152.21C275.062 150.758 273.876 149.604 272.426 149.604C270.976 149.604 269.79 150.758 269.79 152.21C269.79 153.661 270.976 154.816 272.426 154.816Z" fill="#FF3C21"/>
<path d="M289.428 154.254C290.575 154.254 291.504 153.339 291.504 152.209C291.504 151.08 290.575 150.164 289.428 150.164C288.282 150.164 287.353 151.08 287.353 152.209C287.353 153.339 288.282 154.254 289.428 154.254Z" fill="#FF3C21"/>
<path d="M306.43 153.663C307.254 153.663 307.88 153.003 307.88 152.211C307.88 151.42 307.221 150.76 306.43 150.76C305.639 150.76 304.98 151.42 304.98 152.211C304.98 153.003 305.639 153.663 306.43 153.663Z" fill="#FF3C21"/>
<path d="M323.433 153.104C323.927 153.104 324.322 152.708 324.322 152.213C324.322 151.718 323.927 151.322 323.433 151.322C322.938 151.322 322.543 151.718 322.543 152.213C322.543 152.708 322.938 153.104 323.433 153.104Z" fill="#FF3C21"/>
<path d="M340.434 152.541C340.616 152.541 340.763 152.393 340.763 152.211C340.763 152.029 340.616 151.881 340.434 151.881C340.252 151.881 340.104 152.029 340.104 152.211C340.104 152.393 340.252 152.541 340.434 152.541Z" fill="#FF3C21"/>
<path d="M0.329495 169.33C0.527191 169.33 0.658989 169.198 0.658989 169C0.658989 168.802 0.527191 168.67 0.329495 168.67C0.131798 168.67 0 168.802 0 169C0 169.198 0.131798 169.33 0.329495 169.33Z" fill="#FF3C21"/>
<path d="M17.331 169.891C17.8253 169.891 18.2207 169.495 18.2207 169C18.2207 168.505 17.8253 168.109 17.331 168.109C16.8368 168.109 16.4414 168.505 16.4414 169C16.4414 169.495 16.8368 169.891 17.331 169.891Z" fill="#FF3C21"/>
<path d="M34.3331 170.486C35.1701 170.486 35.8487 169.822 35.8487 169.002C35.8487 168.182 35.1701 167.518 34.3331 167.518C33.496 167.518 32.8174 168.182 32.8174 169.002C32.8174 169.822 33.496 170.486 34.3331 170.486Z" fill="#FF3C21"/>
<path d="M51.3366 171.045C52.4898 171.045 53.4124 170.122 53.4124 169C53.4124 167.879 52.4898 166.955 51.3366 166.955C50.1833 166.955 49.2607 167.879 49.2607 169C49.2607 170.122 50.1833 171.045 51.3366 171.045Z" fill="#FF3C21"/>
<path d="M68.3361 171.607C69.7919 171.607 70.9721 170.44 70.9721 169.001C70.9721 167.561 69.7919 166.395 68.3361 166.395C66.8804 166.395 65.7002 167.561 65.7002 169.001C65.7002 170.44 66.8804 171.607 68.3361 171.607Z" fill="#FF3C21"/>
<path d="M85.3729 172.168C87.138 172.168 88.5689 170.75 88.5689 169.001C88.5689 167.252 87.138 165.834 85.3729 165.834C83.6077 165.834 82.1768 167.252 82.1768 169.001C82.1768 170.75 83.6077 172.168 85.3729 172.168Z" fill="#FF3C21"/>
<path d="M102.373 172.729C104.449 172.729 106.13 171.046 106.13 169.001C106.13 166.956 104.449 165.273 102.373 165.273C100.298 165.273 98.6172 166.956 98.6172 169.001C98.6172 171.046 100.298 172.729 102.373 172.729Z" fill="#FF3C21"/>
<path d="M119.374 173.32C121.795 173.32 123.757 171.386 123.757 168.999C123.757 166.612 121.795 164.678 119.374 164.678C116.954 164.678 114.992 166.612 114.992 168.999C114.992 171.386 116.954 173.32 119.374 173.32Z" fill="#FF3C21"/>
<path d="M136.379 173.881C139.109 173.881 141.321 171.696 141.321 168.999C141.321 166.303 139.109 164.117 136.379 164.117C133.649 164.117 131.437 166.303 131.437 168.999C131.437 171.696 133.649 173.881 136.379 173.881Z" fill="#FF3C21"/>
<path d="M153.38 174.444C156.418 174.444 158.882 172.008 158.882 169.001C158.882 165.995 156.418 163.559 153.38 163.559C150.341 163.559 147.877 165.995 147.877 169.001C147.877 172.008 150.341 174.444 153.38 174.444Z" fill="#FF3C21"/>
<path d="M170.382 174.807C173.64 174.807 176.28 172.207 176.28 169.001C176.28 165.795 173.64 163.195 170.382 163.195C167.125 163.195 164.484 165.795 164.484 169.001C164.484 172.207 167.125 174.807 170.382 174.807Z" fill="#FF3C21"/>
<path d="M187.382 174.442C190.421 174.442 192.885 172.006 192.885 169C192.885 165.993 190.421 163.557 187.382 163.557C184.343 163.557 181.88 165.993 181.88 169C181.88 172.006 184.343 174.442 187.382 174.442Z" fill="#FF3C21"/>
<path d="M204.384 173.951C207.15 173.951 209.393 171.736 209.393 169.003C209.393 166.27 207.15 164.055 204.384 164.055C201.618 164.055 199.376 166.27 199.376 169.003C199.376 171.736 201.618 173.951 204.384 173.951Z" fill="#FF3C21"/>
<path d="M221.389 173.32C223.809 173.32 225.771 171.386 225.771 168.999C225.771 166.612 223.809 164.678 221.389 164.678C218.969 164.678 217.007 166.612 217.007 168.999C217.007 171.386 218.969 173.32 221.389 173.32Z" fill="#FF3C21"/>
<path d="M238.388 172.761C240.498 172.761 242.21 171.078 242.21 169.001C242.21 166.924 240.498 165.24 238.388 165.24C236.277 165.24 234.565 166.924 234.565 169.001C234.565 171.078 236.277 172.761 238.388 172.761Z" fill="#FF3C21"/>
<path d="M255.391 172.2C257.192 172.2 258.653 170.768 258.653 169.001C258.653 167.233 257.192 165.801 255.391 165.801C253.589 165.801 252.129 167.233 252.129 169.001C252.129 170.768 253.589 172.2 255.391 172.2Z" fill="#FF3C21"/>
<path d="M272.427 171.672C273.91 171.672 275.129 170.485 275.129 169.034C275.129 167.582 273.91 166.395 272.427 166.395C270.945 166.395 269.726 167.582 269.726 169.034C269.726 170.485 270.945 171.672 272.427 171.672Z" fill="#FF3C21"/>
<path d="M289.428 171.045C290.575 171.045 291.504 170.13 291.504 169C291.504 167.871 290.575 166.955 289.428 166.955C288.282 166.955 287.353 167.871 287.353 169C287.353 170.13 288.282 171.045 289.428 171.045Z" fill="#FF3C21"/>
<path d="M306.431 170.486C307.268 170.486 307.946 169.822 307.946 169.002C307.946 168.182 307.268 167.518 306.431 167.518C305.594 167.518 304.915 168.182 304.915 169.002C304.915 169.822 305.594 170.486 306.431 170.486Z" fill="#FF3C21"/>
<path d="M323.431 169.925C323.958 169.925 324.387 169.497 324.387 169.002C324.387 168.507 323.958 168.078 323.431 168.078C322.904 168.078 322.476 168.507 322.476 169.002C322.476 169.497 322.904 169.925 323.431 169.925Z" fill="#FF3C21"/>
<path d="M340.434 169.33C340.632 169.33 340.763 169.198 340.763 169C340.763 168.802 340.632 168.67 340.434 168.67C340.236 168.67 340.104 168.802 340.104 169C340.104 169.198 340.236 169.33 340.434 169.33Z" fill="#FF3C21"/>
<path d="M0.329748 186.086C0.329748 186.086 0.626293 185.954 0.626293 185.822C0.626293 185.691 0.494495 185.559 0.329748 185.559C0.165001 185.559 0.0332031 185.691 0.0332031 185.822C0.0332031 185.954 0.165001 186.086 0.329748 186.086Z" fill="#FF3C21"/>
<path d="M17.3313 186.616C17.7926 186.616 18.188 186.253 18.188 185.791C18.188 185.33 17.7926 184.967 17.3313 184.967C16.87 184.967 16.4746 185.33 16.4746 185.791C16.4746 186.253 16.87 186.616 17.3313 186.616Z" fill="#FF3C21"/>
<path d="M34.3345 187.243C35.1583 187.243 35.7843 186.583 35.7843 185.791C35.7843 185 35.1253 184.34 34.3345 184.34C33.5438 184.34 32.8848 185 32.8848 185.791C32.8848 186.583 33.5438 187.243 34.3345 187.243Z" fill="#FF3C21"/>
<path d="M51.3349 187.804C52.4551 187.804 53.3777 186.913 53.3777 185.792C53.3777 184.67 52.4551 183.779 51.3349 183.779C50.2146 183.779 49.292 184.67 49.292 185.792C49.292 186.913 50.2146 187.804 51.3349 187.804Z" fill="#FF3C21"/>
<path d="M68.3384 188.365C69.7552 188.365 70.9414 187.21 70.9414 185.792C70.9414 184.373 69.7881 183.219 68.3384 183.219C66.8886 183.219 65.7354 184.373 65.7354 185.792C65.7354 187.21 66.8886 188.365 68.3384 188.365Z" fill="#FF3C21"/>
<path d="M85.3731 188.924C87.1194 188.924 88.5363 187.538 88.5363 185.79C88.5363 184.042 87.1194 182.656 85.3731 182.656C83.6268 182.656 82.21 184.042 82.21 185.79C82.21 187.538 83.6268 188.924 85.3731 188.924Z" fill="#FF3C21"/>
<path d="M102.375 189.485C104.418 189.485 106.098 187.836 106.098 185.824C106.098 183.811 104.418 182.162 102.375 182.162C100.332 182.162 98.6514 183.811 98.6514 185.824C98.6514 187.836 100.332 189.485 102.375 189.485Z" fill="#FF3C21"/>
<path d="M119.374 190.013C121.747 190.013 123.658 188.133 123.658 185.791C123.658 183.449 121.747 181.568 119.374 181.568C117.002 181.568 115.091 183.449 115.091 185.791C115.091 188.133 117.002 190.013 119.374 190.013Z" fill="#FF3C21"/>
<path d="M136.377 190.541C139.046 190.541 141.188 188.43 141.188 185.791C141.188 183.152 139.046 181.041 136.377 181.041C133.708 181.041 131.566 183.152 131.566 185.791C131.566 188.43 133.708 190.541 136.377 190.541Z" fill="#FF3C21"/>
<path d="M153.381 191.004C156.314 191.004 158.653 188.662 158.653 185.792C158.653 182.922 156.281 180.58 153.381 180.58C150.482 180.58 148.109 182.922 148.109 185.792C148.109 188.662 150.482 191.004 153.381 191.004Z" fill="#FF3C21"/>
<path d="M170.381 191.233C173.42 191.233 175.884 188.797 175.884 185.791C175.884 182.785 173.42 180.348 170.381 180.348C167.342 180.348 164.879 182.785 164.879 185.791C164.879 188.797 167.342 191.233 170.381 191.233Z" fill="#FF3C21"/>
<path d="M187.383 191.037C190.331 191.037 192.721 188.689 192.721 185.792C192.721 182.895 190.331 180.547 187.383 180.547C184.435 180.547 182.045 182.895 182.045 185.792C182.045 188.689 184.435 191.037 187.383 191.037Z" fill="#FF3C21"/>
<path d="M204.386 190.574C207.054 190.574 209.229 188.43 209.229 185.791C209.229 183.152 207.054 181.008 204.386 181.008C201.717 181.008 199.542 183.152 199.542 185.791C199.542 188.43 201.717 190.574 204.386 190.574Z" fill="#FF3C21"/>
<path d="M221.389 190.013C223.761 190.013 225.672 188.133 225.672 185.791C225.672 183.449 223.761 181.568 221.389 181.568C219.017 181.568 217.105 183.449 217.105 185.791C217.105 188.133 219.017 190.013 221.389 190.013Z" fill="#FF3C21"/>
<path d="M238.39 189.518C240.466 189.518 242.146 187.835 242.146 185.79C242.146 183.745 240.466 182.062 238.39 182.062C236.314 182.062 234.634 183.745 234.634 185.79C234.634 187.835 236.314 189.518 238.39 189.518Z" fill="#FF3C21"/>
<path d="M255.391 188.96C257.171 188.96 258.588 187.542 258.588 185.794C258.588 184.045 257.138 182.627 255.391 182.627C253.645 182.627 252.195 184.045 252.195 185.794C252.195 187.542 253.645 188.96 255.391 188.96Z" fill="#FF3C21"/>
<path d="M272.426 188.399C273.876 188.399 275.062 187.245 275.062 185.793C275.062 184.342 273.876 183.188 272.426 183.188C270.976 183.188 269.79 184.342 269.79 185.793C269.79 187.245 270.976 188.399 272.426 188.399Z" fill="#FF3C21"/>
<path d="M289.428 187.837C290.582 187.837 291.504 186.913 291.504 185.791C291.504 184.67 290.582 183.746 289.428 183.746C288.275 183.746 287.353 184.67 287.353 185.791C287.353 186.913 288.275 187.837 289.428 187.837Z" fill="#FF3C21"/>
<path d="M306.431 187.275C307.268 187.275 307.946 186.611 307.946 185.791C307.946 184.971 307.268 184.307 306.431 184.307C305.594 184.307 304.915 184.971 304.915 185.791C304.915 186.611 305.594 187.275 306.431 187.275Z" fill="#FF3C21"/>
<path d="M323.433 186.684C323.927 186.684 324.322 186.288 324.322 185.793C324.322 185.298 323.927 184.902 323.433 184.902C322.938 184.902 322.543 185.298 322.543 185.793C322.543 186.288 322.938 186.684 323.433 186.684Z" fill="#FF3C21"/>
<path d="M340.434 186.123C340.632 186.123 340.763 185.991 340.763 185.793C340.763 185.595 340.632 185.463 340.434 185.463C340.236 185.463 340.104 185.595 340.104 185.793C340.104 185.991 340.236 186.123 340.434 186.123Z" fill="#FF3C21"/>
<path d="M0.329279 202.813C0.329279 202.813 0.559925 202.714 0.559925 202.582C0.559925 202.451 0.461077 202.352 0.329279 202.352C0.197481 202.352 0.0986328 202.451 0.0986328 202.582C0.0986328 202.714 0.197481 202.813 0.329279 202.813Z" fill="#FF3C21"/>
<path d="M17.3311 203.342C17.7496 203.342 18.0889 203.002 18.0889 202.583C18.0889 202.164 17.7496 201.824 17.3311 201.824C16.9125 201.824 16.5732 202.164 16.5732 202.583C16.5732 203.002 16.9125 203.342 17.3311 203.342Z" fill="#FF3C21"/>
<path d="M34.3321 203.933C35.0964 203.933 35.716 203.328 35.716 202.581C35.716 201.834 35.0964 201.229 34.3321 201.229C33.5678 201.229 32.9482 201.834 32.9482 202.581C32.9482 203.328 33.5678 203.933 34.3321 203.933Z" fill="#FF3C21"/>
<path d="M51.3361 204.431C52.3734 204.431 53.2142 203.604 53.2142 202.584C53.2142 201.563 52.3734 200.736 51.3361 200.736C50.2989 200.736 49.458 201.563 49.458 202.584C49.458 203.604 50.2989 204.431 51.3361 204.431Z" fill="#FF3C21"/>
<path d="M68.3377 204.99C69.6843 204.99 70.7759 203.912 70.7759 202.582C70.7759 201.252 69.6843 200.174 68.3377 200.174C66.9911 200.174 65.8994 201.252 65.8994 202.582C65.8994 203.912 66.9911 204.99 68.3377 204.99Z" fill="#FF3C21"/>
<path d="M85.3702 205.551C87.0444 205.551 88.4016 204.222 88.4016 202.582C88.4016 200.942 87.0444 199.613 85.3702 199.613C83.696 199.613 82.3389 200.942 82.3389 202.582C82.3389 204.222 83.696 205.551 85.3702 205.551Z" fill="#FF3C21"/>
<path d="M102.373 206.077C104.317 206.077 105.899 204.527 105.899 202.581C105.899 200.634 104.317 199.084 102.373 199.084C100.429 199.084 98.8477 200.634 98.8477 202.581C98.8477 204.527 100.429 206.077 102.373 206.077Z" fill="#FF3C21"/>
<path d="M119.376 206.573C121.617 206.573 123.429 204.791 123.429 202.581C123.429 200.371 121.617 198.59 119.376 198.59C117.135 198.59 115.323 200.371 115.323 202.581C115.323 204.791 117.135 206.573 119.376 206.573Z" fill="#FF3C21"/>
<path d="M136.378 207.003C138.849 207.003 140.859 205.023 140.859 202.582C140.859 200.141 138.849 198.162 136.378 198.162C133.906 198.162 131.896 200.141 131.896 202.582C131.896 205.023 133.906 207.003 136.378 207.003Z" fill="#FF3C21"/>
<path d="M153.381 207.365C156.05 207.365 158.224 205.221 158.224 202.582C158.224 199.943 156.05 197.799 153.381 197.799C150.712 197.799 148.537 199.943 148.537 202.582C148.537 205.221 150.712 207.365 153.381 207.365Z" fill="#FF3C21"/>
<path d="M170.381 207.5C173.149 207.5 175.39 205.29 175.39 202.552C175.39 199.814 173.149 197.604 170.381 197.604C167.614 197.604 165.373 199.814 165.373 202.552C165.373 205.29 167.614 207.5 170.381 207.5Z" fill="#FF3C21"/>
<path d="M187.384 207.365C190.053 207.365 192.227 205.221 192.227 202.582C192.227 199.943 190.053 197.799 187.384 197.799C184.715 197.799 182.54 199.943 182.54 202.582C182.54 205.221 184.715 207.365 187.384 207.365Z" fill="#FF3C21"/>
<path d="M204.386 207.035C206.89 207.035 208.9 205.023 208.9 202.582C208.9 200.141 206.857 198.129 204.386 198.129C201.915 198.129 199.872 200.141 199.872 202.582C199.872 205.023 201.915 207.035 204.386 207.035Z" fill="#FF3C21"/>
<path d="M221.388 206.573C223.628 206.573 225.441 204.791 225.441 202.581C225.441 200.371 223.628 198.59 221.388 198.59C219.147 198.59 217.335 200.371 217.335 202.581C217.335 204.791 219.147 206.573 221.388 206.573Z" fill="#FF3C21"/>
<path d="M238.389 206.112C240.373 206.112 241.981 204.532 241.981 202.582C241.981 200.633 240.373 199.053 238.389 199.053C236.406 199.053 234.798 200.633 234.798 202.582C234.798 204.532 236.406 206.112 238.389 206.112Z" fill="#FF3C21"/>
<path d="M255.391 205.551C257.065 205.551 258.422 204.222 258.422 202.582C258.422 200.942 257.065 199.613 255.391 199.613C253.717 199.613 252.359 200.942 252.359 202.582C252.359 204.222 253.717 205.551 255.391 205.551Z" fill="#FF3C21"/>
<path d="M272.427 205.056C273.811 205.056 274.931 203.967 274.931 202.581C274.931 201.196 273.811 200.107 272.427 200.107C271.043 200.107 269.923 201.196 269.923 202.581C269.923 203.967 271.043 205.056 272.427 205.056Z" fill="#FF3C21"/>
<path d="M289.428 204.494C290.502 204.494 291.372 203.638 291.372 202.581C291.372 201.525 290.502 200.668 289.428 200.668C288.355 200.668 287.484 201.525 287.484 202.581C287.484 203.638 288.355 204.494 289.428 204.494Z" fill="#FF3C21"/>
<path d="M306.429 203.933C307.193 203.933 307.813 203.328 307.813 202.581C307.813 201.834 307.193 201.229 306.429 201.229C305.664 201.229 305.045 201.834 305.045 202.581C305.045 203.328 305.664 203.933 306.429 203.933Z" fill="#FF3C21"/>
<path d="M323.432 203.374C323.861 203.374 324.223 203.012 324.223 202.583C324.223 202.154 323.861 201.791 323.432 201.791C323.004 201.791 322.642 202.154 322.642 202.583C322.642 203.012 323.004 203.374 323.432 203.374Z" fill="#FF3C21"/>
<path d="M340.433 202.846C340.433 202.846 340.73 202.714 340.73 202.582C340.73 202.45 340.598 202.318 340.433 202.318C340.269 202.318 340.137 202.45 340.137 202.582C340.137 202.714 340.269 202.846 340.433 202.846Z" fill="#FF3C21"/>
<path d="M0.328087 219.504C0.328087 219.504 0.459885 219.438 0.459885 219.372C0.459885 219.306 0.393986 219.24 0.328087 219.24C0.262188 219.24 0.196289 219.306 0.196289 219.372C0.196289 219.438 0.262188 219.504 0.328087 219.504Z" fill="#FF3C21"/>
<path d="M17.3321 220C17.6778 220 17.9581 219.719 17.9581 219.373C17.9581 219.027 17.6778 218.746 17.3321 218.746C16.9863 218.746 16.7061 219.027 16.7061 219.373C16.7061 219.719 16.9863 220 17.3321 220Z" fill="#FF3C21"/>
<path d="M34.3336 220.526C34.9887 220.526 35.5198 220.009 35.5198 219.371C35.5198 218.734 34.9887 218.217 34.3336 218.217C33.6785 218.217 33.1475 218.734 33.1475 219.371C33.1475 220.009 33.6785 220.526 34.3336 220.526Z" fill="#FF3C21"/>
<path d="M51.3345 221.054C52.2807 221.054 53.0478 220.301 53.0478 219.372C53.0478 218.443 52.2807 217.689 51.3345 217.689C50.3882 217.689 49.6211 218.443 49.6211 219.372C49.6211 220.301 50.3882 221.054 51.3345 221.054Z" fill="#FF3C21"/>
<path d="M68.3375 221.55C69.5566 221.55 70.5451 220.56 70.5451 219.372C70.5451 218.185 69.5566 217.195 68.3375 217.195C67.1184 217.195 66.1299 218.185 66.1299 219.372C66.1299 220.56 67.1184 221.55 68.3375 221.55Z" fill="#FF3C21"/>
<path d="M85.3735 222.076C86.8892 222.076 88.1083 220.855 88.1083 219.371C88.1083 217.887 86.8892 216.666 85.3735 216.666C83.8578 216.666 82.6387 217.887 82.6387 219.371C82.6387 220.855 83.8578 222.076 85.3735 222.076Z" fill="#FF3C21"/>
<path d="M102.374 222.539C104.153 222.539 105.57 221.12 105.57 219.372C105.57 217.624 104.12 216.205 102.374 216.205C100.628 216.205 99.1777 217.624 99.1777 219.372C99.1777 221.12 100.628 222.539 102.374 222.539Z" fill="#FF3C21"/>
<path d="M119.376 223.003C121.419 223.003 123.066 221.387 123.066 219.375C123.066 217.362 121.419 215.746 119.376 215.746C117.333 215.746 115.686 217.362 115.686 219.375C115.686 221.387 117.333 223.003 119.376 223.003Z" fill="#FF3C21"/>
<path d="M136.377 223.364C138.618 223.364 140.43 221.582 140.43 219.372C140.43 217.162 138.618 215.381 136.377 215.381C134.136 215.381 132.324 217.162 132.324 219.372C132.324 221.582 134.136 223.364 136.377 223.364Z" fill="#FF3C21"/>
<path d="M153.378 223.593C155.751 223.593 157.662 221.713 157.662 219.371C157.662 217.029 155.751 215.148 153.378 215.148C151.006 215.148 149.095 217.029 149.095 219.371C149.095 221.713 151.006 223.593 153.378 223.593Z" fill="#FF3C21"/>
<path d="M170.381 223.693C172.802 223.693 174.764 221.759 174.764 219.372C174.764 216.985 172.802 215.051 170.381 215.051C167.961 215.051 165.999 216.985 165.999 219.372C165.999 221.759 167.961 223.693 170.381 223.693Z" fill="#FF3C21"/>
<path d="M187.384 223.593C189.756 223.593 191.667 221.713 191.667 219.371C191.667 217.029 189.756 215.148 187.384 215.148C185.012 215.148 183.101 217.029 183.101 219.371C183.101 221.713 185.012 223.593 187.384 223.593Z" fill="#FF3C21"/>
<path d="M204.384 223.364C206.624 223.364 208.437 221.582 208.437 219.372C208.437 217.162 206.624 215.381 204.384 215.381C202.143 215.381 200.331 217.162 200.331 219.372C200.331 221.582 202.143 223.364 204.384 223.364Z" fill="#FF3C21"/>
<path d="M221.387 223.003C223.43 223.003 225.077 221.387 225.077 219.375C225.077 217.362 223.43 215.746 221.387 215.746C219.344 215.746 217.696 217.362 217.696 219.375C217.696 221.387 219.344 223.003 221.387 223.003Z" fill="#FF3C21"/>
<path d="M238.388 222.571C240.19 222.571 241.65 221.139 241.65 219.372C241.65 217.604 240.19 216.172 238.388 216.172C236.586 216.172 235.126 217.604 235.126 219.372C235.126 221.139 236.586 222.571 238.388 222.571Z" fill="#FF3C21"/>
<path d="M255.392 222.111C256.94 222.111 258.16 220.89 258.16 219.373C258.16 217.855 256.907 216.635 255.392 216.635C253.876 216.635 252.624 217.855 252.624 219.373C252.624 220.89 253.876 222.111 255.392 222.111Z" fill="#FF3C21"/>
<path d="M272.426 221.584C273.678 221.584 274.699 220.594 274.699 219.341C274.699 218.087 273.678 217.098 272.426 217.098C271.174 217.098 270.152 218.087 270.152 219.341C270.152 220.594 271.174 221.584 272.426 221.584Z" fill="#FF3C21"/>
<path d="M289.429 221.087C290.393 221.087 291.175 220.319 291.175 219.372C291.175 218.424 290.393 217.656 289.429 217.656C288.464 217.656 287.683 218.424 287.683 219.372C287.683 220.319 288.464 221.087 289.429 221.087Z" fill="#FF3C21"/>
<path d="M306.431 220.526C307.086 220.526 307.617 220.009 307.617 219.371C307.617 218.734 307.086 218.217 306.431 218.217C305.776 218.217 305.245 218.734 305.245 219.371C305.245 220.009 305.776 220.526 306.431 220.526Z" fill="#FF3C21"/>
<path d="M323.433 219.999C323.796 219.999 324.092 219.702 324.092 219.339C324.092 218.977 323.796 218.68 323.433 218.68C323.071 218.68 322.774 218.977 322.774 219.339C322.774 219.702 323.071 219.999 323.433 219.999Z" fill="#FF3C21"/>
<path d="M340.435 219.504C340.507 219.504 340.566 219.445 340.566 219.372C340.566 219.299 340.507 219.24 340.435 219.24C340.362 219.24 340.303 219.299 340.303 219.372C340.303 219.445 340.362 219.504 340.435 219.504Z" fill="#FF3C21"/>
<path d="M0.329173 236.197C0.329173 236.197 0.362448 236.197 0.362448 236.164C0.362448 236.131 0.362449 236.131 0.329173 236.131C0.295898 236.131 0.295898 236.131 0.295898 236.164C0.295898 236.197 0.295898 236.197 0.329173 236.197Z" fill="#FF3C21"/>
<path d="M17.3307 236.557C17.5613 236.557 17.759 236.359 17.759 236.128C17.759 235.897 17.5613 235.699 17.3307 235.699C17.1 235.699 16.9023 235.897 16.9023 236.128C16.9023 236.359 17.1 236.557 17.3307 236.557Z" fill="#FF3C21"/>
<path d="M34.3335 237.088C34.8612 237.088 35.289 236.674 35.289 236.164C35.289 235.654 34.8612 235.24 34.3335 235.24C33.8057 235.24 33.3779 235.654 33.3779 236.164C33.3779 236.674 33.8057 237.088 34.3335 237.088Z" fill="#FF3C21"/>
<path d="M51.3365 237.583C52.1602 237.583 52.7863 236.923 52.7863 236.131C52.7863 235.339 52.1273 234.68 51.3365 234.68C50.5457 234.68 49.8867 235.339 49.8867 236.131C49.8867 236.923 50.5457 237.583 51.3365 237.583Z" fill="#FF3C21"/>
<path d="M68.3366 238.043C69.391 238.043 70.2806 237.186 70.2806 236.13C70.2806 235.074 69.4239 234.217 68.3366 234.217C67.2493 234.217 66.3926 235.074 66.3926 236.13C66.3926 237.186 67.2493 238.043 68.3366 238.043Z" fill="#FF3C21"/>
<path d="M85.3731 238.537C86.6911 238.537 87.7784 237.482 87.7784 236.162C87.7784 234.843 86.6911 233.787 85.3731 233.787C84.0551 233.787 82.9678 234.843 82.9678 236.162C82.9678 237.482 84.0551 238.537 85.3731 238.537Z" fill="#FF3C21"/>
<path d="M102.374 239C103.956 239 105.241 237.713 105.241 236.163C105.241 234.613 103.956 233.326 102.374 233.326C100.793 233.326 99.5078 234.613 99.5078 236.163C99.5078 237.713 100.793 239 102.374 239Z" fill="#FF3C21"/>
<path d="M119.376 239.362C121.178 239.362 122.638 237.93 122.638 236.163C122.638 234.395 121.178 232.963 119.376 232.963C117.575 232.963 116.114 234.395 116.114 236.163C116.114 237.93 117.575 239.362 119.376 239.362Z" fill="#FF3C21"/>
<path d="M136.377 239.626C138.321 239.626 139.903 238.076 139.903 236.129C139.903 234.183 138.321 232.633 136.377 232.633C134.433 232.633 132.852 234.183 132.852 236.129C132.852 238.076 134.433 239.626 136.377 239.626Z" fill="#FF3C21"/>
<path d="M153.378 239.856C155.454 239.856 157.135 238.173 157.135 236.128C157.135 234.083 155.454 232.4 153.378 232.4C151.302 232.4 149.622 234.083 149.622 236.128C149.622 238.173 151.302 239.856 153.378 239.856Z" fill="#FF3C21"/>
<path d="M170.381 239.921C172.492 239.921 174.203 238.238 174.203 236.161C174.203 234.084 172.492 232.4 170.381 232.4C168.27 232.4 166.559 234.084 166.559 236.161C166.559 238.238 168.27 239.921 170.381 239.921Z" fill="#FF3C21"/>
<path d="M187.384 239.856C189.46 239.856 191.14 238.173 191.14 236.128C191.14 234.083 189.46 232.4 187.384 232.4C185.308 232.4 183.628 234.083 183.628 236.128C183.628 238.173 185.308 239.856 187.384 239.856Z" fill="#FF3C21"/>
<path d="M204.385 239.692C206.362 239.692 207.977 238.109 207.977 236.162C207.977 234.216 206.362 232.633 204.385 232.633C202.408 232.633 200.794 234.216 200.794 236.162C200.794 238.109 202.408 239.692 204.385 239.692Z" fill="#FF3C21"/>
<path d="M221.387 239.362C223.189 239.362 224.649 237.93 224.649 236.163C224.649 234.395 223.189 232.963 221.387 232.963C219.585 232.963 218.125 234.395 218.125 236.163C218.125 237.93 219.585 239.362 221.387 239.362Z" fill="#FF3C21"/>
<path d="M238.388 239C239.97 239 241.255 237.713 241.255 236.163C241.255 234.613 239.97 233.326 238.388 233.326C236.806 233.326 235.521 234.613 235.521 236.163C235.521 237.713 236.806 239 238.388 239Z" fill="#FF3C21"/>
<path d="M255.39 238.57C256.741 238.57 257.829 237.481 257.829 236.162C257.829 234.842 256.741 233.754 255.39 233.754C254.039 233.754 252.952 234.842 252.952 236.162C252.952 237.481 254.039 238.57 255.39 238.57Z" fill="#FF3C21"/>
<path d="M272.427 238.109C273.514 238.109 274.404 237.219 274.404 236.163C274.404 235.107 273.514 234.217 272.427 234.217C271.34 234.217 270.45 235.107 270.45 236.163C270.45 237.219 271.34 238.109 272.427 238.109Z" fill="#FF3C21"/>
<path d="M289.429 237.649C290.252 237.649 290.944 236.989 290.944 236.164C290.944 235.339 290.252 234.68 289.429 234.68C288.605 234.68 287.913 235.339 287.913 236.164C287.913 236.989 288.605 237.649 289.429 237.649Z" fill="#FF3C21"/>
<path d="M306.431 237.12C306.991 237.12 307.419 236.691 307.419 236.13C307.419 235.569 306.991 235.141 306.431 235.141C305.871 235.141 305.442 235.569 305.442 236.13C305.442 236.691 305.871 237.12 306.431 237.12Z" fill="#FF3C21"/>
<path d="M323.432 236.623C323.696 236.623 323.893 236.425 323.893 236.161C323.893 235.897 323.696 235.699 323.432 235.699C323.168 235.699 322.971 235.897 322.971 236.161C322.971 236.425 323.168 236.623 323.432 236.623Z" fill="#FF3C21"/>
<path d="M340.435 236.197C340.435 236.197 340.468 236.197 340.468 236.164C340.468 236.131 340.468 236.131 340.435 236.131C340.401 236.131 340.401 236.131 340.401 236.164C340.401 236.197 340.401 236.197 340.435 236.197Z" fill="#FF3C21"/>
<path d="M17.3325 253.119C17.4416 253.119 17.5302 253.03 17.5302 252.921C17.5302 252.811 17.4416 252.723 17.3325 252.723C17.2233 252.723 17.1348 252.811 17.1348 252.921C17.1348 253.03 17.2233 253.119 17.3325 253.119Z" fill="#FF3C21"/>
<path d="M34.3328 253.581C34.6953 253.581 34.9918 253.284 34.9918 252.921C34.9918 252.559 34.6953 252.262 34.3328 252.262C33.9704 252.262 33.6738 252.559 33.6738 252.921C33.6738 253.284 33.9704 253.581 34.3328 253.581Z" fill="#FF3C21"/>
<path d="M51.3371 254.042C51.9558 254.042 52.4574 253.54 52.4574 252.92C52.4574 252.301 51.9558 251.799 51.3371 251.799C50.7184 251.799 50.2168 252.301 50.2168 252.92C50.2168 253.54 50.7184 254.042 51.3371 254.042Z" fill="#FF3C21"/>
<path d="M68.3362 254.503C69.2258 254.503 69.9507 253.81 69.9507 252.919C69.9507 252.029 69.2258 251.336 68.3362 251.336C67.4466 251.336 66.7217 252.029 66.7217 252.919C66.7217 253.81 67.4466 254.503 68.3362 254.503Z" fill="#FF3C21"/>
<path d="M85.372 254.933C86.5002 254.933 87.4148 254.032 87.4148 252.92C87.4148 251.809 86.5002 250.908 85.372 250.908C84.2437 250.908 83.3291 251.809 83.3291 252.92C83.3291 254.032 84.2437 254.933 85.372 254.933Z" fill="#FF3C21"/>
<path d="M102.375 255.297C103.693 255.297 104.78 254.241 104.78 252.922C104.78 251.602 103.693 250.547 102.375 250.547C101.057 250.547 99.9697 251.602 99.9697 252.922C99.9697 254.241 101.057 255.297 102.375 255.297Z" fill="#FF3C21"/>
<path d="M119.376 255.691C120.925 255.691 122.144 254.47 122.144 252.953C122.144 251.435 120.892 250.215 119.376 250.215C117.86 250.215 116.608 251.435 116.608 252.953C116.608 254.47 117.86 255.691 119.376 255.691Z" fill="#FF3C21"/>
<path d="M136.379 255.889C138.053 255.889 139.41 254.56 139.41 252.92C139.41 251.28 138.053 249.951 136.379 249.951C134.705 249.951 133.348 251.28 133.348 252.92C133.348 254.56 134.705 255.889 136.379 255.889Z" fill="#FF3C21"/>
<path d="M153.379 256.087C155.158 256.087 156.575 254.669 156.575 252.921C156.575 251.172 155.125 249.754 153.379 249.754C151.632 249.754 150.183 251.172 150.183 252.921C150.183 254.669 151.632 256.087 153.379 256.087Z" fill="#FF3C21"/>
<path d="M170.382 256.12C172.184 256.12 173.644 254.688 173.644 252.92C173.644 251.153 172.184 249.721 170.382 249.721C168.581 249.721 167.12 251.153 167.12 252.92C167.12 254.688 168.581 256.12 170.382 256.12Z" fill="#FF3C21"/>
<path d="M187.384 256.087C189.149 256.087 190.58 254.67 190.58 252.921C190.58 251.172 189.149 249.754 187.384 249.754C185.618 249.754 184.188 251.172 184.188 252.921C184.188 254.67 185.618 256.087 187.384 256.087Z" fill="#FF3C21"/>
<path d="M204.386 255.889C206.06 255.889 207.417 254.56 207.417 252.92C207.417 251.28 206.06 249.951 204.386 249.951C202.712 249.951 201.354 251.28 201.354 252.92C201.354 254.56 202.712 255.889 204.386 255.889Z" fill="#FF3C21"/>
<path d="M221.386 255.691C222.935 255.691 224.154 254.47 224.154 252.953C224.154 251.435 222.902 250.215 221.386 250.215C219.87 250.215 218.618 251.435 218.618 252.953C218.618 254.47 219.87 255.691 221.386 255.691Z" fill="#FF3C21"/>
<path d="M238.388 255.33C239.735 255.33 240.827 254.252 240.827 252.922C240.827 251.592 239.735 250.514 238.388 250.514C237.042 250.514 235.95 251.592 235.95 252.922C235.95 254.252 237.042 255.33 238.388 255.33Z" fill="#FF3C21"/>
<path d="M255.39 254.965C256.537 254.965 257.466 254.05 257.466 252.92C257.466 251.791 256.537 250.875 255.39 250.875C254.244 250.875 253.314 251.791 253.314 252.92C253.314 254.05 254.244 254.965 255.39 254.965Z" fill="#FF3C21"/>
<path d="M272.427 254.569C273.349 254.569 274.074 253.843 274.074 252.952C274.074 252.062 273.349 251.336 272.427 251.336C271.504 251.336 270.779 252.062 270.779 252.952C270.779 253.843 271.504 254.569 272.427 254.569Z" fill="#FF3C21"/>
<path d="M289.427 254.077C290.082 254.077 290.614 253.56 290.614 252.922C290.614 252.284 290.082 251.768 289.427 251.768C288.772 251.768 288.241 252.284 288.241 252.922C288.241 253.56 288.772 254.077 289.427 254.077Z" fill="#FF3C21"/>
<path d="M306.43 253.647C306.826 253.647 307.122 253.35 307.122 252.954C307.122 252.559 306.793 252.262 306.43 252.262C306.068 252.262 305.738 252.559 305.738 252.954C305.738 253.35 306.068 253.647 306.43 253.647Z" fill="#FF3C21"/>
<path d="M323.431 253.119C323.54 253.119 323.629 253.03 323.629 252.921C323.629 252.811 323.54 252.723 323.431 252.723C323.322 252.723 323.233 252.811 323.233 252.921C323.233 253.03 323.322 253.119 323.431 253.119Z" fill="#FF3C21"/>
<path d="M17.3302 269.778C17.3302 269.778 17.3634 269.778 17.3634 269.744C17.3634 269.711 17.3634 269.711 17.3302 269.711C17.2969 269.711 17.2969 269.711 17.2969 269.744C17.2969 269.778 17.2969 269.778 17.3302 269.778Z" fill="#FF3C21"/>
<path d="M34.3324 270.041C34.5144 270.041 34.6619 269.893 34.6619 269.711C34.6619 269.529 34.5144 269.381 34.3324 269.381C34.1505 269.381 34.0029 269.529 34.0029 269.711C34.0029 269.893 34.1505 270.041 34.3324 270.041Z" fill="#FF3C21"/>
<path d="M51.3357 270.501C51.7641 270.501 52.1265 270.139 52.1265 269.71C52.1265 269.281 51.7641 268.918 51.3357 268.918C50.9074 268.918 50.5449 269.281 50.5449 269.71C50.5449 270.139 50.9074 270.501 51.3357 270.501Z" fill="#FF3C21"/>
<path d="M68.3383 270.931C69.0302 270.931 69.5574 270.404 69.5574 269.711C69.5574 269.018 68.9973 268.49 68.3383 268.49C67.6793 268.49 67.1191 269.018 67.1191 269.711C67.1191 270.404 67.6793 270.931 68.3383 270.931Z" fill="#FF3C21"/>
<path d="M85.3714 271.296C86.261 271.296 86.9859 270.603 86.9859 269.712C86.9859 268.822 86.261 268.129 85.3714 268.129C84.4817 268.129 83.7568 268.822 83.7568 269.712C83.7568 270.603 84.4817 271.296 85.3714 271.296Z" fill="#FF3C21"/>
<path d="M102.373 271.623C103.446 271.623 104.317 270.767 104.317 269.71C104.317 268.653 103.446 267.797 102.373 267.797C101.299 267.797 100.429 268.653 100.429 269.71C100.429 270.767 101.299 271.623 102.373 271.623Z" fill="#FF3C21"/>
<path d="M119.374 271.953C120.63 271.953 121.648 270.949 121.648 269.71C121.648 268.471 120.63 267.467 119.374 267.467C118.118 267.467 117.101 268.471 117.101 269.71C117.101 270.949 118.118 271.953 119.374 271.953Z" fill="#FF3C21"/>
<path d="M136.378 272.117C137.724 272.117 138.816 271.039 138.816 269.709C138.816 268.379 137.724 267.301 136.378 267.301C135.031 267.301 133.939 268.379 133.939 269.709C133.939 271.039 135.031 272.117 136.378 272.117Z" fill="#FF3C21"/>
<path d="M153.38 272.317C154.836 272.317 156.016 271.151 156.016 269.711C156.016 268.272 154.836 267.105 153.38 267.105C151.924 267.105 150.744 268.272 150.744 269.711C150.744 271.151 151.924 272.317 153.38 272.317Z" fill="#FF3C21"/>
<path d="M170.383 272.35C171.875 272.35 173.084 271.169 173.084 269.711C173.084 268.254 171.875 267.072 170.383 267.072C168.89 267.072 167.681 268.254 167.681 269.711C167.681 271.169 168.89 272.35 170.383 272.35Z" fill="#FF3C21"/>
<path d="M187.384 272.317C188.84 272.317 190.02 271.151 190.02 269.711C190.02 268.272 188.84 267.105 187.384 267.105C185.928 267.105 184.748 268.272 184.748 269.711C184.748 271.151 185.928 272.317 187.384 272.317Z" fill="#FF3C21"/>
<path d="M204.386 272.184C205.769 272.184 206.89 271.077 206.89 269.71C206.89 268.344 205.769 267.236 204.386 267.236C203.003 267.236 201.882 268.344 201.882 269.71C201.882 271.077 203.003 272.184 204.386 272.184Z" fill="#FF3C21"/>
<path d="M221.389 271.953C222.641 271.953 223.662 270.963 223.662 269.71C223.662 268.456 222.641 267.467 221.389 267.467C220.137 267.467 219.115 268.456 219.115 269.71C219.115 270.963 220.137 271.953 221.389 271.953Z" fill="#FF3C21"/>
<path d="M238.389 271.689C239.476 271.689 240.366 270.799 240.366 269.743C240.366 268.688 239.476 267.797 238.389 267.797C237.302 267.797 236.412 268.688 236.412 269.743C236.412 270.799 237.302 271.689 238.389 271.689Z" fill="#FF3C21"/>
<path d="M255.392 271.362C256.314 271.362 257.039 270.636 257.039 269.745C257.039 268.855 256.314 268.129 255.392 268.129C254.469 268.129 253.744 268.855 253.744 269.745C253.744 270.636 254.469 271.362 255.392 271.362Z" fill="#FF3C21"/>
<path d="M272.427 270.931C273.119 270.931 273.646 270.404 273.646 269.711C273.646 269.018 273.086 268.49 272.427 268.49C271.768 268.49 271.208 269.018 271.208 269.711C271.208 270.404 271.768 270.931 272.427 270.931Z" fill="#FF3C21"/>
<path d="M289.428 270.501C289.865 270.501 290.219 270.147 290.219 269.71C290.219 269.272 289.865 268.918 289.428 268.918C288.992 268.918 288.638 269.272 288.638 269.71C288.638 270.147 288.992 270.501 289.428 270.501Z" fill="#FF3C21"/>
<path d="M306.431 270.075C306.631 270.075 306.793 269.913 306.793 269.712C306.793 269.512 306.631 269.35 306.431 269.35C306.231 269.35 306.068 269.512 306.068 269.712C306.068 269.913 306.231 270.075 306.431 270.075Z" fill="#FF3C21"/>
<path d="M323.433 269.778C323.433 269.778 323.466 269.778 323.466 269.744C323.466 269.711 323.466 269.711 323.433 269.711C323.399 269.711 323.399 269.711 323.399 269.744C323.399 269.778 323.399 269.778 323.433 269.778Z" fill="#FF3C21"/>
<path d="M34.3331 286.535C34.3331 286.535 34.3664 286.535 34.3664 286.502C34.3664 286.469 34.3664 286.469 34.3331 286.469C34.2998 286.469 34.2998 286.469 34.2998 286.502C34.2998 286.535 34.2998 286.535 34.3331 286.535Z" fill="#FF3C21"/>
<path d="M51.3346 286.93C51.5652 286.93 51.7629 286.732 51.7629 286.501C51.7629 286.27 51.5652 286.072 51.3346 286.072C51.1039 286.072 50.9062 286.27 50.9062 286.501C50.9062 286.732 51.1039 286.93 51.3346 286.93Z" fill="#FF3C21"/>
<path d="M68.3386 287.294C68.767 287.294 69.1294 286.931 69.1294 286.503C69.1294 286.074 68.767 285.711 68.3386 285.711C67.9103 285.711 67.5479 286.074 67.5479 286.503C67.5479 286.931 67.9103 287.294 68.3386 287.294Z" fill="#FF3C21"/>
<path d="M85.3703 287.624C85.9963 287.624 86.4906 287.129 86.4906 286.502C86.4906 285.876 85.9963 285.381 85.3703 285.381C84.7442 285.381 84.25 285.876 84.25 286.502C84.25 287.129 84.7442 287.624 85.3703 287.624Z" fill="#FF3C21"/>
<path d="M102.376 287.952C103.199 287.952 103.825 287.292 103.825 286.5C103.825 285.709 103.166 285.049 102.376 285.049C101.585 285.049 100.926 285.709 100.926 286.5C100.926 287.292 101.585 287.952 102.376 287.952Z" fill="#FF3C21"/>
<path d="M119.374 288.216C120.33 288.216 121.121 287.457 121.121 286.5C121.121 285.544 120.33 284.785 119.374 284.785C118.419 284.785 117.628 285.544 117.628 286.5C117.628 287.457 118.419 288.216 119.374 288.216Z" fill="#FF3C21"/>
<path d="M136.376 288.414C137.43 288.414 138.32 287.557 138.32 286.501C138.32 285.446 137.463 284.588 136.376 284.588C135.288 284.588 134.432 285.446 134.432 286.501C134.432 287.557 135.288 288.414 136.376 288.414Z" fill="#FF3C21"/>
<path d="M153.379 288.515C154.499 288.515 155.422 287.624 155.422 286.502C155.422 285.381 154.499 284.49 153.379 284.49C152.259 284.49 151.336 285.381 151.336 286.502C151.336 287.624 152.259 288.515 153.379 288.515Z" fill="#FF3C21"/>
<path d="M170.382 288.547C171.536 288.547 172.458 287.624 172.458 286.502C172.458 285.381 171.536 284.457 170.382 284.457C169.229 284.457 168.307 285.381 168.307 286.502C168.307 287.624 169.229 288.547 170.382 288.547Z" fill="#FF3C21"/>
<path d="M187.383 288.547C188.537 288.547 189.459 287.624 189.459 286.502C189.459 285.381 188.537 284.457 187.383 284.457C186.23 284.457 185.308 285.381 185.308 286.502C185.308 287.624 186.23 288.547 187.383 288.547Z" fill="#FF3C21"/>
<path d="M204.386 288.414C205.441 288.414 206.33 287.557 206.33 286.501C206.33 285.446 205.474 284.588 204.386 284.588C203.299 284.588 202.442 285.446 202.442 286.501C202.442 287.557 203.299 288.414 204.386 288.414Z" fill="#FF3C21"/>
<path d="M221.389 288.216C222.344 288.216 223.135 287.457 223.135 286.5C223.135 285.544 222.344 284.785 221.389 284.785C220.433 284.785 219.643 285.544 219.643 286.5C219.643 287.457 220.433 288.216 221.389 288.216Z" fill="#FF3C21"/>
<path d="M238.39 287.986C239.213 287.986 239.905 287.327 239.905 286.502C239.905 285.677 239.213 285.018 238.39 285.018C237.566 285.018 236.874 285.677 236.874 286.502C236.874 287.327 237.566 287.986 238.39 287.986Z" fill="#FF3C21"/>
<path d="M255.391 287.657C256.05 287.657 256.577 287.129 256.577 286.502C256.577 285.875 256.05 285.348 255.391 285.348C254.732 285.348 254.205 285.875 254.205 286.502C254.205 287.129 254.732 287.657 255.391 287.657Z" fill="#FF3C21"/>
<path d="M272.427 287.294C272.855 287.294 273.217 286.931 273.217 286.503C273.217 286.074 272.855 285.711 272.427 285.711C271.998 285.711 271.636 286.074 271.636 286.503C271.636 286.931 271.998 287.294 272.427 287.294Z" fill="#FF3C21"/>
<path d="M289.427 286.93C289.658 286.93 289.856 286.732 289.856 286.501C289.856 286.27 289.658 286.072 289.427 286.072C289.197 286.072 288.999 286.27 288.999 286.501C288.999 286.732 289.197 286.93 289.427 286.93Z" fill="#FF3C21"/>
<path d="M306.43 286.6C306.43 286.6 306.529 286.567 306.529 286.501C306.529 286.435 306.496 286.402 306.43 286.402C306.364 286.402 306.331 286.435 306.331 286.501C306.331 286.567 306.364 286.6 306.43 286.6Z" fill="#FF3C21"/>
<path d="M51.335 303.326C51.335 303.326 51.3683 303.326 51.3683 303.293C51.3683 303.26 51.3683 303.26 51.335 303.26C51.3018 303.26 51.3018 303.26 51.3018 303.293C51.3018 303.326 51.3018 303.326 51.335 303.326Z" fill="#FF3C21"/>
<path d="M68.3373 303.623C68.535 303.623 68.6668 303.491 68.6668 303.293C68.6668 303.095 68.535 302.963 68.3373 302.963C68.1396 302.963 68.0078 303.095 68.0078 303.293C68.0078 303.491 68.1396 303.623 68.3373 303.623Z" fill="#FF3C21"/>
<path d="M85.3729 303.952C85.7353 303.952 86.0319 303.655 86.0319 303.293C86.0319 302.93 85.7353 302.633 85.3729 302.633C85.0104 302.633 84.7139 302.93 84.7139 303.293C84.7139 303.655 85.0104 303.952 85.3729 303.952Z" fill="#FF3C21"/>
<path d="M102.373 304.214C102.901 304.214 103.329 303.801 103.329 303.291C103.329 302.781 102.901 302.367 102.373 302.367C101.846 302.367 101.418 302.781 101.418 303.291C101.418 303.801 101.846 304.214 102.373 304.214Z" fill="#FF3C21"/>
<path d="M119.376 304.446C120.035 304.446 120.562 303.918 120.562 303.291C120.562 302.665 120.035 302.137 119.376 302.137C118.717 302.137 118.189 302.665 118.189 303.291C118.189 303.918 118.717 304.446 119.376 304.446Z" fill="#FF3C21"/>
<path d="M136.378 304.644C137.142 304.644 137.762 304.039 137.762 303.292C137.762 302.545 137.142 301.939 136.378 301.939C135.614 301.939 134.994 302.545 134.994 303.292C134.994 304.039 135.614 304.644 136.378 304.644Z" fill="#FF3C21"/>
<path d="M153.379 304.743C154.203 304.743 154.829 304.083 154.829 303.291C154.829 302.5 154.17 301.84 153.379 301.84C152.589 301.84 151.93 302.5 151.93 303.291C151.93 304.083 152.589 304.743 153.379 304.743Z" fill="#FF3C21"/>
<path d="M170.381 304.775C171.218 304.775 171.897 304.111 171.897 303.291C171.897 302.471 171.218 301.807 170.381 301.807C169.544 301.807 168.865 302.471 168.865 303.291C168.865 304.111 169.544 304.775 170.381 304.775Z" fill="#FF3C21"/>
<path d="M187.385 304.775C188.222 304.775 188.9 304.111 188.9 303.291C188.9 302.471 188.222 301.807 187.385 301.807C186.548 301.807 185.869 302.471 185.869 303.291C185.869 304.111 186.548 304.775 187.385 304.775Z" fill="#FF3C21"/>
<path d="M204.384 304.644C205.148 304.644 205.768 304.039 205.768 303.292C205.768 302.545 205.148 301.939 204.384 301.939C203.62 301.939 203 302.545 203 303.292C203 304.039 203.62 304.644 204.384 304.644Z" fill="#FF3C21"/>
<path d="M221.388 304.446C222.047 304.446 222.575 303.918 222.575 303.291C222.575 302.665 222.047 302.137 221.388 302.137C220.729 302.137 220.202 302.665 220.202 303.291C220.202 303.918 220.729 304.446 221.388 304.446Z" fill="#FF3C21"/>
<path d="M238.389 304.28C238.935 304.28 239.377 303.837 239.377 303.29C239.377 302.744 238.935 302.301 238.389 302.301C237.843 302.301 237.4 302.744 237.4 303.29C237.4 303.837 237.843 304.28 238.389 304.28Z" fill="#FF3C21"/>
<path d="M255.391 303.985C255.787 303.985 256.083 303.688 256.083 303.292C256.083 302.896 255.754 302.6 255.391 302.6C255.029 302.6 254.699 302.896 254.699 303.292C254.699 303.688 255.029 303.985 255.391 303.985Z" fill="#FF3C21"/>
<path d="M272.426 303.655C272.626 303.655 272.788 303.493 272.788 303.293C272.788 303.092 272.626 302.93 272.426 302.93C272.226 302.93 272.063 303.092 272.063 303.293C272.063 303.493 272.226 303.655 272.426 303.655Z" fill="#FF3C21"/>
<path d="M289.427 303.391C289.427 303.391 289.526 303.358 289.526 303.292C289.526 303.226 289.493 303.193 289.427 303.193C289.361 303.193 289.328 303.226 289.328 303.292C289.328 303.358 289.361 303.391 289.427 303.391Z" fill="#FF3C21"/>
<path d="M68.336 320.117C68.336 320.117 68.3693 320.117 68.3693 320.084C68.3693 320.051 68.3693 320.051 68.336 320.051C68.3027 320.051 68.3027 320.051 68.3027 320.084C68.3027 320.117 68.3027 320.117 68.336 320.117Z" fill="#FF3C21"/>
<path d="M85.3725 320.281C85.4817 320.281 85.5702 320.192 85.5702 320.083C85.5702 319.973 85.4817 319.885 85.3725 319.885C85.2633 319.885 85.1748 319.973 85.1748 320.083C85.1748 320.192 85.2633 320.281 85.3725 320.281Z" fill="#FF3C21"/>
<path d="M102.374 320.479C102.604 320.479 102.802 320.281 102.802 320.05C102.802 319.819 102.604 319.621 102.374 319.621C102.143 319.621 101.945 319.819 101.945 320.05C101.945 320.281 102.143 320.479 102.374 320.479Z" fill="#FF3C21"/>
<path d="M119.376 320.741C119.738 320.741 120.035 320.444 120.035 320.082C120.035 319.719 119.738 319.422 119.376 319.422C119.013 319.422 118.717 319.719 118.717 320.082C118.717 320.444 119.013 320.741 119.376 320.741Z" fill="#FF3C21"/>
<path d="M136.38 320.874C136.816 320.874 137.17 320.52 137.17 320.083C137.17 319.645 136.816 319.291 136.38 319.291C135.943 319.291 135.589 319.645 135.589 320.083C135.589 320.52 135.943 320.874 136.38 320.874Z" fill="#FF3C21"/>
<path d="M153.381 320.973C153.875 320.973 154.27 320.577 154.27 320.082C154.27 319.587 153.875 319.191 153.381 319.191C152.887 319.191 152.491 319.587 152.491 320.082C152.491 320.577 152.887 320.973 153.381 320.973Z" fill="#FF3C21"/>
<path d="M170.381 321.007C170.909 321.007 171.337 320.594 171.337 320.084C171.337 319.574 170.909 319.16 170.381 319.16C169.854 319.16 169.426 319.574 169.426 320.084C169.426 320.594 169.854 321.007 170.381 321.007Z" fill="#FF3C21"/>
<path d="M187.385 320.973C187.876 320.973 188.274 320.574 188.274 320.082C188.274 319.59 187.876 319.191 187.385 319.191C186.893 319.191 186.495 319.59 186.495 320.082C186.495 320.574 186.893 320.973 187.385 320.973Z" fill="#FF3C21"/>
<path d="M204.386 320.874C204.822 320.874 205.176 320.52 205.176 320.083C205.176 319.645 204.822 319.291 204.386 319.291C203.949 319.291 203.595 319.645 203.595 320.083C203.595 320.52 203.949 320.874 204.386 320.874Z" fill="#FF3C21"/>
<path d="M221.388 320.741C221.751 320.741 222.047 320.444 222.047 320.082C222.047 319.719 221.751 319.422 221.388 319.422C221.026 319.422 220.729 319.719 220.729 320.082C220.729 320.444 221.026 320.741 221.388 320.741Z" fill="#FF3C21"/>
<path d="M238.389 320.545C238.653 320.545 238.85 320.347 238.85 320.083C238.85 319.819 238.653 319.621 238.389 319.621C238.125 319.621 237.928 319.819 237.928 320.083C237.928 320.347 238.125 320.545 238.389 320.545Z" fill="#FF3C21"/>
<path d="M255.39 320.281C255.499 320.281 255.588 320.192 255.588 320.083C255.588 319.973 255.499 319.885 255.39 319.885C255.281 319.885 255.192 319.973 255.192 320.083C255.192 320.192 255.281 320.281 255.39 320.281Z" fill="#FF3C21"/>
<path d="M272.428 320.117C272.428 320.117 272.461 320.117 272.461 320.084C272.461 320.051 272.461 320.051 272.428 320.051C272.395 320.051 272.395 320.051 272.395 320.084C272.395 320.117 272.395 320.117 272.428 320.117Z" fill="#FF3C21"/>
<path d="M102.373 336.905C102.373 336.905 102.406 336.905 102.406 336.871C102.406 336.838 102.406 336.838 102.373 336.838C102.34 336.838 102.34 336.838 102.34 336.871C102.34 336.905 102.34 336.905 102.373 336.905Z" fill="#FF3C21"/>
<path d="M119.376 337.006C119.376 337.006 119.508 336.94 119.508 336.874C119.508 336.808 119.442 336.742 119.376 336.742C119.31 336.742 119.244 336.808 119.244 336.874C119.244 336.94 119.31 337.006 119.376 337.006Z" fill="#FF3C21"/>
<path d="M136.377 337.102C136.377 337.102 136.608 337.003 136.608 336.872C136.608 336.74 136.509 336.641 136.377 336.641C136.245 336.641 136.146 336.74 136.146 336.872C136.146 337.003 136.245 337.102 136.377 337.102Z" fill="#FF3C21"/>
<path d="M153.379 337.171C153.577 337.171 153.709 337.04 153.709 336.842C153.709 336.644 153.577 336.512 153.379 336.512C153.182 336.512 153.05 336.644 153.05 336.842C153.05 337.04 153.182 337.171 153.379 337.171Z" fill="#FF3C21"/>
<path d="M170.381 337.171C170.579 337.171 170.711 337.04 170.711 336.842C170.711 336.644 170.579 336.512 170.381 336.512C170.184 336.512 170.052 336.644 170.052 336.842C170.052 337.04 170.184 337.171 170.381 337.171Z" fill="#FF3C21"/>
<path d="M187.382 337.171C187.58 337.171 187.712 337.04 187.712 336.842C187.712 336.644 187.58 336.512 187.382 336.512C187.185 336.512 187.053 336.644 187.053 336.842C187.053 337.04 187.185 337.171 187.382 337.171Z" fill="#FF3C21"/>
<path d="M204.385 337.137C204.385 337.137 204.682 337.005 204.682 336.873C204.682 336.741 204.55 336.609 204.385 336.609C204.221 336.609 204.089 336.741 204.089 336.873C204.089 337.005 204.221 337.137 204.385 337.137Z" fill="#FF3C21"/>
<path d="M221.388 337.006C221.388 337.006 221.519 336.94 221.519 336.874C221.519 336.808 221.454 336.742 221.388 336.742C221.322 336.742 221.256 336.808 221.256 336.874C221.256 336.94 221.322 337.006 221.388 337.006Z" fill="#FF3C21"/>
<path d="M238.39 336.905C238.39 336.905 238.423 336.905 238.423 336.871C238.423 336.838 238.423 336.838 238.39 336.838C238.356 336.838 238.356 336.838 238.356 336.871C238.356 336.905 238.356 336.905 238.39 336.905Z" fill="#FF3C21"/>
</svg>
