<svg width="32" height="32" viewBox="0 0 32 32" fill="none" xmlns="http://www.w3.org/2000/svg">
<path d="M19.4381 9.51639C19.4381 5.71439 16.356 2.63232 12.554 2.63232C8.75204 2.63232 5.66998 5.71445 5.66998 9.51639C5.66998 9.51639 5.66773 19.6103 5.66748 21.1868H19.4407C19.4403 19.6103 19.4381 9.51639 19.4381 9.51639Z" fill="#756E78"/>
<path d="M15.3451 6.74966V14.3673L14.3167 14.7217V21.1858H19.4412C19.4409 19.6094 19.4386 9.51547 19.4386 9.51547C19.4386 5.71347 16.3565 2.63135 12.5546 2.63135C12.2759 2.63135 12.0014 2.64835 11.7314 2.68054C13.7663 2.9206 15.3451 4.65022 15.3451 6.74966Z" fill="#665E66"/>
<path d="M18.6631 20.921C18.6631 20.921 16.0826 19.4415 16.0675 19.438C15.4768 19.3021 15.0538 18.7766 15.0538 18.1664V14.5796H10.0566V18.1664C10.0566 18.7766 9.63351 19.3021 9.04289 19.438C9.0277 19.4415 6.44727 20.921 6.44727 20.921H18.6631Z" fill="#FFDDCE"/>
<path d="M18.6629 20.3569H6.44697C3.17541 20.9866 0.811035 23.8494 0.811035 27.181V29.5094C0.811035 30.5534 1.65741 31.3998 2.70141 31.3998H22.4085C23.4525 31.3998 24.2988 30.5534 24.2988 29.5094V27.181C24.2988 23.8494 21.9345 20.9866 18.6629 20.3569Z" fill="#FFD064"/>
<path d="M17.4651 9.37465C15.9929 8.6274 15.3925 7.38828 15.1503 6.63459C15.0805 6.41697 14.7854 6.38928 14.6744 6.58909C13.6076 8.50903 11.4838 9.37472 9.03797 9.37472C8.99172 9.37472 8.39703 9.37472 7.64453 9.37472V12.4845C7.68503 15.1625 9.86722 17.3213 12.5548 17.3213C15.2425 17.3213 17.4246 15.1625 17.4651 12.4845V9.37465Z" fill="#FFDDCE"/>
<path d="M15.3451 7.14258V12.4844C15.3101 14.7996 13.6739 16.7255 11.4946 17.2052C11.8361 17.2803 12.1904 17.3212 12.5545 17.3212C15.2421 17.3212 17.4243 15.1625 17.4648 12.4845V9.37471C16.2898 8.77827 15.6704 7.86877 15.3451 7.14258Z" fill="#FFCBBE"/>
<path d="M18.9832 9.37305H17.4652V12.4828C17.4612 12.7522 17.4344 13.0159 17.3887 13.2731H18.9832C19.5246 13.2731 19.9636 12.8342 19.9636 12.2927V10.3534C19.9635 9.81198 19.5246 9.37305 18.9832 9.37305Z" fill="#9BC4F9"/>
<path d="M15.7604 16.4802H14.5731C14.1201 16.4802 13.7529 16.113 13.7529 15.66C13.7529 15.207 14.1201 14.8398 14.5731 14.8398H15.7604C16.2134 14.8398 16.5806 15.207 16.5806 15.66C16.5806 16.113 16.2134 16.4802 15.7604 16.4802Z" fill="#DB636E"/>
<path d="M22.0822 30.2076H3.02713L2.52169 20.896C2.47694 20.0712 3.13363 19.3779 3.95957 19.3779H21.1497C21.9756 19.3779 22.6323 20.0712 22.5876 20.896L22.0822 30.2076Z" fill="#EAF2FF"/>
<path d="M21.15 19.3779H17.0635C17.8894 19.3779 18.5462 20.0712 18.5014 20.896L17.9959 30.2076H22.0824L22.5879 20.896C22.6327 20.0712 21.976 19.3779 21.15 19.3779Z" fill="#DBE8F9"/>
<path d="M23.6316 29.46H1.47744C0.920313 29.46 0.46875 29.9116 0.46875 30.4686C0.46875 31.0258 0.920375 31.4773 1.47744 31.4773H23.6316C24.1887 31.4773 24.6403 31.0257 24.6403 30.4686C24.6403 29.9116 24.1887 29.46 23.6316 29.46Z" fill="#9BC4F9"/>
<path d="M23.632 29.46H20.5468V30.4686C20.5468 31.0257 20.0951 31.4773 19.5381 31.4773H23.632C24.1891 31.4773 24.6407 31.0257 24.6407 30.4686C24.6407 29.9116 24.1891 29.46 23.632 29.46Z" fill="#7FB2F9"/>
<path d="M30.1673 0.46875H22.2773C21.5239 0.46875 20.9131 1.07956 20.9131 1.833V5.77906C20.9131 6.5325 21.5239 7.14331 22.2773 7.14331C22.7174 7.14331 23.0741 7.5 23.0741 7.94006V10.3804C23.0741 10.6902 23.4821 10.8031 23.6415 10.5374L25.4448 7.53031C25.5887 7.29025 25.8481 7.14331 26.1281 7.14331H30.1674C30.9208 7.14331 31.5316 6.5325 31.5316 5.77906V1.83306C31.5316 1.07956 30.9208 0.46875 30.1673 0.46875Z" fill="#B3E59F"/>
<path d="M30.1673 0.46875H26.0808C26.8343 0.46875 27.4451 1.07956 27.4451 1.833V5.77906C27.4451 6.5325 26.8343 7.14331 26.0808 7.14331H22.2773C22.7174 7.14331 23.0741 7.5 23.0741 7.94006V10.3804C23.0741 10.6902 23.4822 10.8031 23.6415 10.5374L25.4448 7.53031C25.5887 7.29025 25.8482 7.14331 26.1281 7.14331H30.1674C30.9208 7.14331 31.5317 6.5325 31.5317 5.77906V1.83306C31.5316 1.07956 30.9208 0.46875 30.1673 0.46875Z" fill="#95D6A4"/>
<path d="M10.4492 27.1673C11.0022 27.7817 11.3119 28.5764 11.3119 29.403V29.4593H13.8293V29.403C13.8293 28.5764 14.139 27.7817 14.692 27.1673C14.6962 27.1627 14.7003 27.1581 14.7044 27.1535C15.1567 26.6475 15.4317 25.9797 15.4317 25.2476C15.4317 24.1807 14.8477 23.2502 13.9819 22.7583C13.8177 22.665 13.6136 22.7824 13.6136 22.9713V25.0998C13.6136 25.4567 13.3243 25.7459 12.9676 25.7459H12.1735C11.8167 25.7459 11.5275 25.4566 11.5275 25.0998V22.9713C11.5275 22.7824 11.3235 22.665 11.1592 22.7583C10.2935 23.2502 9.70947 24.1807 9.70947 25.2476C9.70947 25.9797 9.98447 26.6475 10.4368 27.1535C10.4409 27.1581 10.445 27.1627 10.4492 27.1673Z" fill="#BCD6F9"/>
<path d="M7.64437 12.4833V9.37354H6.12643C5.585 9.37354 5.146 9.81247 5.146 10.354V12.2932C5.146 12.8347 5.58493 13.2737 6.12643 13.2737H7.72093C7.67518 13.0164 7.64843 12.7527 7.64437 12.4833Z" fill="#9BC4F9"/>
<path d="M29.4303 2.30957H25.3369C25.078 2.30957 24.8682 2.51945 24.8682 2.77832C24.8682 3.0372 25.078 3.24707 25.3369 3.24707H29.4302C29.6892 3.24707 29.899 3.0372 29.899 2.77832C29.899 2.51945 29.6892 2.30957 29.4303 2.30957Z" fill="black"/>
<path d="M23.0132 3.24707H23.5121C23.771 3.24707 23.9808 3.0372 23.9808 2.77832C23.9808 2.51945 23.771 2.30957 23.5121 2.30957H23.0132C22.7542 2.30957 22.5444 2.51945 22.5444 2.77832C22.5444 3.0372 22.7542 3.24707 23.0132 3.24707Z" fill="black"/>
<path d="M23.0132 5.45312H29.4309C29.6899 5.45312 29.8997 5.24325 29.8997 4.98438C29.8997 4.7255 29.6899 4.51562 29.4309 4.51562H23.0132C22.7542 4.51562 22.5444 4.7255 22.5444 4.98438C22.5444 5.24325 22.7542 5.45312 23.0132 5.45312Z" fill="black"/>
<path d="M24.7672 29.5101V27.1817C24.7672 25.4043 24.1331 23.697 22.9779 22.3511L23.0555 20.9205C23.1146 19.8304 22.2496 18.9083 21.1496 18.9083H19.9094L19.9084 14.3188C19.9085 14.3093 19.9091 14.2998 19.9091 14.2902V13.4086C20.2283 13.1426 20.4319 12.7423 20.4319 12.2953V10.356C20.4319 9.90526 20.225 9.50201 19.9013 9.23601C19.753 5.31376 16.5086 2.16357 12.5545 2.16357C8.60037 2.16357 5.356 5.3137 5.20775 9.23595C4.88394 9.50195 4.67706 9.9052 4.67706 10.356V12.2953C4.67706 12.7428 4.88106 13.1435 5.20081 13.4095L5.19956 18.9083H3.9595C2.86794 18.9083 1.99394 19.822 2.05356 20.9205L2.13119 22.3511C0.975937 23.697 0.341875 25.4043 0.341875 27.1817V29.5101C0.341875 29.5151 0.34225 29.52 0.34225 29.525C0.128687 29.7812 0 30.1105 0 30.4693C0 31.284 0.66275 31.9468 1.4775 31.9468H23.6317C24.4463 31.9468 25.1091 31.2841 25.1091 30.4693C25.1091 30.1105 24.9804 29.7812 24.7669 29.525C24.7669 29.52 24.7672 29.5151 24.7672 29.5101ZM23.8297 27.1817V29.0056C23.7649 28.9968 23.6988 28.9919 23.6316 28.9919H22.6174L22.8974 23.8346C23.5036 24.8382 23.8297 25.9918 23.8297 27.1817ZM15.9768 18.9083C15.6981 18.7659 15.5219 18.4827 15.5219 18.166V16.9492H15.7602C16.2754 16.9492 16.7198 16.6446 16.9259 16.2066H17.9928C18.3501 16.2066 18.6847 16.1081 18.9713 15.9371L18.9719 18.9083H15.9768ZM6.12631 12.8069C5.84419 12.8069 5.61462 12.5774 5.61462 12.2952V10.356C5.61462 10.0738 5.84419 9.84426 6.12631 9.84426H7.1755V12.4853C7.1755 12.4876 7.1755 12.49 7.17556 12.4923C7.17719 12.5978 7.18275 12.7025 7.19031 12.8068H6.12631V12.8069ZM8.181 13.1878C8.18038 13.1845 8.17981 13.1811 8.17912 13.1778C8.06388 12.5132 8.13356 12.2496 8.11294 9.84426H9.03763C11.6669 9.84426 13.7137 8.90626 14.856 7.19151C15.1652 7.93295 15.7859 8.9522 16.9961 9.65414V12.4815C16.9844 13.2149 16.7939 13.9275 16.438 14.5659C16.2408 14.4433 16.009 14.3712 15.7602 14.3712H14.5729C13.8622 14.3712 13.284 14.9494 13.284 15.6601C13.284 16.0748 13.4816 16.4432 13.7866 16.6791C12.2918 17.1102 10.6191 16.7412 9.43581 15.5741C8.77163 14.9191 8.3395 14.0895 8.181 13.1878ZM18.9828 9.84433C19.2649 9.84433 19.4945 10.0738 19.4945 10.356V12.2953C19.4945 12.5774 19.2649 12.8069 18.9828 12.8069H17.9188C17.9264 12.7026 17.9319 12.5979 17.9336 12.4925C17.9336 12.4901 17.9336 12.4878 17.9336 12.4854V9.84445H18.9828V9.84433ZM16.1116 15.6603C16.1116 15.854 15.954 16.0117 15.7602 16.0117C15.4069 16.0117 14.97 16.0117 14.5729 16.0117C14.3791 16.0117 14.2215 15.8541 14.2215 15.6603C14.2215 15.4665 14.3791 15.3088 14.5729 15.3088H15.7602C15.9554 15.3088 16.1116 15.4696 16.1116 15.6603ZM17.7673 13.7444H18.9708L18.9709 14.3046C18.9631 14.8377 18.5276 15.2691 17.9928 15.2691H17.1112C17.4098 14.7948 17.6302 14.2817 17.7673 13.7444ZM10.5247 17.3956C11.7979 17.9141 13.2646 17.9321 14.5844 17.3934V18.166C14.5844 18.429 14.6421 18.6807 14.7468 18.9083H10.3623C10.467 18.6807 10.5247 18.429 10.5247 18.166V17.3956ZM12.5546 3.10101C15.881 3.10101 18.6316 5.65626 18.9403 8.90683H17.5806C16.3761 8.2577 15.8368 7.24064 15.5963 6.4922C15.5074 6.21551 15.2634 6.01826 14.9744 5.98982C14.6842 5.96164 14.4059 6.10751 14.2644 6.36232C13.3526 8.0032 11.4964 8.90683 9.03769 8.90683C8.76219 8.90683 6.43131 8.90683 6.16888 8.90683C6.47744 5.65626 9.22806 3.10101 12.5546 3.10101ZM6.13831 13.7444H7.34194C7.58075 14.6839 8.07056 15.5445 8.7775 16.2417C9.02844 16.4892 9.29969 16.709 9.58719 16.8998V18.166C9.58719 18.4828 9.41088 18.766 9.13231 18.9083H6.13713L6.13831 13.7444ZM2.21169 23.8347L2.30475 25.5495C2.31881 25.8081 2.54056 26.0068 2.79825 25.9922C3.05675 25.9782 3.255 25.7573 3.24094 25.4988L2.98969 20.8698C2.95963 20.3151 3.39969 19.8458 3.9595 19.8458H21.1496C21.7051 19.8458 22.1499 20.3108 22.1194 20.8698L21.6786 28.992H14.3281C14.4097 28.4348 14.6554 27.9096 15.0413 27.481L15.0536 27.4672C16.4736 25.8785 16.0481 23.3947 14.2133 22.3521C13.7417 22.0841 13.1446 22.419 13.1446 22.9726V25.1012C13.1446 25.199 13.0651 25.2785 12.9673 25.2785H12.1731C12.0754 25.2785 11.9959 25.199 11.9959 25.1012V22.9726C11.9959 22.4189 11.3986 22.0841 10.9272 22.3521C9.09456 23.3935 8.66375 25.8753 10.0901 27.4709L10.1003 27.4823C10.4852 27.9099 10.7307 28.435 10.8123 28.992H3.43056L3.35956 27.6839C3.34556 27.4254 3.1235 27.2275 2.86606 27.2412C2.60756 27.2552 2.40931 27.4761 2.42337 27.7346L2.49163 28.992H1.4775C1.41031 28.992 1.34425 28.9969 1.27937 29.0056V27.1818C1.27937 25.9918 1.6055 24.8382 2.21169 23.8347ZM11.7568 28.9919C11.6702 28.2024 11.3375 27.4554 10.796 26.8538L10.7858 26.8424C9.87762 25.8265 10.0026 24.258 11.0583 23.3948V25.1011C11.0583 25.7158 11.5584 26.2158 12.1731 26.2158H12.9672C13.5819 26.2158 14.082 25.7158 14.082 25.1011V23.3948C15.1369 24.2574 15.2634 25.8256 14.3547 26.8422L14.3432 26.855C13.8026 27.4555 13.4701 28.2024 13.3835 28.9919H11.7568ZM23.6316 31.0093H1.4775C1.17975 31.0093 0.9375 30.7671 0.9375 30.4693C0.9375 30.1716 1.17975 29.9294 1.4775 29.9294H23.6317C23.9294 29.9294 24.1716 30.1716 24.1716 30.4693C24.1716 30.7671 23.9294 31.0093 23.6316 31.0093Z" fill="black"/>
<path d="M31.5316 3.35606C31.7905 3.35606 32.0003 3.14619 32.0003 2.88731V1.833C32.0003 0.822312 31.1781 0 30.1673 0H22.2773C21.2666 0 20.4443 0.822312 20.4443 1.833V5.77906C20.4443 6.78975 21.2666 7.61206 22.2773 7.61206C22.4582 7.61206 22.6053 7.75919 22.6053 7.94006V10.3804C22.6053 11.168 23.6412 11.4494 24.0434 10.7786L25.8468 7.77131C25.9056 7.67312 26.0135 7.61206 26.128 7.61206H30.1673C31.1781 7.61206 32.0003 6.78975 32.0003 5.77906V5.08056C32.0003 4.82169 31.7905 4.61181 31.5316 4.61181C31.2726 4.61181 31.0628 4.82169 31.0628 5.08056V5.77906C31.0628 6.27281 30.6611 6.67456 30.1673 6.67456H26.128C25.6859 6.67456 25.27 6.91012 25.0428 7.28919L23.5428 9.79037V7.94006C23.5428 7.24225 22.9751 6.67456 22.2773 6.67456C21.7836 6.67456 21.3818 6.27281 21.3818 5.77906V1.833C21.3818 1.33925 21.7836 0.9375 22.2773 0.9375H30.1673C30.6611 0.9375 31.0628 1.33925 31.0628 1.833V2.88731C31.0628 3.14625 31.2726 3.35606 31.5316 3.35606Z" fill="black"/>
</svg>
