<svg width="24" height="20" viewBox="0 0 24 20" fill="none" xmlns="http://www.w3.org/2000/svg">
<path d="M22.2795 0H1.7206C0.771845 0 0 0.71744 0 1.59932V18.4611C0 19.1908 0.637548 19.7844 1.42111 19.7844H22.5789C23.3625 19.7844 24 19.1908 24 18.4611V1.59932C24 0.71744 23.2282 0 22.2795 0ZM0.937502 1.59932C0.937502 1.19697 1.28878 0.869616 1.7206 0.869616H22.2795C22.7113 0.869616 23.0625 1.19697 23.0625 1.59932V4.18334H0.937502V1.59932ZM23.0625 18.4611C23.0625 18.7113 22.8456 18.9149 22.5789 18.9149H1.42111C1.15439 18.9149 0.937502 18.7113 0.937502 18.4611V5.05287H23.0625V18.4611Z" fill="#FFFFFF"/>
<path d="M15.4208 2.09167H14.791C14.5322 2.09167 14.3223 2.28638 14.3223 2.52649C14.3223 2.76659 14.5322 2.9613 14.791 2.9613H15.4208C15.6796 2.9613 15.8895 2.76659 15.8895 2.52649C15.8895 2.28634 15.6796 2.09167 15.4208 2.09167Z" fill="#FFFFFF"/>
<path d="M18.3333 2.09167H17.7036C17.4448 2.09167 17.2349 2.28638 17.2349 2.52649C17.2349 2.76659 17.4448 2.9613 17.7036 2.9613H18.3333C18.5921 2.9613 18.802 2.76659 18.802 2.52649C18.802 2.28634 18.5921 2.09167 18.3333 2.09167Z" fill="#FFFFFF"/>
<path d="M21.2459 2.09167H20.6162C20.3574 2.09167 20.1475 2.28638 20.1475 2.52649C20.1475 2.76659 20.3574 2.9613 20.6162 2.9613H21.2459C21.5047 2.9613 21.7146 2.76659 21.7146 2.52649C21.7146 2.28634 21.5047 2.09167 21.2459 2.09167Z" fill="#FFFFFF"/>
<path d="M7.88537 2.09167H3.34083C3.08198 2.09167 2.87207 2.28638 2.87207 2.52649C2.87207 2.76659 3.08198 2.9613 3.34083 2.9613H7.88537C8.14422 2.9613 8.35413 2.76659 8.35413 2.52649C8.35413 2.28634 8.14422 2.09167 7.88537 2.09167Z" fill="#FFFFFF"/>
<path d="M12.0001 17.6058C15.3239 17.6058 18.0183 15.1066 18.0183 12.0237C18.0183 8.94084 15.3239 6.44165 12.0001 6.44165C8.67637 6.44165 5.98193 8.94084 5.98193 12.0237C5.98193 15.1066 8.67637 17.6058 12.0001 17.6058Z" fill="#FFFFFF" fill-opacity="0.2"/>
<path d="M13.8747 11.988C14.2125 11.6026 14.4152 11.1114 14.4152 10.5772C14.4152 9.34202 13.3318 8.3371 12.0001 8.3371C10.6685 8.3371 9.58511 9.34198 9.58511 10.5772C9.58511 11.1113 9.78771 11.6023 10.1254 11.9877C9.46553 12.3201 9.01904 12.9702 9.01904 13.7053V15.1955C9.01904 15.4356 9.22895 15.6302 9.4878 15.6302H14.5124C14.7713 15.6302 14.9812 15.4356 14.9812 15.1955V13.7053C14.9812 12.9716 14.5343 12.321 13.8747 11.988ZM12.0001 9.20667C12.8148 9.20667 13.4777 9.82146 13.4777 10.5772C13.4777 11.3328 12.8148 11.9476 12.0001 11.9476C11.1854 11.9476 10.5226 11.3328 10.5226 10.5772C10.5226 9.82146 11.1854 9.20667 12.0001 9.20667ZM14.0437 14.7607H9.9566V13.7053C9.9566 13.1445 10.4247 12.673 11.0249 12.6263C11.3233 12.749 11.6533 12.8172 12.0002 12.8172C12.3471 12.8172 12.6771 12.749 12.9755 12.6263C13.5751 12.6729 14.0438 13.1456 14.0438 13.7053V14.7607H14.0437Z" fill="#FFFFFF"/>
</svg>
