<svg width="151" height="162" viewBox="0 0 151 162" fill="none" xmlns="http://www.w3.org/2000/svg">
<path d="M144.972 52.0118C148.428 5.00877 109.877 23.9615 83.4526 13.9926C54.3409 3.00991 39.2097 -4.67189 20.5462 7.76991C3.35066 19.2331 0.497252 41.6419 0.5 54.7771C0.502751 67.9123 16.0053 160.536 63.4038 160.536C110.802 160.536 141.517 99.0148 144.972 52.0118Z" fill="#F5F5F5" stroke="#F5F5F5"/>
<g clipPath="url(#clip0)">
<path d="M54.7566 101.781C53.6451 101.781 52.5958 101.184 52.0359 100.18L47.4985 92.0137V98.6704C47.4985 100.387 46.105 101.781 44.3879 101.781C42.6709 101.781 41.2773 100.387 41.2773 98.6704V80.0068C41.2773 78.5884 42.2354 77.3483 43.6082 76.9916C44.9727 76.6432 46.416 77.2529 47.1087 78.493L51.646 86.6635V80.0068C51.646 78.2898 53.0395 76.8962 54.7566 76.8962C56.4736 76.8962 57.8672 78.2898 57.8672 80.0068V98.6704C57.8672 100.089 56.9091 101.329 55.5363 101.686L54.7566 101.781Z" fill="#F44336"/>
<path d="M71.3591 101.779H69.2854C65.2831 101.779 62.0273 98.5236 62.0273 94.5213V84.1526C62.0273 80.1503 65.2831 76.8945 69.2854 76.8945H71.3591C75.3614 76.8945 78.6172 80.1503 78.6172 84.1526V94.5213C78.6172 98.5236 75.3614 101.779 71.3591 101.779ZM69.2854 83.1157C68.713 83.1157 68.2485 83.5802 68.2485 84.1526V94.5213C68.2485 95.0936 68.713 95.5581 69.2854 95.5581H71.3591C71.9315 95.5581 72.396 95.0936 72.396 94.5213V84.1526C72.396 83.5802 71.9315 83.1157 71.3591 83.1157H69.2854Z" fill="#F44336"/>
<path d="M91.0481 101.788C89.331 101.788 87.9375 100.395 87.9375 98.6779V80.0143C87.9375 78.2973 94.1587 78.2973 94.1587 80.0143V98.6779C94.1587 100.395 92.7651 101.788 91.0481 101.788Z" fill="#F44336"/>
<path d="M96.2371 83.1157H85.8684C84.1514 83.1157 82.7578 81.7222 82.7578 80.0051C82.7578 78.2881 84.1514 76.8945 85.8684 76.8945H96.2371C97.9541 76.8945 99.3476 78.2881 99.3476 80.0051C99.3476 81.7222 97.9541 83.1157 96.2371 83.1157Z" fill="#F44336"/>
<path d="M112.82 134.963H106.599C104.882 134.963 103.488 133.569 103.488 131.852V113.189C103.488 111.472 104.882 110.078 106.599 110.078H112.82C116.822 110.078 120.078 113.334 120.078 117.336V127.705C120.078 131.707 116.822 134.963 112.82 134.963ZM109.71 128.742H112.82C113.392 128.742 113.857 128.277 113.857 127.705V117.336C113.857 116.764 113.392 116.299 112.82 116.299H109.71V128.742Z" fill="#F44336"/>
<path d="M23.6575 134.963C21.9404 134.963 20.5469 133.569 20.5469 131.852V117.336C20.5469 113.334 23.8026 110.078 27.8049 110.078H34.0261C35.7432 110.078 37.1367 111.472 37.1367 113.189C37.1367 114.906 35.7432 116.299 34.0261 116.299H27.8049C27.2326 116.299 26.7681 116.764 26.7681 117.336V131.852C26.7681 133.569 25.3745 134.963 23.6575 134.963Z" fill="#F44336"/>
<path d="M34.0275 126.667H23.6589C21.9418 126.667 21.9418 120.445 23.6589 120.445H34.0275C35.7446 120.445 37.1381 121.839 37.1381 123.556C37.1381 125.273 35.7446 126.667 34.0275 126.667Z" fill="#F44336"/>
<path d="M96.2371 134.966C95.1255 134.966 94.0762 134.369 93.5163 133.365L88.979 125.194V131.851C88.979 133.568 87.5855 134.962 85.8684 134.962C84.1514 134.962 82.7578 133.572 82.7578 131.855V113.192C82.7578 111.773 83.7159 110.533 85.0887 110.176C86.4532 109.824 87.8965 110.442 88.5891 111.678L93.1265 119.848V113.192C93.1265 111.475 94.52 110.081 96.2371 110.081C97.9541 110.081 99.3476 111.475 99.3476 113.192V131.855C99.3476 133.274 98.3896 134.514 97.0168 134.87L96.2371 134.966Z" fill="#F44336"/>
<path d="M50.6091 134.963H48.5354C44.5331 134.963 41.2773 131.707 41.2773 127.705V117.336C41.2773 113.334 44.5331 110.078 48.5354 110.078H50.6091C54.6114 110.078 57.8672 113.334 57.8672 117.336V127.705C57.8672 131.707 54.6114 134.963 50.6091 134.963ZM48.5354 116.299C47.963 116.299 47.4985 116.764 47.4985 117.336V127.705C47.4985 128.277 47.963 128.742 48.5354 128.742H50.6091C51.1815 128.742 51.646 128.277 51.646 127.705V117.336C51.646 116.764 51.1815 116.299 50.6091 116.299H48.5354Z" fill="#F44336"/>
<path d="M71.3591 134.963H69.2854C65.2831 134.963 62.0273 131.707 62.0273 127.705V113.189C62.0273 111.472 63.4209 110.078 65.1379 110.078C66.855 110.078 68.2485 111.472 68.2485 113.189V127.705C68.2485 128.277 68.713 128.742 69.2854 128.742H71.3591C71.9315 128.742 72.396 128.277 72.396 127.705V113.189C72.396 111.472 73.7895 110.078 75.5066 110.078C77.2236 110.078 78.6172 111.472 78.6172 113.189V127.705C78.6172 131.707 75.3614 134.963 71.3591 134.963Z" fill="#F44336"/>
<path d="M120.086 47.8643V103.648C117.929 102.486 115.482 101.781 112.828 101.781H111.791V56.1592H28.8418V101.781H27.8049C25.1506 101.781 22.7036 102.486 20.5469 103.648V47.8643C20.5469 41.021 26.146 35.4219 32.9893 35.4219H107.644C114.487 35.4219 120.086 41.021 120.086 47.8643Z" fill="#607D8B"/>
<path d="M111.785 56.1523V101.774H106.601C104.776 101.774 103.117 102.231 101.582 102.977C102.122 101.65 102.453 100.198 102.453 98.6639V86.9265C104.403 85.1846 105.564 82.7376 105.564 80.0003C105.564 74.8574 101.375 70.6685 96.2323 70.6685H93.9097C92.9972 70.5026 92.0848 70.4196 91.0479 70.4196C90.0111 70.4196 89.0986 70.5026 88.2277 70.6685H85.8636C84.1217 70.6685 82.4627 71.2076 81.0111 72.0786C78.3567 69.9219 75.0387 68.5947 71.3475 68.5947H69.2737C66.412 68.5947 63.7576 69.4242 61.435 70.7929C59.5687 69.4242 57.2461 68.5947 54.7576 68.5947C52.8912 68.5947 51.1078 69.051 49.5733 69.839C47.8728 68.968 45.9235 68.4703 43.9742 68.5947L39.2046 69.839C35.4304 71.7468 32.9834 75.6454 32.9834 80.0003V98.6639C32.9834 99.7422 33.1908 100.779 33.4811 101.774H28.8359V56.1523H111.785Z" fill="white"/>
<path d="M54.7566 76.9023C53.0395 76.9023 51.646 78.2959 51.646 80.0129V86.6696L47.1087 78.4991C46.5446 77.4954 45.487 76.9023 44.3796 76.9023C44.1225 76.9023 43.8654 76.9355 43.6082 76.9977C42.2354 77.3544 41.2773 78.5945 41.2773 80.0129V98.6765C41.2773 100.394 42.6709 101.787 44.3879 101.787C46.105 101.787 47.4985 100.394 47.4985 98.6765V92.0199L52.0359 100.19C52.5958 101.19 53.6451 101.787 54.7566 101.787L55.5363 101.692C56.9091 101.335 57.8672 100.095 57.8672 98.6765V80.0129C57.8672 78.2959 56.4736 76.9023 54.7566 76.9023Z" fill="#D43A2F"/>
<path d="M70.3223 76.9023H69.2854C65.2831 76.9023 62.0273 80.1581 62.0273 84.1604V94.5291C62.0273 98.5314 65.2831 101.787 69.2854 101.787H70.3223V95.5659H69.2854C68.713 95.5659 68.2485 95.1014 68.2485 94.5291V84.1604C68.2485 83.5881 68.713 83.1235 69.2854 83.1235H70.3223V76.9023Z" fill="#D43A2F"/>
<path d="M34.0261 110.078H27.8049C23.8026 110.078 20.5469 113.334 20.5469 117.336V131.852C20.5469 133.569 21.9404 134.963 23.6575 134.963C25.3745 134.963 26.7681 133.569 26.7681 131.852V126.668H23.6575C21.9404 126.668 21.9404 120.447 23.6575 120.447H26.7681V117.336C26.7681 116.764 27.2326 116.299 27.8049 116.299H34.0261C35.7432 116.299 37.1367 114.906 37.1367 113.189C37.1367 111.472 35.7432 110.078 34.0261 110.078Z" fill="#D43A2F"/>
<path d="M34.0275 120.453H26.7695H23.6589C21.9418 120.453 21.9418 126.674 23.6589 126.674H26.7695H34.0275C35.7446 126.674 37.1381 125.281 37.1381 123.564C37.1381 121.847 35.7446 120.453 34.0275 120.453Z" fill="#D43A2F"/>
<path d="M48.5354 128.742C47.963 128.742 47.4985 128.277 47.4985 127.705V117.336C47.4985 116.764 47.963 116.299 48.5354 116.299H50.6091C51.1815 116.299 51.646 116.764 51.646 117.336V127.705C51.646 128.277 51.1815 128.742 50.6091 128.742H48.5354ZM50.6091 110.078H48.5354C44.5331 110.078 41.2773 113.334 41.2773 117.336V127.705C41.2773 131.707 44.5331 134.963 48.5354 134.963H50.6091C54.6114 134.963 57.8672 131.707 57.8672 127.705V117.336C57.8672 113.334 54.6114 110.078 50.6091 110.078Z" fill="#D43A2F"/>
<path d="M65.1379 110.078C63.4209 110.078 62.0273 111.472 62.0273 113.189V127.705C62.0273 131.707 65.2831 134.963 69.2854 134.963H70.3223V128.742H69.2854C68.713 128.742 68.2485 128.277 68.2485 127.705V113.189C68.2485 111.472 66.855 110.078 65.1379 110.078Z" fill="#D43A2F"/>
<path d="M70.3165 35.4219H32.9893C26.146 35.4219 20.5469 41.021 20.5469 47.8643V103.648C22.7036 102.486 25.1506 101.781 27.8049 101.781H28.8418V56.1592H70.3165V35.4219Z" fill="#546D79"/>
<path d="M70.3106 56.1523H28.8359V101.774H33.4811C33.1908 100.779 32.9834 99.7422 32.9834 98.6638V80.0002C32.9834 75.6454 35.4304 71.7468 39.2046 69.839L43.9742 68.5947C44.1733 68.5823 44.3765 68.574 44.5756 68.574C46.3217 68.574 48.047 69.0551 49.5733 69.839C51.1078 69.0509 52.8912 68.5947 54.7576 68.5947C57.2461 68.5947 59.5687 69.4242 61.435 70.7929C63.7576 69.4242 66.412 68.5947 69.2737 68.5947H70.3106V56.1523Z" fill="#DEDEDE"/>
</g>
<circle cx="142.205" cy="29.8887" r="8.29493" fill="#607D8B"/>
<circle cx="142.206" cy="29.89" r="2.76498" fill="white"/>
<defs>
<clipPath id="clip0">
<rect width="99.5392" height="99.5392" fill="white" transform="translate(20.5469 35.4219)"/>
</clipPath>
</defs>
</svg>
