<svg xmlns="http://www.w3.org/2000/svg" enableBackground="new 0 0 66 66" viewBox="0 0 66 82.5" x="0px" y="0px"><g><path d="m49 41c-6.62 0-12 5.38-12 12 0 3.77 1.75 7.13 4.47 9.33h-32.47c-.74 0-1.33-.6-1.33-1.33v-41.33h12c2.21 0 4-1.79 4-4v-12h25.33c.74 0 1.33.6 1.33 1.33v32.35c0 .74.6 1.33 1.33 1.33.74 0 1.33-.6 1.33-1.33v-32.35c0-2.21-1.79-4-4-4h-26.66c-.03 0-.48 0-.94.39l-16 16c-.39.45-.39.91-.39.94v42.67c0 2.21 1.79 4 4 4h40c6.62 0 12-5.38 12-12s-5.38-12-12-12zm-28-35.45v10.11c0 .74-.6 1.34-1.33 1.34h-10.12zm28 56.78c-5.15 0-9.33-4.19-9.33-9.33s4.19-9.33 9.33-9.33 9.33 4.19 9.33 9.33-4.18 9.33-9.33 9.33z"/><path d="m49.94 46.72c-.52-.52-1.36-.52-1.89 0l-4 4c-.52.52-.52 1.36 0 1.89.52.52 1.36.52 1.89 0l1.72-1.72v7.45c0 .74.6 1.33 1.33 1.33.74 0 1.33-.6 1.33-1.33v-7.45l1.72 1.72c.87.7 1.63.26 1.89 0 .52-.52.52-1.36 0-1.89z"/><path d="m43.67 22.33h-29.34c-.74 0-1.33.6-1.33 1.33s.6 1.34 1.33 1.34h29.33c.74 0 1.34-.6 1.34-1.33s-.6-1.34-1.33-1.34z"/><path d="m43.67 29h-29.34c-.73 0-1.33.6-1.33 1.33 0 .74.6 1.33 1.33 1.33h29.33c.74 0 1.33-.6 1.33-1.33.01-.73-.59-1.33-1.32-1.33z"/><path d="m45 37c0-.74-.6-1.33-1.33-1.33h-29.34c-.73 0-1.33.59-1.33 1.33s.6 1.33 1.33 1.33h29.33c.74 0 1.34-.59 1.34-1.33z"/><path d="m33 42.33h-18.67c-.74 0-1.33.6-1.33 1.33 0 .74.6 1.34 1.33 1.34h18.67c.74 0 1.33-.6 1.33-1.33 0-.74-.59-1.34-1.33-1.34z"/><path d="m33 49h-18.67c-.73 0-1.33.6-1.33 1.33 0 .74.6 1.33 1.33 1.33h18.67c.74 0 1.33-.6 1.33-1.33s-.59-1.33-1.33-1.33z"/></g></svg>