<svg width="80" height="80" viewBox="0 0 80 80" fill="none" xmlns="http://www.w3.org/2000/svg">
<g filter="url(#filter0_d)">
<path d="M63.5547 6H16.4453C12.8914 6 10 8.89137 10 12.4453V59.5547C10 63.1086 12.8914 66 16.4453 66H63.5547C67.1086 66 70 63.1086 70 59.5547V12.4453C70 8.89137 67.1086 6 63.5547 6Z" fill="#E2DFF4"/>
<path d="M63.5547 6H40V66H63.5547C67.1086 66 70 63.1086 70 59.5547V12.4453C70 8.89137 67.1086 6 63.5547 6Z" fill="#E2DFF4"/>
<path d="M66.4844 59.5547C66.4844 61.1701 65.1701 62.4844 63.5547 62.4844H16.4453C14.8299 62.4844 13.5156 61.1701 13.5156 59.5547V49.5938H66.4844V59.5547Z" fill="#E2DFF4"/>
<path d="M40 62.25H63.3462C64.9474 62.25 66.25 60.9501 66.25 59.3523V49.5H40V62.25Z" fill="#BEBCDD"/>
<path d="M40 62.25L16.6538 62.25C15.0526 62.25 13.75 60.9501 13.75 59.3523L13.75 49.5L40 49.5V62.25Z" fill="#BEBCDD"/>
<path d="M61.0938 57.7969H18.9062C17.9355 57.7969 17.1484 57.0098 17.1484 56.0391C17.1484 55.0683 17.9355 54.2812 18.9062 54.2812H61.0938C62.0645 54.2812 62.8516 55.0683 62.8516 56.0391C62.8516 57.0098 62.0645 57.7969 61.0938 57.7969Z" fill="#6B61B1"/>
<path d="M61.0938 54.2812H40V57.7969H61.0938C62.0645 57.7969 62.8516 57.0098 62.8516 56.0391C62.8516 55.0683 62.0645 54.2812 61.0938 54.2812Z" fill="#38336B"/>
<path d="M44.6875 60.1406C43.7167 60.1406 42.9297 59.3536 42.9297 58.3828V53.6953C42.9297 52.7245 43.7167 51.9375 44.6875 51.9375C45.6583 51.9375 46.4453 52.7245 46.4453 53.6953V58.3828C46.4453 59.3536 45.6583 60.1406 44.6875 60.1406Z" fill="#E2DFF4"/>
<path d="M58.1641 22.9922V33.5391C58.1641 34.5098 58.9511 35.2969 59.9219 35.2969C60.8927 35.2969 61.6797 34.5098 61.6797 33.5391V22.9922H58.1641Z" fill="#FFB454"/>
<path d="M51.7188 37.6406H28.2812C27.3105 37.6406 26.5234 36.8536 26.5234 35.8828V24.1641C26.5234 23.1933 27.3105 22.4062 28.2812 22.4062H51.7188C52.6895 22.4062 53.4766 23.1933 53.4766 24.1641V35.8828C53.4766 36.8536 52.6895 37.6406 51.7188 37.6406Z" fill="#6B61B1"/>
<path d="M51.7188 22.4062H40V37.6406H51.7188C52.6895 37.6406 53.4766 36.8536 53.4766 35.8828V24.1641C53.4766 23.1933 52.6895 22.4062 51.7188 22.4062Z" fill="#38336B"/>
<path d="M40 30.6085C39.833 30.6085 39.6659 30.5847 39.5041 30.5371L19.5822 24.6777C18.8341 24.4577 18.3203 23.7711 18.3203 22.9913C18.3203 22.2115 18.8341 21.5249 19.5822 21.3049L39.5041 15.4455C39.8279 15.3502 40.1721 15.3502 40.4961 15.4455L60.4179 21.3049C61.1659 21.5249 61.6797 22.2115 61.6797 22.9913C61.6797 23.7711 61.1659 24.4577 60.4178 24.6777L40.4959 30.5371C40.3341 30.5847 40.1671 30.6085 40 30.6085Z" fill="#7D81E7"/>
<path d="M60.4178 21.3057L40.4959 15.4464C40.3341 15.3988 40.167 15.375 40 15.375V30.6094C40.1671 30.6094 40.3341 30.5856 40.4959 30.538L60.4178 24.6786C61.1659 24.4586 61.6797 23.772 61.6797 22.9922C61.6797 22.2124 61.1659 21.5258 60.4178 21.3057Z" fill="#6B61B1"/>
</g>
<defs>
<filter id="filter0_d" x="0" y="0" width="80" height="80" filterUnits="userSpaceOnUse" color-interpolation-filters="sRGB">
<feFlood flood-opacity="0" result="BackgroundImageFix"/>
<feColorMatrix in="SourceAlpha" type="matrix" values="0 0 0 0 0 0 0 0 0 0 0 0 0 0 0 0 0 0 127 0"/>
<feOffset dy="4"/>
<feGaussianBlur stdDeviation="5"/>
<feColorMatrix type="matrix" values="0 0 0 0 0 0 0 0 0 0 0 0 0 0 0 0 0 0 0.15 0"/>
<feBlend mode="normal" in2="BackgroundImageFix" result="effect1_dropShadow"/>
<feBlend mode="normal" in="SourceGraphic" in2="effect1_dropShadow" result="shape"/>
</filter>
</defs>
</svg>
