<?xml version="1.0"?>
<svg xmlns="http://www.w3.org/2000/svg" version="1.1" width="512"
     height="512" x="0" y="0" viewBox="0 0 511.703 511.703" style="enable-background:new 0 0 512 512"
     xml:space="preserve" className=""><g><g xmlns="http://www.w3.org/2000/svg"><path d="m419.895 299.292 35.746-43.292-7.616-9.52c-.171-.213-15.439-19.293-28.39-35.04l9.311-55.365-11.355-4.437c-.254-.099-23.019-8.99-42.106-16.152l-19.619-52.602-12.052 1.835c-.27.041-24.43 3.724-44.542 7.065l-43.292-35.745-9.52 7.615c-.213.171-19.293 15.439-35.041 28.39l-55.365-9.31-4.437 11.355c-.099.254-8.99 23.018-16.152 42.106l-52.602 19.62 1.835 12.052c.041.27 3.724 24.43 7.065 44.542l-35.745 43.292 7.616 9.52c.17.213 15.439 19.293 28.389 35.04l-9.31 55.366 11.355 4.437c.254.099 23.019 8.989 42.107 16.151l19.619 52.602 12.052-1.835c.27-.041 24.43-3.724 44.542-7.065l43.291 35.745 9.52-7.615c.213-.171 19.294-15.439 35.041-28.39l55.365 9.31 4.437-11.355c.099-.254 8.989-23.018 16.151-42.106l52.602-19.619-1.835-12.052c-.041-.27-3.723-24.429-7.065-44.543z" fill="#5f98d1" data-original="#ff3d7d" style="" className=""/><path
        d="m419.895 299.292 35.746-43.292-7.616-9.52c-.171-.213-15.439-19.293-28.39-35.04l9.311-55.365-11.355-4.437c-.254-.099-23.019-8.99-42.106-16.152l-19.619-52.602-12.052 1.835c-.27.041-24.43 3.724-44.542 7.065l-43.292-35.745v399.381l9.22-7.375c.213-.171 19.294-15.439 35.041-28.39l55.365 9.31 4.437-11.355c.099-.254 8.989-23.018 16.151-42.106l52.602-19.619-1.835-12.052c-.042-.268-3.724-24.427-7.066-44.541z"
        fill="#3a6da1" data-original="#bc00a2" style="" className=""/><path
        d="m190.426 270.852h49.761v-82.86h-79.762v30h49.762v22.86h-49.761v82.859h79.762v-30h-49.762z" fill="#fff5f5"
        data-original="#fff5f5" style="" className=""/><path
        d="m325.145 187.991v52.861h-23.999v-52.861h-30v82.861h53.999v52.86h30v-135.721z" fill="#fff5f5"
        data-original="#fff5f5" style="" className=""/><path
        d="m325.145 187.991v52.861h-23.999v-52.861h-30v82.861h53.999v52.86h30v-135.721z" fill="#ece6f2"
        data-original="#ece6f2" style="" className=""/><g><path d="m178.493 8.213h30v30.002h-30z" fill="#3a6da1" transform="matrix(.966 -.259 .259 .966 .585 50.868)" data-original="#d0d5f4" style="" className=""/></g><g><path d="m120.407 32.279h30v30.002h-30z" fill="#3a6da1" transform="matrix(.866 -.5 .5 .866 -5.499 74.038)" data-original="#d0d5f4" style="" className=""/></g><g><path d="m70.528 70.559h30v30.002h-30z" fill="#3a6da1" transform="matrix(.707 -.707 .707 .707 -35.449 85.536)" data-original="#d0d5f4" style="" className=""/></g><g><path d="m32.257 120.444h30v30.002h-30z" fill="#3a6da1" transform="matrix(.5 -.866 .866 .5 -93.67 108.649)" data-original="#d0d5f4" style="" className=""/></g><g><path d="m255.852 511.703c-68.34 0-132.59-26.613-180.914-74.938-48.325-48.323-74.938-112.573-74.938-180.913 0-22.437 2.906-44.709 8.636-66.199l28.987 7.729c-5.058 18.97-7.623 38.642-7.623 58.47 0 60.327 23.493 117.043 66.15 159.701s99.374 66.15 159.701 66.15 117.043-23.493 159.701-66.15 66.15-99.374 66.15-159.701-23.492-117.043-66.15-159.701-99.373-66.151-159.7-66.151v-30c68.341 0 132.59 26.613 180.914 74.938 48.324 48.324 74.938 112.574 74.938 180.914s-26.613 132.59-74.938 180.914-112.574 74.937-180.914 74.937z" fill="#3a6da1" data-original="#d0d5f4" style="" className=""/></g><path
        d="m511.703 255.852c0-68.34-26.613-132.59-74.938-180.914-48.294-48.295-112.493-74.903-180.786-74.936v30c60.28.033 116.946 23.521 159.574 66.149 42.658 42.658 66.15 99.374 66.15 159.701s-23.492 117.043-66.15 159.701c-42.628 42.628-99.294 66.116-159.574 66.149v30c68.293-.033 132.492-26.642 180.787-74.936 48.324-48.324 74.937-112.574 74.937-180.914z"
        fill="#5f98d1" data-original="#b4b9f1" style="" className=""/></g><script/></g></svg>
