<svg width="30" height="30" viewBox="0 0 30 30" fill="none" xmlns="http://www.w3.org/2000/svg">
<path fill-rule="evenodd" clip-rule="evenodd" d="M15 28.125C11.519 28.125 8.18064 26.7422 5.71922 24.2808C3.25781 21.8194 1.875 18.481 1.875 15C1.875 11.519 3.25781 8.18064 5.71922 5.71922C8.18064 3.25781 11.519 1.875 15 1.875C18.481 1.875 21.8194 3.25781 24.2808 5.71922C26.7422 8.18064 28.125 11.519 28.125 15C28.125 18.481 26.7422 21.8194 24.2808 24.2808C21.8194 26.7422 18.481 28.125 15 28.125ZM15 30C11.0218 30 7.20644 28.4196 4.3934 25.6066C1.58035 22.7936 0 18.9782 0 15C0 11.0218 1.58035 7.20644 4.3934 4.3934C7.20644 1.58035 11.0218 0 15 0C18.9782 0 22.7936 1.58035 25.6066 4.3934C28.4196 7.20644 30 11.0218 30 15C30 18.9782 28.4196 22.7936 25.6066 25.6066C22.7936 28.4196 18.9782 30 15 30Z" fill="black"/>
<path fill-rule="evenodd" clip-rule="evenodd" d="M15.6638 21.2887C15.7511 21.2016 15.8204 21.0981 15.8676 20.9842C15.9149 20.8703 15.9392 20.7482 15.9392 20.6249C15.9392 20.5016 15.9149 20.3795 15.8676 20.2656C15.8204 20.1517 15.7511 20.0482 15.6638 19.9612L10.7007 14.9999L15.6638 10.0387C15.7509 9.95149 15.8201 9.84801 15.8673 9.73412C15.9144 9.62024 15.9387 9.49817 15.9387 9.3749C15.9387 9.25163 15.9144 9.12957 15.8673 9.01568C15.8201 8.9018 15.7509 8.79832 15.6638 8.71115C15.5766 8.62399 15.4731 8.55484 15.3593 8.50767C15.2454 8.4605 15.1233 8.43622 15 8.43622C14.8768 8.43622 14.7547 8.4605 14.6408 8.50767C14.5269 8.55484 14.4234 8.62399 14.3363 8.71115L8.71128 14.3362C8.62398 14.4232 8.55471 14.5267 8.50745 14.6406C8.46019 14.7545 8.43586 14.8766 8.43586 14.9999C8.43586 15.1232 8.46019 15.2453 8.50745 15.3592C8.55471 15.4731 8.62398 15.5766 8.71128 15.6637L14.3363 21.2887C14.4234 21.376 14.5268 21.4452 14.6407 21.4925C14.7546 21.5398 14.8767 21.5641 15 21.5641C15.1233 21.5641 15.2454 21.5398 15.3593 21.4925C15.4732 21.4452 15.5767 21.376 15.6638 21.2887Z" fill="black"/>
<path fill-rule="evenodd" clip-rule="evenodd" d="M21.5625 15C21.5625 14.7514 21.4637 14.5129 21.2879 14.3371C21.1121 14.1613 20.8736 14.0625 20.625 14.0625H11.25C11.0014 14.0625 10.7629 14.1613 10.5871 14.3371C10.4113 14.5129 10.3125 14.7514 10.3125 15C10.3125 15.2486 10.4113 15.4871 10.5871 15.6629C10.7629 15.8387 11.0014 15.9375 11.25 15.9375H20.625C20.8736 15.9375 21.1121 15.8387 21.2879 15.6629C21.4637 15.4871 21.5625 15.2486 21.5625 15Z" fill="black"/>
</svg>
