<svg width="120" height="120" viewBox="0 0 120 120" fill="none" xmlns="http://www.w3.org/2000/svg">
<path d="M89.6404 27.1652H34.1085C30.4907 27.1652 27.546 30.1099 27.546 33.7277V89.2605C27.546 92.8783 30.4907 95.823 34.1085 95.823H89.6404C93.2582 95.823 96.2029 92.8783 96.2029 89.2605V33.7277C96.2029 30.1089 93.2591 27.1652 89.6404 27.1652Z" fill="#E6E7E8"/>
<path d="M99.1406 45.5779H112.156C114.025 45.5779 115.547 44.0563 115.547 42.187C115.547 40.3176 114.025 38.796 112.156 38.796H99.1406C98.6222 38.796 98.2031 39.2151 98.2031 39.7335V44.6404C98.2031 45.1588 98.6222 45.5779 99.1406 45.5779Z" fill="#E6E7E8"/>
<path d="M112.156 51.921H99.1406C98.6222 51.921 98.2031 52.3401 98.2031 52.8585V57.7654C98.2031 58.2838 98.6222 58.7029 99.1406 58.7029H112.156C114.025 58.7029 115.547 57.1813 115.547 55.312C115.547 53.4426 114.025 51.921 112.156 51.921Z" fill="#E6E7E8"/>
<path d="M112.156 65.046H99.1406C98.6222 65.046 98.2031 65.4651 98.2031 65.9835V70.8904C98.2031 71.4088 98.6222 71.8279 99.1406 71.8279H112.156C114.025 71.8279 115.547 70.3063 115.547 68.437C115.547 66.5676 114.025 65.046 112.156 65.046Z" fill="#E6E7E8"/>
<path d="M112.156 78.171H99.1406C98.6222 78.171 98.2031 78.5901 98.2031 79.1085V84.0154C98.2031 84.5338 98.6222 84.9529 99.1406 84.9529H112.156C114.025 84.9529 115.547 83.4313 115.547 81.562C115.547 79.6926 114.025 78.171 112.156 78.171Z" fill="#E6E7E8"/>
<path d="M24.6094 38.796H11.5941C9.72469 38.796 8.20312 40.3176 8.20312 42.187C8.20312 44.0563 9.72469 45.5779 11.5941 45.5779H24.6094C25.1278 45.5779 25.5469 45.1588 25.5469 44.6404V39.7335C25.5469 39.2151 25.1278 38.796 24.6094 38.796Z" fill="#E6E7E8"/>
<path d="M24.6094 51.921H11.5941C9.72469 51.921 8.20312 53.4426 8.20312 55.312C8.20312 57.1813 9.72469 58.7029 11.5941 58.7029H24.6094C25.1278 58.7029 25.5469 58.2838 25.5469 57.7654V52.8585C25.5469 52.3401 25.1278 51.921 24.6094 51.921Z" fill="#E6E7E8"/>
<path d="M24.6094 65.046H11.5941C9.72469 65.046 8.20312 66.5676 8.20312 68.437C8.20312 70.3063 9.72469 71.8279 11.5941 71.8279H24.6094C25.1278 71.8279 25.5469 71.4088 25.5469 70.8904V65.9835C25.5469 65.4651 25.1278 65.046 24.6094 65.046Z" fill="#E6E7E8"/>
<path d="M24.6094 78.171H11.5941C9.72469 78.171 8.20312 79.6926 8.20312 81.562C8.20312 83.4313 9.72469 84.9529 11.5941 84.9529H24.6094C25.1278 84.9529 25.5469 84.5338 25.5469 84.0154V79.1085C25.5469 78.5901 25.1278 78.171 24.6094 78.171Z" fill="#E6E7E8"/>
<path d="M84.0154 98.2031H79.1086C78.5901 98.2031 78.1711 98.6222 78.1711 99.1406V112.156C78.1711 114.025 79.6926 115.547 81.562 115.547C83.4314 115.547 84.9529 114.025 84.9529 112.156V99.1406C84.9529 98.6222 84.5339 98.2031 84.0154 98.2031Z" fill="#E6E7E8"/>
<path d="M70.8904 98.2031H65.9836C65.4651 98.2031 65.0461 98.6222 65.0461 99.1406V112.156C65.0461 114.025 66.5676 115.547 68.437 115.547C70.3064 115.547 71.8279 114.025 71.8279 112.156V99.1406C71.8279 98.6222 71.4089 98.2031 70.8904 98.2031Z" fill="#E6E7E8"/>
<path d="M57.7654 98.2031H52.8585C52.3401 98.2031 51.921 98.6222 51.921 99.1406V112.156C51.921 114.025 53.4426 115.547 55.312 115.547C57.1813 115.547 58.7029 114.025 58.7029 112.156V99.1406C58.7029 98.6222 58.2838 98.2031 57.7654 98.2031Z" fill="#E6E7E8"/>
<path d="M44.6404 98.2031H39.7335C39.2151 98.2031 38.796 98.6222 38.796 99.1406V112.156C38.796 114.025 40.3176 115.547 42.187 115.547C44.0563 115.547 45.5779 114.025 45.5779 112.156V99.1406C45.5779 98.6222 45.1588 98.2031 44.6404 98.2031Z" fill="#E6E7E8"/>
<path d="M79.1086 25.5469H84.0154C84.5339 25.5469 84.9529 25.1278 84.9529 24.6094V11.5941C84.9529 9.72469 83.4314 8.20312 81.562 8.20312C79.6926 8.20312 78.1711 9.72469 78.1711 11.5941V24.6094C78.1711 25.1278 78.5901 25.5469 79.1086 25.5469Z" fill="#E6E7E8"/>
<path d="M65.9836 25.5469H70.8904C71.4089 25.5469 71.8279 25.1278 71.8279 24.6094V11.5941C71.8279 9.72469 70.3064 8.20312 68.437 8.20312C66.5676 8.20312 65.0461 9.72469 65.0461 11.5941V24.6094C65.0461 25.1278 65.4651 25.5469 65.9836 25.5469Z" fill="#E6E7E8"/>
<path d="M52.8585 25.5469H57.7654C58.2838 25.5469 58.7029 25.1278 58.7029 24.6094V11.5941C58.7029 9.72469 57.1813 8.20312 55.312 8.20312C53.4426 8.20312 51.921 9.72469 51.921 11.5941V24.6094C51.921 25.1278 52.3401 25.5469 52.8585 25.5469Z" fill="#E6E7E8"/>
<path d="M39.7335 25.5469H44.6404C45.1588 25.5469 45.5779 25.1278 45.5779 24.6094V11.5941C45.5779 9.72469 44.0563 8.20312 42.187 8.20312C40.3176 8.20312 38.796 9.72469 38.796 11.5941V24.6094C38.796 25.1278 39.2151 25.5469 39.7335 25.5469Z" fill="#E6E7E8"/>
<path d="M85.8921 24.3527H30.3584C27.2515 24.3527 24.7334 26.8708 24.7334 29.9777V85.5105C24.7334 88.6173 27.2515 91.1355 30.3584 91.1355H85.8912C88.9981 91.1355 91.5162 88.6173 91.5162 85.5105V29.9777C91.5172 26.8708 88.9981 24.3527 85.8921 24.3527Z" fill="#6DC9F7"/>
<path d="M79.6875 30.5558H36.5625C33.4556 30.5558 30.9375 33.0739 30.9375 36.1808V79.3058C30.9375 82.4127 33.4556 84.9308 36.5625 84.9308H79.6875C82.7944 84.9308 85.3125 82.4127 85.3125 79.3058V36.1808C85.3125 33.0748 82.7944 30.5558 79.6875 30.5558Z" fill="#FFD7E5"/>
<path d="M79.6875 82.1183H36.5625C33.4556 82.1183 30.9375 79.6002 30.9375 76.4933V79.3058C30.9375 82.4127 33.4556 84.9308 36.5625 84.9308H79.6875C82.7944 84.9308 85.3125 82.4127 85.3125 79.3058V76.4933C85.3125 79.6002 82.7944 82.1183 79.6875 82.1183Z" fill="white"/>
<path d="M108.406 35.9835H95.3906V40.8913H108.406C109.761 40.8913 110.859 39.7926 110.859 38.4379C110.859 37.0813 109.762 35.9835 108.406 35.9835Z" fill="#D4FBFF"/>
<path d="M108.406 49.1085H95.3906V54.0163H108.406C109.761 54.0163 110.859 52.9176 110.859 51.5629C110.859 50.2063 109.762 49.1085 108.406 49.1085Z" fill="#D4FBFF"/>
<path d="M108.406 62.2335H95.3906V67.1413H108.406C109.761 67.1413 110.859 66.0426 110.859 64.6879C110.859 63.3332 109.762 62.2335 108.406 62.2335Z" fill="#D4FBFF"/>
<path d="M108.406 75.3585H95.3906V80.2663H108.406C109.761 80.2663 110.859 79.1676 110.859 77.8129C110.859 76.4573 109.762 75.3585 108.406 75.3585Z" fill="#D4FBFF"/>
<path d="M7.84406 35.9835H20.8594V40.8913H7.84406C6.48937 40.8913 5.39062 39.7926 5.39062 38.4379C5.39062 37.0813 6.48937 35.9835 7.84406 35.9835Z" fill="#D4FBFF"/>
<path d="M7.84406 49.1085H20.8594V54.0163H7.84406C6.48937 54.0163 5.39062 52.9176 5.39062 51.5629C5.39062 50.2063 6.48937 49.1085 7.84406 49.1085Z" fill="#D4FBFF"/>
<path d="M7.84406 62.2335H20.8594V67.1413H7.84406C6.48937 67.1413 5.39062 66.0426 5.39062 64.6879C5.39062 63.3332 6.48937 62.2335 7.84406 62.2335Z" fill="#D4FBFF"/>
<path d="M7.84406 75.3585H20.8594V80.2663H7.84406C6.48937 80.2663 5.39062 79.1676 5.39062 77.8129C5.39062 76.4573 6.48937 75.3585 7.84406 75.3585Z" fill="#D4FBFF"/>
<path d="M80.2673 108.406V95.3906H75.3595V108.406C75.3595 109.761 76.4582 110.859 77.8129 110.859C79.1685 110.859 80.2673 109.762 80.2673 108.406Z" fill="#D4FBFF"/>
<path d="M67.1412 108.406V95.3906H62.2334V108.406C62.2334 109.761 63.3322 110.859 64.6869 110.859C66.0416 110.859 67.1412 109.762 67.1412 108.406Z" fill="#D4FBFF"/>
<path d="M54.0162 108.406V95.3906H49.1084V108.406C49.1084 109.761 50.2072 110.859 51.5619 110.859C52.9165 110.859 54.0162 109.762 54.0162 108.406Z" fill="#D4FBFF"/>
<path d="M40.8912 108.406V95.3906H35.9834V108.406C35.9834 109.761 37.0822 110.859 38.4369 110.859C39.7915 110.859 40.8912 109.762 40.8912 108.406Z" fill="#D4FBFF"/>
<path d="M80.2673 7.84406V20.8594H75.3595V7.84406C75.3595 6.48937 76.4582 5.39062 77.8129 5.39062C79.1685 5.39062 80.2673 6.48937 80.2673 7.84406Z" fill="#D4FBFF"/>
<path d="M67.1412 7.84406V20.8594H62.2334V7.84406C62.2334 6.48937 63.3322 5.39062 64.6869 5.39062C66.0434 5.39062 67.1412 6.48937 67.1412 7.84406Z" fill="#D4FBFF"/>
<path d="M54.0162 7.84406V20.8594H49.1084V7.84406C49.1084 6.48937 50.2072 5.39062 51.5619 5.39062C52.9165 5.39062 54.0162 6.48937 54.0162 7.84406Z" fill="#D4FBFF"/>
<path d="M40.8912 7.84406V20.8594H35.9834V7.84406C35.9834 6.48937 37.0822 5.39062 38.4369 5.39062C39.7915 5.39062 40.8912 6.48937 40.8912 7.84406Z" fill="#D4FBFF"/>
<path d="M56.129 37.3866H67.3256L55.9331 55.9154H72.7453L50.1487 78.8644L58.5844 61.3866H43.5047L56.129 37.3866Z" fill="#FA759E"/>
<path d="M85.8904 23.4152H30.3585C26.7407 23.4152 23.796 26.3598 23.796 29.9777V85.5105C23.796 89.1283 26.7407 92.073 30.3585 92.073H85.8904C89.5082 92.073 92.4529 89.1283 92.4529 85.5105V29.9777C92.4529 26.3589 89.5082 23.4152 85.8904 23.4152ZM90.5779 85.5105C90.5779 88.0952 88.4751 90.198 85.8904 90.198H30.3585C27.7738 90.198 25.671 88.0952 25.671 85.5105V29.9777C25.671 27.393 27.7738 25.2902 30.3585 25.2902H85.8904C88.4751 25.2902 90.5779 27.393 90.5779 29.9777V85.5105Z" fill="#3A2C60"/>
<path d="M79.6875 29.6193H60.6253C60.1069 29.6193 59.6878 30.0383 59.6878 30.5568C59.6878 31.0752 60.1069 31.4943 60.6253 31.4943H79.6875C82.2722 31.4943 84.375 33.5971 84.375 36.1818V79.3068C84.375 81.8914 82.2722 83.9943 79.6875 83.9943H36.5625C33.9778 83.9943 31.875 81.8914 31.875 79.3068V36.1818C31.875 33.5971 33.9778 31.4943 36.5625 31.4943H45.1172C45.6356 31.4943 46.0547 31.0752 46.0547 30.5568C46.0547 30.0383 45.6356 29.6193 45.1172 29.6193H36.5625C32.9447 29.6193 30 32.564 30 36.1818V79.3068C30 82.9246 32.9447 85.8693 36.5625 85.8693H79.6875C83.3053 85.8693 86.25 82.9246 86.25 79.3068V36.1818C86.25 32.563 83.3053 29.6193 79.6875 29.6193Z" fill="#3A2C60"/>
<path d="M49.1085 31.4943H56.601C57.1195 31.4943 57.5385 31.0752 57.5385 30.5568C57.5385 30.0383 57.1195 29.6193 56.601 29.6193H49.1085C48.5901 29.6193 48.171 30.0383 48.171 30.5568C48.171 31.0752 48.5901 31.4943 49.1085 31.4943Z" fill="#3A2C60"/>
<path d="M95.3906 41.8279H108.406C110.275 41.8279 111.797 40.3063 111.797 38.437C111.797 36.5676 110.275 35.046 108.406 35.046H95.3906C94.8722 35.046 94.4531 35.4651 94.4531 35.9835V40.8904C94.4531 41.4088 94.8722 41.8279 95.3906 41.8279ZM96.3281 36.921H108.406C109.242 36.921 109.922 37.6016 109.922 38.437C109.922 39.2723 109.241 39.9529 108.406 39.9529H96.3281V36.921Z" fill="#3A2C60"/>
<path d="M108.406 48.171H95.3906C94.8722 48.171 94.4531 48.5901 94.4531 49.1085V54.0154C94.4531 54.5338 94.8722 54.9529 95.3906 54.9529H108.406C110.275 54.9529 111.797 53.4313 111.797 51.562C111.797 49.6926 110.275 48.171 108.406 48.171ZM108.406 53.0779H96.3281V50.046H108.406C109.242 50.046 109.922 50.7266 109.922 51.562C109.922 52.3973 109.241 53.0779 108.406 53.0779Z" fill="#3A2C60"/>
<path d="M108.406 61.296H95.3906C94.8722 61.296 94.4531 61.7151 94.4531 62.2335V67.1404C94.4531 67.6588 94.8722 68.0779 95.3906 68.0779H108.406C110.275 68.0779 111.797 66.5563 111.797 64.687C111.797 62.8176 110.275 61.296 108.406 61.296ZM108.406 66.2029H96.3281V63.171H108.406C109.242 63.171 109.922 63.8516 109.922 64.687C109.922 65.5223 109.241 66.2029 108.406 66.2029Z" fill="#3A2C60"/>
<path d="M108.406 74.421H95.3906C94.8722 74.421 94.4531 74.8401 94.4531 75.3585V80.2654C94.4531 80.7838 94.8722 81.2029 95.3906 81.2029H108.406C110.275 81.2029 111.797 79.6813 111.797 77.812C111.797 75.9426 110.275 74.421 108.406 74.421ZM108.406 79.3279H96.3281V76.296H108.406C109.242 76.296 109.922 76.9766 109.922 77.812C109.922 78.6473 109.241 79.3279 108.406 79.3279Z" fill="#3A2C60"/>
<path d="M20.8594 35.046H7.84406C5.97469 35.046 4.45312 36.5676 4.45312 38.437C4.45312 40.3063 5.97469 41.8279 7.84406 41.8279H20.8594C21.3778 41.8279 21.7969 41.4088 21.7969 40.8904V35.9835C21.7969 35.4651 21.3778 35.046 20.8594 35.046ZM19.9219 39.9529H7.84406C7.00781 39.9529 6.32812 39.2723 6.32812 38.437C6.32812 37.6016 7.00875 36.921 7.84406 36.921H19.9219V39.9529Z" fill="#3A2C60"/>
<path d="M20.8594 48.171H7.84406C5.97469 48.171 4.45312 49.6926 4.45312 51.562C4.45312 53.4313 5.97469 54.9529 7.84406 54.9529H20.8594C21.3778 54.9529 21.7969 54.5338 21.7969 54.0154V49.1085C21.7969 48.5901 21.3778 48.171 20.8594 48.171ZM19.9219 53.0779H7.84406C7.00781 53.0779 6.32812 52.3973 6.32812 51.562C6.32812 50.7266 7.00875 50.046 7.84406 50.046H19.9219V53.0779Z" fill="#3A2C60"/>
<path d="M20.8594 61.296H7.84406C5.97469 61.296 4.45312 62.8176 4.45312 64.687C4.45312 66.5563 5.97469 68.0779 7.84406 68.0779H20.8594C21.3778 68.0779 21.7969 67.6588 21.7969 67.1404V62.2335C21.7969 61.7151 21.3778 61.296 20.8594 61.296ZM19.9219 66.2029H7.84406C7.00781 66.2029 6.32812 65.5223 6.32812 64.687C6.32812 63.8516 7.00875 63.171 7.84406 63.171H19.9219V66.2029Z" fill="#3A2C60"/>
<path d="M20.8594 74.421H7.84406C5.97469 74.421 4.45312 75.9426 4.45312 77.812C4.45312 79.6813 5.97469 81.2029 7.84406 81.2029H20.8594C21.3778 81.2029 21.7969 80.7838 21.7969 80.2654V75.3585C21.7969 74.8401 21.3778 74.421 20.8594 74.421ZM19.9219 79.3279H7.84406C7.00781 79.3279 6.32812 78.6473 6.32812 77.812C6.32812 76.9766 7.00875 76.296 7.84406 76.296H19.9219V79.3279Z" fill="#3A2C60"/>
<path d="M80.2654 94.4531H75.3586C74.8401 94.4531 74.4211 94.8722 74.4211 95.3906V108.406C74.4211 110.275 75.9426 111.797 77.812 111.797C79.6814 111.797 81.2029 110.275 81.2029 108.406V95.3906C81.2029 94.8722 80.7839 94.4531 80.2654 94.4531ZM79.3279 108.406C79.3279 109.242 78.6473 109.922 77.812 109.922C76.9767 109.922 76.2961 109.241 76.2961 108.406V96.3281H79.3279V108.406Z" fill="#3A2C60"/>
<path d="M67.1404 94.4531H62.2336C61.7151 94.4531 61.2961 94.8722 61.2961 95.3906V108.406C61.2961 110.275 62.8176 111.797 64.687 111.797C66.5564 111.797 68.0779 110.275 68.0779 108.406V95.3906C68.0779 94.8722 67.6589 94.4531 67.1404 94.4531ZM66.2029 108.406C66.2029 109.242 65.5223 109.922 64.687 109.922C63.8517 109.922 63.1711 109.241 63.1711 108.406V96.3281H66.2029V108.406Z" fill="#3A2C60"/>
<path d="M54.0154 94.4531H49.1085C48.5901 94.4531 48.171 94.8722 48.171 95.3906V108.406C48.171 110.275 49.6926 111.797 51.562 111.797C53.4313 111.797 54.9529 110.275 54.9529 108.406V95.3906C54.9529 94.8722 54.5338 94.4531 54.0154 94.4531ZM53.0779 108.406C53.0779 109.242 52.3973 109.922 51.562 109.922C50.7266 109.922 50.046 109.241 50.046 108.406V96.3281H53.0779V108.406Z" fill="#3A2C60"/>
<path d="M40.8904 94.4531H35.9835C35.4651 94.4531 35.046 94.8722 35.046 95.3906V108.406C35.046 110.275 36.5676 111.797 38.437 111.797C40.3063 111.797 41.8279 110.275 41.8279 108.406V95.3906C41.8279 94.8722 41.4088 94.4531 40.8904 94.4531ZM39.9529 108.406C39.9529 109.242 39.2723 109.922 38.437 109.922C37.6016 109.922 36.921 109.241 36.921 108.406V96.3281H39.9529V108.406Z" fill="#3A2C60"/>
<path d="M75.3586 21.7969H80.2654C80.7839 21.7969 81.2029 21.3778 81.2029 20.8594V7.84406C81.2029 5.97469 79.6814 4.45312 77.812 4.45312C75.9426 4.45312 74.4211 5.97469 74.4211 7.84406V20.8594C74.4211 21.3778 74.8401 21.7969 75.3586 21.7969ZM76.2961 7.84406C76.2961 7.00781 76.9767 6.32812 77.812 6.32812C78.6473 6.32812 79.3279 7.00875 79.3279 7.84406V19.9219H76.2961V7.84406Z" fill="#3A2C60"/>
<path d="M62.2336 21.7969H67.1404C67.6589 21.7969 68.0779 21.3778 68.0779 20.8594V7.84406C68.0779 5.97469 66.5564 4.45312 64.687 4.45312C62.8176 4.45312 61.2961 5.97469 61.2961 7.84406V20.8594C61.2961 21.3778 61.7151 21.7969 62.2336 21.7969ZM63.1711 7.84406C63.1711 7.00781 63.8517 6.32812 64.687 6.32812C65.5223 6.32812 66.2029 7.00875 66.2029 7.84406V19.9219H63.1711V7.84406Z" fill="#3A2C60"/>
<path d="M49.1085 21.7969H54.0154C54.5338 21.7969 54.9529 21.3778 54.9529 20.8594V7.84406C54.9529 5.97469 53.4313 4.45312 51.562 4.45312C49.6926 4.45312 48.171 5.97469 48.171 7.84406V20.8594C48.171 21.3778 48.5901 21.7969 49.1085 21.7969ZM50.046 7.84406C50.046 7.00781 50.7266 6.32812 51.562 6.32812C52.3973 6.32812 53.0779 7.00875 53.0779 7.84406V19.9219H50.046V7.84406Z" fill="#3A2C60"/>
<path d="M35.9835 21.7969H40.8904C41.4088 21.7969 41.8279 21.3778 41.8279 20.8594V7.84406C41.8279 5.97469 40.3063 4.45312 38.437 4.45312C36.5676 4.45312 35.046 5.97469 35.046 7.84406V20.8594C35.046 21.3778 35.4651 21.7969 35.9835 21.7969ZM36.921 7.84406C36.921 7.00781 37.6016 6.32812 38.437 6.32812C39.2723 6.32812 39.9529 7.00875 39.9529 7.84406V19.9219H36.921V7.84406Z" fill="#3A2C60"/>
<path d="M68.1443 36.9291C67.9784 36.6338 67.6653 36.4491 67.3259 36.4491H56.1294C55.7815 36.4491 55.4619 36.6422 55.2997 36.9497L42.6753 60.9507C42.5225 61.2422 42.5328 61.591 42.7016 61.8713C42.8722 62.1525 43.1759 62.3241 43.5041 62.3241H57.0903L49.3025 78.4566C49.1028 78.8691 49.2322 79.3669 49.6062 79.6304C49.7694 79.7457 49.9587 79.8019 50.1462 79.8019C50.39 79.8019 50.6328 79.7063 50.8147 79.5216L73.4122 56.5725C73.6765 56.3035 73.7543 55.9013 73.609 55.5525C73.4628 55.2047 73.1215 54.9779 72.7437 54.9779H57.6106L68.1247 37.8769C68.3028 37.5882 68.3103 37.2253 68.1443 36.9291ZM55.1347 55.425C54.9565 55.7147 54.949 56.0766 55.115 56.3738C55.2809 56.6691 55.594 56.8538 55.9334 56.8538H70.5078L53.4547 74.1694L59.4284 61.7944C59.5681 61.5038 59.5503 61.1616 59.3778 60.8888C59.2062 60.615 58.9062 60.4491 58.5837 60.4491H45.0575L56.6947 38.3232H65.6487L55.1347 55.425Z" fill="#3A2C60"/>
</svg>
