<svg width="310" height="300" viewBox="0 0 310 300" fill="none" xmlns="http://www.w3.org/2000/svg">
<path d="M24.2218 45.1619C18.3346 45.1619 13.562 40.3898 13.562 34.5022C13.562 28.6147 18.3346 23.8426 24.2218 23.8426C30.1092 23.8426 34.8818 28.6147 34.8818 34.5022C34.8818 40.3898 30.1092 45.1619 24.2218 45.1619V45.1619ZM48.4438 34.6156C48.4438 19.7029 34.9667 7.93706 19.5271 10.8354C9.81601 12.6581 2.0769 20.589 0.375919 30.3221C-0.687389 36.4058 0.568283 42.1296 3.34344 46.8526H3.32998L3.39911 46.9441C4.32779 48.5089 5.49155 49.6284 6.66697 51.2728L20.7307 69.9024C22.4809 72.2201 25.9629 72.2201 27.7128 69.9017L41.5422 51.5796C41.5422 51.5796 44.1235 48.5016 45.0602 46.9189L45.1099 46.8526H45.1004C47.2119 43.2583 48.4438 39.0861 48.4438 34.6156" fill="#F3F2F1"/>
<path d="M299.034 186.178C296.438 186.178 294.334 184.074 294.334 181.479C294.334 178.884 296.438 176.779 299.034 176.779C301.629 176.779 303.733 178.884 303.733 181.479C303.733 184.074 301.629 186.178 299.034 186.178ZM309.712 181.529C309.712 174.955 303.771 169.768 296.964 171.045C292.683 171.849 289.271 175.345 288.521 179.637C288.053 182.318 288.606 184.841 289.829 186.924H289.823L289.854 186.964C290.264 187.654 290.777 188.147 291.294 188.872L297.495 197.085C298.266 198.107 299.801 198.107 300.573 197.085L306.67 189.007C306.67 189.007 307.807 187.65 308.22 186.953L308.242 186.924H308.238C309.169 185.339 309.712 183.5 309.712 181.529" fill="#F3F2F1"/>
<path d="M280.724 246.845C280.724 261.611 268.754 273.582 253.987 273.582C239.221 273.582 227.25 261.611 227.25 246.845C227.25 232.078 239.221 220.108 253.987 220.108C268.754 220.108 280.724 232.078 280.724 246.845" fill="#F3F2F1"/>
<path d="M253.987 228.399C243.818 228.399 235.543 236.673 235.543 246.845C235.543 257.015 243.818 265.289 253.987 265.289C264.159 265.289 272.433 257.015 272.433 246.845C272.433 236.673 264.159 228.399 253.987 228.399V228.399ZM253.987 269.098C241.717 269.098 231.734 259.115 231.734 246.845C231.734 234.574 241.717 224.591 253.987 224.591C266.258 224.591 276.242 234.574 276.242 246.845C276.242 259.115 266.258 269.098 253.987 269.098Z" fill="white"/>
<path d="M253.836 241.87C251.416 241.87 249.449 243.838 249.449 246.258C249.449 248.677 251.416 250.645 253.836 250.645C256.255 250.645 258.224 248.677 258.224 246.258C258.224 243.838 256.255 241.87 253.836 241.87ZM253.836 254.453C249.316 254.453 245.641 250.777 245.641 246.258C245.641 241.739 249.316 238.062 253.836 238.062C258.355 238.062 262.032 241.739 262.032 246.258C262.032 250.777 258.355 254.453 253.836 254.453Z" fill="white"/>
<path d="M253.836 246.258H243.476L245.282 249.454L220.898 260.629L221.722 262L246.186 250.954L247.863 254.129L253.836 246.258" fill="#DADBD8"/>
<path d="M220.901 260.631L220.642 260.379C219.364 259.133 217.515 258.672 215.801 259.171L206.074 262.002L211.491 264.382L209.315 270.168L218.441 266.914C220.498 266.18 221.833 264.184 221.724 262.002L220.901 260.631" fill="#DADBD8"/>
<path d="M102.911 266.238C102.914 266.233 102.982 266.211 103.112 266.171C103.255 266.13 103.446 266.074 103.687 266.003C104.207 265.855 104.948 265.643 105.904 265.371C107.843 264.827 110.65 264.038 114.191 263.044L114.117 263.178C113.693 261.757 113.217 260.165 112.707 258.457L112.683 258.379L112.75 258.324C114.826 256.591 116.87 254.312 118.528 251.522C119.355 250.125 120.013 248.562 120.463 246.89C120.935 245.217 120.999 243.398 120.777 241.587C120.212 237.975 118.375 234.298 115.329 231.645C112.324 228.974 108.31 227.203 104.047 226.789C100.869 226.48 97.7038 227.211 94.9851 228.603C92.2305 229.935 89.9181 231.951 88.2359 234.282C86.5365 236.619 85.6424 239.353 85.3322 241.998C85.2925 242.665 85.1878 243.323 85.2037 243.977C85.2216 244.631 85.2408 245.279 85.2587 245.919C85.38 247.19 85.5841 248.425 85.9215 249.592C86.2708 250.754 86.7234 251.848 87.2702 252.853C87.827 253.853 88.4805 254.754 89.1817 255.563C90.5935 257.177 92.2173 258.384 93.7967 259.288C96.9807 261.088 99.9268 261.818 102.018 262.13L102.066 262.137L102.074 262.181C102.351 263.494 102.561 264.498 102.707 265.191C102.773 265.521 102.826 265.777 102.864 265.966C102.898 266.141 102.915 266.232 102.911 266.238C102.909 266.242 102.887 266.161 102.845 265.994C102.8 265.811 102.74 265.562 102.661 265.24C102.497 264.542 102.26 263.532 101.948 262.209L102.005 262.259C99.8857 261.976 96.9198 261.276 93.6867 259.482C92.0827 258.581 90.4284 257.37 88.9842 255.737C88.2664 254.919 87.597 254.005 87.0243 252.989C86.463 251.968 85.9964 250.857 85.6365 249.675C85.2878 248.49 85.0751 247.236 84.9478 245.944C84.9273 245.294 84.9061 244.638 84.8849 243.974C84.867 243.309 84.971 242.639 85.0095 241.961C85.317 239.268 86.2237 236.473 87.9536 234.083C89.6675 231.699 92.0224 229.641 94.826 228.281C97.5859 226.863 100.832 226.111 104.08 226.428C108.425 226.851 112.502 228.652 115.566 231.382C117.1 232.742 118.377 234.346 119.286 236.096C119.549 236.514 119.72 236.974 119.918 237.42C120.113 237.866 120.315 238.306 120.438 238.773C120.578 239.232 120.729 239.686 120.856 240.143C120.94 240.612 121.023 241.078 121.106 241.541C121.33 243.399 121.255 245.263 120.769 246.969C120.304 248.673 119.628 250.258 118.784 251.672C117.088 254.494 115.024 256.772 112.903 258.52L112.946 258.387C113.444 260.098 113.908 261.694 114.322 263.117L114.353 263.223L114.248 263.251C110.666 264.202 107.827 264.957 105.865 265.479C104.914 265.727 104.177 265.92 103.66 266.055C103.423 266.114 103.237 266.161 103.097 266.197C102.972 266.228 102.909 266.242 102.911 266.238" fill="#DADBD8"/>
<path d="M115.239 266.244C115.266 266.34 112.686 267.13 109.479 268.009C106.27 268.888 103.648 269.521 103.621 269.424C103.595 269.328 106.174 268.537 109.383 267.659C112.591 266.781 115.213 266.148 115.239 266.244Z" fill="#DADBD8"/>
<path d="M112.679 271.666C112.716 271.756 111.847 272.194 110.687 272.47C109.527 272.751 108.554 272.754 108.547 272.658C108.538 272.555 109.472 272.391 110.602 272.117C111.734 271.849 112.641 271.571 112.679 271.666Z" fill="#DADBD8"/>
<path d="M105.28 265.59C105.274 265.591 105.252 265.527 105.216 265.401C105.176 265.255 105.125 265.07 105.062 264.838C104.928 264.317 104.741 263.592 104.505 262.669C104.03 260.754 103.353 258.029 102.52 254.673C102.106 252.982 101.653 251.133 101.167 249.149C101.048 248.667 100.879 248.177 100.585 247.781C100.313 247.375 99.7996 247.164 99.3761 247.38C98.9592 247.584 98.7584 248.135 98.7531 248.643C98.7412 249.162 98.9917 249.662 99.3443 250.07C100.064 250.891 101.281 251.243 102.412 251.087C103.562 250.949 104.574 250.135 105.101 249.052C105.644 247.976 105.771 246.67 105.484 245.456C105.34 244.853 105.101 244.244 104.661 243.836C104.244 243.433 103.53 243.287 103.072 243.615C102.612 243.945 102.535 244.67 102.772 245.197C103.014 245.751 103.503 246.178 104.01 246.553C105.023 247.304 106.192 247.861 107.399 247.951C107.999 247.994 108.604 247.919 109.138 247.691C109.671 247.455 110.144 247.09 110.493 246.635C110.845 246.187 111.078 245.645 111.105 245.097C111.139 244.549 110.968 244.002 110.604 243.612C110.254 243.217 109.72 242.995 109.245 243.144C108.768 243.284 108.409 243.722 108.238 244.192C107.909 245.169 108.199 246.254 108.316 247.251C108.637 249.266 108.998 251.137 109.329 252.843C110.013 256.231 110.568 258.982 110.958 260.915C111.147 261.848 111.296 262.583 111.402 263.11C111.447 263.345 111.483 263.534 111.51 263.683C111.533 263.813 111.541 263.879 111.536 263.881C111.529 263.882 111.508 263.818 111.474 263.691C111.437 263.544 111.39 263.358 111.331 263.126C111.208 262.601 111.038 261.872 110.82 260.945C110.39 259.048 109.776 256.301 109.077 252.893C108.73 251.188 108.354 249.32 108.019 247.298C107.945 246.789 107.857 246.278 107.803 245.744C107.753 245.211 107.743 244.639 107.938 244.084C108.134 243.544 108.538 243.02 109.152 242.83C109.773 242.635 110.447 242.929 110.85 243.386C111.279 243.842 111.484 244.49 111.445 245.116C111.416 245.746 111.153 246.352 110.767 246.848C110.382 247.349 109.867 247.75 109.278 248.014C108.679 248.27 108.02 248.351 107.374 248.306C106.071 248.209 104.848 247.62 103.795 246.842C103.274 246.455 102.731 246.001 102.44 245.34C102.158 244.697 102.214 243.807 102.86 243.321C103.524 242.866 104.391 243.082 104.906 243.57C105.433 244.065 105.68 244.733 105.835 245.372C106.139 246.669 106.005 248.052 105.417 249.212C104.857 250.374 103.725 251.283 102.46 251.431C101.224 251.593 99.907 251.217 99.0938 250.291C98.7014 249.839 98.4111 249.253 98.4264 248.64C98.4409 248.057 98.6484 247.396 99.2363 247.093C99.5233 246.948 99.8573 246.946 100.147 247.051C100.442 247.155 100.666 247.369 100.833 247.595C101.167 248.054 101.336 248.572 101.46 249.079C101.93 251.067 102.369 252.921 102.77 254.615C103.556 257.982 104.194 260.716 104.642 262.637C104.851 263.565 105.015 264.297 105.133 264.822C105.182 265.056 105.221 265.244 105.252 265.392C105.277 265.522 105.286 265.588 105.28 265.59" fill="#DADBD8"/>
<path d="M114.818 268.721C114.844 268.818 112.755 269.473 110.152 270.184C107.549 270.895 105.417 271.393 105.391 271.297C105.365 271.2 107.453 270.546 110.057 269.834C112.66 269.123 114.792 268.624 114.818 268.721Z" fill="#DADBD8"/>
<path d="M294.982 299.328C294.982 299.422 231.729 299.5 153.721 299.5C75.6847 299.5 12.4453 299.422 12.4453 299.328C12.4453 299.232 75.6847 299.155 153.721 299.155C231.729 299.155 294.982 299.232 294.982 299.328Z" fill="#17282F"/>
<path d="M283.313 49.3125H24.2617V32.7176H283.313V49.3125" fill="#DADBD8"/>
<path d="M24.2227 209.84H283.275V64.5569H24.2227V209.84Z" fill="white"/>
<path d="M24.2617 49.1909H59.8301L63.355 38.927H121.012L124.537 49.1909H283.313V64.9062H24.2617V49.1909Z" fill="#E7E8E5"/>
<path d="M32.8116 39.334C32.8116 40.4097 31.9401 41.2812 30.8646 41.2812C29.7897 41.2812 28.918 40.4097 28.918 39.334C28.918 38.2589 29.7897 37.3874 30.8646 37.3874C31.9401 37.3874 32.8116 38.2589 32.8116 39.334Z" fill="#17282F"/>
<path d="M38.835 39.334C38.835 40.4097 37.9633 41.2812 36.8881 41.2812C35.8128 41.2812 34.9414 40.4097 34.9414 39.334C34.9414 38.2589 35.8128 37.3874 36.8881 37.3874C37.9633 37.3874 38.835 38.2589 38.835 39.334Z" fill="#17282F"/>
<path d="M44.8587 39.334C44.8587 40.4097 43.9873 41.2812 42.9118 41.2812C41.8365 41.2812 40.9648 40.4097 40.9648 39.334C40.9648 38.2589 41.8365 37.3874 42.9118 37.3874C43.9873 37.3874 44.8587 38.2589 44.8587 39.334Z" fill="#17282F"/>
<path d="M254.679 61.7773H76.952C74.2279 61.7773 72.0195 59.5689 72.0195 56.8455C72.0195 54.1208 74.2279 51.9124 76.952 51.9124H254.679C257.404 51.9124 259.612 54.1208 259.612 56.8455C259.612 59.5689 257.404 61.7773 254.679 61.7773Z" fill="#FAFAF9"/>
<path d="M81.2064 57.5056V59.1719H80.362V57.6349C80.362 57.1643 80.1459 56.9482 79.7728 56.9482C79.3665 56.9482 79.0749 57.1968 79.0749 57.733V59.1719H78.2305V55.1574H79.0749V56.5638C79.3015 56.3365 79.6263 56.2178 80.0001 56.2178C80.6868 56.2178 81.2064 56.6175 81.2064 57.5056" fill="#DADBD8"/>
<path d="M83.8486 59.0313C83.6757 59.1552 83.4211 59.2148 83.162 59.2148C82.4747 59.2148 82.0744 58.8629 82.0744 58.1703V56.9746H81.625V56.3257H82.0744V55.6166H82.9181V56.3257H83.6432V56.9746H82.9181V58.1597C82.9181 58.4089 83.0533 58.5441 83.2806 58.5441C83.4052 58.5441 83.5299 58.5063 83.6213 58.4354L83.8486 59.0313" fill="#DADBD8"/>
<path d="M86.1377 59.0313C85.9647 59.1552 85.7102 59.2148 85.4511 59.2148C84.7638 59.2148 84.3634 58.8629 84.3634 58.1703V56.9746H83.9141V56.3257H84.3634V55.6166H85.2078V56.3257H85.9322V56.9746H85.2078V58.1597C85.2078 58.4089 85.3424 58.5441 85.5697 58.5441C85.6943 58.5441 85.8189 58.5063 85.911 58.4354L86.1377 59.0313" fill="#DADBD8"/>
<path d="M88.9291 57.7141C88.9291 57.211 88.6096 56.9081 88.1881 56.9081C87.7659 56.9081 87.4464 57.211 87.4464 57.7141C87.4464 58.2171 87.7659 58.52 88.1881 58.52C88.6096 58.52 88.9291 58.2171 88.9291 57.7141ZM89.7841 57.7141C89.7841 58.6281 89.1511 59.2126 88.3339 59.2126C87.9713 59.2126 87.6737 59.0993 87.457 58.8607V60.2188H86.6133V56.2586H87.4192V56.594C87.6307 56.3395 87.9442 56.2155 88.3339 56.2155C89.1511 56.2155 89.7841 56.7994 89.7841 57.7141Z" fill="#DADBD8"/>
<path d="M90.1406 58.6846C90.1406 58.3711 90.3733 58.165 90.6655 58.165C90.9578 58.165 91.1905 58.3711 91.1905 58.6846C91.1905 58.9928 90.9578 59.2148 90.6655 59.2148C90.3733 59.2148 90.1406 58.9928 90.1406 58.6846ZM90.1406 56.742C90.1406 56.4285 90.3733 56.2223 90.6655 56.2223C90.9578 56.2223 91.1905 56.4285 91.1905 56.742C91.1905 57.0508 90.9578 57.2722 90.6655 57.2722C90.3733 57.2722 90.1406 57.0508 90.1406 56.742Z" fill="#DADBD8"/>
<path d="M93.2699 54.6141H94.0215L92.236 59.7109H91.4844L93.2699 54.6141Z" fill="#DADBD8"/>
<path d="M94.9965 54.6141H95.7481L93.9625 59.7109H93.2109L94.9965 54.6141Z" fill="#DADBD8"/>
<path d="M254.517 90.6836H99.6725C94.8434 90.6836 90.9297 86.7692 90.9297 81.9414C90.9297 77.113 94.8434 73.1986 99.6725 73.1986H254.517C259.345 73.1986 263.26 77.113 263.26 81.9414C263.26 86.7692 259.345 90.6836 254.517 90.6836Z" fill="#FAFAF9"/>
<path d="M254.518 90.6853C254.496 90.6124 255.856 90.8444 258.097 89.8754C259.181 89.3663 260.483 88.5213 261.519 87.0791C262.035 86.3666 262.498 85.5222 262.801 84.5512C263.099 83.5809 263.244 82.4919 263.164 81.3506C263.085 80.2106 262.772 79.0182 262.18 77.8942C261.592 76.7694 260.697 75.7381 259.574 74.9209C258.457 74.0924 257.062 73.5522 255.569 73.36C254.823 73.2759 254.047 73.2904 253.256 73.2931C252.464 73.2944 251.66 73.2957 250.84 73.2964C244.288 73.3044 236.827 73.313 228.58 73.3222C195.585 73.3348 150.015 73.3534 99.6826 73.3733C98.1442 73.3971 96.5979 73.7782 95.2909 74.5882C93.964 75.3623 92.889 76.5209 92.1447 77.8471C90.6826 80.5254 90.7754 83.9686 92.4237 86.4998C93.2098 87.7816 94.367 88.8136 95.674 89.5214C96.9996 90.2087 98.4803 90.5574 99.9742 90.515C102.992 90.5156 105.986 90.5156 108.953 90.5163C120.821 90.5203 132.27 90.5236 143.177 90.5262C164.988 90.5401 184.629 90.5527 201.125 90.5633C217.617 90.5865 230.963 90.6058 240.193 90.6184C244.802 90.6323 248.381 90.6435 250.815 90.6508C252.025 90.6581 252.949 90.6641 253.577 90.6681C254.199 90.674 254.518 90.6853 254.518 90.6853C254.518 90.6853 254.199 90.6972 253.577 90.7032C252.949 90.7072 252.025 90.7131 250.815 90.7204C248.381 90.7277 244.802 90.7383 240.193 90.7529C230.963 90.7655 217.617 90.7847 201.125 90.8072C184.629 90.8178 164.988 90.8304 143.177 90.8444C132.27 90.8477 120.821 90.851 108.953 90.855C105.986 90.855 102.992 90.8556 99.9742 90.8556C98.4458 90.9007 96.8876 90.5388 95.5143 89.8237C94.1542 89.0886 92.9519 88.0156 92.1334 86.6827C90.4188 84.0488 90.32 80.4697 91.8418 77.6821C92.6159 76.3015 93.734 75.0985 95.114 74.2919C96.4733 73.4502 98.0839 73.0518 99.6826 73.028C150.015 73.0472 195.585 73.0651 228.58 73.0783C236.827 73.0876 244.288 73.0962 250.84 73.1035C251.66 73.1049 252.464 73.1062 253.256 73.1075C254.043 73.1068 254.824 73.0936 255.591 73.1817C257.114 73.3826 258.534 73.94 259.67 74.7877C260.811 75.6241 261.719 76.6773 262.312 77.8246C262.91 78.9699 263.223 80.1834 263.298 81.3413C263.374 82.5012 263.221 83.6047 262.914 84.587C262.602 85.5699 262.128 86.4222 261.601 87.14C260.545 88.5922 259.223 89.4359 258.125 89.939C257.008 90.4381 256.074 90.5706 255.459 90.6508C254.838 90.686 254.518 90.6853 254.518 90.6853" fill="#17282F"/>
<path d="M103.223 83.8026L103.553 83.0695C103.907 83.328 104.436 83.5083 104.941 83.5083C105.517 83.5083 105.752 83.3161 105.752 83.0576C105.752 82.2709 103.307 82.8111 103.307 81.2495C103.307 80.5344 103.883 79.9399 105.078 79.9399C105.607 79.9399 106.148 80.0658 106.539 80.3123L106.238 81.0514C105.848 80.8287 105.445 80.7206 105.072 80.7206C104.496 80.7206 104.274 80.9374 104.274 81.2011C104.274 81.9759 106.719 81.4417 106.719 82.9854C106.719 83.6879 106.136 84.2891 104.935 84.2891C104.268 84.2891 103.595 84.0909 103.223 83.8026" fill="#DADBD8"/>
<path d="M108.013 82.319H109.605C109.539 81.9107 109.233 81.6463 108.813 81.6463C108.386 81.6463 108.08 81.9048 108.013 82.319ZM110.47 82.8658H108.025C108.116 83.2681 108.458 83.5147 108.95 83.5147C109.293 83.5147 109.539 83.4126 109.762 83.2025L110.26 83.7427C109.96 84.0853 109.509 84.2656 108.927 84.2656C107.809 84.2656 107.082 83.5624 107.082 82.6014C107.082 81.6344 107.821 80.9378 108.807 80.9378C109.756 80.9378 110.489 81.5741 110.489 82.6133C110.489 82.6855 110.477 82.7876 110.47 82.8658" fill="#DADBD8"/>
<path d="M112.945 83.1959V82.8658H112.302C111.864 82.8658 111.726 83.0282 111.726 83.2443C111.726 83.4789 111.924 83.6347 112.255 83.6347C112.567 83.6347 112.837 83.4908 112.945 83.1959ZM113.883 82.3734V84.2172H113.005V83.8149C112.831 84.1092 112.495 84.2656 112.02 84.2656C111.263 84.2656 110.812 83.8448 110.812 83.286C110.812 82.7154 111.215 82.319 112.2 82.319H112.945C112.945 81.9167 112.705 81.6827 112.2 81.6827C111.858 81.6827 111.504 81.7961 111.269 81.983L110.932 81.3275C111.287 81.0756 111.81 80.9378 112.326 80.9378C113.312 80.9378 113.883 81.3944 113.883 82.3734" fill="#DADBD8"/>
<path d="M116.741 80.9393V81.8042C116.662 81.7976 116.602 81.7923 116.531 81.7923C116.014 81.7923 115.671 82.074 115.671 82.693V84.2188H114.734V80.987H115.629V81.4132C115.858 81.101 116.242 80.9393 116.741 80.9393" fill="#DADBD8"/>
<path d="M117.027 82.6014C117.027 81.6284 117.778 80.9378 118.829 80.9378C119.508 80.9378 120.043 81.2314 120.278 81.7603L119.551 82.1507C119.376 81.8445 119.118 81.7066 118.824 81.7066C118.349 81.7066 117.976 82.0367 117.976 82.6014C117.976 83.1661 118.349 83.4961 118.824 83.4961C119.118 83.4961 119.376 83.3642 119.551 83.0521L120.278 83.4484C120.043 83.9647 119.508 84.2656 118.829 84.2656C117.778 84.2656 117.027 83.575 117.027 82.6014Z" fill="#DADBD8"/>
<path d="M124.101 82.3689V84.2188H123.164V82.5127C123.164 81.9898 122.924 81.7499 122.509 81.7499C122.059 81.7499 121.734 82.0262 121.734 82.6208V84.2188H120.797V79.7615H121.734V81.3237C121.987 81.0712 122.347 80.9393 122.761 80.9393C123.524 80.9393 124.101 81.3833 124.101 82.3689" fill="#DADBD8"/>
<path d="M126.422 83.6764C126.422 83.3284 126.68 83.0998 127.004 83.0998C127.329 83.0998 127.587 83.3284 127.587 83.6764C127.587 84.0191 127.329 84.2656 127.004 84.2656C126.68 84.2656 126.422 84.0191 126.422 83.6764Z" fill="#DADBD8"/>
<path d="M127.996 83.6764C127.996 83.3284 128.255 83.0998 128.579 83.0998C128.903 83.0998 129.161 83.3284 129.161 83.6764C129.161 84.0191 128.903 84.2656 128.579 84.2656C128.255 84.2656 127.996 84.0191 127.996 83.6764Z" fill="#DADBD8"/>
<path d="M129.57 83.6764C129.57 83.3284 129.829 83.0998 130.153 83.0998C130.478 83.0998 130.735 83.3284 130.735 83.6764C130.735 84.0191 130.478 84.2656 130.153 84.2656C129.829 84.2656 129.57 84.0191 129.57 83.6764Z" fill="#DADBD8"/>
<path d="M72.9007 105.906C72.9007 106.001 66.6864 106.078 59.0214 106.078C51.3543 106.078 45.1406 106.001 45.1406 105.906C45.1406 105.81 51.3543 105.733 59.0214 105.733C66.6864 105.733 72.9007 105.81 72.9007 105.906Z" fill="#040606"/>
<path d="M73.9837 142.676H45.1406V113.833H73.9837V142.676Z" fill="#5795F2"/>
<path d="M249.261 120.632C249.261 120.727 213.456 120.805 169.3 120.805C125.128 120.805 89.332 120.727 89.332 120.632C89.332 120.537 125.128 120.459 169.3 120.459C213.456 120.459 249.261 120.537 249.261 120.632" fill="#040606"/>
<path d="M133.072 131.491C133.072 131.587 123.637 131.664 112.002 131.664C100.362 131.664 90.9297 131.587 90.9297 131.491C90.9297 131.396 100.362 131.319 112.002 131.319C123.637 131.319 133.072 131.396 133.072 131.491" fill="#040606"/>
<path d="M223.695 141.562C223.695 141.657 193.972 141.734 157.316 141.734C120.646 141.734 90.9297 141.657 90.9297 141.562C90.9297 141.467 120.646 141.39 157.316 141.39C193.972 141.39 223.695 141.467 223.695 141.562Z" fill="#DADBD8"/>
<path d="M72.9007 157.565C72.9007 157.66 66.6864 157.738 59.0214 157.738C51.3543 157.738 45.1406 157.66 45.1406 157.565C45.1406 157.47 51.3543 157.392 59.0214 157.392C66.6864 157.392 72.9007 157.47 72.9007 157.565Z" fill="#040606"/>
<path d="M73.9837 194.34H45.1406V165.497H73.9837V194.34Z" fill="#5795F2"/>
<path d="M258.762 172.296C258.762 172.392 220.83 172.469 174.051 172.469C127.255 172.469 89.332 172.392 89.332 172.296C89.332 172.201 127.255 172.124 174.051 172.124C220.83 172.124 258.762 172.201 258.762 172.296Z" fill="#040606"/>
<path d="M133.072 183.156C133.072 183.251 123.637 183.328 112.002 183.328C100.362 183.328 90.9297 183.251 90.9297 183.156C90.9297 183.06 100.362 182.983 112.002 182.983C123.637 182.983 133.072 183.06 133.072 183.156" fill="#040606"/>
<path d="M246.817 193.223C246.817 193.318 211.918 193.395 168.877 193.395C125.821 193.395 90.9297 193.318 90.9297 193.223C90.9297 193.127 125.821 193.05 168.877 193.05C211.918 193.05 246.817 193.127 246.817 193.223Z" fill="#DADBD8"/>
<path d="M283.31 210.185C283.31 209.049 283.256 140.73 283.172 32.7168L283.31 32.8553C211.605 32.8646 121.663 32.8765 24.2793 32.8891H24.2586L24.4311 32.7168C24.4256 96.062 24.4206 156.251 24.4163 210.185L24.2586 210.028C177.065 210.121 281.905 210.185 283.31 210.185C281.905 210.186 177.065 210.25 24.2586 210.344H24.1007V210.185C24.0963 156.251 24.0914 96.062 24.0859 32.7168V32.5438H24.2586H24.2793C121.663 32.5564 211.605 32.569 283.31 32.5782H283.449V32.7168C283.364 140.73 283.311 209.05 283.31 210.185" fill="#17282F"/>
<path d="M114.017 45.577C114.017 45.6725 104.87 45.75 93.5893 45.75C82.3053 45.75 73.1602 45.6725 73.1602 45.577C73.1602 45.4822 82.3053 45.4047 93.5893 45.4047C104.87 45.4047 114.017 45.4822 114.017 45.577Z" fill="#040606"/>
<path d="M77.1607 89.1289H40.8789V78.1989H77.1607V89.1289Z" fill="#33535F"/>
<path d="M141.409 106.824C141.409 106.919 130.127 106.996 116.213 106.996C102.295 106.996 91.0156 106.919 91.0156 106.824C91.0156 106.728 102.295 106.651 116.213 106.651C130.127 106.651 141.409 106.728 141.409 106.824Z" fill="#5795F2"/>
<path d="M141.409 157.565C141.409 157.66 130.127 157.738 116.213 157.738C102.295 157.738 91.0156 157.66 91.0156 157.565C91.0156 157.47 102.295 157.392 116.213 157.392C130.127 157.392 141.409 157.47 141.409 157.565Z" fill="#5795F2"/>
<path d="M251.185 77.091C249.228 77.091 247.635 78.683 247.635 80.6402C247.635 82.5968 249.228 84.1888 251.185 84.1888C253.141 84.1888 254.733 82.5968 254.733 80.6402C254.733 78.683 253.141 77.091 251.185 77.091ZM251.185 84.8516C248.862 84.8516 246.973 82.962 246.973 80.6402C246.973 78.3178 248.862 76.4282 251.185 76.4282C253.507 76.4282 255.396 78.3178 255.396 80.6402C255.396 82.962 253.507 84.8516 251.185 84.8516Z" fill="#5795F2"/>
<path d="M256.357 86.7188C256.273 86.7188 256.188 86.6863 256.123 86.6226L253.379 83.8973C253.25 83.7687 253.248 83.5586 253.378 83.4287C253.507 83.2994 253.716 83.2981 253.846 83.4267L256.591 86.1521C256.72 86.2813 256.721 86.4908 256.592 86.6207C256.527 86.6856 256.442 86.7188 256.357 86.7188Z" fill="#5795F2"/>
<path d="M186.775 130.745C186.775 130.84 175.921 130.918 162.535 130.918C149.145 130.918 138.293 130.84 138.293 130.745C138.293 130.65 149.145 130.573 162.535 130.573C175.921 130.573 186.775 130.65 186.775 130.745" fill="#040606"/>
<path d="M218.102 130C218.102 130.095 212.424 130.172 205.423 130.172C198.418 130.172 192.742 130.095 192.742 130C192.742 129.904 198.418 129.827 205.423 129.827C212.424 129.827 218.102 129.904 218.102 130Z" fill="#040606"/>
<path d="M186.548 183.156C186.548 183.251 175.694 183.328 162.309 183.328C148.918 183.328 138.066 183.251 138.066 183.156C138.066 183.06 148.918 182.983 162.309 182.983C175.694 182.983 186.548 183.06 186.548 183.156" fill="#040606"/>
<path d="M56.4296 196.796C51.0522 199.581 46.9289 204.377 43.964 209.658C40.999 214.938 39.0884 220.733 37.1956 226.485L35.5391 256.152C41.7962 245.508 46.8178 232.995 48.1748 220.723C46.787 220.599 45.3991 220.476 44.0111 220.352C46.8029 219.926 49.1459 217.903 50.6369 215.505C52.1279 213.106 52.8955 210.34 53.6448 207.617C51.9511 207.869 50.2579 208.121 48.5647 208.373C52.5427 205.718 55.4266 201.472 56.4296 196.796" fill="#33535F"/>
<path d="M35.5391 256.152L37.1956 226.485C39.0884 220.733 40.999 214.938 43.964 209.658C46.9289 204.377 51.0522 199.581 56.4296 196.796C55.4266 201.472 52.5427 205.718 48.5647 208.373C50.2579 208.121 51.9511 207.869 53.6448 207.617C53.4408 208.359 53.2355 209.103 53.0146 209.842C52.4241 211.819 51.7219 213.759 50.6369 215.505C49.1459 217.903 46.8029 219.926 44.0111 220.352C45.3991 220.476 46.787 220.599 48.1748 220.723C46.8178 232.995 41.7962 245.508 35.5391 256.152Z" fill="#20353D"/>
<path d="M34.6123 263.102C34.6123 263.102 21.0314 246.847 21.1883 231.33H26.6741C26.6741 231.33 20.7153 227.411 21.1867 225.217C21.6584 223.022 21.8154 214.714 21.8154 214.714L26.8308 215.969C26.8308 215.969 23.0692 214.088 22.5988 211.11C22.1286 208.132 23.6962 194.338 23.6962 194.338C23.6962 194.338 29.8092 200.765 31.6901 207.348C33.571 213.931 38.508 221.612 37.0584 241.674C35.6086 261.738 34.6123 263.102 34.6123 263.102Z" fill="#33535F"/>
<path d="M41.4974 264.637C41.4974 264.637 56.2108 254.835 59.4796 242.325L55.0692 241.124C55.0692 241.124 60.7172 239.278 60.8181 237.411C60.9191 235.543 62.6108 228.83 62.6108 228.83L58.304 228.741C58.304 228.741 61.7399 228.051 62.7695 225.76C63.7992 223.468 65.5569 212.036 65.5569 212.036C65.5569 212.036 59.236 215.866 56.2835 220.747C53.3313 225.628 47.6812 230.723 44.4574 247.17C41.2333 263.617 41.4974 264.637 41.4974 264.637" fill="#33535F"/>
<path d="M27.4045 208.51C27.4102 208.509 27.4283 208.566 27.4579 208.678C27.4902 208.81 27.5306 208.974 27.5805 209.178C27.687 209.644 27.8341 210.288 28.0196 211.104C28.3992 212.779 28.902 215.212 29.4775 218.227C30.6366 224.255 32.0054 232.631 33.0853 241.937C34.158 251.247 34.7355 259.715 34.9828 265.849C35.1099 268.916 35.1759 271.399 35.1884 273.116C35.1936 273.952 35.1974 274.613 35.2003 275.092C35.1979 275.301 35.1964 275.469 35.1948 275.605C35.1915 275.721 35.1871 275.781 35.1811 275.781C35.1749 275.781 35.1679 275.722 35.1596 275.606C35.1522 275.47 35.1425 275.302 35.1306 275.093C35.1122 274.615 35.0866 273.955 35.054 273.119C35.0004 271.404 34.8974 268.923 34.7386 265.86C34.4298 259.734 33.8138 251.278 32.7423 241.976C31.6637 232.679 30.3342 224.306 29.2375 218.272C28.6928 215.253 28.2273 212.814 27.8884 211.132C27.7292 210.31 27.6033 209.661 27.5125 209.192C27.4762 208.986 27.447 208.82 27.4231 208.686C27.405 208.571 27.3985 208.512 27.4045 208.51" fill="#17282F"/>
<path d="M32.7266 273.059C32.7266 273.059 20.2988 258.957 16.4401 250.433L19.3531 249.188C17.2414 249.537 15.0781 248.629 13.4407 247.251C11.8034 245.872 10.6009 244.06 9.42211 242.274L13.2598 241.625C9.77034 240.646 6.69534 238.265 4.875 235.131C9.40342 235.875 13.5003 238.362 16.8763 241.471C19.6106 243.989 21.9257 246.912 24.1489 249.898C25.2337 251.355 26.1826 252.907 26.9732 254.542C29.0616 258.859 32.7338 267.88 32.7266 273.059Z" fill="#33535F"/>
<path d="M59.6748 220.244C59.6801 220.246 59.6624 220.295 59.6218 220.389C59.5711 220.501 59.5094 220.636 59.4348 220.801C59.2511 221.186 59.0012 221.709 58.6859 222.369C58.0244 223.725 57.0853 225.697 55.9469 228.142C53.6676 233.031 50.6609 239.853 47.6898 247.528C44.7236 255.208 42.3588 262.28 40.7562 267.43C39.9531 270.005 39.3221 272.095 38.8993 273.543C38.6883 274.243 38.5213 274.799 38.3984 275.207C38.3427 275.38 38.2974 275.521 38.2596 275.637C38.2267 275.734 38.2068 275.782 38.2011 275.781C38.1951 275.78 38.2036 275.728 38.2257 275.629C38.2544 275.509 38.2891 275.365 38.3316 275.189C38.4393 274.776 38.5855 274.215 38.7699 273.506C39.1533 272.046 39.7493 269.945 40.5227 267.358C42.0667 262.185 44.3981 255.093 47.3677 247.404C50.3428 239.72 53.3885 232.904 55.7261 228.038C56.8937 225.603 57.8667 223.648 58.5655 222.309C58.9054 221.661 59.1747 221.148 59.3727 220.77C59.4597 220.611 59.5311 220.481 59.5902 220.373C59.641 220.285 59.6697 220.241 59.6748 220.244" fill="#17282F"/>
<path d="M33.7822 279.098C33.7587 279.1 33.6891 278.742 33.5839 278.092C33.4837 277.442 33.3172 276.505 33.0858 275.354C32.6263 273.05 31.8234 269.898 30.5612 266.544C29.2911 263.191 27.8104 260.294 26.6327 258.262C26.0455 257.245 25.551 256.432 25.1963 255.878C24.8463 255.321 24.6614 255.005 24.6811 254.992C24.7005 254.978 24.9226 255.268 25.3082 255.804C25.698 256.335 26.2257 257.132 26.8427 258.138C28.0797 260.147 29.6056 263.046 30.8841 266.422C32.1548 269.798 32.9255 272.982 33.3255 275.308C33.5272 276.47 33.6574 277.417 33.7168 278.074C33.7814 278.731 33.8058 279.095 33.7822 279.098" fill="#17282F"/>
<path d="M50.1809 281.328H22.9805V275.78H50.1809V281.328Z" fill="#5795F2"/>
<path d="M25.5742 281.333L28.5163 299.996H44.9525L47.6947 281.333H25.5742" fill="#5795F2"/>
<path d="M48.5113 281.331C48.5113 281.427 43.3656 281.504 37.0197 281.504C30.6717 281.504 25.5273 281.427 25.5273 281.331C25.5273 281.236 30.6717 281.159 37.0197 281.159C43.3656 281.159 48.5113 281.236 48.5113 281.331Z" fill="#17282F"/>
<path d="M166.984 286.222V299.988L194.743 299.853C194.54 297.062 179.306 291.493 179.306 291.493L179.609 286.222H166.984" fill="#33535F"/>
<path d="M171.756 292.465C171.29 292.465 170.828 292.107 170.715 291.621C170.591 291.086 170.899 290.49 171.376 290.282C171.482 290.221 171.602 290.193 171.724 290.193C172.16 290.193 172.644 290.543 172.793 290.972C172.984 291.522 172.53 292.279 171.995 292.432C171.916 292.454 171.836 292.465 171.756 292.465Z" fill="#A6B7B9"/>
<path d="M166.984 299.988V297.789L193.486 298.103C193.486 298.103 194.868 298.935 194.743 299.853L166.984 299.988Z" fill="#17282F"/>
<path d="M179.307 291.758C179.305 291.901 178.631 291.976 177.974 292.445C177.306 292.896 176.972 293.52 176.848 293.465C176.723 293.439 176.911 292.583 177.716 292.03C178.516 291.468 179.335 291.626 179.307 291.758Z" fill="#17282F"/>
<path d="M182.944 293.032C182.977 293.17 182.397 293.422 181.947 294.033C181.481 294.63 181.375 295.285 181.241 295.281C181.113 295.305 181.009 294.47 181.581 293.721C182.147 292.968 182.939 292.896 182.944 293.032" fill="#17282F"/>
<path d="M184.581 296.542C184.458 296.575 184.26 295.864 184.596 295.076C184.926 294.286 185.557 293.969 185.616 294.086C185.693 294.203 185.29 294.629 185.024 295.28C184.745 295.924 184.714 296.527 184.581 296.542" fill="#17282F"/>
<path d="M179.037 287.845C178.982 287.977 178.361 287.788 177.599 287.855C176.837 287.905 176.247 288.185 176.175 288.063C176.096 287.962 176.667 287.424 177.565 287.359C178.462 287.288 179.102 287.732 179.037 287.845" fill="#17282F"/>
<path d="M179.19 292.375C179.21 292.378 179.281 292.081 179.25 291.534C179.21 290.994 179.045 290.187 178.514 289.364C178.247 288.958 177.896 288.553 177.429 288.221C177.203 288.063 176.851 287.891 176.492 288.058C176.155 288.219 175.965 288.596 175.945 288.964C175.98 290.38 176.998 291.687 178.384 292.183C179.807 292.681 181.311 292.067 182.133 291.07C182.335 290.817 182.529 290.559 182.631 290.22C182.678 290.055 182.701 289.86 182.635 289.67C182.572 289.483 182.424 289.333 182.258 289.273C181.923 289.158 181.638 289.258 181.393 289.357C181.152 289.473 180.944 289.593 180.747 289.725C179.959 290.25 179.457 290.856 179.16 291.296C178.862 291.739 178.758 292.022 178.777 292.034C178.839 292.097 179.351 290.947 180.89 289.979C181.262 289.766 181.749 289.46 182.141 289.597C182.313 289.667 182.382 289.87 182.299 290.111C182.227 290.349 182.049 290.589 181.863 290.812C181.112 291.693 179.754 292.228 178.507 291.786C177.275 291.372 176.346 290.119 176.309 288.988C176.315 288.726 176.451 288.485 176.635 288.392C176.814 288.298 177.046 288.377 177.254 288.515C177.68 288.8 178.024 289.169 178.288 289.536C178.813 290.286 179.013 291.039 179.097 291.553C179.173 292.074 179.157 292.372 179.19 292.375" fill="#17282F"/>
<path d="M156.841 288.216L157.31 291.758L156.996 299.746L146.59 300L146.219 291.758L147.402 286.861L156.841 288.216" fill="#33535F"/>
<path d="M151.85 299.145C151.787 299.147 151.937 296.704 152.185 293.686C152.433 290.668 152.685 288.22 152.748 288.217C152.812 288.213 152.662 290.656 152.414 293.674C152.166 296.692 151.914 299.141 151.85 299.145" fill="#17282F"/>
<path d="M157.037 298.417L146.523 298.539V300L157.045 299.988L157.037 298.417" fill="#17282F"/>
<path d="M146.549 293.821C146.533 293.809 146.622 293.656 146.815 293.399C147.008 293.143 147.314 292.792 147.742 292.407C148.171 292.024 148.728 291.607 149.423 291.279C150.111 290.944 150.951 290.708 151.848 290.716C153.648 290.719 155.163 291.6 155.908 292.478C156.295 292.912 156.534 293.32 156.67 293.61C156.803 293.903 156.854 294.074 156.836 294.081C156.779 294.113 156.528 293.431 155.746 292.631C154.989 291.829 153.553 291.036 151.845 291.031C150.142 291.022 148.739 291.883 147.886 292.577C147.016 293.287 146.592 293.858 146.549 293.821" fill="#17282F"/>
<path d="M151.806 65.2836L151.695 101.264L167.132 102L167.578 93.2486C167.578 93.2486 173.061 94.3375 174.476 89.2453C175.379 85.993 175.153 60.8555 175.153 60.8555L151.806 65.2836Z" fill="#C0776A"/>
<path d="M177.183 63.3891C174.752 64.085 174.224 68.0584 174.224 68.0584L170.41 76.4818C168.467 74.9607 165.858 75.0475 165.365 78.4622C165.008 80.9291 168.075 81.4275 168.075 81.4275C166.29 84.4663 165.079 86.924 162.479 89.8144C159.665 92.9421 158.089 93.2582 155.037 93.3086H151.672C151.672 93.3086 150.024 87.9619 146.974 74.5902C143.59 59.7557 161.133 61.6665 164.384 57.88C169.681 51.7134 184.848 61.1952 177.183 63.3891" fill="#17282F"/>
<path d="M181.468 60.165C181.216 58.585 179.704 57.264 178.107 57.3648C178.679 56.5628 178.406 55.3572 177.671 54.7017C176.935 54.0469 175.865 53.8772 174.891 54.0237C173.918 54.1715 173.012 54.599 172.121 55.0205C171.961 54.2682 171.008 53.0209 170.333 52.6537C168.975 51.9147 168.124 51.9147 167.354 51.9147C162.618 51.914 160.12 55.1603 157.579 58.4643C157.143 59.0317 156.711 59.6646 156.044 59.9225C155.593 60.0961 155.095 60.0736 154.613 60.0829C151.005 60.1531 147.514 62.3237 145.855 65.529C144.196 68.7336 142.958 76.1501 147.249 80.7486L149.837 86.5234L174.58 66.9182C174.755 67.0097 176.306 67.7659 177.5 67.1382C180.463 65.5787 179.22 62.9779 179.22 62.9779C179.456 62.8546 181.719 61.7445 181.468 60.165" fill="#17282F"/>
<path d="M158.569 79.4477C158.668 79.4371 158.821 80.6858 158.48 82.1797C158.148 83.6756 157.474 84.7374 157.389 84.6857C157.286 84.634 157.781 83.5318 158.099 82.0935C158.428 80.6586 158.453 79.4503 158.569 79.4477" fill="#33535F"/>
<path d="M160.434 77.6804C160.538 77.685 160.561 78.8747 160.291 80.3103C160.025 81.7479 159.575 82.8488 159.477 82.8157C159.37 82.7819 159.646 81.6479 159.906 80.2388C160.172 78.831 160.323 77.6738 160.434 77.6804" fill="#33535F"/>
<path d="M165.782 71.7414C165.819 71.7931 165.382 72.1119 164.827 72.7627C164.267 73.4063 163.629 74.4131 163.164 75.6333C162.696 76.8548 162.439 78.0253 162.242 78.869C162.047 79.7154 161.914 80.2396 161.859 80.2303C161.807 80.2211 161.844 79.6822 161.969 78.818C162.1 77.9563 162.317 76.7554 162.798 75.4927C163.281 74.2288 163.988 73.1942 164.624 72.5745C165.256 71.9462 165.76 71.7036 165.782 71.7414" fill="#33535F"/>
<path d="M167.941 67.7025C167.986 67.6899 168.144 68.0504 168.24 68.6761C168.339 69.2985 168.341 70.1906 168.107 71.1324C167.869 72.0749 167.445 72.859 167.066 73.362C166.686 73.8684 166.377 74.1116 166.342 74.0792C166.245 74.0056 167.291 72.8437 167.727 71.0376C168.194 69.2395 167.821 67.7224 167.941 67.7025Z" fill="#33535F"/>
<path d="M149.519 76.688C149.466 76.7828 148.994 76.6184 148.464 76.3222C147.933 76.0259 147.546 75.7091 147.599 75.615C147.651 75.5208 148.124 75.6846 148.654 75.9808C149.185 76.2771 149.572 76.5939 149.519 76.688Z" fill="#33535F"/>
<path d="M156.976 72.8448C157.078 72.86 157.015 73.6222 156.535 74.4096C156.061 75.201 155.415 75.6119 155.355 75.5284C155.282 75.4429 155.767 74.9352 156.2 74.2075C156.642 73.4857 156.866 72.8196 156.976 72.8448" fill="#33535F"/>
<path d="M159.27 71.6123C159.37 71.6342 159.208 72.5482 158.584 73.4827C157.965 74.4219 157.187 74.9256 157.127 74.8427C157.054 74.7552 157.678 74.1488 158.258 73.2666C158.846 72.3904 159.162 71.5792 159.27 71.6123" fill="#33535F"/>
<path d="M170.667 56.5438C170.639 56.575 170.378 56.3238 169.821 56.007C169.264 55.7014 168.374 55.3667 167.235 55.3382C166.105 55.3031 164.718 55.5722 163.44 56.3583C162.16 57.143 161.029 58.4209 160.208 59.9579C159.609 61.0747 159.195 62.2378 158.896 63.3314L158.835 63.5581L158.626 63.4488C157.481 62.847 156.267 62.5825 155.183 62.5686C154.094 62.5381 153.137 62.7376 152.38 62.9914C150.854 63.5131 150.13 64.1984 150.09 64.1367C150.078 64.1222 150.25 63.9505 150.607 63.6787C150.966 63.4123 151.529 63.065 152.3 62.7694C153.07 62.4771 154.055 62.2405 155.187 62.2478C156.314 62.2392 157.589 62.4937 158.803 63.118L158.534 63.236C158.829 62.1179 159.246 60.9242 159.864 59.7729C160.711 58.1876 161.897 56.858 163.253 56.0494C164.613 55.2388 166.068 54.9903 167.246 55.0625C168.435 55.1281 169.349 55.5205 169.898 55.8764C170.17 56.066 170.373 56.2184 170.492 56.3463C170.616 56.467 170.676 56.5339 170.667 56.5438" fill="#33535F"/>
<path d="M178.784 58.5048C178.757 58.4975 179.215 58.3895 179.671 58.9058C179.879 59.155 180.071 59.548 180.026 60.0325C179.979 60.517 179.644 61.0161 179.129 61.315C178.621 61.6259 177.926 61.7299 177.253 61.5728C176.577 61.4257 175.927 61.0671 175.319 60.635C174.705 60.2055 174.116 59.7064 173.426 59.3379C172.738 58.9648 171.964 58.6924 171.146 58.5366C169.503 58.2304 167.871 58.4147 166.492 58.8548C165.106 59.3002 163.954 59.9676 163.052 60.6039C161.25 61.8996 160.361 62.9839 160.306 62.9276C160.287 62.9117 160.493 62.632 160.916 62.1674C161.342 61.7081 161.987 61.0592 162.889 60.3805C163.788 59.7038 164.953 58.9919 166.381 58.5128C167.803 58.0375 169.499 57.8321 171.218 58.1522C172.074 58.3146 172.888 58.6036 173.611 59.0019C174.34 59.3996 174.937 59.9172 175.527 60.3414C176.114 60.7702 176.715 61.1096 177.326 61.2567C177.933 61.4098 178.532 61.3336 178.991 61.0744C179.452 60.8279 179.751 60.4063 179.808 60.006C179.867 59.5997 179.722 59.2359 179.551 59.0006C179.184 58.5094 178.764 58.5479 178.784 58.5048Z" fill="#33535F"/>
<path d="M250.703 86.1081C250.12 85.5911 242.26 88.8891 242.26 88.8891C242.26 88.8891 236.394 93.4895 233.981 96.2076L232.49 97.447L210.182 114.795L182.742 103.38L176.789 118.689C176.789 118.689 207.593 130.952 212.287 128.852C217.388 126.571 236.376 106.697 236.421 106.629L236.421 106.628L239.163 103.986C239.163 103.986 240.614 103.958 241.714 103.893C242.813 103.828 246.034 101.688 246.034 101.688C246.034 101.688 246.5 100.851 246.659 99.8119C246.818 98.772 246.063 98.4485 246.063 98.4485C246.063 98.4485 246.244 97.7758 246.119 96.9009C245.993 96.0254 244.823 95.0093 244.823 95.0093C244.823 95.0093 245.285 94.6322 245.557 93.6234C245.828 92.614 244.521 91.6609 244.521 91.6609C244.521 91.6609 249.083 88.5591 250.191 88.0149C251.299 87.4708 251.286 86.6257 250.703 86.1081" fill="#C0776A"/>
<path d="M186.776 242.88C186.867 241.872 186.918 241.097 186.918 240.613L190.016 191.147C190.016 191.147 187.411 176.702 186.18 172.868L175.103 168.58L160.346 174.328C160.249 173.137 160.189 172.407 160.189 172.407L138.453 179.919C138.453 179.919 137.891 194.747 138.453 199.261C138.634 200.71 139.203 204.456 139.891 208.87C139.891 208.87 140.591 218.462 140.735 218.997C141.262 220.953 141.384 225.742 141.384 230.54C141.384 236.64 141.715 243.897 142.095 247.347C142.476 250.797 142.661 288.73 142.661 288.73H158.698L160.757 228.308C161.103 221.833 161.622 211.929 161.955 204.767L165.722 227.076C165.722 227.895 168.014 240.649 168.014 240.649C168.014 240.649 167.175 246.634 167.031 252.753C166.766 263.999 165.445 288.73 165.445 288.73H181.144C181.144 288.73 185.858 253.015 186.776 242.88" fill="#17282F"/>
<path d="M189.477 188.184C189.457 188.221 188.887 187.956 188.03 187.413C187.174 186.873 186.044 186.031 184.929 184.954C183.814 183.875 182.938 182.773 182.368 181.935C181.798 181.097 181.515 180.536 181.55 180.515C181.595 180.487 181.948 181.001 182.562 181.794C183.175 182.588 184.067 183.647 185.164 184.711C186.263 185.772 187.351 186.629 188.165 187.215C188.978 187.802 189.502 188.14 189.477 188.184" fill="#33535F"/>
<path d="M161.484 197.171C161.464 197.181 161.356 197.006 161.177 196.678C160.996 196.352 160.762 195.864 160.502 195.25C159.979 194.023 159.394 192.259 159.041 190.247C158.692 188.234 158.646 186.377 158.724 185.044C158.761 184.378 158.815 183.84 158.875 183.472C158.932 183.103 158.975 182.901 158.998 182.904C159.053 182.91 158.977 183.729 158.963 185.051C158.948 186.373 159.031 188.202 159.374 190.188C159.724 192.174 160.263 193.923 160.725 195.162C161.185 196.401 161.534 197.147 161.484 197.171Z" fill="#33535F"/>
<path d="M163.818 215.797C163.794 215.801 163.722 215.494 163.612 214.936C163.497 214.307 163.351 213.514 163.178 212.569C162.828 210.493 162.37 207.761 161.861 204.742C160.975 199.192 160.371 195.414 160.09 193.658C160.164 193.63 160.476 194.868 160.849 196.861C161.231 198.857 161.712 201.623 162.213 204.684C162.712 207.743 163.137 210.518 163.426 212.529C163.555 213.481 163.663 214.28 163.748 214.915C163.817 215.479 163.843 215.793 163.818 215.797" fill="#33535F"/>
<path d="M125.969 133.295C125.969 133.295 123.85 148.204 123.454 153.428C123.216 156.573 126.41 160.748 128.848 161.054C131.325 161.364 139.507 161.848 139.507 161.848L140.189 152.497L139.977 150.638L137.425 150.157L138.194 135.328L125.969 133.295Z" fill="#C0776A"/>
<path d="M137.857 135.829C137.881 135.828 137.914 136.116 137.951 136.639C137.991 137.161 138.024 137.919 138.043 138.855C138.085 140.728 138.042 143.318 137.882 146.17C137.722 149.024 137.494 151.6 137.309 153.462C137.215 154.393 137.132 155.146 137.066 155.665C137 156.184 136.952 156.471 136.927 156.469C136.904 156.467 136.905 156.176 136.928 155.653C136.963 155.056 137.006 154.317 137.058 153.441C137.183 151.497 137.346 148.958 137.527 146.15C137.687 143.304 137.77 140.724 137.792 138.856C137.8 137.98 137.808 137.24 137.814 136.643C137.818 136.12 137.832 135.83 137.857 135.829" fill="#B85549"/>
<path d="M138.548 179.887L138.535 179.85C142.398 178.018 146.463 176.638 150.633 175.71L138.548 179.887" fill="#A7A9A8"/>
<path d="M147.868 181.668C144.726 181.668 141.595 181.28 138.661 180.19L138.551 179.886L150.635 175.71C154.888 174.764 159.246 174.29 163.605 174.29C171.342 174.29 179.079 175.784 186.212 178.784C186.903 179.075 187.714 179.592 187.599 180.333C187.526 180.804 187.065 181.138 186.595 181.221C186.48 181.242 186.366 181.25 186.25 181.25C185.892 181.25 185.532 181.167 185.18 181.087C180.558 180.035 175.819 179.505 171.08 179.505C169.085 179.505 167.09 179.599 165.103 179.787C160.669 180.208 156.288 181.095 151.85 181.483C150.531 181.598 149.198 181.668 147.868 181.668Z" fill="#0F191D"/>
<path d="M202.592 110.156L179.054 98.4348C172.867 97.7131 167.865 97.9457 167.865 97.9457H152.285C152.285 97.9457 133.404 103.515 130.287 108.647L122.195 132.907L138.192 135.324L140.187 152.752C140.187 152.752 138.202 172.933 138.202 175.866C138.202 178.798 138.452 179.918 138.452 179.918C138.452 179.918 170.46 175.052 178.342 177.618C186.224 180.184 188.354 179.918 188.354 179.918C188.354 179.918 187.695 171.542 187.111 166.682L185.283 142.362L183.934 123.793L198.747 128.327L202.592 110.156" fill="#5795F2"/>
<path d="M138.047 135.512C137.988 135.519 137.831 134.508 137.475 132.896C137.12 131.284 136.53 129.075 135.624 126.708C134.717 124.34 133.68 122.271 132.878 120.798C132.498 120.114 132.175 119.533 131.911 119.059C131.681 118.649 131.563 118.416 131.585 118.405C131.606 118.393 131.766 118.604 132.035 118.996C132.306 119.385 132.675 119.964 133.106 120.691C133.97 122.143 135.052 124.212 135.966 126.599C136.88 128.985 137.435 131.223 137.728 132.853C137.874 133.67 137.97 134.333 138.012 134.793C138.057 135.254 138.071 135.509 138.047 135.512" fill="#17282F"/>
<path d="M168.237 142.405C168.248 142.409 168.219 142.519 168.154 142.725C168.073 142.967 167.974 143.263 167.854 143.622C167.724 144.011 167.555 144.484 167.335 145.025C167.118 145.566 166.886 146.19 166.58 146.858C166.004 148.21 165.238 149.785 164.312 151.494C163.37 153.194 162.258 155.021 160.977 156.864C159.685 158.7 158.349 160.37 157.074 161.838C155.786 163.294 154.568 164.554 153.496 165.558C152.973 166.074 152.466 166.506 152.032 166.895C151.599 167.287 151.212 167.607 150.892 167.863C150.595 168.098 150.351 168.293 150.152 168.452C149.98 168.584 149.887 168.649 149.879 168.64C149.871 168.63 149.951 168.548 150.108 168.4C150.296 168.228 150.526 168.017 150.805 167.764C151.113 167.492 151.486 167.158 151.904 166.754C152.326 166.353 152.819 165.911 153.329 165.386C154.376 164.364 155.569 163.093 156.838 161.634C158.093 160.162 159.415 158.494 160.699 156.67C161.973 154.838 163.087 153.025 164.039 151.342C164.976 149.65 165.76 148.094 166.362 146.76C166.68 146.101 166.926 145.486 167.159 144.954C167.396 144.421 167.581 143.956 167.731 143.574C167.875 143.226 167.993 142.938 168.09 142.702C168.176 142.503 168.226 142.401 168.237 142.405" fill="#17282F"/>
<path d="M179.111 100.042C179.179 100.074 178.231 101.014 177.871 102.996C177.687 103.973 177.682 105.171 177.892 106.475C178.094 107.78 178.487 109.193 178.887 110.678C179.699 113.645 180.559 116.294 181.212 118.201C181.523 119.102 181.785 119.858 181.992 120.459C182.177 120.993 182.269 121.291 182.247 121.301C182.224 121.31 182.087 121.028 181.863 120.509C181.641 119.99 181.332 119.232 180.975 118.287C180.261 116.397 179.359 113.749 178.544 110.772C178.145 109.284 177.757 107.861 177.568 106.523C177.372 105.19 177.402 103.949 177.624 102.947C177.838 101.941 178.218 101.186 178.534 100.713C178.858 100.24 179.097 100.03 179.111 100.042" fill="#17282F"/>
<path d="M134.689 125.58C134.713 125.607 134.294 126.029 133.435 126.432C132.588 126.836 131.261 127.169 129.813 126.95C128.365 126.729 127.197 126.016 126.509 125.378C125.809 124.737 125.534 124.21 125.565 124.192C125.611 124.155 125.953 124.623 126.667 125.192C127.371 125.76 128.496 126.4 129.865 126.609C131.233 126.816 132.498 126.541 133.339 126.207C134.19 125.876 134.656 125.531 134.689 125.58Z" fill="white"/>
<path d="M179.812 114.635C179.824 114.64 179.755 114.815 179.613 115.145C179.472 115.473 179.244 115.952 178.92 116.551C178.259 117.738 177.186 119.428 175.419 121.129C173.666 122.813 171.137 124.489 167.949 125.195C166.367 125.548 164.637 125.672 162.882 125.413C161.121 125.174 159.387 124.489 157.755 123.59C154.501 121.772 151.754 119.472 148.743 118.373C145.759 117.227 142.758 117.36 140.434 117.915C138.081 118.479 136.365 119.502 135.271 120.281C134.184 121.087 133.675 121.647 133.645 121.616C133.645 121.616 134.117 121.021 135.19 120.173C136.27 119.353 137.991 118.282 140.375 117.678C142.729 117.083 145.791 116.918 148.855 118.075C151.937 119.185 154.71 121.498 157.922 123.288C159.532 124.174 161.218 124.841 162.932 125.078C164.639 125.335 166.329 125.221 167.88 124.884C171.005 124.21 173.5 122.591 175.252 120.951C177.017 119.297 178.112 117.643 178.803 116.485C179.144 115.9 179.389 115.433 179.551 115.115C179.712 114.796 179.802 114.63 179.812 114.635" fill="white"/>
<path d="M194.548 106.138C194.566 106.131 194.69 106.396 194.855 106.901C195.013 107.406 195.184 108.161 195.237 109.112C195.282 110.059 195.216 111.209 194.867 112.425C194.531 113.64 193.927 114.923 193.005 116.059C192.078 117.202 190.955 118.018 190.051 118.853C189.126 119.671 188.427 120.536 188.045 121.379C187.652 122.215 187.565 122.977 187.606 123.488C187.646 124.003 187.755 124.278 187.724 124.289C187.713 124.293 187.679 124.228 187.625 124.098C187.572 123.968 187.51 123.768 187.473 123.502C187.387 122.975 187.441 122.165 187.823 121.279C188.19 120.388 188.908 119.461 189.834 118.619C190.743 117.758 191.85 116.939 192.736 115.842C194.538 113.632 195.046 110.954 194.993 109.12C194.947 107.253 194.472 106.156 194.548 106.138Z" fill="white"/>
<path d="M156.261 162.013C156.267 162.035 156.023 162.125 155.571 162.253C155.118 162.379 154.458 162.552 153.62 162.67C152.787 162.77 151.745 162.846 150.645 162.496C150.1 162.324 149.557 162.029 149.085 161.618C148.616 161.206 148.224 160.706 147.813 160.225C147.405 159.74 146.966 159.327 146.481 158.997C145.993 158.672 145.474 158.437 144.961 158.268C143.932 157.929 142.933 157.903 142.12 157.996C141.302 158.09 140.667 158.329 140.25 158.522C139.828 158.714 139.608 158.853 139.59 158.827C139.581 158.815 139.776 158.636 140.189 158.403C140.598 158.167 141.241 157.884 142.086 157.754C142.925 157.626 143.971 157.626 145.057 157.964C145.598 158.133 146.149 158.375 146.668 158.715C147.184 159.059 147.662 159.507 148.074 160.001C148.493 160.491 148.874 160.977 149.309 161.365C149.744 161.748 150.238 162.025 150.745 162.194C151.765 162.538 152.773 162.496 153.592 162.428C155.241 162.237 156.247 161.948 156.261 162.013" fill="white"/>
<path d="M186.742 160.596C186.749 160.606 186.677 160.667 186.533 160.776C186.385 160.879 186.18 161.052 185.879 161.217C185.299 161.581 184.393 162.023 183.2 162.338C182.009 162.631 180.521 162.82 178.899 162.587C177.278 162.391 175.536 161.74 174.01 160.625C172.489 159.506 171.288 158.183 170.1 157.109C168.928 156.018 167.738 155.194 166.63 154.718C165.528 154.227 164.543 154.098 163.873 154.108C163.199 154.12 162.832 154.22 162.824 154.186C162.822 154.175 162.91 154.144 163.085 154.097C163.26 154.046 163.524 153.998 163.868 153.974C164.553 153.922 165.58 154.017 166.725 154.493C167.874 154.951 169.117 155.782 170.314 156.874C171.526 157.947 172.732 159.257 174.214 160.346C175.695 161.427 177.368 162.063 178.943 162.271C180.517 162.516 181.97 162.358 183.142 162.102C184.316 161.824 185.219 161.423 185.813 161.101C186.411 160.783 186.723 160.569 186.742 160.596" fill="white"/>
<path d="M271.324 7.07714C262.432 2.84126 251.694 2.79684 242.429 7.90229C235.033 11.9791 229.665 18.6925 227.317 26.805C224.968 34.9188 225.921 43.4608 229.997 50.8575C234.074 58.2556 240.787 63.6222 248.901 65.9704C257.014 68.3187 265.556 67.3662 272.953 63.2894C280.351 59.2133 285.717 52.4999 288.065 44.3867C290.414 36.2736 289.462 27.7316 285.385 20.3349C282.076 14.33 277.087 9.82307 271.324 7.07714V7.07714ZM243.08 66.162C236.902 63.2185 231.557 58.3901 228.01 51.9531C223.641 44.0249 222.62 34.8704 225.137 26.1747C227.653 17.4789 233.406 10.2837 241.334 5.91461C257.699 -3.1046 278.352 2.87242 287.373 19.2393C291.741 27.1675 292.762 36.3226 290.246 45.0177C287.729 53.7135 281.977 60.9087 274.049 65.2778C264.118 70.7491 252.61 70.7014 243.08 66.162" fill="#17282F"/>
<path d="M300.265 103.2C298.284 104.422 295.69 103.807 294.469 101.828L272.307 65.9158C272.097 65.5757 272.203 65.1304 272.543 64.9203L277.27 62.0033C277.602 61.7985 278.037 61.894 278.253 62.2181L301.561 97.2835C302.88 99.2679 302.292 101.95 300.265 103.2" fill="#17282F"/>
<path d="M272.14 5.36745C263.248 1.13091 252.511 1.08584 243.245 6.19195C235.849 10.2681 230.481 16.9821 228.134 25.0946C225.785 33.2078 226.737 41.7498 230.813 49.1472C234.89 56.5446 241.604 61.9118 249.717 64.2594C257.829 66.6077 266.372 65.6559 273.769 61.5791C281.166 57.5029 286.534 50.7889 288.882 42.6764C291.231 34.5632 290.277 26.0212 286.201 18.6238C282.893 12.619 277.903 8.11271 272.14 5.36745V5.36745ZM243.897 64.451C237.718 61.5082 232.373 56.6791 228.825 50.2428C224.457 42.3152 223.437 33.1594 225.953 24.4643C228.469 15.7679 234.222 8.57333 242.15 4.20424C258.515 -4.81564 279.169 1.16205 288.189 17.5289C292.558 25.4572 293.578 34.6123 291.062 43.3074C288.546 52.0025 282.793 59.1977 274.864 63.5675C264.935 69.0381 253.426 68.9904 243.897 64.451" fill="#33535F"/>
<path d="M301.173 102.642L300.83 102.854C299.284 103.807 297.259 103.327 296.305 101.782L272.738 63.593L278.676 59.9284L302.244 98.1182C303.197 99.6632 302.717 101.689 301.173 102.642" fill="#33535F"/>
<path d="M233.207 25.8359C233.185 25.8313 233.253 25.4601 233.395 24.7894C233.461 24.4527 233.554 24.0437 233.708 23.5811C233.856 23.1171 233.994 22.5776 234.237 22.0129C234.351 21.7266 234.47 21.427 234.593 21.1168C234.719 20.8067 234.885 20.4998 235.038 20.1724C235.335 19.5122 235.738 18.8534 236.145 18.1502C237.012 16.7769 238.089 15.3426 239.39 13.9886C240.709 12.6511 242.114 11.5349 243.463 10.6309C244.155 10.2047 244.803 9.78318 245.455 9.46968C245.778 9.3073 246.08 9.13299 246.387 8.99845C246.694 8.86655 246.99 8.73996 247.273 8.61867C247.83 8.36018 248.366 8.20772 248.826 8.04666C249.284 7.8803 249.691 7.77558 250.025 7.70135C250.692 7.54096 251.061 7.46274 251.066 7.48462C251.071 7.50649 250.711 7.6258 250.06 7.82264C249.732 7.91543 249.334 8.03674 248.885 8.21834C248.434 8.39398 247.909 8.55966 247.363 8.82941C247.085 8.95534 246.796 9.08725 246.495 9.22379C246.194 9.36297 245.898 9.54126 245.581 9.70696C244.942 10.0271 244.308 10.4519 243.628 10.8794C242.305 11.7868 240.923 12.8943 239.622 14.2146C238.338 15.5507 237.269 16.9612 236.398 18.3086C235.99 18.9986 235.582 19.6448 235.279 20.293C235.122 20.6131 234.952 20.9147 234.821 21.2189C234.692 21.5225 234.569 21.8161 234.451 22.0971C234.196 22.6505 234.044 23.1801 233.881 23.6354C233.712 24.0888 233.601 24.4898 233.518 24.8198C233.338 25.4773 233.228 25.8405 233.207 25.8359Z" fill="#DADBD8"/>
</svg>
