<svg width="16" height="17" viewBox="0 0 16 17" fill="none" xmlns="http://www.w3.org/2000/svg">
<path fill-rule="evenodd" clip-rule="evenodd" d="M8.09025 0.708496C3.78713 0.708496 0.298584 4.19704 0.298584 8.50016C0.298584 12.8033 3.78713 16.2918 8.09025 16.2918C12.3934 16.2918 15.8819 12.8033 15.8819 8.50016C15.8819 4.19704 12.3934 0.708496 8.09025 0.708496ZM5.75771 6.93687C5.62412 6.80784 5.44519 6.73645 5.25947 6.73806C5.07374 6.73967 4.89608 6.81417 4.76475 6.9455C4.63342 7.07683 4.55893 7.25449 4.55731 7.44021C4.5557 7.62594 4.6271 7.80486 4.75613 7.93845L7.58946 10.7718C7.72229 10.9046 7.90243 10.9792 8.09025 10.9792C8.27808 10.9792 8.45821 10.9046 8.59104 10.7718L11.4244 7.93845C11.5534 7.80486 11.6248 7.62594 11.6232 7.44021C11.6216 7.25449 11.5471 7.07683 11.4157 6.9455C11.2844 6.81417 11.1068 6.73967 10.921 6.73806C10.7353 6.73645 10.5564 6.80784 10.4228 6.93687L8.09025 9.26941L5.75771 6.93687Z" fill="black"/>
</svg>
