<svg width="27" height="20" viewBox="0 0 27 20" fill="none" xmlns="http://www.w3.org/2000/svg">
<path d="M26.6575 9.99466L14.5046 0V5.98694H13.0929C9.59574 5.98694 6.30778 7.00836 3.83484 8.86307C1.3619 10.7178 0 13.1837 0 15.8067V20L2.33236 18.0833C5.45227 15.5197 9.88098 14.0367 14.5046 14.003V19.9895L26.6575 9.99466ZM1.5627 16.987V15.8067C1.5627 13.4969 2.76204 11.3251 4.93978 9.69177C7.11751 8.05847 10.013 7.15896 13.0929 7.15896H16.0671V3.02444L24.5428 9.99466L16.0671 16.965V12.8305H14.6651C9.73267 12.8305 4.98942 14.3404 1.5627 16.987Z" fill="#4F4F4F"/>
</svg>
