<svg width="764" height="331" viewBox="0 0 764 331" fill="none" xmlns="http://www.w3.org/2000/svg">
<rect width="764" height="272" rx="10" fill="#415EFD"/>
<path d="M676.287 301.386L667.692 302.976V331H678.383C708.137 331 730.836 323.338 745.836 308.223C766.011 287.871 763.979 261.736 763.915 261.438V181.938C763.915 179.302 762.789 176.774 760.784 174.911C758.779 173.047 756.059 172 753.224 172H678.383C666.59 172 657 180.914 657 191.875V261.438C657 264.073 658.126 266.601 660.131 268.464C662.137 270.328 664.856 271.375 667.692 271.375H711.291C711.066 276.288 709.486 281.065 706.705 285.248C701.284 293.208 691.052 298.634 676.287 301.386Z" fill="#415EFD"/>
</svg>
