<svg width="88" height="86" viewBox="0 0 88 86" fill="none" xmlns="http://www.w3.org/2000/svg">
<path d="M58.2515 11.0626C58.0162 11.0626 57.7816 11.0646 57.5475 11.0689C51.7155 11.1748 46.0954 9.05457 41.562 5.38418C37.542 2.12957 32.4121 0.191851 26.8282 0.228288C14.0863 0.311475 3.58492 11.0691 3.79581 23.8095C3.85253 27.2401 4.65449 30.4892 6.04668 33.4023C8.41872 38.3659 7.90722 44.2708 4.61118 48.6753C3.24993 50.4944 2.13584 52.545 1.33508 54.7949C-2.93188 66.7843 3.37145 80.1113 15.3516 84.4041C27.5516 88.7755 40.9305 82.3137 45.1186 70.0945C45.4288 69.1894 45.6798 68.2783 45.8736 67.3654C47.1046 61.5683 52.1618 57.418 58.0883 57.4428C58.1427 57.443 58.1972 57.4431 58.2517 57.4431C74.6812 57.4431 87.9998 47.0605 87.9998 34.2529C87.9998 21.4454 74.6809 11.0626 58.2515 11.0626Z" fill="url(#paint0_linear)"/>
<path d="M77.6945 27.0208V62.0729C77.6945 63.4978 76.5412 64.6511 75.1164 64.6511H12.8839C11.459 64.6511 10.3057 63.4978 10.3057 62.0729V27.0208C10.3057 25.5959 11.459 24.4426 12.8839 24.4426H75.1164C76.5412 24.4426 77.6945 25.5959 77.6945 27.0208Z" fill="#8383FF"/>
<path d="M72.0154 24.4424V60.5671C72.0154 61.5158 71.2454 62.2858 70.2967 62.2858H45.7186C45.2442 62.2858 44.8145 62.0933 44.5034 61.7822C44.1923 61.4711 43.9998 61.0414 43.9998 60.5671C43.9998 61.5158 43.2298 62.2858 42.2811 62.2858H17.7029C16.7542 62.2858 15.9842 61.5158 15.9842 60.5671V24.4424H72.0154Z" fill="#4D4DFF"/>
<path d="M77.6945 56.6769H10.3047V27.0203C10.3047 25.5965 11.4591 24.4421 12.8829 24.4421H75.1164C76.5402 24.4421 77.6945 25.5965 77.6945 27.0203V56.6769Z" fill="#FF9D33"/>
<path d="M43.9998 24.9941V57.5507C43.9998 58.4995 43.2298 59.2695 42.2811 59.2695H17.7029C16.7542 59.2695 15.9842 58.4995 15.9842 57.5507V22.416C15.9842 21.4673 16.7542 20.6973 17.7029 20.6973H39.7029C42.0765 20.6973 43.9998 22.6205 43.9998 24.9941Z" fill="white"/>
<path d="M35.449 37.7576C34.7976 38.2423 34.1772 38.4846 33.5876 38.4846C33.0565 38.4846 32.6251 38.2354 32.2934 37.7352C31.96 37.2505 31.7933 36.4943 31.7933 35.4648V23.8443C31.7933 22.6635 31.4186 21.6134 30.6692 20.6973H26.0629C26.2572 20.8227 26.4411 20.9637 26.6181 21.1201C27.5411 21.9365 28.0034 22.9213 28.0034 24.0712V27.2938C23.6893 27.7785 20.2364 28.7513 17.6411 30.2105C17.012 30.5646 16.4603 30.941 15.9842 31.338V39.7049C17.0842 40.389 18.5623 40.731 20.422 40.731C21.95 40.731 23.2597 40.4784 24.3476 39.9713C25.4373 39.4643 26.7006 38.4537 28.1392 36.9412C28.6686 38.3488 29.2856 39.332 29.9886 39.8923C30.6933 40.4509 31.5595 40.731 32.589 40.731C33.9348 40.731 35.1603 40.1638 36.2654 39.0295L35.449 37.7576ZM28.0034 31.833C28.0034 33.8766 27.3486 35.5748 26.0389 36.9291C24.7309 38.2835 23.1823 38.9607 21.3983 38.9607C20.3979 38.9607 19.5884 38.6324 18.9679 37.9741C18.3475 37.3159 18.0381 36.4032 18.0381 35.2379C18.0381 33.5741 18.6362 32.2868 19.8308 31.3793C21.4343 30.1848 24.1586 29.322 28.0034 28.7926V31.833ZM19.2189 26.2609C19.6572 25.8295 19.8772 25.2743 19.8772 24.592C19.8772 24.1245 19.6572 23.5865 19.2189 22.9815C18.8545 22.4968 18.674 22.141 18.674 21.9141C18.674 21.5205 19.0143 21.1201 19.695 20.711C19.7036 20.7059 19.7122 20.7007 19.7208 20.6973H17.7029C16.7542 20.6973 15.9842 21.4673 15.9842 22.416V26.462C16.4156 26.7593 16.9192 26.9071 17.4933 26.9071C18.2048 26.9071 18.7789 26.6923 19.2189 26.2609Z" fill="#EBEBFF"/>
<path d="M45.7186 59.2694H70.2965C71.2458 59.2694 72.0153 58.4999 72.0153 57.5506V22.4163C72.0153 21.467 71.2458 20.6975 70.2965 20.6975H48.2967C45.9236 20.6975 43.9998 22.6213 43.9998 24.9944V57.5506C43.9998 58.4999 44.7693 59.2694 45.7186 59.2694Z" fill="white"/>
<path d="M56.3369 27.4548H48.8569C48.3822 27.4548 47.9975 27.07 47.9975 26.5955C47.9975 26.1209 48.3822 25.7361 48.8569 25.7361H56.3369C56.8116 25.7361 57.1963 26.1209 57.1963 26.5955C57.1963 27.07 56.8116 27.4548 56.3369 27.4548Z" fill="#FF6C6C"/>
<path d="M56.3369 30.8069H48.8569C48.3822 30.8069 47.9975 30.4221 47.9975 29.9475C47.9975 29.473 48.3822 29.0881 48.8569 29.0881H56.3369C56.8116 29.0881 57.1963 29.473 57.1963 29.9475C57.1963 30.4221 56.8116 30.8069 56.3369 30.8069Z" fill="#FF6C6C"/>
<path d="M56.3369 34.1589H48.8569C48.3822 34.1589 47.9975 33.7741 47.9975 33.2996C47.9975 32.825 48.3822 32.4402 48.8569 32.4402H56.3369C56.8116 32.4402 57.1963 32.825 57.1963 33.2996C57.1963 33.7741 56.8116 34.1589 56.3369 34.1589Z" fill="#FF6C6C"/>
<path d="M56.3369 37.511H48.8569C48.3822 37.511 47.9975 37.1262 47.9975 36.6516C47.9975 36.1771 48.3822 35.7922 48.8569 35.7922H56.3369C56.8116 35.7922 57.1963 36.1771 57.1963 36.6516C57.1963 37.1262 56.8116 37.511 56.3369 37.511Z" fill="#FF6C6C"/>
<path d="M56.3369 40.863H48.8569C48.3822 40.863 47.9975 40.4782 47.9975 40.0037C47.9975 39.5291 48.3822 39.1443 48.8569 39.1443H56.3369C56.8116 39.1443 57.1963 39.5291 57.1963 40.0037C57.1963 40.4782 56.8116 40.863 56.3369 40.863Z" fill="#FF6C6C"/>
<path d="M67.1583 27.4548H59.6783C59.2036 27.4548 58.8189 27.07 58.8189 26.5955C58.8189 26.1209 59.2036 25.7361 59.6783 25.7361H67.1583C67.633 25.7361 68.0177 26.1209 68.0177 26.5955C68.0177 27.07 67.6328 27.4548 67.1583 27.4548Z" fill="#FF6C6C"/>
<path d="M67.1583 30.8069H59.6783C59.2036 30.8069 58.8189 30.4221 58.8189 29.9475C58.8189 29.473 59.2036 29.0881 59.6783 29.0881H67.1583C67.633 29.0881 68.0177 29.473 68.0177 29.9475C68.0177 30.4221 67.6328 30.8069 67.1583 30.8069Z" fill="#FF6C6C"/>
<path d="M67.1583 34.1589H59.6783C59.2036 34.1589 58.8189 33.7741 58.8189 33.2996C58.8189 32.825 59.2036 32.4402 59.6783 32.4402H67.1583C67.633 32.4402 68.0177 32.825 68.0177 33.2996C68.0177 33.7741 67.6328 34.1589 67.1583 34.1589Z" fill="#FF6C6C"/>
<path d="M67.1583 37.511H59.6783C59.2036 37.511 58.8189 37.1262 58.8189 36.6516C58.8189 36.1771 59.2036 35.7922 59.6783 35.7922H67.1583C67.633 35.7922 68.0177 36.1771 68.0177 36.6516C68.0177 37.1262 67.6328 37.511 67.1583 37.511Z" fill="#FF6C6C"/>
<path d="M67.1583 40.863H59.6783C59.2036 40.863 58.8189 40.4782 58.8189 40.0037C58.8189 39.5291 59.2036 39.1443 59.6783 39.1443H67.1583C67.633 39.1443 68.0177 39.5291 68.0177 40.0037C68.0177 40.4782 67.6328 40.863 67.1583 40.863Z" fill="#FF6C6C"/>
<path d="M56.3369 44.2151H48.8569C48.3822 44.2151 47.9975 43.8303 47.9975 43.3557C47.9975 42.8812 48.3822 42.4963 48.8569 42.4963H56.3369C56.8116 42.4963 57.1963 42.8812 57.1963 43.3557C57.1963 43.8303 56.8116 44.2151 56.3369 44.2151Z" fill="#FF9D33"/>
<path d="M56.3369 47.5671H48.8569C48.3822 47.5671 47.9975 47.1823 47.9975 46.7078C47.9975 46.2332 48.3822 45.8484 48.8569 45.8484H56.3369C56.8116 45.8484 57.1963 46.2332 57.1963 46.7078C57.1963 47.1823 56.8116 47.5671 56.3369 47.5671Z" fill="#FF9D33"/>
<path d="M56.3369 50.9189H48.8569C48.3822 50.9189 47.9975 50.5341 47.9975 50.0596C47.9975 49.585 48.3822 49.2002 48.8569 49.2002H56.3369C56.8116 49.2002 57.1963 49.585 57.1963 50.0596C57.1963 50.5341 56.8116 50.9189 56.3369 50.9189Z" fill="#FF9D33"/>
<path d="M56.3369 54.2712H48.8569C48.3822 54.2712 47.9975 53.8864 47.9975 53.4119C47.9975 52.9373 48.3822 52.5525 48.8569 52.5525H56.3369C56.8116 52.5525 57.1963 52.9373 57.1963 53.4119C57.1963 53.8864 56.8116 54.2712 56.3369 54.2712Z" fill="#FF9D33"/>
<path d="M67.1583 44.2151H59.6783C59.2036 44.2151 58.8189 43.8303 58.8189 43.3557C58.8189 42.8812 59.2036 42.4963 59.6783 42.4963H67.1583C67.633 42.4963 68.0177 42.8812 68.0177 43.3557C68.0177 43.8303 67.6328 44.2151 67.1583 44.2151Z" fill="#FF9D33"/>
<path d="M67.1583 47.5671H59.6783C59.2036 47.5671 58.8189 47.1823 58.8189 46.7078C58.8189 46.2332 59.2036 45.8484 59.6783 45.8484H67.1583C67.633 45.8484 68.0177 46.2332 68.0177 46.7078C68.0177 47.1823 67.6328 47.5671 67.1583 47.5671Z" fill="#FF9D33"/>
<path d="M67.1583 50.9189H59.6783C59.2036 50.9189 58.8189 50.5341 58.8189 50.0596C58.8189 49.585 59.2036 49.2002 59.6783 49.2002H67.1583C67.633 49.2002 68.0177 49.585 68.0177 50.0596C68.0177 50.5341 67.6328 50.9189 67.1583 50.9189Z" fill="#FF9D33"/>
<path d="M67.1583 54.2712H59.6783C59.2036 54.2712 58.8189 53.8864 58.8189 53.4119C58.8189 52.9373 59.2036 52.5525 59.6783 52.5525H67.1583C67.633 52.5525 68.0177 52.9373 68.0177 53.4119C68.0177 53.8864 67.6328 54.2712 67.1583 54.2712Z" fill="#FF9D33"/>
<path d="M28.4348 47.5671H20.9548C20.4801 47.5671 20.0955 47.1823 20.0955 46.7078C20.0955 46.2332 20.4801 45.8484 20.9548 45.8484H28.4348C28.9096 45.8484 29.2942 46.2332 29.2942 46.7078C29.2942 47.1823 28.9096 47.5671 28.4348 47.5671Z" fill="#FF9D33"/>
<path d="M28.4348 50.9189H20.9548C20.4801 50.9189 20.0955 50.5341 20.0955 50.0596C20.0955 49.585 20.4801 49.2002 20.9548 49.2002H28.4348C28.9096 49.2002 29.2942 49.585 29.2942 50.0596C29.2942 50.5341 28.9096 50.9189 28.4348 50.9189Z" fill="#FF9D33"/>
<path d="M28.4348 54.271H20.9548C20.4801 54.271 20.0955 53.8862 20.0955 53.4116C20.0955 52.9371 20.4801 52.5522 20.9548 52.5522H28.4348C28.9096 52.5522 29.2942 52.9371 29.2942 53.4116C29.2942 53.8862 28.9096 54.271 28.4348 54.271Z" fill="#FF9D33"/>
<path d="M39.2562 47.5671H31.7762C31.3015 47.5671 30.9169 47.1823 30.9169 46.7078C30.9169 46.2332 31.3015 45.8484 31.7762 45.8484H39.2562C39.731 45.8484 40.1156 46.2332 40.1156 46.7078C40.1156 47.1823 39.731 47.5671 39.2562 47.5671Z" fill="#FF9D33"/>
<path d="M39.2562 50.9189H31.7762C31.3015 50.9189 30.9169 50.5341 30.9169 50.0596C30.9169 49.585 31.3015 49.2002 31.7762 49.2002H39.2562C39.731 49.2002 40.1156 49.585 40.1156 50.0596C40.1156 50.5341 39.731 50.9189 39.2562 50.9189Z" fill="#FF9D33"/>
<path d="M39.2562 54.271H31.7762C31.3015 54.271 30.9169 53.8862 30.9169 53.4116C30.9169 52.9371 31.3015 52.5522 31.7762 52.5522H39.2562C39.731 52.5522 40.1156 52.9371 40.1156 53.4116C40.1156 53.8862 39.731 54.271 39.2562 54.271Z" fill="#FF9D33"/>
<path d="M29.2462 39.5352H20.735C20.2603 39.5352 19.8756 39.1503 19.8756 38.6758C19.8756 38.2012 20.2603 37.8164 20.735 37.8164H29.2462C29.721 37.8164 30.1056 38.2012 30.1056 38.6758C30.1056 39.1503 29.7208 39.5352 29.2462 39.5352Z" fill="#8383FF"/>
<path d="M33.8869 42.5435H20.735C20.2603 42.5435 19.8756 42.1586 19.8756 41.6841C19.8756 41.2095 20.2603 40.8247 20.735 40.8247H33.8869C34.3616 40.8247 34.7462 41.2095 34.7462 41.6841C34.7462 42.1586 34.3614 42.5435 33.8869 42.5435Z" fill="#8383FF"/>
<path d="M21.0009 36.4329C21.4755 36.4329 21.8602 36.0481 21.8602 35.5735C21.8602 35.0989 21.4755 34.7141 21.0009 34.7141C20.5262 34.7141 20.1415 35.0989 20.1415 35.5735C20.1415 36.0481 20.5262 36.4329 21.0009 36.4329Z" fill="#8383FF"/>
<path d="M23.7938 36.4329C24.2684 36.4329 24.6532 36.0481 24.6532 35.5735C24.6532 35.0989 24.2684 34.7141 23.7938 34.7141C23.3192 34.7141 22.9344 35.0989 22.9344 35.5735C22.9344 36.0481 23.3192 36.4329 23.7938 36.4329Z" fill="#8383FF"/>
<path d="M39.9214 27.5746C39.9214 26 38.6404 24.7192 37.0661 24.7192C35.4917 24.7192 34.2107 26.0002 34.2107 27.5746C34.2107 28.3511 34.5232 29.0553 35.028 29.5706C34.5233 30.0859 34.2107 30.79 34.2107 31.5666C34.2107 32.0411 34.5953 32.4259 35.0701 32.4259C35.5448 32.4259 35.9294 32.0411 35.9294 31.5666C35.9294 30.9399 36.4394 30.43 37.0661 30.43C37.6927 30.43 38.2027 30.9399 38.2027 31.5666C38.2027 32.0411 38.5873 32.4259 39.062 32.4259C39.5368 32.4259 39.9214 32.0411 39.9214 31.5666C39.9214 30.79 39.6089 30.0859 39.1041 29.5706C39.6088 29.0553 39.9214 28.351 39.9214 27.5746ZM37.0659 26.4378C37.6925 26.4378 38.2025 26.9478 38.2025 27.5744C38.2025 28.2011 37.6925 28.711 37.0659 28.711C36.4392 28.711 35.9293 28.2011 35.9293 27.5744C35.9293 26.9478 36.4392 26.4378 37.0659 26.4378Z" fill="#FF6C6C"/>
<path d="M42.6633 78.9879C42.4435 78.9879 42.2233 78.904 42.0557 78.7362L41.2883 77.969L40.5209 78.7362C40.1855 79.0717 39.641 79.0717 39.3057 78.7362C38.97 78.4006 38.97 77.8564 39.3057 77.5209L40.6807 76.1459C41.016 75.8104 41.5605 75.8104 41.8959 76.1459L43.2709 77.5209C43.6065 77.8566 43.6065 78.4007 43.2709 78.7362C43.1031 78.9038 42.8831 78.9879 42.6633 78.9879Z" fill="#8383FF"/>
<path d="M55.8212 8.62483C55.6014 8.62483 55.3812 8.54095 55.2136 8.3732L54.4462 7.60595L53.6788 8.3732C53.3434 8.7087 52.7989 8.7087 52.4636 8.3732C52.1279 8.03753 52.1279 7.49337 52.4636 7.15787L53.8386 5.78288C54.1739 5.44737 54.7184 5.44737 55.0538 5.78288L56.4288 7.15787C56.7644 7.49355 56.7644 8.0377 56.4288 8.3732C56.2612 8.54095 56.0412 8.62483 55.8212 8.62483Z" fill="#FF9D33"/>
<path d="M50.7476 15.0413C50.5278 15.0413 50.3076 14.9575 50.1401 14.7897L49.3726 14.0225L48.6052 14.7897C48.2699 15.1252 47.7254 15.1252 47.3901 14.7897C47.0544 14.454 47.0544 13.9099 47.3901 13.5744L48.7651 12.1994C49.1004 11.8639 49.6449 11.8639 49.9802 12.1994L51.3552 13.5744C51.6909 13.9101 51.6909 14.4542 51.3552 14.7897C51.1875 14.9575 50.9675 15.0413 50.7476 15.0413Z" fill="#8383FF"/>
<path d="M13.6926 16.531H13.1769V16.0154C13.1769 15.5408 12.7923 15.156 12.3176 15.156C11.8428 15.156 11.4582 15.5408 11.4582 16.0154V16.531H10.9426C10.4678 16.531 10.0832 16.9158 10.0832 17.3904C10.0832 17.8649 10.4678 18.2498 10.9426 18.2498H11.4582V18.7654C11.4582 19.2399 11.8428 19.6248 12.3176 19.6248C12.7923 19.6248 13.1769 19.2399 13.1769 18.7654V18.2498H13.6926C14.1673 18.2498 14.5519 17.8649 14.5519 17.3904C14.5519 16.9158 14.1673 16.531 13.6926 16.531Z" fill="#FF6C6C"/>
<path d="M48.6404 72.8645H48.1248V72.3489C48.1248 71.8743 47.7402 71.4895 47.2654 71.4895C46.7907 71.4895 46.4061 71.8743 46.4061 72.3489V72.8645H45.8904C45.4157 72.8645 45.0311 73.2493 45.0311 73.7239C45.0311 74.1984 45.4157 74.5833 45.8904 74.5833H46.4061V75.0989C46.4061 75.5734 46.7907 75.9583 47.2654 75.9583C47.7402 75.9583 48.1248 75.5734 48.1248 75.0989V74.5833H48.6404C49.1152 74.5833 49.4998 74.1984 49.4998 73.7239C49.4998 73.2493 49.1152 72.8645 48.6404 72.8645Z" fill="#FF6C6C"/>
<path d="M77.6942 27.0208V62.0729C77.6942 63.4978 76.5409 64.6511 75.1161 64.6511H12.8835C11.4587 64.6511 10.3054 63.4978 10.3054 62.0729V27.0208C10.3054 25.5959 11.4587 24.4426 12.8835 24.4426H75.1161C76.5409 24.4426 77.6942 25.5959 77.6942 27.0208Z" fill="url(#paint1_linear)"/>
<path d="M41.8342 59.2695V68.69C41.8342 69.3809 41.0607 69.7883 40.4901 69.3998L38.2025 67.8409L35.9148 69.3998C35.3442 69.7883 34.5707 69.3809 34.5707 68.69V59.2695H41.8342Z" fill="#FF6C6C"/>
<path d="M34.5707 59.2695H41.8342V62.2859H34.5707V59.2695Z" fill="#FF4D4D"/>
<defs>
<linearGradient id="paint0_linear" x1="51.8903" y1="-10.4489" x2="33.3259" y2="110.735" gradientUnits="userSpaceOnUse">
<stop stop-color="#FFD9D9" stop-opacity="0"/>
<stop offset="0.9981" stop-color="#FFB3B3"/>
</linearGradient>
<linearGradient id="paint1_linear" x1="44" y1="64.6511" x2="44" y2="24.4426" gradientUnits="userSpaceOnUse">
<stop stop-color="#FF4D4D" stop-opacity="0.4"/>
<stop offset="1" stop-color="#FF4D4D" stop-opacity="0"/>
</linearGradient>
</defs>
</svg>
