<svg width="668" height="608" viewBox="0 0 668 608" fill="none" xmlns="http://www.w3.org/2000/svg">
<g opacity="0.5">
<mask id="mask0_12253_3861" style="mask-type:luminance" maskUnits="userSpaceOnUse" x="50" y="18" width="556" height="556">
<path d="M50.6063 573.057L605.258 573.057L605.258 18.7904L50.6064 18.7904L50.6063 573.057Z" fill="white"/>
</mask>
<g mask="url(#mask0_12253_3861)">
<path d="M525.375 358.5L499.495 414.536L450.808 358.5L525.375 358.5Z" stroke="#5E5E5E" stroke-width="0.3333" stroke-miterlimit="10"/>
<path d="M499.484 414.538L417.518 433.626L450.797 358.501L499.484 414.538Z" stroke="#5E5E5E" stroke-width="0.3333" stroke-miterlimit="10"/>
<path d="M450.805 358.501L389.183 348.026L417.526 433.626L450.805 358.501Z" stroke="#5E5E5E" stroke-width="0.3333" stroke-miterlimit="10"/>
<path d="M450.805 358.5L450.805 303.073L389.183 348.024L450.805 358.5Z" stroke="#5E5E5E" stroke-width="0.3333" stroke-miterlimit="10"/>
<path d="M450.808 303.073L525.375 358.5L450.808 358.5L450.808 303.073Z" stroke="#5E5E5E" stroke-width="0.3333" stroke-miterlimit="10"/>
<path d="M525.375 358.5L568.516 406.533L499.495 414.536L525.375 358.5Z" stroke="#5E5E5E" stroke-width="0.3333" stroke-miterlimit="10"/>
<path d="M568.516 406.534L546.33 469.343L499.495 414.537L568.516 406.534Z" stroke="#5E5E5E" stroke-width="0.3333" stroke-miterlimit="10"/>
<path d="M546.32 469.343L469.29 492.134L499.486 414.537L546.32 469.343Z" stroke="#5E5E5E" stroke-width="0.3333" stroke-miterlimit="10"/>
<path d="M469.289 492.134L417.518 433.626L499.484 414.537L469.289 492.134Z" stroke="#5E5E5E" stroke-width="0.3333" stroke-miterlimit="10"/>
<path d="M469.297 492.134L400.886 502.599L417.526 433.626L469.297 492.134Z" stroke="#5E5E5E" stroke-width="0.3333" stroke-miterlimit="10"/>
<path d="M417.523 433.626L352.818 396.058L389.181 348.026L417.523 433.626Z" stroke="#5E5E5E" stroke-width="0.3333" stroke-miterlimit="10"/>
<path d="M400.884 502.599L338.031 453.335L417.523 433.626L400.884 502.599Z" stroke="#5E5E5E" stroke-width="0.3333" stroke-miterlimit="10"/>
<path d="M338.031 453.336L352.818 396.059L417.523 433.627L338.031 453.336Z" stroke="#5E5E5E" stroke-width="0.3333" stroke-miterlimit="10"/>
<path d="M450.8 303.073L530.914 289.527L525.368 358.5L450.8 303.073Z" stroke="#5E5E5E" stroke-width="0.3333" stroke-miterlimit="10"/>
<path d="M530.915 289.527L585.148 330.787L525.368 358.5L530.915 289.527Z" stroke="#5E5E5E" stroke-width="0.3333" stroke-miterlimit="10"/>
<path d="M525.368 358.5L568.509 406.533L585.148 330.787L525.368 358.5Z" stroke="#5E5E5E" stroke-width="0.3333" stroke-miterlimit="10"/>
<path d="M568.509 406.533L651.695 390.825L585.148 330.787L568.509 406.533Z" stroke="#5E5E5E" stroke-width="0.3333" stroke-miterlimit="10"/>
<path d="M568.508 406.534L623.352 460.109L546.322 469.343L568.508 406.534Z" stroke="#5E5E5E" stroke-width="0.3333" stroke-miterlimit="10"/>
<path d="M568.509 406.533L623.353 460.108L651.695 390.825L568.509 406.533Z" stroke="#5E5E5E" stroke-width="0.3333" stroke-miterlimit="10"/>
<path d="M585.153 330.787L603.023 265.505L530.919 289.527L585.153 330.787Z" stroke="#5E5E5E" stroke-width="0.3333" stroke-miterlimit="10"/>
<path d="M603.023 265.505L658.477 324.013L585.152 330.787L603.023 265.505Z" stroke="#5E5E5E" stroke-width="0.3333" stroke-miterlimit="10"/>
<path d="M585.144 330.788L651.691 390.826L658.469 324.014L585.144 330.788Z" stroke="#5E5E5E" stroke-width="0.3333" stroke-miterlimit="10"/>
<path d="M603.023 265.506L537.075 215.622L530.919 289.528L603.023 265.506Z" stroke="#5E5E5E" stroke-width="0.3333" stroke-miterlimit="10"/>
<path d="M530.914 289.528L469.292 224.246L450.8 303.074L530.914 289.528Z" stroke="#5E5E5E" stroke-width="0.3333" stroke-miterlimit="10"/>
<path d="M537.078 215.622L469.3 224.247L530.921 289.528L537.078 215.622Z" stroke="#5E5E5E" stroke-width="0.3333" stroke-miterlimit="10"/>
<path d="M469.297 224.246L450.805 303.074L385.178 243.335L469.297 224.246Z" stroke="#5E5E5E" stroke-width="0.3333" stroke-miterlimit="10"/>
<path d="M385.178 243.335L374.385 295.071L450.805 303.074L385.178 243.335Z" stroke="#5E5E5E" stroke-width="0.3333" stroke-miterlimit="10"/>
<path d="M374.385 295.07L389.183 348.025L450.805 303.074L374.385 295.07Z" stroke="#5E5E5E" stroke-width="0.3333" stroke-miterlimit="10"/>
<path d="M389.18 348.025L316.454 324.015L352.817 396.058L389.18 348.025Z" stroke="#5E5E5E" stroke-width="0.3333" stroke-miterlimit="10"/>
<path d="M316.454 324.014L374.382 295.07L389.18 348.025L316.454 324.014Z" stroke="#5E5E5E" stroke-width="0.3333" stroke-miterlimit="10"/>
<path d="M374.378 295.071L318.924 215.622L385.172 243.336L374.378 295.071Z" stroke="#5E5E5E" stroke-width="0.3333" stroke-miterlimit="10"/>
<path d="M316.447 324.015L318.921 215.622L374.375 295.071L316.447 324.015Z" stroke="#5E5E5E" stroke-width="0.3333" stroke-miterlimit="10"/>
<path d="M385.172 243.336L385.172 165.129L318.924 215.623L385.172 243.336Z" stroke="#5E5E5E" stroke-width="0.3333" stroke-miterlimit="10"/>
<path d="M385.179 165.129L431.703 195.913L385.179 243.336L385.179 165.129Z" stroke="#5E5E5E" stroke-width="0.3333" stroke-miterlimit="10"/>
<path d="M431.703 195.913L469.297 224.247L385.178 243.336L431.703 195.913Z" stroke="#5E5E5E" stroke-width="0.3333" stroke-miterlimit="10"/>
<path d="M546.322 469.343L591.304 558.026L623.352 460.109L546.322 469.343Z" stroke="#5E5E5E" stroke-width="0.3333" stroke-miterlimit="10"/>
<path d="M591.307 558.026L667.727 543.548L623.354 460.109L591.307 558.026Z" stroke="#5E5E5E" stroke-width="0.3333" stroke-miterlimit="10"/>
<path d="M546.32 469.343L495.78 527.231L469.29 492.135L546.32 469.343Z" stroke="#5E5E5E" stroke-width="0.3333" stroke-miterlimit="10"/>
<path d="M495.79 527.231L591.312 558.026L546.33 469.343L495.79 527.231Z" stroke="#5E5E5E" stroke-width="0.3333" stroke-miterlimit="10"/>
<path d="M495.781 527.231L412.595 566.029L469.291 492.135L495.781 527.231Z" stroke="#5E5E5E" stroke-width="0.3333" stroke-miterlimit="10"/>
<path d="M412.6 566.029L400.886 502.599L469.297 492.134L412.6 566.029Z" stroke="#5E5E5E" stroke-width="0.3333" stroke-miterlimit="10"/>
<path d="M495.781 527.231L480.373 614.062L412.595 566.029L495.781 527.231Z" stroke="#5E5E5E" stroke-width="0.3333" stroke-miterlimit="10"/>
<path d="M480.382 614.062L591.313 558.026L495.79 527.231L480.382 614.062Z" stroke="#5E5E5E" stroke-width="0.3333" stroke-miterlimit="10"/>
<path d="M400.891 502.599L322.629 558.026L338.038 453.336L400.891 502.599Z" stroke="#5E5E5E" stroke-width="0.3333" stroke-miterlimit="10"/>
<path d="M412.602 566.029L322.626 558.025L400.887 502.599L412.602 566.029Z" stroke="#5E5E5E" stroke-width="0.3333" stroke-miterlimit="10"/>
<path d="M352.82 396.058L262.179 390.826L316.457 324.015L352.82 396.058Z" stroke="#5E5E5E" stroke-width="0.3333" stroke-miterlimit="10"/>
<path d="M334.953 406.533L241.284 399.759L266.554 460.108L334.953 406.533Z" stroke="#5E5E5E" stroke-width="0.3333" stroke-miterlimit="10"/>
<path d="M266.547 460.108L207.998 433.625L241.277 399.759L266.547 460.108Z" stroke="#5E5E5E" stroke-width="0.3333" stroke-miterlimit="10"/>
<path d="M304.75 321.543L254.831 380.661L237.271 303.074L304.75 321.543Z" stroke="#5E5E5E" stroke-width="0.3333" stroke-miterlimit="10"/>
<path d="M304.75 321.543L281.943 258.113L237.271 303.075L304.75 321.543Z" stroke="#5E5E5E" stroke-width="0.3333" stroke-miterlimit="10"/>
<path d="M281.945 258.112L214.156 238.413L237.274 303.074L281.945 258.112Z" stroke="#5E5E5E" stroke-width="0.3333" stroke-miterlimit="10"/>
<path d="M471.754 219.624L439.396 193.141L476.68 176.214L471.754 219.624Z" stroke="#5E5E5E" stroke-width="0.3333" stroke-miterlimit="10"/>
<path d="M476.68 176.214L436.312 154.043L439.396 193.141L476.68 176.214Z" stroke="#5E5E5E" stroke-width="0.3333" stroke-miterlimit="10"/>
<path d="M471.761 219.624L533.383 210.39L476.686 176.214L471.761 219.624Z" stroke="#5E5E5E" stroke-width="0.3333" stroke-miterlimit="10"/>
<path d="M593.766 246.417L549.394 215.622L586.677 182.366L593.766 246.417Z" stroke="#5E5E5E" stroke-width="0.3333" stroke-miterlimit="10"/>
<path d="M545.096 195.912L568.813 154.043L523.83 150.041L545.096 195.912Z" stroke="#5E5E5E" stroke-width="0.3333" stroke-miterlimit="10"/>
<path d="M476.682 176.214L488.086 136.185L436.315 154.043L476.682 176.214Z" stroke="#5E5E5E" stroke-width="0.3333" stroke-miterlimit="10"/>
<path d="M427.234 171.281L419.991 126.94L372.845 132.483L427.234 171.281Z" stroke="#5E5E5E" stroke-width="0.3333" stroke-miterlimit="10"/>
<path d="M369.461 158.965L313.996 207.619L309.991 141.107L369.461 158.965Z" stroke="#5E5E5E" stroke-width="0.3333" stroke-miterlimit="10"/>
<path d="M295.816 149.11L299.82 207.619L243.124 207.619L295.816 149.11Z" stroke="#5E5E5E" stroke-width="0.3333" stroke-miterlimit="10"/>
<path d="M325.086 455.487L316.456 532.463L271.007 484.12L325.086 455.487Z" stroke="#5E5E5E" stroke-width="0.3333" stroke-miterlimit="10"/>
<path d="M260.07 465.651C260.07 465.651 207.068 508.451 206.768 507.531C206.469 506.611 203.995 446.562 203.995 446.562L260.07 465.651Z" stroke="#5E5E5E" stroke-width="0.3333" stroke-miterlimit="10"/>
<path d="M271.005 484.12L228.019 519.837L316.453 532.463L271.005 484.12Z" stroke="#5E5E5E" stroke-width="0.3333" stroke-miterlimit="10"/>
<path d="M228.014 308.617L234.492 375.738L173.481 351.716L228.014 308.617Z" stroke="#5E5E5E" stroke-width="0.3333" stroke-miterlimit="10"/>
<path d="M214.156 295.07L164.249 330.787L193.213 232.87L214.156 295.07Z" stroke="#5E5E5E" stroke-width="0.3333" stroke-miterlimit="10"/>
<path d="M217.242 215.622C217.242 215.622 218.473 142.958 217.242 142.958C216.01 142.958 164.239 190.381 164.239 190.381L217.242 215.622Z" stroke="#5E5E5E" stroke-width="0.3333" stroke-miterlimit="10"/>
<path d="M203.992 380.66L138.976 380.66L144.988 441.02L203.992 380.66Z" stroke="#5E5E5E" stroke-width="0.3333" stroke-miterlimit="10"/>
<path d="M169.016 477.047L147.295 525.08L109.857 465.496L169.016 477.047Z" stroke="#5E5E5E" stroke-width="0.3333" stroke-miterlimit="10"/>
<path d="M235.84 303.074C235.84 302.287 236.483 301.655 237.26 301.655C238.047 301.655 238.68 302.298 238.68 303.074C238.68 303.861 238.036 304.493 237.26 304.493C236.483 304.493 235.84 303.861 235.84 303.074Z" fill="#5E5E5E"/>
<path d="M253.41 380.661C253.41 379.873 254.054 379.242 254.83 379.242C255.618 379.242 256.25 379.885 256.25 380.661C256.25 381.448 255.607 382.079 254.83 382.079C254.042 382.091 253.41 381.448 253.41 380.661Z" fill="#5E5E5E"/>
<path d="M137.551 380.661C137.551 379.874 138.194 379.242 138.971 379.242C139.747 379.242 140.391 379.885 140.391 380.661C140.391 381.448 139.747 382.08 138.971 382.08C138.194 382.08 137.551 381.448 137.551 380.661Z" fill="#5E5E5E"/>
<path d="M231.754 375.738C231.754 374.23 232.975 373 234.494 373C236.003 373 237.234 374.219 237.234 375.738C237.234 377.246 236.014 378.476 234.494 378.476C232.986 378.476 231.754 377.246 231.754 375.738Z" fill="#5E5E5E"/>
<path d="M202.559 380.661C202.559 379.874 203.202 379.242 203.979 379.242C204.755 379.242 205.398 379.885 205.398 380.661C205.398 381.448 204.755 382.08 203.979 382.08C203.202 382.08 202.559 381.448 202.559 380.661Z" fill="#5E5E5E"/>
<path d="M144.02 441.02C144.02 440.233 144.663 439.601 145.439 439.601C146.216 439.601 146.859 440.244 146.859 441.02C146.859 441.807 146.216 442.439 145.439 442.439C144.663 442.439 144.02 441.807 144.02 441.02Z" fill="#5E5E5E"/>
<path d="M202.559 446.562C202.559 445.775 203.202 445.143 203.979 445.143C204.755 445.143 205.398 445.786 205.398 446.562C205.398 447.338 204.755 447.981 203.979 447.981C203.202 447.981 202.559 447.349 202.559 446.562Z" fill="#5E5E5E"/>
<path d="M205.41 507.544C205.41 506.757 206.054 506.125 206.83 506.125C207.607 506.125 208.25 506.768 208.25 507.544C208.25 508.331 207.607 508.963 206.83 508.963C206.054 508.963 205.41 508.331 205.41 507.544Z" fill="#5E5E5E"/>
<path d="M258.652 465.663C258.652 464.876 259.296 464.244 260.072 464.244C260.849 464.244 261.492 464.887 261.492 465.663C261.492 466.45 260.849 467.082 260.072 467.082C259.296 467.082 258.652 466.45 258.652 465.663Z" fill="#5E5E5E"/>
<path d="M263.639 459.832C263.639 458.236 264.937 456.939 266.534 456.939C268.132 456.939 269.43 458.236 269.43 459.832C269.43 461.428 268.132 462.725 266.534 462.725C264.937 462.725 263.639 461.428 263.639 459.832Z" fill="#5E5E5E"/>
<path d="M239.848 399.761C239.848 398.974 240.491 398.342 241.268 398.342C242.044 398.342 242.688 398.985 242.688 399.761C242.688 400.548 242.044 401.18 241.268 401.18C240.491 401.18 239.848 400.548 239.848 399.761Z" fill="#5E5E5E"/>
<path d="M207.129 433.626C207.129 432.839 207.772 432.207 208.549 432.207C209.336 432.207 209.969 432.85 209.969 433.626C209.969 434.402 209.325 435.045 208.549 435.045C207.761 435.045 207.129 434.413 207.129 433.626Z" fill="#5E5E5E"/>
<path d="M167.598 477.047C167.598 476.26 168.241 475.628 169.018 475.628C169.794 475.628 170.438 476.271 170.438 477.047C170.438 477.834 169.794 478.466 169.018 478.466C168.241 478.466 167.598 477.834 167.598 477.047Z" fill="#5E5E5E"/>
<path d="M106.477 465.498C106.477 463.624 107.996 462.105 109.871 462.105C111.746 462.105 113.266 463.624 113.266 465.498C113.266 467.371 111.746 468.89 109.871 468.89C107.985 468.879 106.477 467.371 106.477 465.498Z" fill="#5E5E5E"/>
<path d="M145.441 525.08C145.441 524.293 146.085 523.661 146.861 523.661C147.638 523.661 148.281 524.304 148.281 525.08C148.281 525.867 147.638 526.499 146.861 526.499C146.085 526.499 145.441 525.867 145.441 525.08Z" fill="#5E5E5E"/>
<path d="M303.641 321.543C303.641 320.933 304.14 320.435 304.75 320.435C305.36 320.435 305.859 320.933 305.859 321.543C305.859 322.153 305.36 322.652 304.75 322.652C304.129 322.663 303.641 322.164 303.641 321.543Z" fill="#5E5E5E"/>
<path d="M213.039 238.413C213.039 237.804 213.538 237.305 214.149 237.305C214.759 237.305 215.258 237.804 215.258 238.413C215.258 239.023 214.759 239.522 214.149 239.522C213.538 239.522 213.039 239.023 213.039 238.413Z" fill="#5E5E5E"/>
<path d="M216.031 215.622C216.031 215.013 216.531 214.514 217.141 214.514C217.751 214.514 218.25 215.013 218.25 215.622C218.25 216.232 217.751 216.731 217.141 216.731C216.531 216.731 216.031 216.243 216.031 215.622Z" fill="#5E5E5E"/>
<path d="M242.008 207.619C242.008 207.009 242.507 206.51 243.117 206.51C243.727 206.51 244.227 207.009 244.227 207.619C244.227 208.229 243.727 208.728 243.117 208.728C242.507 208.728 242.008 208.229 242.008 207.619Z" fill="#5E5E5E"/>
<path d="M299.125 207.619C299.125 207.009 299.624 206.51 300.234 206.51C300.845 206.51 301.344 207.009 301.344 207.619C301.344 208.229 300.845 208.728 300.234 208.728C299.624 208.728 299.125 208.229 299.125 207.619Z" fill="#5E5E5E"/>
<path d="M430.195 195.912C430.195 195.303 430.695 194.804 431.305 194.804C431.915 194.804 432.414 195.303 432.414 195.912C432.414 196.522 431.915 197.021 431.305 197.021C430.695 197.021 430.195 196.533 430.195 195.912Z" fill="#5E5E5E"/>
<path d="M439.4 191.168C438.31 191.168 437.426 192.051 437.426 193.141C437.426 194.231 438.31 195.114 439.4 195.114C440.491 195.114 441.375 194.231 441.375 193.141C441.375 192.051 440.491 191.168 439.4 191.168Z" fill="#5E5E5E"/>
<path d="M435.203 154.044C435.203 153.434 435.702 152.935 436.313 152.935C436.923 152.935 437.422 153.434 437.422 154.044C437.422 154.654 436.923 155.152 436.313 155.152C435.702 155.152 435.203 154.654 435.203 154.044Z" fill="#5E5E5E"/>
<path d="M476.683 174.197C475.316 174.197 474.209 175.303 474.209 176.669C474.209 178.034 475.316 179.141 476.683 179.141C478.049 179.141 479.156 178.034 479.156 176.669C479.156 175.303 478.049 174.197 476.683 174.197Z" fill="#5E5E5E"/>
<path d="M470.633 219.624C470.633 219.015 471.132 218.516 471.742 218.516C472.352 218.516 472.852 219.015 472.852 219.624C472.852 220.234 472.352 220.733 471.742 220.733C471.132 220.744 470.633 220.245 470.633 219.624Z" fill="#5E5E5E"/>
<path d="M532.266 210.147C532.266 209.537 532.765 209.038 533.375 209.038C533.985 209.038 534.484 209.537 534.484 210.147C534.484 210.756 533.985 211.255 533.375 211.255C532.765 211.266 532.266 210.767 532.266 210.147Z" fill="#5E5E5E"/>
<path d="M486.969 136.184C486.969 135.575 487.468 135.076 488.078 135.076C488.688 135.076 489.188 135.575 489.188 136.184C489.188 136.794 488.688 137.293 488.078 137.293C487.468 137.293 486.969 136.794 486.969 136.184Z" fill="#5E5E5E"/>
<path d="M522.719 150.041C522.719 149.431 523.218 148.932 523.828 148.932C524.438 148.932 524.938 149.431 524.938 150.041C524.938 150.651 524.438 151.149 523.828 151.149C523.218 151.149 522.719 150.651 522.719 150.041Z" fill="#5E5E5E"/>
<path d="M567.703 154.354C567.703 153.744 568.202 153.245 568.813 153.245C569.423 153.245 569.922 153.744 569.922 154.354C569.922 154.964 569.423 155.462 568.813 155.462C568.202 155.462 567.703 154.964 567.703 154.354Z" fill="#5E5E5E"/>
<path d="M543.533 195.913C543.533 194.982 544.287 194.239 545.208 194.239C546.14 194.239 546.883 194.993 546.883 195.913C546.883 196.844 546.128 197.587 545.208 197.587C544.287 197.598 543.533 196.844 543.533 195.913Z" fill="#5E5E5E"/>
<path d="M312.325 207.618C312.325 206.632 313.124 205.845 314.1 205.845C315.087 205.845 315.875 206.643 315.875 207.618C315.875 208.594 315.076 209.392 314.1 209.392C313.124 209.392 312.325 208.605 312.325 207.618Z" fill="#5E5E5E"/>
<path d="M317.146 215.622C317.146 214.635 317.944 213.848 318.92 213.848C319.908 213.848 320.695 214.646 320.695 215.622C320.695 216.608 319.897 217.395 318.92 217.395C317.944 217.406 317.146 216.608 317.146 215.622Z" fill="#5E5E5E"/>
<path d="M294.703 149.11C294.703 148.5 295.202 148.002 295.813 148.002C296.423 148.002 296.922 148.5 296.922 149.11C296.922 149.72 296.423 150.219 295.813 150.219C295.202 150.23 294.703 149.731 294.703 149.11Z" fill="#5E5E5E"/>
<path d="M368.344 158.932C368.344 158.322 368.843 157.823 369.453 157.823C370.063 157.823 370.563 158.322 370.563 158.932C370.563 159.542 370.063 160.041 369.453 160.041C368.843 160.041 368.344 159.542 368.344 158.932Z" fill="#5E5E5E"/>
<path d="M371.727 132.715C371.727 132.105 372.226 131.606 372.836 131.606C373.446 131.606 373.945 132.105 373.945 132.715C373.945 133.325 373.446 133.824 372.836 133.824C372.226 133.835 371.727 133.336 371.727 132.715Z" fill="#5E5E5E"/>
<path d="M418.344 126.939C418.344 125.864 419.209 124.999 420.285 124.999C421.361 124.999 422.227 125.864 422.227 126.939C422.227 128.015 421.361 128.879 420.285 128.879C419.22 128.89 418.344 128.015 418.344 126.939Z" fill="#5E5E5E"/>
<path d="M384.055 165.128C384.055 164.519 384.554 164.02 385.164 164.02C385.774 164.02 386.273 164.519 386.273 165.128C386.273 165.738 385.774 166.237 385.164 166.237C384.554 166.237 384.055 165.738 384.055 165.128Z" fill="#5E5E5E"/>
<path d="M426.07 171.591C426.07 170.981 426.57 170.483 427.18 170.483C427.79 170.483 428.289 170.981 428.289 171.591C428.289 172.201 427.79 172.7 427.18 172.7C426.57 172.7 426.07 172.201 426.07 171.591Z" fill="#5E5E5E"/>
<path d="M192.094 232.871C192.094 232.262 192.593 231.763 193.203 231.763C193.813 231.763 194.313 232.262 194.313 232.871C194.313 233.481 193.813 233.98 193.203 233.98C192.593 233.98 192.094 233.481 192.094 232.871Z" fill="#5E5E5E"/>
<path d="M163.125 190.636C163.125 190.027 163.624 189.528 164.234 189.528C164.845 189.528 165.344 190.027 165.344 190.636C165.344 191.246 164.845 191.745 164.234 191.745C163.624 191.756 163.125 191.257 163.125 190.636Z" fill="#5E5E5E"/>
<path d="M213.039 295.004C213.039 294.394 213.538 293.896 214.149 293.896C214.759 293.896 215.258 294.394 215.258 295.004C215.258 295.614 214.759 296.113 214.149 296.113C213.538 296.124 213.039 295.625 213.039 295.004Z" fill="#5E5E5E"/>
<path d="M172.375 351.605C172.375 350.996 172.874 350.497 173.484 350.497C174.095 350.497 174.594 350.996 174.594 351.605C174.594 352.215 174.095 352.714 173.484 352.714C172.874 352.714 172.375 352.215 172.375 351.605Z" fill="#5E5E5E"/>
<path d="M333.836 406.533C333.836 405.923 334.335 405.425 334.945 405.425C335.556 405.425 336.055 405.923 336.055 406.533C336.055 407.143 335.556 407.642 334.945 407.642C334.335 407.642 333.836 407.143 333.836 406.533Z" fill="#5E5E5E"/>
<path d="M226.906 308.617C226.906 308.007 227.406 307.508 228.016 307.508C228.626 307.508 229.125 308.007 229.125 308.617C229.125 309.226 228.626 309.725 228.016 309.725C227.406 309.725 226.906 309.226 226.906 308.617Z" fill="#5E5E5E"/>
<path d="M316.451 321.974C315.324 321.974 314.41 322.887 314.41 324.014C314.41 325.14 315.324 326.053 316.451 326.053C317.578 326.053 318.492 325.14 318.492 324.014C318.492 322.887 317.578 321.974 316.451 321.974Z" fill="#5E5E5E"/>
<path d="M372.944 295.071C372.944 294.273 373.587 293.63 374.386 293.63C375.185 293.63 375.828 294.273 375.828 295.071C375.828 295.869 375.185 296.512 374.386 296.512C373.587 296.512 372.944 295.858 372.944 295.071Z" fill="#5E5E5E"/>
<path d="M449.358 303.075C449.358 302.276 450.001 301.633 450.8 301.633C451.599 301.633 452.242 302.276 452.242 303.075C452.242 303.873 451.599 304.516 450.8 304.516C450.001 304.516 449.358 303.873 449.358 303.075Z" fill="#5E5E5E"/>
<path d="M449.358 358.5C449.358 357.702 450.001 357.059 450.8 357.059C451.599 357.059 452.242 357.702 452.242 358.5C452.242 359.298 451.599 359.941 450.8 359.941C450.001 359.941 449.358 359.287 449.358 358.5Z" fill="#5E5E5E"/>
<path d="M417.527 432.186C416.73 432.186 416.085 432.831 416.085 433.627C416.085 434.423 416.73 435.068 417.527 435.068C418.323 435.068 418.969 434.423 418.969 433.627C418.969 432.831 418.323 432.186 417.527 432.186Z" fill="#5E5E5E"/>
<path d="M523.928 358.5C523.928 357.702 524.572 357.059 525.37 357.059C526.169 357.059 526.813 357.702 526.813 358.5C526.813 359.298 526.169 359.941 525.37 359.941C524.572 359.941 523.928 359.287 523.928 358.5Z" fill="#5E5E5E"/>
<path d="M582.831 330.788C582.831 329.513 583.862 328.482 585.138 328.482C586.414 328.482 587.445 329.513 587.445 330.788C587.445 332.063 586.414 333.094 585.138 333.094C583.862 333.094 582.831 332.063 582.831 330.788Z" fill="#5E5E5E"/>
<path d="M499.488 413.096C498.691 413.096 498.045 413.741 498.045 414.537C498.045 415.333 498.691 415.978 499.488 415.978C500.284 415.978 500.93 415.333 500.93 414.537C500.93 413.741 500.284 413.096 499.488 413.096Z" fill="#5E5E5E"/>
<path d="M336.585 453.191C336.585 452.393 337.228 451.75 338.027 451.75C338.825 451.75 339.469 452.393 339.469 453.191C339.469 453.989 338.825 454.632 338.027 454.632C337.228 454.632 336.585 453.989 336.585 453.191Z" fill="#5E5E5E"/>
<path d="M325.081 454.045C324.285 454.045 323.639 454.69 323.639 455.486C323.639 456.282 324.285 456.927 325.081 456.927C325.878 456.927 326.523 456.282 326.523 455.486C326.523 454.69 325.878 454.045 325.081 454.045Z" fill="#5E5E5E"/>
<path d="M226.577 519.838C226.577 519.039 227.22 518.396 228.019 518.396C228.818 518.396 229.461 519.039 229.461 519.838C229.461 520.636 228.818 521.279 228.019 521.279C227.231 521.29 226.577 520.636 226.577 519.838Z" fill="#5E5E5E"/>
<path d="M351.374 396.058C351.374 395.26 352.017 394.617 352.816 394.617C353.614 394.617 354.258 395.26 354.258 396.058C354.258 396.857 353.614 397.5 352.816 397.5C352.017 397.5 351.374 396.857 351.374 396.058Z" fill="#5E5E5E"/>
<path d="M603.019 264.309C602.222 264.309 601.577 264.954 601.577 265.75C601.577 266.546 602.222 267.191 603.019 267.191C603.815 267.191 604.461 266.546 604.461 265.75C604.461 264.954 603.815 264.309 603.019 264.309Z" fill="#5E5E5E"/>
<path d="M260.733 390.826C260.733 390.028 261.376 389.385 262.175 389.385C262.974 389.385 263.617 390.028 263.617 390.826C263.617 391.624 262.974 392.267 262.175 392.267C261.388 392.267 260.733 391.624 260.733 390.826Z" fill="#5E5E5E"/>
<path d="M544.881 469.344C544.881 468.545 545.525 467.902 546.324 467.902C547.122 467.902 547.766 468.545 547.766 469.344C547.766 470.142 547.122 470.785 546.324 470.785C545.525 470.785 544.881 470.142 544.881 469.344Z" fill="#5E5E5E"/>
<path d="M530.914 283.985C527.851 283.985 525.368 286.467 525.368 289.528C525.368 292.589 527.851 295.071 530.914 295.071C533.978 295.071 536.461 292.589 536.461 289.528C536.461 286.467 533.978 283.985 530.914 283.985Z" fill="#5E5E5E"/>
<path d="M271.008 478.577C267.945 478.577 265.462 481.059 265.462 484.12C265.462 487.181 267.945 489.663 271.008 489.663C274.071 489.663 276.555 487.181 276.555 484.12C276.555 481.059 274.071 478.577 271.008 478.577Z" fill="#5E5E5E"/>
<path d="M400.883 497.056C397.82 497.056 395.337 499.537 395.337 502.598C395.337 505.66 397.82 508.141 400.883 508.141C403.946 508.141 406.43 505.66 406.43 502.598C406.43 499.537 403.946 497.056 400.883 497.056Z" fill="#5E5E5E"/>
<path d="M280.544 260.451C279.257 259.676 278.836 258.013 279.612 256.716C280.389 255.43 282.053 255.009 283.35 255.785C284.637 256.561 285.059 258.223 284.282 259.52C283.506 260.806 281.831 261.216 280.544 260.451Z" fill="#5E5E5E"/>
<path d="M216.388 145.285C215.101 144.509 214.679 142.847 215.456 141.55C216.232 140.264 217.896 139.843 219.194 140.619C220.481 141.394 220.902 143.057 220.126 144.354C219.349 145.64 217.686 146.061 216.388 145.285Z" fill="#5E5E5E"/>
<path d="M308.591 144.3C307.304 143.524 306.882 141.861 307.659 140.564C308.435 139.278 310.099 138.857 311.397 139.633C312.684 140.409 313.106 142.071 312.329 143.368C311.553 144.654 309.878 145.076 308.591 144.3Z" fill="#5E5E5E"/>
<path d="M162.833 333.116C161.546 332.34 161.125 330.677 161.901 329.38C162.678 328.094 164.342 327.673 165.639 328.449C166.926 329.225 167.348 330.888 166.571 332.185C165.795 333.471 164.131 333.892 162.833 333.116Z" fill="#5E5E5E"/>
<path d="M383.77 245.663C382.484 244.887 382.062 243.225 382.839 241.928C383.615 240.642 385.279 240.22 386.577 240.996C387.864 241.772 388.285 243.435 387.509 244.732C386.732 246.018 385.057 246.439 383.77 245.663Z" fill="#5E5E5E"/>
<path d="M387.77 350.352C386.484 349.576 386.062 347.914 386.839 346.617C387.615 345.331 389.279 344.909 390.577 345.685C391.864 346.461 392.285 348.124 391.509 349.421C390.732 350.707 389.068 351.128 387.77 350.352Z" fill="#5E5E5E"/>
<path d="M567.099 408.862C565.812 408.086 565.39 406.423 566.167 405.126C566.943 403.84 568.607 403.419 569.905 404.195C571.192 404.971 571.613 406.634 570.837 407.931C570.06 409.228 568.396 409.638 567.099 408.862Z" fill="#5E5E5E"/>
<path d="M467.88 494.462C466.593 493.686 466.171 492.023 466.948 490.726C467.725 489.44 469.388 489.019 470.686 489.795C471.973 490.571 472.395 492.234 471.618 493.531C470.842 494.816 469.167 495.238 467.88 494.462Z" fill="#5E5E5E"/>
<path d="M315.059 534.802C313.773 534.026 313.351 532.363 314.128 531.066C314.904 529.78 316.568 529.359 317.866 530.135C319.153 530.911 319.574 532.574 318.798 533.871C318.021 535.157 316.346 535.567 315.059 534.802Z" fill="#5E5E5E"/>
<path d="M494.388 529.558C493.101 528.782 492.679 527.12 493.456 525.823C494.232 524.537 495.896 524.115 497.194 524.891C498.481 525.667 498.902 527.33 498.126 528.627C497.349 529.924 495.674 530.334 494.388 529.558Z" fill="#5E5E5E"/>
<path d="M467.88 226.574C466.593 225.798 466.171 224.135 466.948 222.838C467.725 221.552 469.388 221.131 470.686 221.907C471.973 222.683 472.395 224.346 471.618 225.643C470.842 226.929 469.167 227.35 467.88 226.574Z" fill="#5E5E5E"/>
<path d="M535.631 215.623C535.631 214.825 536.275 214.182 537.074 214.182C537.872 214.182 538.516 214.825 538.516 215.623C538.516 216.421 537.872 217.064 537.074 217.064C536.286 217.064 535.631 216.421 535.631 215.623Z" fill="#5E5E5E"/>
<path d="M549.394 214.182C548.597 214.182 547.952 214.827 547.952 215.623C547.952 216.419 548.597 217.064 549.394 217.064C550.19 217.064 550.836 216.419 550.836 215.623C550.836 214.827 550.19 214.182 549.394 214.182Z" fill="#5E5E5E"/>
<path d="M593.766 244.411C592.657 244.411 591.758 245.31 591.758 246.418C591.758 247.526 592.657 248.424 593.766 248.424C594.875 248.424 595.773 247.526 595.773 246.418C595.773 245.31 594.875 244.411 593.766 244.411Z" fill="#5E5E5E"/>
<path d="M584.223 182.367C584.223 181.003 585.321 179.906 586.686 179.906C588.05 179.906 589.148 181.003 589.148 182.367C589.148 183.73 588.05 184.828 586.686 184.828C585.332 184.828 584.223 183.73 584.223 182.367Z" fill="#5E5E5E"/>
<path d="M108.523 512.574L177.633 547.405L106.16 582.445L108.523 512.574Z" stroke="#5E5E5E" stroke-width="0.3333" stroke-miterlimit="10"/>
<path d="M108.516 512.574L52.041 549.422L106.153 582.445L108.516 512.574Z" stroke="#5E5E5E" stroke-width="0.3333" stroke-miterlimit="10"/>
<path d="M52.0444 549.422L48.5613 619.891L106.156 582.445L52.0444 549.422Z" stroke="#5E5E5E" stroke-width="0.3333" stroke-miterlimit="10"/>
<path d="M177.96 548.79C177.194 548.967 176.429 548.502 176.24 547.737C176.063 546.972 176.529 546.207 177.294 546.019C178.059 545.841 178.825 546.307 179.013 547.072C179.202 547.837 178.725 548.613 177.96 548.79Z" fill="#5E5E5E"/>
<path d="M108.773 513.65C108.174 513.794 107.575 513.428 107.43 512.829C107.286 512.231 107.652 511.632 108.251 511.488C108.85 511.344 109.449 511.71 109.594 512.308C109.738 512.907 109.372 513.506 108.773 513.65Z" fill="#5E5E5E"/>
<path d="M54.6447 550.243C54.1899 551.673 52.659 552.471 51.228 552.016C49.797 551.562 48.9984 550.032 49.4532 548.602C49.908 547.172 51.4388 546.374 52.8698 546.828C54.3119 547.283 55.0995 548.813 54.6447 550.243Z" fill="#5E5E5E"/>
<path d="M117.758 1.1092L105.178 67.3662L53.3295 27.2484L117.758 1.1092Z" stroke="#5E5E5E" stroke-width="0.3333" stroke-miterlimit="10"/>
<path d="M74.5234 63.5637L12.1029 45.3948L0.976662 105.012L74.5234 63.5637Z" stroke="#5E5E5E" stroke-width="0.3333" stroke-miterlimit="10"/>
<path d="M102.57 66.6015C102.991 65.1493 104.511 64.3179 105.964 64.7391C107.418 65.1604 108.25 66.6791 107.828 68.1312C107.406 69.5834 105.887 70.4148 104.434 69.9936C102.98 69.5612 102.148 68.0426 102.57 66.6015Z" fill="#5E5E5E"/>
<path d="M73.1583 63.1647C73.3802 62.4109 74.1678 61.9786 74.9221 62.2003C75.6764 62.422 76.109 63.209 75.8872 63.9628C75.6653 64.7166 74.8777 65.149 74.1234 64.9273C73.3691 64.7166 72.9365 63.9185 73.1583 63.1647Z" fill="#5E5E5E"/>
<path d="M52.2999 26.8277C52.4663 26.2402 53.0875 25.8965 53.6755 26.0739C54.2634 26.2402 54.6073 26.861 54.4298 27.4485C54.2523 28.036 53.6422 28.3796 53.0543 28.2023C52.4663 28.0249 52.1335 27.4152 52.2999 26.8277Z" fill="#5E5E5E"/>
</g>
</g>
</svg>
