<?xml version="1.0" encoding="utf-8"?>
<!-- Generator: Adobe Illustrator 27.3.1, SVG Export Plug-In . SVG Version: 6.00 Build 0)  -->
<svg version="1.1" id="Layer_1" xmlns="http://www.w3.org/2000/svg" xmlns:xlink="http://www.w3.org/1999/xlink" x="0px" y="0px"
	 viewBox="0 0 2000 1500" style="enable-background:new 0 0 2000 1500;" xml:space="preserve">
<style type="text/css">
	.st0{fill:#FFFFFF;}
	.st1{display:none;}
	.st2{display:inline;}
	.st3{font-family:'OpenSans-Italic';}
	.st4{font-size:15.4144px;}
	.st5{letter-spacing:4;}
	.st6{font-family:'TTWellingtonsTrl-Medium';}
	.st7{font-size:42.0866px;}
	.st8{font-family:'TTWellingtonsTrl-ExtraBold';}
	.st9{fill:#222222;}
	.st10{fill:#E50010;}
</style>
<rect class="st0" width="2000" height="1500"/>
<g class="st1">
	<g class="st2">
		<text transform="matrix(1 0 0 1 1006.002 470.876)" class="st3 st4 st5">PRIVATE Limited</text>
	</g>
	<g class="st2">
		<text transform="matrix(1 0 0 1 899.3228 448.8057)"><tspan x="0" y="0" class="st6 st7">databrix</tspan><tspan x="174.24" y="0" class="st8 st7">SOFT</tspan></text>
	</g>
</g>
<g>
	<g>
		<path class="st9" d="M1039.68,800.02c4.55,0,7.87,0.91,9.97,2.72c2.1,1.82,3.15,4.4,3.15,7.74c0,1.51-0.24,2.95-0.72,4.3
			c-0.48,1.36-1.27,2.56-2.35,3.59c-1.09,1.04-2.51,1.86-4.28,2.46c-1.77,0.6-3.94,0.9-6.51,0.9h-4.03v13.52h-4.94v-35.25H1039.68z
			 M1039.29,804.17h-4.39v13.4h3.5c2.04,0,3.75-0.23,5.14-0.69c1.38-0.46,2.43-1.19,3.13-2.21c0.71-1.01,1.06-2.35,1.06-4
			c0-2.19-0.68-3.82-2.05-4.89C1044.32,804.71,1042.19,804.17,1039.29,804.17z"/>
		<path class="st9" d="M1084.53,800.02c2.97,0,5.43,0.37,7.37,1.1c1.94,0.73,3.38,1.84,4.33,3.33c0.95,1.49,1.42,3.37,1.42,5.65
			c0,1.8-0.33,3.32-0.99,4.56c-0.66,1.24-1.52,2.25-2.59,3.04s-2.21,1.41-3.44,1.86l9.86,15.72h-5.67l-8.58-14.42h-6.49v14.42h-4.94
			v-35.25H1084.53z M1084.22,804.21h-4.46v12.51h4.8c2.78,0,4.81-0.54,6.1-1.63c1.29-1.09,1.93-2.69,1.93-4.81
			c0-2.2-0.68-3.76-2.05-4.69C1089.17,804.68,1087.06,804.21,1084.22,804.21z"/>
		<path class="st9" d="M1120.63,835.27v-35.25h4.94v35.25H1120.63z"/>
		<path class="st9" d="M1175.27,800.02l-12.49,35.25h-5.14l-12.49-35.25h5.11l7.84,22.66c0.29,0.79,0.56,1.62,0.82,2.49
			c0.26,0.88,0.5,1.75,0.72,2.62c0.23,0.87,0.41,1.66,0.55,2.39c0.14-0.72,0.33-1.52,0.54-2.39c0.22-0.87,0.46-1.75,0.73-2.64
			c0.27-0.89,0.55-1.74,0.82-2.54l7.81-22.59H1175.27z"/>
		<path class="st9" d="M1216.8,835.27l-3.91-10.49h-13.81l-3.86,10.49h-5.14l13.45-35.39h5.06l13.38,35.39H1216.8z M1211.52,820.49
			l-3.71-10.39c-0.11-0.35-0.29-0.88-0.52-1.59c-0.23-0.71-0.47-1.44-0.7-2.19c-0.23-0.75-0.42-1.38-0.57-1.88
			c-0.16,0.66-0.35,1.35-0.55,2.09c-0.21,0.73-0.41,1.41-0.61,2.05c-0.2,0.63-0.37,1.14-0.49,1.53l-3.76,10.39H1211.52z"/>
		<path class="st9" d="M1253.09,835.27h-4.97v-30.98h-10.7v-4.27h26.35v4.27h-10.68V835.27z"/>
		<path class="st9" d="M1303.73,835.27h-19.79v-35.25h19.79v4.24h-14.85v10.49h13.96v4.19h-13.96V831h14.85V835.27z"/>
		<path class="st9" d="M1353.87,835.27v-35.25h4.94v30.96h15.31v4.29H1353.87z"/>
		<path class="st9" d="M1394.99,835.27v-35.25h4.94v35.25H1394.99z"/>
		<path class="st9" d="M1439.6,835.27l-10.99-30.3h-0.19c0.05,0.66,0.1,1.5,0.16,2.54c0.06,1.04,0.1,2.16,0.15,3.37
			c0.04,1.21,0.06,2.41,0.06,3.58v20.81h-4.53v-35.25h7.11l10.44,28.71h0.17l10.7-28.71h7.06v35.25h-4.77v-21.1
			c0-1.06,0.02-2.16,0.05-3.31c0.03-1.15,0.08-2.24,0.13-3.28c0.06-1.04,0.11-1.89,0.16-2.57h-0.22l-11.26,30.26H1439.6z"/>
		<path class="st9" d="M1483.99,835.27v-35.25h4.94v35.25H1483.99z"/>
		<path class="st9" d="M1524.77,835.27h-4.97v-30.98h-10.71v-4.27h26.35v4.27h-10.68V835.27z"/>
		<path class="st9" d="M1575.41,835.27h-19.79v-35.25h19.79v4.24h-14.85v10.49h13.96v4.19h-13.96V831h14.85V835.27z"/>
		<path class="st9" d="M1626.22,817.31c0,3.97-0.73,7.28-2.19,9.94c-1.46,2.66-3.58,4.66-6.35,6c-2.77,1.34-6.14,2.01-10.09,2.01
			h-9.67v-35.25h10.75c3.6,0,6.71,0.65,9.33,1.96c2.62,1.31,4.65,3.25,6.08,5.81C1625.5,810.36,1626.22,813.53,1626.22,817.31z
			 M1621.04,817.45c0-3.02-0.49-5.51-1.47-7.47c-0.98-1.96-2.42-3.42-4.31-4.38c-1.9-0.96-4.22-1.43-6.97-1.43h-5.42v26.91h4.56
			c4.55,0,7.96-1.14,10.22-3.42C1619.9,825.37,1621.04,821.97,1621.04,817.45z"/>
	</g>
	<g>
		<rect x="1277.89" y="664.73" class="st10" width="348.33" height="110.11"/>
		<g>
			<g>
				<path class="st9" d="M716.22,764.57v-88.36h19.28v88.36H716.22z M725.32,764.57v-15.8h25.17c4.73,0,8.72-1.03,11.98-3.08
					c3.26-2.05,5.73-5.15,7.43-9.3c1.69-4.15,2.54-9.39,2.54-15.73c0-5-0.51-9.3-1.54-12.92c-1.03-3.61-2.57-6.56-4.62-8.84
					c-2.05-2.28-4.62-3.99-7.7-5.15c-3.08-1.16-6.72-1.74-10.91-1.74h-22.36v-15.8h21.55c10.62,0,19.3,1.74,26.04,5.22
					c6.74,3.48,11.69,8.46,14.86,14.93c3.17,6.47,4.75,14.21,4.75,23.23c0,6.78-0.8,12.7-2.41,17.74c-1.61,5.04-3.77,9.3-6.49,12.78
					c-2.72,3.48-5.85,6.29-9.37,8.43c-3.53,2.14-7.28,3.68-11.25,4.62c-3.97,0.94-7.97,1.41-11.98,1.41H725.32z"/>
				<path class="st9" d="M822.51,766.45c-3.75,0-7.16-0.74-10.24-2.21c-3.08-1.47-5.51-3.66-7.3-6.56
					c-1.79-2.9-2.68-6.58-2.68-11.04c0-3.93,0.76-7.21,2.28-9.84c1.52-2.63,3.7-4.77,6.56-6.43c2.86-1.65,6.27-2.97,10.24-3.95
					c3.97-0.98,8.37-1.87,13.19-2.68c3.39-0.54,6.07-1.03,8.03-1.47c1.96-0.45,3.39-1.09,4.28-1.94c0.89-0.85,1.34-2.12,1.34-3.82
					c0-2.68-0.94-4.89-2.81-6.63c-1.87-1.74-4.73-2.61-8.57-2.61c-2.41,0-4.71,0.45-6.89,1.34c-2.19,0.89-4.04,2.26-5.56,4.08
					c-1.52,1.83-2.5,4.22-2.95,7.16l-17.14-4.15c0.8-4.1,2.19-7.63,4.15-10.58c1.96-2.95,4.4-5.35,7.3-7.23
					c2.9-1.87,6.2-3.26,9.91-4.15c3.7-0.89,7.61-1.34,11.71-1.34c6.78,0,12.36,1.14,16.73,3.41c4.37,2.28,7.63,5.74,9.77,10.38
					c2.14,4.64,3.21,10.49,3.21,17.54v12.18c0,3.13,0.04,6.29,0.13,9.51c0.09,3.21,0.22,6.43,0.4,9.64c0.18,3.21,0.4,6.38,0.67,9.51
					h-17c-0.27-2.59-0.51-5.4-0.74-8.43c-0.22-3.03-0.38-6.16-0.47-9.37h-2.01c-0.98,3.66-2.63,6.98-4.95,9.97
					c-2.32,2.99-5.22,5.36-8.7,7.1C830.95,765.58,826.98,766.45,822.51,766.45z M830.55,752.39c1.78,0,3.57-0.31,5.35-0.94
					c1.78-0.62,3.5-1.56,5.15-2.81c1.65-1.25,3.15-2.83,4.48-4.75c1.34-1.92,2.32-4.17,2.95-6.76l-0.13-8.97l3.08,0.27
					c-1.34,1.16-3.04,2.08-5.09,2.74c-2.05,0.67-4.22,1.2-6.49,1.61c-2.28,0.4-4.53,0.8-6.76,1.2c-2.23,0.4-4.26,0.96-6.09,1.67
					c-1.83,0.72-3.28,1.7-4.35,2.95c-1.07,1.25-1.61,2.95-1.61,5.09c0,2.77,0.89,4.91,2.68,6.43
					C825.5,751.63,827.78,752.39,830.55,752.39z"/>
				<path class="st9" d="M908.33,766.18c-7.94,0-13.77-2.08-17.47-6.23c-3.7-4.15-5.56-10.69-5.56-19.61v-30.92h-9.64l0.27-14.32
					h5.49c3.3-0.18,5.71-0.91,7.23-2.21c1.52-1.29,2.45-3.46,2.81-6.49l1.34-7.9h11.11v15.8h17.4v15.66h-17.4v29.45
					c0,3.21,0.76,5.56,2.28,7.03c1.52,1.47,3.75,2.21,6.69,2.21c1.61,0,3.19-0.18,4.75-0.54c1.56-0.36,2.92-0.94,4.08-1.74v17.67
					c-2.68,0.89-5.15,1.47-7.43,1.74C912.01,766.05,910.02,766.18,908.33,766.18z"/>
				<path class="st9" d="M950.5,766.45c-3.75,0-7.16-0.74-10.24-2.21c-3.08-1.47-5.51-3.66-7.3-6.56c-1.79-2.9-2.68-6.58-2.68-11.04
					c0-3.93,0.76-7.21,2.28-9.84c1.52-2.63,3.7-4.77,6.56-6.43c2.86-1.65,6.27-2.97,10.24-3.95c3.97-0.98,8.37-1.87,13.19-2.68
					c3.39-0.54,6.07-1.03,8.03-1.47c1.96-0.45,3.39-1.09,4.28-1.94c0.89-0.85,1.34-2.12,1.34-3.82c0-2.68-0.94-4.89-2.81-6.63
					c-1.87-1.74-4.73-2.61-8.57-2.61c-2.41,0-4.71,0.45-6.89,1.34c-2.19,0.89-4.04,2.26-5.56,4.08c-1.52,1.83-2.5,4.22-2.95,7.16
					l-17.14-4.15c0.8-4.1,2.19-7.63,4.15-10.58c1.96-2.95,4.4-5.35,7.3-7.23c2.9-1.87,6.2-3.26,9.91-4.15
					c3.7-0.89,7.61-1.34,11.71-1.34c6.78,0,12.36,1.14,16.73,3.41c4.37,2.28,7.63,5.74,9.77,10.38c2.14,4.64,3.21,10.49,3.21,17.54
					v12.18c0,3.13,0.04,6.29,0.13,9.51c0.09,3.21,0.22,6.43,0.4,9.64c0.18,3.21,0.4,6.38,0.67,9.51h-17
					c-0.27-2.59-0.51-5.4-0.74-8.43c-0.22-3.03-0.38-6.16-0.47-9.37h-2.01c-0.98,3.66-2.63,6.98-4.95,9.97
					c-2.32,2.99-5.22,5.36-8.7,7.1C958.93,765.58,954.96,766.45,950.5,766.45z M958.53,752.39c1.78,0,3.57-0.31,5.35-0.94
					c1.78-0.62,3.5-1.56,5.15-2.81c1.65-1.25,3.15-2.83,4.48-4.75c1.34-1.92,2.32-4.17,2.95-6.76l-0.13-8.97l3.08,0.27
					c-1.34,1.16-3.04,2.08-5.09,2.74c-2.05,0.67-4.22,1.2-6.49,1.61c-2.28,0.4-4.53,0.8-6.76,1.2c-2.23,0.4-4.26,0.96-6.09,1.67
					c-1.83,0.72-3.28,1.7-4.35,2.95c-1.07,1.25-1.61,2.95-1.61,5.09c0,2.77,0.89,4.91,2.68,6.43
					C953.49,751.63,955.76,752.39,958.53,752.39z"/>
				<path class="st9" d="M1010.87,764.57v-88.36h36.15c5.35,0,10.17,0.47,14.46,1.41c4.28,0.94,7.94,2.37,10.98,4.28
					c3.03,1.92,5.36,4.35,6.96,7.3c1.61,2.95,2.41,6.38,2.41,10.31c0,3.48-0.74,6.56-2.21,9.24c-1.47,2.68-3.75,4.84-6.83,6.49
					c-3.08,1.65-7.21,2.79-12.38,3.41v1.74c8.57,0.63,14.88,2.74,18.94,6.36c4.06,3.61,6.09,8.5,6.09,14.66
					c0,5.09-1.34,9.35-4.02,12.78c-2.68,3.44-6.61,6.02-11.78,7.76c-5.18,1.74-11.6,2.61-19.28,2.61H1010.87z M1029.48,713.57h14.19
					c6.51,0,11.36-0.94,14.53-2.81c3.17-1.87,4.75-4.69,4.75-8.43c0-3.66-1.45-6.36-4.35-8.1c-2.9-1.74-7.25-2.61-13.05-2.61h-16.06
					V713.57z M1029.48,749.04h20.35c5.62,0,9.79-0.87,12.52-2.61c2.72-1.74,4.08-4.44,4.08-8.1c0-4.1-1.67-7.18-5.02-9.24
					c-3.35-2.05-8.46-3.08-15.33-3.08h-16.6V749.04z"/>
				<path class="st9" d="M1098.56,764.57v-34.81v-35.48h16.2l-0.13,25.3h2.28c0.62-6.34,1.78-11.49,3.48-15.46
					c1.69-3.97,4.02-6.87,6.96-8.7c2.94-1.83,6.56-2.74,10.84-2.74c0.98,0,2.03,0.07,3.15,0.2c1.11,0.13,2.34,0.42,3.68,0.87
					l-0.8,20.62c-1.52-0.71-3.1-1.23-4.75-1.54c-1.65-0.31-3.1-0.47-4.35-0.47c-3.39,0-6.29,0.83-8.7,2.48
					c-2.41,1.65-4.33,4.06-5.76,7.23c-1.43,3.17-2.37,7.07-2.81,11.71v30.79H1098.56z"/>
				<path class="st9" d="M1164.56,684.92c-3.75,0-6.63-0.78-8.63-2.34c-2.01-1.56-3.01-3.86-3.01-6.89c0-3.12,1-5.47,3.01-7.03
					c2.01-1.56,4.89-2.34,8.63-2.34c3.84,0,6.74,0.8,8.7,2.41c1.96,1.61,2.94,3.93,2.94,6.96c0,2.95-0.98,5.22-2.94,6.83
					C1171.3,684.12,1168.4,684.92,1164.56,684.92z M1154.92,764.57v-70.28h19.28v70.28H1154.92z"/>
				<path class="st9" d="M1183.7,764.57l23.16-35.21l-23.16-35.08h22.22l12.58,25.7h2.01l12.45-25.7h22.09l-22.89,35.08l23.16,35.21
					h-22.22l-12.72-25.84h-1.87l-12.58,25.84H1183.7z"/>
			</g>
		</g>
		<g>
			<path class="st0" d="M1326.95,765.84c-5.8,0-11-0.6-15.6-1.81c-4.6-1.21-8.52-2.99-11.78-5.36c-3.26-2.36-5.74-5.31-7.43-8.84
				c-1.7-3.52-2.63-7.56-2.81-12.12l17.27-4.95c0.09,4.11,1.05,7.5,2.88,10.17c1.83,2.68,4.35,4.64,7.56,5.89
				c3.21,1.25,6.87,1.87,10.98,1.87c3.75,0,6.94-0.47,9.57-1.41c2.63-0.94,4.66-2.21,6.09-3.81c1.43-1.61,2.14-3.39,2.14-5.35
				c0-2.32-0.89-4.22-2.68-5.69c-1.79-1.47-4.22-2.7-7.3-3.68c-3.08-0.98-6.54-1.92-10.38-2.81c-4.28-1.07-8.48-2.21-12.58-3.41
				c-4.11-1.2-7.83-2.79-11.18-4.75c-3.35-1.96-6-4.51-7.97-7.63c-1.96-3.12-2.95-7.05-2.95-11.78c0-5.44,1.38-10.13,4.15-14.06
				c2.77-3.93,6.74-7.01,11.91-9.24c5.17-2.23,11.38-3.35,18.61-3.35c7.23,0,13.52,1.12,18.88,3.35c5.36,2.23,9.51,5.4,12.45,9.51
				c2.94,4.11,4.42,9.02,4.42,14.73l-17.54,4.28c0.09-2.77-0.29-5.2-1.14-7.3c-0.85-2.1-2.08-3.84-3.68-5.22
				c-1.61-1.38-3.55-2.45-5.82-3.21c-2.28-0.76-4.89-1.14-7.83-1.14c-3.39,0-6.29,0.45-8.7,1.34c-2.41,0.89-4.24,2.1-5.49,3.61
				c-1.25,1.52-1.87,3.26-1.87,5.22c0,2.41,0.94,4.37,2.81,5.89c1.87,1.52,4.44,2.77,7.7,3.75c3.26,0.98,6.85,1.92,10.78,2.81
				c3.84,0.89,7.72,1.94,11.65,3.15c3.93,1.21,7.58,2.79,10.98,4.75c3.39,1.96,6.11,4.57,8.17,7.83c2.05,3.26,3.08,7.34,3.08,12.25
				c0,5.44-1.43,10.15-4.28,14.12c-2.86,3.97-7.07,7.03-12.65,9.17C1341.79,764.77,1334.98,765.84,1326.95,765.84z"/>
			<path class="st0" d="M1415.84,765.84c-6.43,0-12.16-1-17.2-3.01c-5.04-2.01-9.35-4.95-12.92-8.84
				c-3.57-3.88-6.29-8.66-8.17-14.32c-1.87-5.67-2.81-12.16-2.81-19.48c0-10.44,1.78-19.08,5.35-25.9
				c3.57-6.83,8.5-11.96,14.79-15.4c6.29-3.43,13.5-5.15,21.62-5.15c6.16,0,11.76,1,16.8,3.01c5.04,2.01,9.35,4.93,12.92,8.77
				c3.57,3.84,6.34,8.63,8.3,14.39c1.96,5.76,2.95,12.38,2.95,19.88c0,7.59-0.98,14.24-2.95,19.95c-1.96,5.71-4.78,10.51-8.43,14.39
				c-3.66,3.88-8.06,6.81-13.19,8.77C1427.78,764.86,1422.09,765.84,1415.84,765.84z M1416.38,750.31c4.64,0,8.54-1.14,11.71-3.41
				c3.17-2.28,5.56-5.6,7.16-9.97c1.61-4.37,2.41-9.77,2.41-16.2c0-6.6-0.85-12.23-2.54-16.87c-1.7-4.64-4.15-8.17-7.36-10.58
				c-3.21-2.41-7.19-3.61-11.91-3.61c-4.46,0-8.3,1.16-11.51,3.48c-3.21,2.32-5.65,5.74-7.3,10.24c-1.65,4.51-2.48,10.02-2.48,16.53
				c0,4.91,0.47,9.26,1.41,13.05c0.94,3.79,2.32,6.96,4.15,9.51c1.83,2.54,4.13,4.48,6.89,5.82
				C1409.77,749.64,1412.9,750.31,1416.38,750.31z"/>
			<path class="st0" d="M1472.07,763.97v-88.36h19.28v88.36H1472.07z M1481.3,692.08v-16.47h55.02v16.47H1481.3z M1481.3,731.04
				v-15.93h49.93v15.93H1481.3z"/>
			<path class="st0" d="M1545.03,691.81v-16.2h69.75v16.2H1545.03z M1570.2,763.97v-88.36h19.28v88.36H1570.2z"/>
		</g>
	</g>
</g>
<g>
	<path class="st10" d="M525.7,818.83c6.16-9.19,10.19-19.36,13.51-29.85c2.15-6.79,3.85-13.68,4.78-20.74
		c0.1-0.74,0.5-0.74,1.06-0.74c6.86,0.03,13.71-0.04,20.56,0.09c7.75,0.14,15.52-0.25,23.24,0.86c4.08,0.59,8.02,1.64,11.64,3.64
		c2.92,1.62,5.09,3.89,6.01,7.22c1,3.62,0.55,7.2-0.26,10.74c-1.33,5.84-3.82,8.27-9.6,9.25c-3.79,0.64-7.67,0.94-11.52,0.99
		c-11.5,0.17-23,0.15-34.5,0.19c-0.69,0-1.05,0.09-1.19,0.89c-0.68,3.85-1.84,7.54-3.85,10.94c-0.1,0.17-0.1,0.4-0.15,0.61
		c5.83,0.13,11.57,0.38,17.31,0.37c9.89-0.01,19.77-0.1,29.66-0.32c2.89-0.06,5.81-0.49,8.64-1.11c9.19-2,15.15-7.59,17.47-16.71
		c1.42-5.56,1.8-11.27,0.82-16.97c-1.39-8.12-5.16-14.68-12.64-18.74c-3.93-2.13-8.18-3.37-12.55-3.89
		c-5.55-0.66-11.13-1.09-16.71-1.27c-15.27-0.48-30.56-0.78-45.83-1.15c-0.18-0.01-0.36,0.08-0.58,0.12
		c-0.04,0.43-0.08,0.82-0.11,1.21c-0.56,8.33-1.67,16.57-3.72,24.67c-3.17,12.47-7.72,24.32-15.47,34.76
		c-4.01,5.4-8.91,9.85-14.49,13.56c-0.84,0.56-1.86,0.84-2.71,1.39c-2.11,1.36-4.22,2.71-6.52,3.53c-0.01,0-0.01,0.01-0.02,0.01
		c-2.39,0.92-4.4,1.62-6.07,2.15c-0.84,0.27-1.6,0.5-2.28,0.69c-3.52,1-4.93,1.06-5.03,1.06c0,0-0.01,0-0.01,0
		c-5.35,0.67-10.69,1.65-16.05,1.74c-15.16,0.26-30.33,0.13-45.5,0.06c-5.42-0.02-10.85-0.26-16.27-0.5c-2.67-0.12-5.33-0.46-8-0.68
		c-1.19-0.1-1.58-0.7-1.55-1.87c0.11-5.5,0.17-11,0.23-16.51c0.1-10.54,0.2-21.08,0.29-31.62c0.24-29.81,0.47-59.63,0.67-89.44
		c0.01-0.95,0.26-1.19,1.19-1.19c8.9,0.01,17.81-0.08,26.71-0.04c14.22,0.05,28.44,0.14,42.66,0.27c4.63,0.05,9.18,0.67,13.45,2.64
		c7.32,3.37,11.99,9.15,14.83,16.5c3.19,8.24,4.74,16.87,5.15,25.66c0.43,9.25-0.09,18.47-2.07,27.56
		c-1.23,5.64-2.6,11.26-5.24,16.45c-4.6,9.01-11.96,14.54-22,15.1c-12.81,0.72-25.67,0.45-38.51,0.62
		c-0.74,0.01-0.94-0.29-0.91-0.99c0.06-1.34,0.08-2.68,0.08-4.01c-0.01-19.74-0.02-39.49-0.03-59.24c0-1.49,0-2.98,0-4.61
		c-0.35-0.04-0.53-0.08-0.72-0.08c-3.35,0-6.7-0.04-10.05,0.02c-2.12,0.04-2.1-0.48-2.1,2.1c0,12.47,0,24.94,0.01,37.41
		c0.01,12.41,0.02,24.82,0.06,37.24v0.26c0,0.4,0,0.81,0,1.21c0,0.05,0,0.1,0,0.15v2.77c0.03,0.16,0.04,0.33,0.04,0.51
		c1.64,0,3.2,0.01,4.77,0c12.53-0.13,25.05-0.26,37.58-0.39c6.31-0.07,12.59-0.42,18.69-2.22c13.27-3.92,22.8-12.01,27.56-25.14
		c3.86-10.64,5.76-21.71,6.12-33.01c0.3-9.21-0.2-18.39-1.86-27.48c-1.15-6.31-2.7-12.51-5.42-18.36
		c-4.65-10.02-11.86-17.39-22.26-21.46c-7.52-2.95-15.41-3.81-23.4-3.83c-20.33-0.05-40.66-0.03-60.98,0.02
		c-5.93,0.01-11.87,0.24-17.88,0.38c-0.02,0.4-0.06,0.7-0.06,1c0.1,14.2,0.19,28.4,0.3,42.59c0.11,15.22,0.23,30.43,0.33,45.65
		c0.09,13.61,0.15,27.22,0.25,40.83c0.09,11.72,0.2,23.44,0.32,35.16c0.01,0.84,0.12,1.68,0.18,2.55c0.57,0.03,0.96,0.06,1.35,0.06
		c30.86,0.01,61.72,0.52,92.58-0.25c5.3-0.13,10.51-0.8,15.65-2.04C502.28,843.65,515.75,833.68,525.7,818.83z"/>
	<path class="st10" d="M659.72,792.53c-1.03,8.78-3.41,17.17-7.23,25.13c-7.34,15.28-19.05,25.29-35.67,29.41
		c-6.3,1.56-12.7,1.72-19.12,1.8c-15.64,0.2-31.27,0.36-46.91,0.41c-8.7,0.03-17.41-0.2-26.11-0.26c-4.13-0.03-8.27,0.08-12.4,0.12
		c-0.49,0.01-0.98,0-1.48,0l-0.07-0.27c0.35-0.21,0.69-0.44,1.05-0.62c5.12-2.57,9.77-5.83,13.35-10.3
		c1.37-1.71,2.73-1.88,4.61-1.87c13.47,0.1,26.95,0.24,40.42,0.09c10.63-0.11,21.27-0.42,31.89-0.99
		c12.45-0.67,23.25-5.32,31.78-14.58c6.51-7.08,10.1-15.53,11.3-25.04c0.81-6.38,0.77-12.79-0.58-19.02
		c-2.33-10.67-7.68-19.46-17.86-24.44c-4.15-2.03-8.08-4.46-12.27-6.42c-0.84-0.4-1.67-0.82-2.71-1.34c0.53-0.27,0.9-0.46,1.26-0.65
		c4.3-2.3,8.7-4.43,12.87-6.95c6.88-4.16,11.24-10.36,13.36-18.04c1.68-6.08,2.01-12.3,1.34-18.58c-0.58-5.4-1.89-10.58-4.5-15.39
		c-4.18-7.7-10.68-12.76-18.55-16.26c-5.23-2.32-10.73-3.5-16.4-4.12c-12.88-1.39-25.8-1.03-38.71-1.06
		c-10.28-0.03-20.56-0.01-30.84,0.01c-0.7,0-0.98-0.17-0.98-0.92c0.02-3.82-0.01-7.63-0.03-11.45c0-0.62,0.27-0.78,0.88-0.77
		c13.79,0.04,27.58-0.01,41.37,0.1c7.64,0.06,15.28,0.33,22.92,0.59c4.29,0.15,8.58,0.3,12.85,0.77
		c12.34,1.35,22.98,6.33,31.55,15.4c7.89,8.35,12.48,18.29,14.04,29.65c1.43,10.45-0.25,20.42-4.57,30
		c-0.09,0.21-0.2,0.41-0.31,0.62c-0.07,0.13-0.14,0.26-0.2,0.39l-0.01,0.02l-1.73,3.38c-0.11,0.19-0.21,0.4-0.31,0.6l-0.01,0.01
		c-0.1,0.22-0.21,0.44-0.33,0.64c-2.67,4.51-6.53,7.81-10.91,10.59c-0.57,0.36-1.08,0.81-1.89,1.41c0.84,0.31,1.33,0.49,1.82,0.68
		c7.03,2.64,12.65,7.1,17,13.17c0.6,0.84,1.04,1.78,1.54,2.69l2.08,4.32l0.01,0.01c0.12,0.36,0.32,0.72,0.46,1.08
		C659.84,774.81,660.78,783.55,659.72,792.53z"/>
	<path class="st10" d="M464.25,662.96c6.68,0.02,13.26,0.85,19.68,2.79c16.28,4.92,28.65,14.68,36.96,29.57
		c5.16,9.25,7.09,19.42,8.64,29.69c0.59,3.88,0.91,7.81,1.33,11.71c0.08,0.73,0.29,1.08,1.14,1.09c10.12,0.11,20.24,0.34,30.36,0.39
		c12.15,0.05,24.22-0.75,36.07-3.71c7.15-1.78,12.48-5.7,15.15-12.71c2.32-6.09,2.83-12.37,1.59-18.77
		c-1.75-8.98-7.15-14.66-15.85-17.21c-3.89-1.14-7.93-1.13-11.96-1.03c-1.05,0.03-2.1,0.01-3.09,0.01c0.1,3.94,0.21,7.62,0.3,11.31
		c0.04,1.76,0.04,1.7,1.85,1.83c2.43,0.17,4.86,0.35,7.27,0.68c0.18,0.03,0.34,0.05,0.49,0.08l0,0c0,0,1.95-0.35,5.23,3.33
		c0.24,0.26,0.47,0.52,0.68,0.8c0.01,0.01,0.02,0.03,0.03,0.04c0.01,0.01,0.02,0.02,0.03,0.04c0.96,1.24,1.59,2.66,1.71,4.29
		c0.13,1.83,0.14,3.7-0.05,5.52c-0.48,4.77-3.91,8.63-8.55,9.47c-3.91,0.71-7.84,1.38-11.8,1.65c-12.22,0.82-24.47,1.21-36.72,1.09
		c-0.42-0.01-0.83-0.06-1.09-0.08c-0.69-3.12-1.27-6.09-2-9.02c-1.86-7.47-4.13-14.81-7.12-21.92
		c-5.01-11.91-12.2-22.15-22.79-29.77c-9.75-7.02-20.67-11.22-32.6-12.4c-9.43-0.93-18.92-1.57-28.39-1.84
		c-10.78-0.31-21.58-0.08-32.38-0.05c-2.39,0.01-4.78,0.15-7.18,0.23v12.87c0.18,0.03,0.25,0.05,0.33,0.05
		C429.12,662.94,446.68,662.91,464.25,662.96z"/>
</g>
</svg>
